<svg xmlns="http://www.w3.org/2000/svg" viewBox="0 0 718.76 244.95"><title>before condition</title><g id="Layer_2" data-name="Layer 2"><g id="people"><path d="M.1,40.15V.5C2.55-.27,715.09,0,718.49.42V39.91c-.87.05-1.71.15-2.55.15-10.64,0-21.28.09-31.91.09q-99,0-198,0-52.68,0-105.35.09-27.36,0-54.71,0l-322-.06Z" fill="#c6daff"/><path d="M543.4,203.46H418.24c-.08-1-.22-1.9-.21-2.83q.12-34.06.26-68.12c0-9.92,0-19.84-.05-29.75,0-4.29.54-4.77,4.85-4.76,11.11,0,22.23,0,33.34.09,1.59,0,3.17.15,5,.24,0,2.8,0,5.42,0,8,0,1.31-1,1.9-2,2.52a6,6,0,0,0-3,5.84,5.91,5.91,0,0,0,5.23,5.41,5.81,5.81,0,0,0,6.59-4c1-2.84.23-5.55-2.46-7a3.67,3.67,0,0,1-2.11-4.29c.2-1.5.09-3,.19-4.55s.57-2,2-2.19a11.61,11.61,0,0,1,1.67,0q20.5.18,41,.39a37.94,37.94,0,0,1,3.77.43c0,2.6,0,5,0,7.37a3.23,3.23,0,0,1-1.9,2.83,5.71,5.71,0,0,0-2.07,8.21,6.13,6.13,0,0,0,8.19,2.16,6.05,6.05,0,0,0,2.3-8.31,9.21,9.21,0,0,0-2.58-2.38c-.82-.58-1.6-1.09-1.61-2.2,0-2.62,0-5.25,0-8a29.6,29.6,0,0,1,3.44-.43q11-.12,22.07-.15c2.46,0,3.05.62,3.15,3.14,0,.4,0,.8,0,1.2q0,49.06.1,98.12Zm-85.48-3.29a11,11,0,0,0,.25-1.68c0-2.24-.06-4.48-.09-6.72-.07-6.55-.11-13.1-.2-19.66,0-3.05-1.07-4.15-4-4.16q-14.14,0-28.29,0c-2.81,0-3.64.82-3.68,3.53q-.15,13.43-.21,26.85a13.54,13.54,0,0,0,.22,1.84Zm4.9,0h35.84c.06-1.16.15-2.18.15-3.2q0-11.28-.06-22.54c0-1,0-2.09-.06-3.12-.21-2.39-1.08-3.32-3.5-3.34-9-.06-18.05-.11-27.08,0-3.84.05-5.21,1.45-5.25,5.3C462.75,182.13,462.82,191,462.82,200.17Zm40.22.18a7.57,7.57,0,0,0,1,.21c10.78,0,21.56,0,32.35,0,2,0,2.34-.36,2.34-2.68,0-8.62-.1-17.25,0-25.88,0-2.49-1.11-4-4.1-4-9.1.11-18.21,0-27.32,0-3.55,0-4.27.76-4.27,4.41q0,12.71,0,25.4Z" fill="#c6daff"/><path d="M277.24,98h25.48c.64,0,1.28,0,1.92,0a1.71,1.71,0,0,1,1.8,1.82c0,.56,0,1.12,0,1.68q.06,38.74.09,77.51c0,7.19-.12,14.39-.2,21.59,0,2.62-.59,3.22-3.3,3.21-7.12,0-14.23-.22-21.35-.23q-30.24-.06-60.47,0c-12.08,0-24.16.11-36.23.16-3.86,0-3.93-.06-3.92-3.86q.09-25.42.2-50.87.09-23.87.15-47.75c0-2.93.31-3.28,3.32-3.28l25,.06a9.63,9.63,0,0,1,1.2,0c1.78.2,2.2.65,2.25,2.42s.05,3.36.12,5a3.52,3.52,0,0,1-2,3.51,5.63,5.63,0,0,0-2.47,7.73,6.16,6.16,0,0,0,11.38-4.65,5,5,0,0,0-2.58-3,3.49,3.49,0,0,1-2.09-4.11c.2-1.34.18-2.72.35-4.06.3-2.24.65-2.65,2.86-2.75,3-.14,6.07-.12,9.11-.13h33.83c3.52,0,7,0,10.55.1,2.09.08,2.29.43,2.3,2.5,0,1.51,0,3,.09,4.55a3.75,3.75,0,0,1-2.14,3.91,5.76,5.76,0,0,0-1.92,8.42,6.2,6.2,0,0,0,8.7,1.46,6.09,6.09,0,0,0,1.19-8.71,8.15,8.15,0,0,0-2.12-1.51,3,3,0,0,1-1.6-3C276.89,103.37,277.05,100.91,277.24,98Zm24.37,102.56a5.34,5.34,0,0,0,.25-1c0-9.28.05-18.55,0-27.83,0-2.6-1.09-3.61-3.7-3.65C293.6,168,289,168,284.48,168h-14.4c-1.32,0-2.67.11-3.32,1.44a7,7,0,0,0-.6,2.78q-.27,12.83-.44,25.66c0,2.56.44,2.92,2.95,2.9l30.23-.2C299.77,200.57,300.64,200.58,301.61,200.58Zm-57.56,0v0h2.39c4.16,0,8.32,0,12.47,0,2.72,0,3.14-.45,3.17-3.24v-.24l0-23.73a15.33,15.33,0,0,0-.13-2.15c-.36-2.38-1.21-3.23-3.64-3.24q-14.26-.08-28.53,0c-2.39,0-3.31,1-3.55,3.31a15.44,15.44,0,0,0-.06,1.67l-.06,23.73c0,.8,0,1.6.07,2.4a1.45,1.45,0,0,0,1.36,1.43,17.19,17.19,0,0,0,2.15.1Zm-23.11-.49V172.9c0-.64,0-1.28,0-1.92a2.85,2.85,0,0,0-2.81-3,15.34,15.34,0,0,0-1.92-.06c-5,0-10.06-.06-15.09-.06-4.23,0-8.47,0-12.7.08-2.34,0-2.93.6-3.27,2.92A17.12,17.12,0,0,0,185,173q-.08,12.22-.13,24.44c0,.85,0,1.7,0,2.66Z" fill="#c6daff"/><path d="M656.1,209.52v-3.17q0-48.58.1-97.16c0-2.72-.06-5.44,0-8.16,0-2.43.56-3,3-3,4.08,0,8.16,0,12.23,0q13.32,0,26.63-.06a15.35,15.35,0,0,1,1.92,0c1.36.16,1.84.64,1.89,2,.07,1.91.05,3.83.11,5.75a3.53,3.53,0,0,1-1.93,3.32c-2.69,1.65-3.44,3.32-2.92,6.16a5.9,5.9,0,0,0,4.76,4.8,6,6,0,0,0,6.44-2.68,5.82,5.82,0,0,0-2-8.32,3.57,3.57,0,0,1-2.14-3.83c.12-2.15.06-4.31.08-6.47a4.42,4.42,0,0,1,.2-.63h13.75c.55,1.74.82,104.57.29,111.15C716.82,209.85,661.49,210.1,656.1,209.52Z" fill="#c6daff"/><path d="M62.28,210.11H0V207q0-50.85.08-101.72c0-1.36-.06-2.72,0-4.08.07-2.08.65-2.65,2.78-2.72,1.6,0,3.2,0,4.8,0l34.07,0c.64,0,1.28,0,1.92,0,1.53.14,2,.6,2.06,2.07.07,1.84.1,3.67.15,5.51a3.7,3.7,0,0,1-2,3.54,5.54,5.54,0,0,0-2.34,7.76,6.24,6.24,0,0,0,7.8,2.9,6.14,6.14,0,0,0,3.51-7.53A5,5,0,0,0,50,109.37,3,3,0,0,1,48,106.14c.08-2.46,0-4.92,0-7.53h14C62.56,100.37,62.75,205.87,62.28,210.11Z" fill="#c6daff"/><path d="M718.47,75v16.4h-2.69c-7.12,0-14.24-.06-21.36-.06l-37.2.06c-1.36,0-2.72.12-4.08.06-2.22-.11-2.63-.55-2.65-2.77,0-3.36,0-6.72,0-10.08,0-.54-.06-1.09-.11-1.85-1,0-1.8-.14-2.65-.13-7.84,0-15.68.08-23.52.08-6.8,0-13.6-.06-20.4-.1-.39,0-.8,0-1.19,0-2.24.13-2.94.89-2.9,3.19,0,2.47.1,5,.12,7.42a4.86,4.86,0,0,1-.12,1.43c-.24.8-.59,1.56-.89,2.34l-.61,0a15.06,15.06,0,0,1-.66-2.83c-.09-2.4,0-4.8,0-7.19,0-.72.09-1.45,0-2.16a2.07,2.07,0,0,0-2-2.06,13.19,13.19,0,0,0-1.66-.09l-17.52,0a4.52,4.52,0,0,1-1.43-.06c-2.6-1-5.2-.24-7.81-.14-3.91.15-7.83,0-11.74.12A57.32,57.32,0,0,0,549,77c-1.66.22-2.14.81-2.19,2.6-.09,2.88-.05,5.76-.06,8.64,0,.87,0,1.74,0,2.88-1.33,0-2.5.12-3.67.13-3.83,0-7.67,0-11.51,0a26.35,26.35,0,0,1-7.58-1,10.29,10.29,0,0,0-3.5,0c-1.43.1-2.85.46-4.27.47q-49.08.06-98.16.08h-2.94c-.23-4.66,0-9.18-.17-13.91-1.1-.06-2-.14-3-.15q-15.48-.07-31-.15c-3.28,0-6.56,0-9.83-.12a41.09,41.09,0,0,1-4.32-.62c-.21.17-.73.65-1.3,1.06a2.89,2.89,0,0,0-1.25,2.89c.24,2.87.36,5.74.49,8.62a5.7,5.7,0,0,1-.26,2.1c-.11.29-.76.53-1.16.51-.24,0-.61-.5-.67-.82a6.24,6.24,0,0,1,.09-1.42c.1-2.88.25-5.76.26-8.63,0-2.44-1-3.41-3.43-3.75-1.73-.24-3.43-.65-5.16-.89a4.94,4.94,0,0,0-1.72.27,12.22,12.22,0,0,1-2.67.73c-11.84.1-23.68.13-35.51.18-.4,0-.81,0-1.2,0-2.4.08-2.73.4-2.75,2.86,0,3.75,0,7.5,0,11.4-.76.08-1.37.21-2,.21q-9.6,0-19.2,0c-2.81,0-3.35-.57-4.22-3.23-1.19-3.64-2.58-7.22-3.87-10.83-.3-.81-.55-1.63-.91-2.71,1.21-.08,2.22-.19,3.23-.19,18.87-.08,37.75-.19,56.63-.17,4.06,0,8.11.52,12.18.65,1.48,0,3-.42,4.48-.49a61.65,61.65,0,0,1,6.23,0,39.47,39.47,0,0,1,4.58.88c1-.82,2.71-.86,4.49-.87q30.35,0,60.7-.13c3.44,0,6.88.06,10.32.09.79,0,1.58,0,2.77,0-.49,1.77-.83,3.28-1.35,4.73-.75,2.11-1.68,4.15-2.45,6.25-.87,2.35-.26,3.24,2.27,3.41.56,0,1.12,0,1.68,0q34,0,67.92,0c3.17,0,6.33-.34,9.84-.54-1.66-4.69-3.18-9-4.82-13.62,1.35-.09,2.28-.19,3.22-.2,8.47-.1,17-.24,25.43-.25,6.94,0,13.89.12,20.83.27a28.62,28.62,0,0,1,3.48.63,6.78,6.78,0,0,0,1.8,0,37,37,0,0,1,4-.57q67.08-.08,134.15-.08A19.82,19.82,0,0,1,718.47,75Z" fill="#c6daff"/><path d="M207.72,74.43c-1.3,3.6-2.49,6.9-3.69,10.19-.13.37-.34.72-.45,1.1a2.11,2.11,0,0,0,1.82,3,23.06,23.06,0,0,0,2.88,0q36.48,0,73,0c.7,0,1.4.06,2.45.1a4.85,4.85,0,0,1-4,2.16c-1,0-2.08-.06-3.12-.06L206,91q-13.2,0-26.4.09c-.86,0-1.72,0-2.72,0-.07-.84-.18-1.45-.18-2.06,0-3.28,0-6.56,0-9.84,0-2-.33-2.21-2.17-2.39-1.66-.16-3.3-.43-5-.62a6.08,6.08,0,0,0-1.41,0A70.14,70.14,0,0,1,147.62,76a2.58,2.58,0,0,0-1-.07c-5.45,1.23-11,.6-16.48.64-.4,0-.8,0-1.2,0-2.62.07-3.09.52-3.11,3.09,0,3,0,6.08,0,9.12,0,.71-.06,1.42-.09,2.1-2,.41-2.28.27-2.31-1.47,0-2.56,0-5.12,0-7.68,0-1,.06-1.92,0-2.88-.07-1.65-.48-2-2.16-2.23a7.71,7.71,0,0,0-1,0q-21.48.09-42.95.2c-4.75,0-4.57-.32-4.55,4.62,0,2.32,0,4.64,0,7,0,2.5-.4,3-2.88,3-5.44,0-10.88,0-16.32,0H.13V74.44c.74,0,1.43-.16,2.11-.16q69.6,0,139.2,0a30.63,30.63,0,0,1,3.55.41,5,5,0,0,0,1.41.17c6.81-1.27,13.7-.56,20.54-.84a1.87,1.87,0,0,1,.95.09c2,1.09,4,.39,6.09.28,4-.21,8-.36,12-.36,6.63,0,13.27.15,19.91.24C206.34,74.29,206.81,74.35,207.72,74.43Z" fill="#c6daff"/><path d="M584,130.9c0,6.32.07,12.64,0,18.95s-2.62,8.8-9,8.89c-3.51,0-7,0-10.55,0a16.36,16.36,0,0,1-2.62-.24,6.68,6.68,0,0,1-6.08-6.12,29.43,29.43,0,0,1-.22-4.3q0-17.76,0-35.51a15.49,15.49,0,0,1,.11-2.15c.57-3.94,3-6.46,7-6.63,4.79-.19,9.6-.21,14.39,0,4.17.19,6.75,3,6.83,7.2.13,6.63,0,13.27,0,19.9Z" fill="#c6daff"/><path d="M614.24,131.07V112.61c0-.64,0-1.28.1-1.92.42-4.14,2.77-6.68,6.93-6.87,4.78-.22,9.59-.22,14.38,0,3.84.16,6.15,2.43,6.81,6.21a27.49,27.49,0,0,1,.29,4.54q0,16.91,0,33.81a24.42,24.42,0,0,1-.45,4.75,6.43,6.43,0,0,1-5.51,5.29,16.88,16.88,0,0,1-3.09.33c-3.44,0-6.88.06-10.31,0-6.64-.11-9.12-2.61-9.14-9.21C614.22,143.38,614.24,137.22,614.24,131.07Z" fill="#c6daff"/><path d="M139.84,131.31q0-9.84,0-19.67a8.2,8.2,0,0,1,1.28-4.78,7,7,0,0,1,5.94-3.08c4.64-.09,9.28-.16,13.91,0,4.42.15,7,2.93,7.09,7.43.08,8.15.05,16.3.06,24.46q0,6.95,0,13.91a21,21,0,0,1-.09,2.63c-.45,3.6-2.57,6-6.17,6.24a148.7,148.7,0,0,1-15.8,0c-3.78-.2-6-3-6.18-7-.13-3.36-.06-6.72-.07-10.07V131.31Z" fill="#c6daff"/><path d="M347.16,131.2v18.45c0,.8,0,1.61-.07,2.4a6.79,6.79,0,0,1-6,6.44,16.37,16.37,0,0,1-2.62.25c-3.43,0-6.87,0-10.3,0-6.74-.09-9.26-2.64-9.27-9.34q0-18.45,0-36.91a13.89,13.89,0,0,1,.12-2.14c.62-4,2.81-6.31,6.79-6.52,5-.26,10.06-.23,15.08,0,3.27.12,5.76,2.9,6.19,6.33a23,23,0,0,1,.08,2.63Q347.17,122,347.16,131.2Z" fill="#c6daff"/><path d="M109.52,131.3q0,9.12,0,18.24a17.81,17.81,0,0,1-.11,2.63c-.52,3.69-2.7,6.13-6.42,6.31-5.18.25-10.39.2-15.57,0-3.38-.16-5.77-2.86-6.17-6.31a23.21,23.21,0,0,1-.08-2.64q0-18.48,0-36.95c0-.56,0-1.12,0-1.68.32-4.11,3-6.93,7.07-7.09,4.63-.17,9.28-.17,13.91,0s7.21,3,7.28,7.84c.08,6.56,0,13.12,0,19.68Z" fill="#c6daff"/><path d="M405.72,131.45v18.7c0,.72,0,1.44,0,2.15a6.09,6.09,0,0,1-6.15,6.09c-5.18.13-10.38.13-15.57,0a6.2,6.2,0,0,1-6.21-5.54,23.67,23.67,0,0,1-.25-3.58q0-18.1,0-36.2a25.74,25.74,0,0,1,.28-3.82,5.11,5.11,0,0,1,3.44-4.24,16.87,16.87,0,0,1,6.74-1.38c3.12.12,6.24,0,9.35,0a13.59,13.59,0,0,1,2.39.16c3.69.67,5.83,3,6,6.72s0,7.83,0,11.75c0,3,0,6.07,0,9.11Z" fill="#c6daff"/><path d="M597.19,207.78c.06-.6.13-1.06.14-1.52,0-1,0-1.92,0-2.88,0-25.59,0-51.18.15-76.77,0-8.21-.45-16.42,0-24.63.06-1.34-.14-2.75,1-3.88,1.32.44,1.42,1.55,1.43,2.69,0,5.43.15,10.87.09,16.31,0,2,.49,4.17-.66,6.11-.13.21.1.61.13.92.2,2,.56,4,.56,5.93q.06,29.88,0,59.74c0,4.48,0,9-.06,13.43,0,.64,0,1.28,0,1.92.13,2.14.67,2.7,2.77,2.77,1.76.06,3.52,0,5.28,0h36.46c1.2,0,2.4,0,3.6-.07,1.58,0,2,.25,2,1.34s-.46,1.64-2.06,1.67c-1.76,0-3.52,0-5.28,0h-90a5.34,5.34,0,0,1-2.13-.21,2.05,2.05,0,0,1-1-1.39c0-.34.56-1,1-1.14a5,5,0,0,1,1.87-.19l42.23-.05C595.53,207.89,596.3,207.82,597.19,207.78Z" fill="#c6daff"/><path d="M125.19,97.81a16.6,16.6,0,0,1,.7,3c.08,5.2.28,10.41,0,15.59-.15,2.8.1,5.56.1,8.34q0,35.27,0,70.54c0,3-.09,6.08,0,9.12,0,2.88.74,3.56,3.57,3.56q20.26,0,40.54,0c1,0,2.08-.16,3.11-.17,1.34,0,1.92.48,1.95,1.55s-.65,1.83-2,1.8c-1.19,0-2.38-.28-3.58-.28-6,0-12,0-18,0H77.61a23.77,23.77,0,0,1-2.39,0c-1.89-.18-2.14-.63-1.54-2.93h2.51l42.22,0c.64,0,1.28,0,1.92,0,2.31-.08,3-.71,3.08-3,.07-1.76,0-3.52,0-5.28q0-36.58,0-73.18c0-1.43.27-2.86.28-4.29,0-1.18-.27-2.37-.27-3.55,0-5.84,0-11.68,0-17.51A3.7,3.7,0,0,1,125.19,97.81Z" fill="#c6daff"/><path d="M411.75,207.9c.56,2.33.29,2.8-1.59,2.9-1.44.08-2.88.08-4.32.08H319.23c-1.52,0-3,0-4.56-.07-2.1-.08-2.33-.42-1.79-2.91h2.77l42.47,0c4.17,0,4.36-.18,4.36-4.3q0-50.87,0-101.72a9.15,9.15,0,0,1,.05-2.16,9.74,9.74,0,0,1,.94-1.92l.58,0a10.89,10.89,0,0,1,.87,2,10.25,10.25,0,0,1,0,2.15v101c0,4.88,0,4.88,5,4.88l39.11,0Z" fill="#c6daff"/><path d="M512.59,59.76H452.23c-1.9-3.87-1.23-5,2.95-5q27.07,0,54.15,0C513.32,54.75,513.88,55.6,512.59,59.76Z" fill="#c6daff"/><path d="M243.73,59.94H215.45c-2,0-2.23-.19-2.63-2-.47-2.14.11-3,2.34-3.15.8-.08,1.6-.06,2.4-.06h53c.48,0,1,0,1.44,0,2.38.12,3.47,1.71,2.54,3.91A2.78,2.78,0,0,1,273,59.9a5.71,5.71,0,0,1-1.9.08H243.73Z" fill="#c6daff"/><path d="M153.87,60c-20.28-.35-40.38.11-60.46-.11a11.59,11.59,0,0,1-.62-1.51c-.62-2.61.07-3.63,2.82-3.64,9.27-.05,18.54,0,27.82,0a9.46,9.46,0,0,1,1.87.35c.39.07.83.32,1.17.22,4.78-1.45,9.67-.4,14.5-.64,3.35-.16,6.71,0,10.07,0s3.82.56,3.18,3.81C154.15,58.93,154,59.31,153.87,60Z" fill="#c6daff"/><path d="M631.52,60c-10.24,0-20.29.11-30.34,0s-20.08,0-30.1,0a6.49,6.49,0,0,1-.53-.94c-1-3.06-.28-4.25,2.92-4.29,5.19,0,10.4-.19,15.58.1,2.35.14,4.64,0,7,0,11.11-.2,22.22-.1,33.33-.07,2.38,0,2.83.57,2.56,2.88C631.84,58.26,631.71,58.88,631.52,60Z" fill="#c6daff"/><path d="M332,60.43l2-5.56c.38,0,1-.13,1.6-.13,15.28,0,30.56,0,45.84,0,1.58,0,3.15.43,4.73.5a28.44,28.44,0,0,0,4-.23c1.42-.15,2.82-.41,4.36-.65v5.48c-1.71,0-3.37.07-5,0-3-.17-6.05-.66-9.07.09A5.66,5.66,0,0,1,379,60q-18.84,0-37.68,0c-1,0-2.06-.3-3.09-.27-1.5.06-3,.28-4.48.45C333.26,60.18,332.74,60.29,332,60.43Z" fill="#c6daff"/><path d="M513.43,118.49a4.3,4.3,0,1,1,4.47-4.14A4.55,4.55,0,0,1,513.43,118.49Z" fill="#c6daff"/><path d="M462.42,109.88a4.24,4.24,0,0,1,4.25,4.27,4.35,4.35,0,0,1-4.22,4.36,4.24,4.24,0,0,1-4.22-4.32A4.16,4.16,0,0,1,462.42,109.88Z" fill="#c6daff"/><path d="M279.87,114.15a4.23,4.23,0,0,1-4.11,4.37,4.45,4.45,0,0,1-4.39-4.42,4.34,4.34,0,0,1,4.3-4.22A4.2,4.2,0,0,1,279.87,114.15Z" fill="#c6daff"/><path d="M46.93,119a4.33,4.33,0,1,1,.27-8.66,4.44,4.44,0,0,1,4.08,4.47A4.36,4.36,0,0,1,46.93,119Z" fill="#c6daff"/><path d="M218.55,114.22a4.29,4.29,0,0,1-4.26,4.28,4.24,4.24,0,0,1-4.2-4.33,4.19,4.19,0,0,1,4.25-4.26A4.28,4.28,0,0,1,218.55,114.22Z" fill="#c6daff"/><path d="M703.06,109.87a4.26,4.26,0,0,1,4.26,4.22,4.2,4.2,0,0,1-4.08,4.39,4.47,4.47,0,0,1-4.48-4.32A4.57,4.57,0,0,1,703.06,109.87Z" fill="#c6daff"/><path d="M457.92,200.17h-36a13.54,13.54,0,0,1-.22-1.84q.07-13.43.21-26.85c0-2.71.87-3.52,3.68-3.53q14.14,0,28.29,0c2.91,0,3.94,1.11,4,4.16.09,6.56.13,13.11.2,19.66,0,2.24.09,4.48.09,6.72A11,11,0,0,1,457.92,200.17Z" fill="#c6daff"/><path d="M462.82,200.17c0-9.17-.07-18,0-26.9,0-3.85,1.41-5.25,5.25-5.3,9-.11,18.05-.06,27.08,0,2.42,0,3.29.95,3.5,3.34.08,1,.06,2.08.06,3.12q0,11.26.06,22.54c0,1-.09,2-.15,3.2Z" fill="#c6daff"/><path d="M503,200.35v-2.48q0-12.69,0-25.4c0-3.65.72-4.4,4.27-4.41,9.11,0,18.22.07,27.32,0,3,0,4.11,1.49,4.1,4-.05,8.63,0,17.26,0,25.88,0,2.32-.29,2.68-2.34,2.68-10.79,0-21.57,0-32.35,0A7.57,7.57,0,0,1,503,200.35Z" fill="#c6daff"/><path d="M301.61,200.58c-1,0-1.84,0-2.71,0l-30.23.2c-2.51,0-3-.34-2.95-2.9q.16-12.82.44-25.66a7,7,0,0,1,.6-2.78c.65-1.33,2-1.44,3.32-1.44h14.4c4.56,0,9.12,0,13.68.07,2.61,0,3.69,1.05,3.7,3.65.05,9.28,0,18.55,0,27.83A5.34,5.34,0,0,1,301.61,200.58Z" fill="#c6daff"/><path d="M244.05,200.62H229.66a17.19,17.19,0,0,1-2.15-.1,1.45,1.45,0,0,1-1.36-1.43c-.05-.8-.07-1.6-.07-2.4l.06-23.73a15.44,15.44,0,0,1,.06-1.67c.24-2.35,1.16-3.3,3.55-3.31q14.26-.08,28.53,0c2.43,0,3.28.86,3.64,3.24a15.33,15.33,0,0,1,.13,2.15l0,23.73v.24c0,2.79-.45,3.23-3.17,3.24-4.15,0-8.31,0-12.47,0h-2.39Z" fill="#c6daff"/><path d="M220.94,200.13H184.86c0-1,0-1.81,0-2.66q.06-12.22.13-24.44a17.12,17.12,0,0,1,.14-2.15c.34-2.32.93-2.89,3.27-2.92,4.23-.07,8.47-.08,12.7-.08,5,0,10.06,0,15.09.06a15.34,15.34,0,0,1,1.92.06,2.85,2.85,0,0,1,2.81,3c.05.64,0,1.28,0,1.92v27.23Z" fill="#c6daff"/><rect y="218.65" width="718.76" height="26.3" fill="#c6daff"/><g opacity="0.4"><path d="M200.14,216V200.76h-1.55c-2.29,0-4.58,0-6.87,0A4.54,4.54,0,0,1,187,196c0-1,0-2,0-3,0-1.61.3-1.91,1.92-2l.72-.07v-1.36c0-6.22,0-12.44,0-18.66a10,10,0,0,1,8.11-10.2,16.2,16.2,0,0,1,3.19-.21c2.48,0,5,0,7.44,0A10.11,10.11,0,0,1,218.75,171c0,6.22,0,12.44,0,18.66v1c1,.47,2,.65,2.41,1.26s.18,1.68.23,2.62h5.14c.23-1.57-.76-4.09,2.63-3.39v-1.49c0-6.23,0-12.45,0-18.67a10.08,10.08,0,0,1,8.13-10.21,11.93,11.93,0,0,1,2.39-.2c2.63,0,5.27,0,7.9,0,6.48,0,10.72,4.28,10.73,10.79q0,9.1,0,18.2v1.33c2.33.55,2.33.55,2.69,3.65h5.18c.24-1.58-.67-4.09,2.71-3.37v-1.47q0-9.27,0-18.55c0-6.28,4.27-10.55,10.56-10.58q4.06,0,8.13,0A10.08,10.08,0,0,1,298,171q0,9.33,0,18.67V191c.42,0,.72,0,1,0a1.3,1.3,0,0,1,1.47,1.39c0,1.37.08,2.75,0,4.12a4.48,4.48,0,0,1-4.48,4.2c-2.44.05-4.88,0-7.32,0h-1.32V216h8.71c1.37,0,1.95.42,1.95,1.37s-.59,1.38-1.95,1.38H191c-.9,0-1.47-.43-1.48-1.37S190,216,191,216h9.19Zm55.34-25c0-.28.09-.43.09-.57,0-6.6.07-13.2,0-19.8a7.26,7.26,0,0,0-7.58-7.34c-2.7,0-5.41,0-8.12,0-4.87,0-7.93,3.06-7.94,7.93q0,9.27,0,18.53c0,.41,0,.82.06,1.26ZM216,191c0-.32.05-.5.05-.69,0-6.52,0-13,0-19.56a7.29,7.29,0,0,0-7.37-7.44c-2.74-.06-5.49,0-8.23,0-5,0-8,3-8,8.05q0,9.21,0,18.42c0,.4,0,.8.07,1.24ZM295,191c0-.34.07-.57.07-.79,0-6.52.05-13,0-19.56a7.23,7.23,0,0,0-7.43-7.35c-2.79,0-5.57,0-8.36,0-4.77,0-7.82,3.11-7.83,7.92V191Zm-55.21,9.77h-8.48c-1.55,0-3.11-.46-3.68-1.86-.72-1.78-1.93-1.79-3.4-1.69a14.42,14.42,0,0,1-2.18,0c-.63,0-.9.19-1.15.79a4.13,4.13,0,0,1-4,2.74c-2.06,0-4.12,0-6.17,0h-2.55V216h31.59Zm39.44,0h-8.34a4.48,4.48,0,0,1-4.49-2.9c-.11-.26-.42-.6-.64-.6-1.67-.06-3.34,0-5,0-1,2.62-2.29,3.52-5,3.53-2.36,0-4.73,0-7.09,0-.88,0-1.09.28-1.08,1.12,0,4.38,0,8.77,0,13.15,0,.33.05.65.07,1h31.48Zm-89.37-6.91v1.51c0,2.21.44,2.65,2.68,2.65h22.75c.61,0,1.22,0,1.83,0a1.55,1.55,0,0,0,1.61-1.34,21.76,21.76,0,0,0,0-2.8Zm107.94,0H269c0,.69,0,1.29,0,1.9,0,1.61.63,2.24,2.22,2.24q12.18,0,24.38,0a1.94,1.94,0,0,0,2.21-1.95A19.83,19.83,0,0,0,297.84,193.87Zm-39.74,0H229.47v1.3c0,2.48.37,2.86,2.82,2.86,7.4,0,14.8-.06,22.2,0C258.09,198.08,258.39,197.54,258.1,193.85ZM205.33,216V200.88c-2.28-.34-2.28-.34-2.28,1.77V216Zm79.13,0V200.85h-2.17V216Zm-39.59,0V200.87h-2.18V216Z" fill="#6495ed"/></g><g opacity="0.4"><path d="M438.19,216V200.76h-1.55c-2.29,0-4.58,0-6.87,0A4.54,4.54,0,0,1,425,196c0-1,0-2,0-3,0-1.61.3-1.91,1.92-2l.72-.07v-1.36c0-6.22,0-12.44,0-18.66,0-5.22,3.2-9.19,8.11-10.2a16.2,16.2,0,0,1,3.19-.21c2.48,0,5,0,7.45,0A10.11,10.11,0,0,1,456.8,171c0,6.22,0,12.44,0,18.66v1c1,.47,2,.65,2.4,1.26s.18,1.68.24,2.62h5.13c.23-1.57-.76-4.09,2.63-3.39v-1.49c0-6.23,0-12.45,0-18.67a10.08,10.08,0,0,1,8.13-10.21,11.93,11.93,0,0,1,2.39-.2c2.63,0,5.27,0,7.9,0,6.48,0,10.72,4.28,10.73,10.79q0,9.1,0,18.2v1.33c2.33.55,2.33.55,2.69,3.65h5.18c.24-1.58-.66-4.09,2.71-3.37v-1.47q0-9.27,0-18.55c0-6.28,4.27-10.55,10.56-10.58q4.07,0,8.13,0A10.08,10.08,0,0,1,536.07,171q0,9.33,0,18.67V191c.42,0,.72,0,1,0a1.3,1.3,0,0,1,1.47,1.39,40.44,40.44,0,0,1,0,4.12,4.47,4.47,0,0,1-4.47,4.2c-2.45.05-4.89,0-7.33,0h-1.31V216h8.7c1.37,0,2,.42,2,1.37s-.58,1.38-2,1.38H429c-.9,0-1.47-.43-1.47-1.37S428.09,216,429,216h9.19Zm55.34-25a3.89,3.89,0,0,0,.09-.57c0-6.6.07-13.2,0-19.8a7.26,7.26,0,0,0-7.58-7.34c-2.7,0-5.41,0-8.12,0-4.87,0-7.93,3.06-7.94,7.93q0,9.27,0,18.53c0,.41,0,.82.06,1.26ZM454,191c0-.32.05-.5.05-.69,0-6.52,0-13,0-19.56a7.28,7.28,0,0,0-7.36-7.44c-2.75-.06-5.49,0-8.24,0-5.05,0-8,3-8,8.05q0,9.21,0,18.42c0,.4,0,.8.07,1.24Zm79.09,0a7.49,7.49,0,0,0,.08-.79c0-6.52,0-13,0-19.56a7.23,7.23,0,0,0-7.43-7.35c-2.79,0-5.57,0-8.35,0-4.78,0-7.83,3.11-7.83,7.92q0,9.27,0,18.53V191Zm-55.21,9.77H469.4c-1.55,0-3.1-.46-3.68-1.86-.72-1.78-1.93-1.79-3.4-1.69a14.29,14.29,0,0,1-2.17,0c-.64,0-.91.19-1.16.79a4.13,4.13,0,0,1-4,2.74c-2.05,0-4.11,0-6.17,0H446.3V216h31.58Zm39.44,0H509a4.48,4.48,0,0,1-4.49-2.9c-.11-.26-.42-.6-.64-.6-1.67-.06-3.34,0-5,0-1,2.62-2.28,3.52-5,3.53-2.36,0-4.73,0-7.09,0-.88,0-1.09.28-1.08,1.12,0,4.38,0,8.77,0,13.15a9.35,9.35,0,0,0,.08,1h31.47ZM428,193.85v1.51c0,2.21.44,2.65,2.68,2.65h22.75c.61,0,1.22,0,1.83,0a1.54,1.54,0,0,0,1.61-1.34,21.76,21.76,0,0,0,0-2.8Zm107.94,0H507.06c0,.69,0,1.29,0,1.9,0,1.61.63,2.24,2.22,2.24q12.18,0,24.38,0a2,2,0,0,0,2.22-1.95A19.91,19.91,0,0,0,535.89,193.87Zm-39.74,0H467.52v1.3c0,2.48.37,2.86,2.82,2.86,7.4,0,14.8-.06,22.2,0C496.14,198.08,496.45,197.54,496.15,193.85ZM443.38,216V200.88c-2.27-.34-2.27-.34-2.27,1.77V216Zm79.13,0V200.85h-2.17V216Zm-39.59,0V200.87h-2.18V216Z" fill="#6495ed"/></g><g opacity="0.4"><path d="M718.66,218.61H685.74c-.91,0-1.48-.43-1.48-1.37a1.28,1.28,0,0,1,1.46-1.37h9.19V200.59h-1.55c-2.29,0-4.58,0-6.87,0a4.55,4.55,0,0,1-4.74-4.77c0-1,0-2,0-3,0-1.61.31-1.91,1.93-2l.71-.07v-1.36c0-6.22,0-12.44,0-18.66,0-5.22,3.2-9.19,8.12-10.2a16.89,16.89,0,0,1,3.19-.21c2.48,0,5,0,7.44,0a10.11,10.11,0,0,1,10.37,10.46c0,6.22,0,12.44,0,18.66v1c1,.47,2,.65,2.4,1.26s.18,1.68.24,2.62h2.49m-7.94-3.51c0-.31.06-.5.06-.69,0-6.52,0-13,0-19.56a7.29,7.29,0,0,0-7.36-7.44c-2.75-.06-5.49,0-8.24,0-5,0-8,3-8,8q0,9.21,0,18.42c0,.4,0,.8.06,1.24Zm7.94,6.25a13.34,13.34,0,0,1-1.79,0c-.63,0-.91.19-1.16.79a4.11,4.11,0,0,1-4,2.74c-2.06.05-4.12,0-6.18,0H703v15.19h15.64m-34-22.1v1.51c0,2.21.44,2.65,2.68,2.65H710.1c.61,0,1.22,0,1.83,0a1.54,1.54,0,0,0,1.61-1.34,21.74,21.74,0,0,0,0-2.8Zm15.43,22.15V200.71c-2.27-.34-2.27-.34-2.27,1.77v13.35Z" fill="#6495ed"/></g><g opacity="0.4"><path d="M43.69,218.58H10.77c-.91,0-1.48-.43-1.48-1.37s.56-1.37,1.47-1.38H20V200.56H18.4c-2.29,0-4.58,0-6.87,0a4.53,4.53,0,0,1-4.74-4.76c0-1,0-2,0-3,0-1.61.31-1.91,1.93-2l.72-.07v-1.36c0-6.22,0-12.44,0-18.66a10,10,0,0,1,8.11-10.2,16.1,16.1,0,0,1,3.19-.21c2.48,0,5,0,7.44,0A10.1,10.1,0,0,1,38.55,170.8c0,6.22,0,12.44,0,18.66v1c1,.47,2,.65,2.41,1.26s.18,1.68.23,2.62h2.49m-7.94-3.51c0-.32.06-.5.06-.69,0-6.52,0-13,0-19.56a7.3,7.3,0,0,0-7.37-7.44c-2.74-.06-5.49,0-8.23,0-5,0-8,3-8,8q0,9.21,0,18.42c0,.4,0,.8.06,1.24ZM43.69,197a17.87,17.87,0,0,1-1.79,0c-.63,0-.91.19-1.15.79a4.15,4.15,0,0,1-4,2.74c-2.06.05-4.12,0-6.18,0H28.05v15.19H43.69m-34-22.1v1.51c0,2.21.44,2.65,2.67,2.65H35.13c.61,0,1.22,0,1.83,0a1.55,1.55,0,0,0,1.62-1.34,21.78,21.78,0,0,0,0-2.8ZM25.14,215.8V200.68c-2.28-.34-2.28-.34-2.28,1.77V215.8Z" fill="#6495ed"/></g><path d="M437,219.77c1.14.16,1.14.16,1.88-.3-1.36-9.38.09-18-.27-28.29,1.46-1.51,4-2,5.95-3.05-1.11-5.73-2.94-10.91-4.06-16.63a3.93,3.93,0,0,0,1.8-2.45c1.34-16.15-8.15-24.64-8.15-24.64,1.53-2.62,1.43-4.23.54-6.76-5.88-1.2-5.12,5.08-3.25,7.68-8.77,7.94-9.55,19.37-5.13,27.34-1.39,6.05-2.35,11.74-3.46,17.52.66.7,3.32-.08,4,.63,1.78,7.62,1.06,17.11,2.17,25.23.4,1.52-1.83,3.32.29,3.38,2.29-1.21,1.07-4.07,1.14-5.84.25-5.46.62-11.47.87-17.52,0-1.61-1.19-5.14,1.48-5.53,2.39,3.23,2.23,7.91,2.46,12" fill="#6495ed" fill-rule="evenodd"/><path d="M393.39,218.82c1.14.15,1.14.15,1.89-.3-1.36-9.38.09-18-.28-28.3,1.46-1.51,4-2,5.95-3.05-1.1-5.73-2.93-10.91-4.05-16.62a4,4,0,0,0,1.8-2.46c1.33-16.15-8.15-24.63-8.15-24.63,1.52-2.63,1.42-4.24.53-6.77-5.87-1.19-5.11,5.08-3.24,7.68-8.78,7.95-9.56,19.37-5.14,27.35-1.38,6-2.35,11.73-3.45,17.51.66.71,3.32-.07,4,.63,1.78,7.63,1,17.12,2.16,25.23.41,1.52-1.83,3.33.29,3.38,2.3-1.21,1.07-4.06,1.15-5.83.25-5.46.62-11.47.87-17.53,0-1.61-1.19-5.13,1.48-5.53,2.39,3.24,2.23,7.91,2.45,12" fill="#6495ed" fill-rule="evenodd"/><path d="M58.3,221.6c1.19.16,1.19.16,2-.31-1.41-9.75.09-18.75-.28-29.41,1.51-1.57,4.15-2.08,6.18-3.17-1.15-6-3-11.34-4.22-17.28a4.12,4.12,0,0,0,1.88-2.55c1.38-16.79-8.47-25.61-8.47-25.61,1.58-2.73,1.48-4.4.55-7-6.1-1.24-5.32,5.28-3.37,8-9.12,8.26-9.93,20.14-5.34,28.43-1.44,6.28-2.44,12.19-3.59,18.2.69.73,3.45-.08,4.14.66,1.85,7.92,1.09,17.78,2.25,26.22.42,1.58-1.9,3.46.3,3.51,2.39-1.26,1.11-4.22,1.19-6.06.26-5.68.64-11.93.9-18.22,0-1.67-1.23-5.34,1.54-5.75,2.48,3.37,2.32,8.23,2.55,12.48" fill="#6495ed" fill-rule="evenodd"/><path d="M136.41,218.94c1.07.14,1.07.14,1.78-.29-1.29-8.83.08-17-.26-26.66,1.37-1.42,3.76-1.89,5.6-2.88-1-5.39-2.76-10.28-3.82-15.66a3.73,3.73,0,0,0,1.7-2.31c1.26-15.23-7.68-23.22-7.68-23.22,1.44-2.48,1.34-4,.5-6.38-5.53-1.12-4.82,4.79-3,7.24-8.28,7.49-9,18.26-4.85,25.77-1.3,5.7-2.21,11.06-3.25,16.51.62.66,3.13-.07,3.75.59,1.68,7.18,1,16.13,2,23.78.38,1.43-1.72,3.13.27,3.19,2.17-1.15,1-3.84,1.08-5.51.24-5.14.59-10.81.82-16.51,0-1.52-1.12-4.84,1.4-5.21,2.25,3.05,2.1,7.45,2.31,11.31" fill="#6495ed" fill-rule="evenodd"/><path d="M76.49,221.31c1.07.15,1.07.15,1.78-.28-1.29-8.84.08-17-.26-26.67,1.37-1.42,3.76-1.89,5.6-2.87-1-5.4-2.76-10.28-3.82-15.67a3.7,3.7,0,0,0,1.7-2.31c1.26-15.22-7.68-23.22-7.68-23.22,1.44-2.47,1.34-4,.5-6.37-5.53-1.13-4.82,4.78-3,7.23-8.28,7.49-9,18.26-4.85,25.77-1.3,5.7-2.21,11.06-3.25,16.51.62.66,3.13-.07,3.75.6,1.68,7.18,1,16.12,2,23.77.38,1.43-1.72,3.14.27,3.19,2.17-1.14,1-3.84,1.09-5.5.23-5.15.58-10.81.81-16.52,0-1.51-1.12-4.84,1.4-5.21,2.25,3.05,2.1,7.46,2.31,11.31" fill="#6495ed" fill-rule="evenodd"/><path d="M92.61,218.94c1.08.14,1.08.14,1.78-.29-1.28-8.83.08-17-.26-26.66,1.38-1.42,3.77-1.89,5.61-2.88-1-5.39-2.77-10.28-3.83-15.66a3.78,3.78,0,0,0,1.71-2.31c1.25-15.23-7.69-23.22-7.69-23.22,1.44-2.48,1.35-4,.51-6.38-5.54-1.12-4.83,4.79-3.06,7.24-8.27,7.49-9,18.26-4.84,25.77-1.31,5.7-2.21,11.06-3.25,16.51.62.66,3.12-.07,3.74.59,1.68,7.18,1,16.13,2,23.78.38,1.43-1.72,3.13.28,3.19,2.16-1.15,1-3.84,1.08-5.51.23-5.14.58-10.81.82-16.51,0-1.52-1.13-4.84,1.39-5.21,2.25,3.05,2.1,7.45,2.32,11.31" fill="#6495ed" fill-rule="evenodd" opacity="0.8"/><path d="M156.2,218.93c1.19.16,1.19.16,2-.31-1.41-9.75.09-18.75-.28-29.41,1.52-1.57,4.15-2.08,6.18-3.17-1.15-6-3.05-11.34-4.21-17.28a4.14,4.14,0,0,0,1.87-2.55c1.39-16.79-8.47-25.61-8.47-25.61,1.58-2.73,1.48-4.4.55-7-6.1-1.24-5.31,5.28-3.37,8-9.12,8.26-9.93,20.14-5.34,28.42-1.43,6.29-2.44,12.2-3.58,18.21.68.73,3.44-.08,4.13.66,1.85,7.92,1.09,17.78,2.25,26.21.42,1.58-1.9,3.47.3,3.52,2.39-1.26,1.11-4.23,1.19-6.06.26-5.68.65-11.93.9-18.22,0-1.67-1.23-5.34,1.54-5.75,2.49,3.37,2.32,8.23,2.56,12.48" fill="#6495ed" fill-rule="evenodd"/><path d="M310,221.36c1.19.16,1.19.16,2-.31-1.42-9.75.08-18.75-.29-29.41,1.52-1.57,4.15-2.08,6.18-3.17-1.15-6-3.05-11.34-4.21-17.28a4.14,4.14,0,0,0,1.87-2.55c1.39-16.79-8.47-25.61-8.47-25.61,1.58-2.73,1.48-4.4.55-7-6.1-1.24-5.31,5.28-3.37,8-9.12,8.26-9.93,20.14-5.34,28.42-1.43,6.29-2.44,12.2-3.58,18.21.68.73,3.44-.08,4.13.66,1.85,7.92,1.1,17.78,2.25,26.21.42,1.59-1.9,3.47.3,3.52,2.39-1.26,1.11-4.23,1.19-6.06.26-5.68.65-11.93.91-18.22,0-1.67-1.24-5.34,1.53-5.75,2.49,3.37,2.32,8.23,2.56,12.48" fill="#6495ed" fill-rule="evenodd"/><path d="M556.49,133.7c-3.16,9.54,1.75,19.55,5.92,25.75,2.09.75,3.88,1.8,5.93,2.58,1.71,1.12,4.55,1.11,5.41,3.09-1.81,2-4.22-1.18-6.44-1.29a49.38,49.38,0,0,0-6.44-2.57c-.94-1-1.41-2.55-2.58-3.35-.48,6.34,1,15.11,1.81,21.89,3.95,10.56,7.8,21.22,10.55,33,2.48.61,5.33.86,7.73,1.54a33.3,33.3,0,0,1-9.53,3.61c-3.31-6.93-5.68-18.86-9.27-27.56-.88-2.12-2.33-7.9-4.12-8-3.2-.15-3.07,10.15-4.38,12.36a128.48,128.48,0,0,0-11.59,18c1.22,2.13,4.25,2.45,5.41,4.64-3.57-.12-7.74.35-10.56-.52,3.53-8.75,8.21-16.35,12.88-23.95,2.83-9.82,3.81-23.64,3.35-36.58-1.47,1.71-1.73,4.63-2.84,6.7v2.83c-.85,2.07-.05,5.79-1.54,7.22-.43-13.48,1.93-24.17,7.21-31.94-.62-3.16-1.8-5.53-.52-8.76C554.42,130.92,555.6,132.49,556.49,133.7Z" fill="#6495ed" fill-rule="evenodd"/><path d="M622.2,135.05c-3.16,9.53,1.75,19.55,5.92,25.75,2.09.75,3.88,1.8,5.93,2.58,1.71,1.12,4.56,1.11,5.41,3.09-1.81,1.95-4.22-1.19-6.44-1.29a49.38,49.38,0,0,0-6.44-2.57c-.94-1-1.41-2.55-2.58-3.35-.48,6.34,1,15.11,1.81,21.89,4,10.56,7.8,21.22,10.56,33,2.47.61,5.32.85,7.72,1.54a33.3,33.3,0,0,1-9.53,3.61c-3.31-6.93-5.67-18.87-9.27-27.56-.88-2.12-2.33-7.9-4.12-8-3.2-.15-3.07,10.15-4.38,12.36a128.48,128.48,0,0,0-11.59,18c1.22,2.13,4.25,2.45,5.41,4.63-3.57-.12-7.74.36-10.56-.51,3.53-8.75,8.21-16.35,12.88-24,2.83-9.82,3.81-23.64,3.35-36.58-1.47,1.71-1.73,4.63-2.84,6.7v2.83c-.85,2.07-.05,5.79-1.54,7.21-.43-13.47,1.93-24.16,7.21-31.93-.62-3.16-1.8-5.53-.51-8.76C620.13,132.27,621.31,133.84,622.2,135.05Z" fill="#6495ed" fill-rule="evenodd" opacity="0.8"/><path d="M672.25,136c-3.16,9.54,1.74,19.56,5.92,25.76,2.09.74,3.87,1.79,5.93,2.57,1.71,1.12,4.55,1.11,5.4,3.09-1.8,2-4.21-1.18-6.44-1.28a48.71,48.71,0,0,0-6.43-2.58c-.94-1-1.41-2.54-2.58-3.35-.49,6.34,1,15.11,1.8,21.9,4,10.55,7.81,21.21,10.56,33,2.48.62,5.33.86,7.73,1.55a33.29,33.29,0,0,1-9.53,3.6c-3.31-6.93-5.68-18.86-9.27-27.56-.88-2.12-2.33-7.9-4.12-8-3.2-.15-3.07,10.15-4.38,12.36a129.07,129.07,0,0,0-11.59,18c1.21,2.14,4.24,2.45,5.41,4.64-3.57-.12-7.74.35-10.56-.52,3.53-8.75,8.2-16.34,12.87-23.95,2.84-9.82,3.82-23.63,3.35-36.57-1.46,1.71-1.72,4.62-2.83,6.69v2.84c-.85,2.06,0,5.78-1.54,7.21-.43-13.48,1.93-24.17,7.21-31.94-.63-3.15-1.8-5.53-.52-8.76C670.18,133.19,671.36,134.76,672.25,136Z" fill="#6495ed" fill-rule="evenodd"/><path d="M604.3,135.51c-3.16,9.54,1.74,19.56,5.92,25.76,2.09.74,3.87,1.79,5.92,2.57,1.72,1.12,4.56,1.11,5.41,3.09-1.81,2-4.21-1.18-6.44-1.28a48.85,48.85,0,0,0-6.44-2.58c-.93-1-1.4-2.54-2.57-3.35-.49,6.34,1,15.11,1.8,21.9,4,10.55,7.81,21.21,10.56,33,2.48.62,5.33.86,7.73,1.55a33.29,33.29,0,0,1-9.53,3.6c-3.31-6.93-5.68-18.86-9.27-27.55-.88-2.13-2.34-7.91-4.13-8-3.19-.15-3.06,10.16-4.37,12.36a127.27,127.27,0,0,0-11.59,18c1.21,2.14,4.24,2.45,5.41,4.64-3.57-.12-7.74.35-10.56-.52,3.53-8.74,8.2-16.34,12.87-23.95,2.84-9.81,3.82-23.63,3.35-36.57-1.46,1.71-1.72,4.62-2.83,6.7v2.83c-.85,2.06,0,5.78-1.54,7.21-.43-13.48,1.93-24.17,7.21-31.94-.63-3.15-1.8-5.52-.52-8.76C602.23,132.74,603.41,134.31,604.3,135.51Z" fill="#6495ed" fill-rule="evenodd"/><path d="M371.83,135.05c-3.16,9.53,1.75,19.55,5.93,25.75,2.08.75,3.87,1.8,5.92,2.58,1.71,1.12,4.56,1.11,5.41,3.09-1.81,1.95-4.22-1.19-6.44-1.29a49.38,49.38,0,0,0-6.44-2.57c-.93-1-1.41-2.55-2.58-3.35-.48,6.34,1,15.11,1.81,21.89,3.95,10.56,7.8,21.22,10.56,33,2.47.61,5.32.85,7.73,1.54a33.48,33.48,0,0,1-9.54,3.61c-3.31-6.93-5.67-18.87-9.27-27.56-.88-2.12-2.33-7.9-4.12-8-3.2-.15-3.07,10.15-4.38,12.36a128.48,128.48,0,0,0-11.59,18c1.22,2.13,4.25,2.45,5.41,4.63-3.57-.12-7.74.36-10.56-.51,3.53-8.75,8.21-16.35,12.88-24,2.83-9.82,3.81-23.64,3.35-36.58-1.47,1.71-1.73,4.63-2.84,6.7v2.83c-.85,2.07-.05,5.79-1.54,7.21-.43-13.47,1.93-24.16,7.21-31.93-.62-3.16-1.79-5.53-.51-8.76C369.77,132.27,370.94,133.84,371.83,135.05Z" fill="#6495ed" fill-rule="evenodd"/><path d="M178.16,135.05c-3.16,9.53,1.75,19.55,5.92,25.75,2.09.75,3.88,1.8,5.93,2.58,1.71,1.12,4.56,1.11,5.41,3.09-1.81,1.95-4.22-1.19-6.44-1.29a49.38,49.38,0,0,0-6.44-2.57c-.94-1-1.41-2.55-2.58-3.35-.48,6.34,1,15.11,1.81,21.89,3.95,10.56,7.8,21.22,10.56,33,2.47.61,5.32.85,7.72,1.54a33.3,33.3,0,0,1-9.53,3.61c-3.31-6.93-5.67-18.87-9.27-27.56-.88-2.12-2.33-7.9-4.12-8-3.2-.15-3.07,10.15-4.38,12.36a128.48,128.48,0,0,0-11.59,18c1.22,2.13,4.25,2.45,5.41,4.63-3.57-.12-7.74.36-10.56-.51,3.53-8.75,8.21-16.35,12.88-24,2.83-9.82,3.81-23.64,3.35-36.58-1.47,1.71-1.73,4.63-2.84,6.7v2.83c-.85,2.07-.05,5.79-1.54,7.21-.43-13.47,1.93-24.16,7.21-31.93-.62-3.16-1.8-5.53-.51-8.76C176.09,132.27,177.27,133.84,178.16,135.05Z" fill="#6495ed" fill-rule="evenodd"/><path d="M456.16,133.42C453,143,457.91,153,462.08,159.18c2.09.74,3.88,1.79,5.93,2.57,1.71,1.12,4.55,1.11,5.41,3.09-1.81,2-4.22-1.18-6.44-1.28a49.41,49.41,0,0,0-6.44-2.58c-.94-1-1.41-2.54-2.58-3.35-.48,6.34,1,15.11,1.81,21.9,4,10.55,7.8,21.21,10.55,33,2.48.62,5.33.86,7.73,1.55a33.29,33.29,0,0,1-9.53,3.6c-3.31-6.93-5.68-18.86-9.27-27.56-.88-2.12-2.33-7.9-4.12-8-3.2-.15-3.07,10.15-4.38,12.36a129.07,129.07,0,0,0-11.59,18c1.22,2.14,4.25,2.45,5.41,4.64-3.57-.12-7.74.35-10.56-.52,3.53-8.75,8.21-16.34,12.88-24,2.83-9.82,3.81-23.63,3.35-36.57-1.47,1.71-1.73,4.62-2.84,6.69v2.84c-.85,2.06,0,5.78-1.54,7.21-.43-13.48,1.93-24.17,7.21-31.94-.62-3.15-1.8-5.53-.52-8.76C454.09,130.64,455.27,132.21,456.16,133.42Z" fill="#6495ed" fill-rule="evenodd"/><path d="M224.19,133.7c-3.16,9.54,1.74,19.55,5.92,25.75,2.09.75,3.87,1.8,5.93,2.58,1.71,1.12,4.55,1.11,5.4,3.09-1.81,2-4.21-1.18-6.44-1.29a49.24,49.24,0,0,0-6.43-2.57c-.94-1-1.41-2.55-2.58-3.35-.49,6.34,1,15.11,1.8,21.89,4,10.56,7.81,21.22,10.56,33,2.48.61,5.33.86,7.73,1.54a33.3,33.3,0,0,1-9.53,3.61c-3.31-6.93-5.68-18.86-9.27-27.56-.88-2.12-2.33-7.9-4.13-8-3.19-.15-3.06,10.15-4.37,12.36a126.7,126.7,0,0,0-11.59,18c1.21,2.13,4.24,2.45,5.41,4.64-3.57-.12-7.74.35-10.56-.52,3.53-8.75,8.2-16.35,12.87-23.95,2.84-9.82,3.82-23.64,3.35-36.58-1.46,1.71-1.72,4.63-2.83,6.7v2.83c-.85,2.07-.05,5.79-1.54,7.22-.43-13.48,1.93-24.17,7.21-31.94-.63-3.16-1.8-5.53-.52-8.76C222.12,130.92,223.3,132.49,224.19,133.7Z" fill="#6495ed" fill-rule="evenodd"/><path d="M704.8,148.34c.79,2.35-1,6-1.6,9.26.23,2.37,2.72,2.66,3.6,4.44.88,6.22.4,13.71,1.21,20-1.69,4.86-4.44,8.73-6,13.71-4.14-.24-9.47.61-12.41-.75-2.47,5.73-1.25,14.9-2.39,21.86-3.54-.07-5.93.93-9.61.74,5.41-5.12,5.94-14.75,7.21-23.71-.8-1.48-3.2-1.48-4.81-2.22-1.63,7-.34,16.72-2.4,23.33a41.19,41.19,0,0,1-7.6-.73c6.19-6,2.93-20.75,9.2-26.67,3.09-.39,4.49.78,7.2.74,5.64-9.23,9.1-20.48,13.61-30.74.29-1.87-.72-2.55-1.2-3.71C700.47,151.87,701.32,147.49,704.8,148.34Z" fill="#6495ed" fill-rule="evenodd"/><path d="M584.43,140.43c-.24,1.91-.45,3.85-.74,5.71,7.14,19.34,12.75,39.38,14.14,59.29-.21,1.28-2,1-2.48,2,.61,2.36,1.75,4.2,2.48,6.45,1.48.07,3.41-.72,4.71,0-.18,2.79-3.62,2.33-5,4-2.08-2.55-2.21-7.05-4.22-9.67-5.51,3.24-14.49.33-22.08.49a29.71,29.71,0,0,0-3.47,6.95c1.81,1.83,5.53,1.74,7.19,3.72-3.43.13-7.38-.27-10.41.25,1.1-4.1,3.25-7.16,4.46-11.16-.67-2.64-2.91-3.71-3.72-6.21,2.16-3.21,4.21-5.08,7.19-8.92,3.27-5.28,4.4-8.65,6.21-14.89a56.67,56.67,0,0,0,.74-15.63c-2.67,3.28-2,9.87-3.72,14.14-1.61-1.53-1.22-4.84-.75-8.68,1.42-6.42,2.69-11,4.22-17.86a34.67,34.67,0,0,0,3-3.72c-1.54-2-1.74-3.78-1.49-7.45C582.18,137.87,583.46,139.29,584.43,140.43Z" fill="#6495ed" fill-rule="evenodd"/><path d="M350.53,139.48c-.24,1.91-.45,3.85-.75,5.7,7.15,19.34,12.76,39.38,14.15,59.29-.21,1.28-2,1-2.48,2,.61,2.37,1.75,4.2,2.48,6.45,1.48.07,3.41-.71,4.71,0-.18,2.8-3.62,2.34-5,4-2.08-2.56-2.21-7-4.22-9.68-5.51,3.25-14.49.34-22.08.5a29.33,29.33,0,0,0-3.47,7c1.81,1.82,5.53,1.74,7.19,3.72-3.43.12-7.38-.28-10.41.24,1.1-4.1,3.25-7.16,4.46-11.16-.67-2.64-2.91-3.7-3.72-6.2,2.16-3.21,4.21-5.08,7.19-8.93,3.27-5.28,4.39-8.65,6.21-14.89a56.6,56.6,0,0,0,.74-15.62c-2.67,3.28-2,9.87-3.72,14.14-1.61-1.54-1.22-4.85-.75-8.69,1.42-6.41,2.69-11,4.22-17.86a33.71,33.71,0,0,0,3-3.72c-1.55-2-1.74-3.77-1.49-7.44C348.28,136.92,349.56,138.33,350.53,139.48Z" fill="#6495ed" fill-rule="evenodd"/><path d="M104.23,140.4c-.24,1.91-.45,3.85-.74,5.7,7.14,19.34,12.75,39.38,14.14,59.29-.21,1.28-2,1-2.48,2,.61,2.36,1.75,4.2,2.48,6.45,1.48.07,3.41-.72,4.71,0-.18,2.8-3.62,2.33-5,4-2.08-2.56-2.21-7.05-4.22-9.68-5.51,3.25-14.49.34-22.08.5a29.83,29.83,0,0,0-3.47,6.94c1.81,1.83,5.53,1.75,7.2,3.72-3.44.13-7.39-.27-10.42.25,1.1-4.1,3.25-7.16,4.46-11.16-.67-2.64-2.91-3.71-3.72-6.2,2.16-3.21,4.21-5.08,7.19-8.93,3.27-5.28,4.4-8.65,6.21-14.89a56.67,56.67,0,0,0,.74-15.63c-2.67,3.29-2,9.87-3.72,14.15-1.61-1.54-1.22-4.85-.74-8.69,1.41-6.41,2.68-11,4.21-17.86a33.71,33.71,0,0,0,3-3.72c-1.54-2-1.74-3.77-1.49-7.44C102,137.84,103.26,139.25,104.23,140.4Z" fill="#6495ed" fill-rule="evenodd"/><path d="M262.33,141.63c1.91,1.68.08,3.7,0,5.91,1.42,12.65,4.28,27.93,0,39.79.13,9.09-.36,18.69.47,27.19.07,2.17,2.86,2,3.26,3.94h-5.59c-1.05-18.68-.54-38.68-10.25-50,4.41-8.47,11.46-15.3,9.78-26.79Zm-6.52,29.55c.31-2.4,2.59-6.77.47-8.67C254.7,164.69,250.64,170,255.81,171.18Z" fill="#6495ed" fill-rule="evenodd"/><path d="M511.53,138.6h1.26c3.47.61,1.37,5.71.63,7.58,3.68,4.75,7.51,9.34,7,18.32-.81.88-3,.39-3.79,1.27.78,15.64,5.38,27.46,8.85,40.42-1.48,3.58-5.47,4.65-9.48,5.69v6.32c-1.45.4-3.81,1.25-5.06,0,.19-1.71,2.66-1.14,3.16-2.53.78-4.56-2.25-5.33-6.31-5.06-1.18,1.36-.43,4.63-.64,6.95-1.78,1-4.15,1.74-6.31.64-.37-2.27,1.87-1.93,3.79-1.9-.09-1.56-.1-3,.63-3.79-.77-2.38-3.3-3-5.69-3.79,3.12-15,8.28-27.94,7.58-46.75-2.21-.1-2.07,2.14-3.78,2.53-3.35-2.55-7.38-4.42-8.85-8.84,2.82-.34,5.55,4.44,8.21,6.31C505.81,154.37,510.74,148.55,511.53,138.6Z" fill="#6495ed" fill-rule="evenodd"/><path d="M477.73,137.6H479c3.47.6,1.37,5.7.63,7.58,3.68,4.75,7.51,9.34,6.95,18.32-.81.88-3,.39-3.79,1.26.77,15.65,5.38,27.47,8.84,40.43-1.47,3.58-5.46,4.65-9.48,5.69v6.31c-1.44.4-3.8,1.26-5,0,.19-1.7,2.66-1.13,3.16-2.53.77-4.56-2.25-5.33-6.31-5-1.18,1.36-.43,4.63-.64,6.95-1.79,1-4.16,1.73-6.31.63-.37-2.26,1.87-1.92,3.78-1.89-.08-1.56-.09-3.05.64-3.79-.77-2.39-3.3-3-5.69-3.79,3.12-15,8.28-27.95,7.58-46.75-2.21-.11-2.07,2.13-3.79,2.53-3.34-2.55-7.37-4.42-8.84-8.84,2.82-.35,5.55,4.43,8.21,6.31C472,153.36,477,147.55,477.73,137.6Z" fill="#6495ed" fill-rule="evenodd"/><path d="M403.23,137.94h1.26c3.47.61,1.38,5.7.64,7.58,3.67,4.75,7.5,9.34,6.94,18.32-.81.88-3,.39-3.79,1.27.78,15.64,5.38,27.46,8.85,40.42-1.48,3.58-5.47,4.65-9.48,5.69v6.32c-1.44.4-3.81,1.25-5,0,.19-1.71,2.65-1.14,3.16-2.53.77-4.56-2.25-5.33-6.32-5.06-1.17,1.36-.43,4.63-.63,7-1.79,1-4.16,1.74-6.32.64-.36-2.27,1.87-1.93,3.79-1.9-.08-1.56-.09-3,.63-3.79-.77-2.38-3.3-3-5.68-3.79,3.11-15,8.27-27.94,7.58-46.75-2.22-.1-2.08,2.14-3.79,2.53-3.35-2.55-7.37-4.42-8.85-8.84,2.82-.34,5.55,4.44,8.22,6.31C397.52,153.71,402.44,147.89,403.23,137.94Z" fill="#6495ed" fill-rule="evenodd"/><path d="M245.6,153.63c2.19,3.59,2,8.16,1.75,13.84-.46,10.17.75,21,2,30.41a8.81,8.81,0,0,1-3.31.19,161.23,161.23,0,0,0,1.17,19.5,26.71,26.71,0,0,1-7.21.78c.86-1.94,3.21-2.38,4.09-4.29-.51-5.6-.68-9.95-.78-15.4-1.28-1.54-2.8,0-4.48-.39-.39,6.57-1,13.18-.39,19.88a17,17,0,0,1-6.63.2c.76-1.33,2.49-1.67,3.51-2.73-.53-6.2.42-11.74.19-17.55-.86-.47-1.59-.18-2.92-.39.46-9.4,3.06-18.21,4.09-27.68-2.9.28-6,1.35-9.16,1.76-.76.09-2.29.58-2.73-.4.26-1.44,2.27-1.32,3.31-1.55a32.69,32.69,0,0,0,3.9-1c2.3-.86,4.85-2,5.66-4.09-.33-1-2.3-.24-3.32-.2a92.33,92.33,0,0,1-9.75-.58,3.28,3.28,0,0,1,1.18-2.15c4.4,1,8.23,1.22,12.28-.19,2.69-1.66,3.65-5.05,5.45-7.6-.71-2.39-1.29-4.67-.19-7C247.49,144.89,247.35,151.73,245.6,153.63Z" fill="#6495ed" fill-rule="evenodd"/><path d="M276.6,162.75c.51,2,2.46,2.59,2.52,5,8.16,3.44,15-2.22,21.69-3-.05.81.45,1.07.26,2-6.82,2.09-13.62,5.28-20.18,4.29.11.6-.46.54-.25,1.26,4,4.16,11.44.52,16.39.25-.18.77.26.92.25,1.51-5.84,1.2-12.07,4.54-17.15,1-2,3.1-.67,8.66.26,11.85,11.33,3.39,15.36,14.06,26.22,17.91-1.1,4.53-6,5.26-9.33,7.57-.22,2.32,1.24,3,2.78,3.53-.47,1.13-2.44.75-3.53,1.26a17,17,0,0,0-.76-4.29c-1.91.27-3.47.9-4.29,2.27.19,1.49,2.43.93,3,2-.9.77-3.27.25-4.79.25-.5-.76-.33-2.19-1.26-2.52-4.64,1.65-7.38-1.94-10.09-3.78,1-5.67,2.94-10.34,3.78-16.15a29.38,29.38,0,0,0-9.33.51c-2.28-.91-3.45-2.94-4.79-4.79.4-8.71,1.81-16.49,2.77-24,1.29-1.48,2.44-3.12,3.79-4.54a10.28,10.28,0,0,1,1-8.32C280.9,152,280.37,161.7,276.6,162.75Z" fill="#6495ed" fill-rule="evenodd"/><path d="M36.16,154.43c.45,1.32,1.54,2,1.33,4-.37,2.61-2.37,3.59-3.65,5.3-2,9.55-2.67,20.26-5,30.16h-6c-1.4,6,.06,14,0,20.22-2.33,2.38-5,6.56-9.62,4.64.91-2.41,3.7-2.93,5-5-.28-7.1.53-13.62,0-18.56-1.92-.73-5.16-.14-7.62-.33-1.16,7.47.11,12.45-.66,18.89-2.95.76-6.45,3.57-9.28,2.32.33-2.76,3.31-2.87,5-4.31C6.61,205,7.44,198.07,8,190.89c3.11.24,5.39-.35,8.29-.33,4.26-8.77,8.09-18,12.92-26.19a19.33,19.33,0,0,0,.67-5.63c1.27-1.38,1.72-3.58,3.31-4.64C34.51,153.87,35.07,154.42,36.16,154.43Z" fill="#6495ed" fill-rule="evenodd"/><path d="M422.83,216.48c-.7,0,.22,1,0,0,.87.38,1.72.77,2.58,1.17-1.65.24-4.74.91-7,.47-2.1-12.23-1.16-24.8-3.29-38.24-.78-.08-1-.67-2.1-.47-.81,12.65,1.44,27.57.93,39.18-2.66.49-5.6-.94-6.1,0-1-1.73,2.95-2.08,3.28-4-1.93-16.22-1.73-32.09-2.81-49.49-1.14-1.13-2.9-1.63-4.46-2.35-.43-1.75-1.07-3.3-1.4-5.16,1.44-6.22,4-11.35,5.63-17.36a14.38,14.38,0,0,0,3.28-3.28c-.21-3.41-.5-4.34-.46-7.51a8.36,8.36,0,0,1,2.34-.94c2,1.39,2.53,5.23,1.4,7.74a9.75,9.75,0,0,0,3.76,3.29c1.86,7,3.79,13.87,7,19.47,2.14,1.38,5.38,1.65,7.27,3.28,0,.83-.67,1.05-.71,1.87-2.37-.21-5.12-2-7.74-2.81-2.2-2.41-3.14-6.08-5.63-8.21-1,16.57.52,44.39,2.58,62.17C421.4,216,422.48,215.88,422.83,216.48ZM405,158.3c.88,1.16,1.6,2.47,3.05,3,.79-2.87-.14-4.7,0-8-.3,0-.33-.3-.71-.24C406.51,154.81,405.29,156.09,405,158.3Z" fill="#6495ed" fill-rule="evenodd" opacity="0.8"/><path d="M650.36,217.46c-.7,0,.23,1,0,0,.88.38,1.73.77,2.59,1.17-1.66.24-4.75.9-7.05.47-2.1-12.23-1.16-24.8-3.28-38.24-.78-.08-1-.67-2.1-.47-.82,12.65,1.43,27.57.93,39.18-2.66.49-5.6-.94-6.1,0-1-1.73,2.95-2.08,3.28-4-1.93-16.22-1.74-32.09-2.81-49.49-1.14-1.13-2.9-1.63-4.46-2.35-.44-1.75-1.07-3.3-1.41-5.16,1.44-6.22,4-11.35,5.64-17.36a14.38,14.38,0,0,0,3.28-3.28c-.22-3.41-.5-4.34-.47-7.51a8.56,8.56,0,0,1,2.35-.94c2,1.39,2.52,5.23,1.4,7.74a9.79,9.79,0,0,0,3.75,3.29c1.87,7,3.8,13.87,7.05,19.47,2.14,1.38,5.37,1.65,7.27,3.28,0,.83-.68,1-.71,1.87-2.37-.21-5.13-2-7.74-2.81-2.2-2.41-3.14-6.08-5.63-8.21-1,16.57.51,44.39,2.58,62.17C648.94,217,650,216.86,650.36,217.46Zm-17.82-58.18c.87,1.16,1.6,2.47,3.05,3.05.79-2.87-.14-4.7,0-8-.3,0-.33-.3-.71-.24C634.05,155.79,632.83,157.07,632.54,159.28Z" fill="#6495ed" fill-rule="evenodd"/><path d="M331.14,217.46c-.7,0,.22,1,0,0,.87.38,1.72.77,2.58,1.17-1.65.24-4.74.9-7,.47-2.1-12.23-1.16-24.8-3.28-38.24-.78-.08-1-.67-2.11-.47-.81,12.65,1.44,27.57.93,39.18-2.66.49-5.6-.94-6.1,0-1-1.73,3-2.08,3.29-4-1.94-16.22-1.74-32.09-2.82-49.49-1.14-1.13-2.9-1.63-4.46-2.35-.43-1.75-1.07-3.3-1.4-5.16,1.44-6.22,4-11.35,5.63-17.36a14.18,14.18,0,0,0,3.28-3.28c-.21-3.41-.5-4.34-.46-7.51a8.36,8.36,0,0,1,2.34-.94c2,1.39,2.53,5.23,1.4,7.74a9.75,9.75,0,0,0,3.76,3.29c1.86,7,3.8,13.87,7,19.47,2.14,1.38,5.38,1.65,7.27,3.28,0,.83-.67,1-.71,1.87-2.37-.21-5.12-2-7.74-2.81-2.2-2.41-3.14-6.08-5.63-8.21-1,16.57.52,44.39,2.58,62.17C329.71,217,330.79,216.86,331.14,217.46Zm-17.83-58.18c.88,1.16,1.61,2.47,3.05,3.05.79-2.87-.14-4.7,0-8-.3,0-.33-.3-.71-.24C314.82,155.79,313.6,157.07,313.31,159.28Z" fill="#6495ed" fill-rule="evenodd"/><path d="M538.66,217.46c-.7,0,.22,1,0,0q1.3.57,2.58,1.17c-1.65.24-4.74.9-7,.47-2.1-12.23-1.16-24.8-3.28-38.24-.78-.08-1-.67-2.11-.47-.81,12.65,1.44,27.57.94,39.18-2.66.49-5.6-.94-6.1,0-1-1.73,3-2.08,3.28-4-1.94-16.22-1.74-32.09-2.81-49.49-1.14-1.13-2.9-1.63-4.46-2.35-.44-1.75-1.08-3.3-1.41-5.16,1.44-6.22,4-11.35,5.63-17.36a14.23,14.23,0,0,0,3.29-3.28c-.22-3.41-.51-4.34-.47-7.51a8.56,8.56,0,0,1,2.35-.94c2,1.39,2.52,5.23,1.4,7.74a9.72,9.72,0,0,0,3.75,3.29c1.87,7,3.8,13.87,7,19.47,2.15,1.38,5.38,1.65,7.27,3.28,0,.83-.67,1-.7,1.87-2.38-.21-5.13-2-7.74-2.81-2.21-2.41-3.15-6.08-5.63-8.21-1,16.57.51,44.39,2.58,62.17C537.24,217,538.32,216.86,538.66,217.46Zm-17.83-58.18c.88,1.16,1.61,2.47,3,3.05.79-2.87-.14-4.7,0-8-.3,0-.32-.3-.7-.24C522.34,155.79,521.12,157.07,520.83,159.28Z" fill="#6495ed" fill-rule="evenodd"/><path d="M515.3,119.08c-3.83,7.52-9.06,13.64-14.15,19.9.78,3.05,1.6,6.07,2.21,9.29-2.78,21.62,4.89,41.29,1.77,65.9.62,2.18,4,1.63,4,4.42a150.35,150.35,0,0,1-23.44,0c2.55-15.43,5.1-30.87,6.19-47.76-1.23-2-2.06-4.43-3.54-6.19,1.5-13.79.21-27.77,5.76-37.16-2.11-1.3-3-8.25.44-8.84,4,.79,2.32,6.57,1.32,9.29,1.73,2.1,1.92,5.74,4.42,7.07,6.25-4.37,9.67-11.56,14.16-17.69C514.42,118.19,515.63,117.87,515.3,119.08Zm-17.69,53.51c-2.27,11.85-3,27.16-4.86,40.69,1.36,1.4,3.55,4,5.31,3.54C499.85,201.63,501.85,186.39,497.61,172.59Z" fill="#6495ed" fill-rule="evenodd"/><path d="M184.57,169.67c.3-2.29,2.91-2.27,3.2-4.56-1-3-2.73-6.85-.91-9.13,1.06-1,2-.79,3.65.45,1.84,2.32,2.48,4.68.91,7.76,5.28,2.17,9.24,5.67,13.23,9.13,2.86-1.86,3.43-6,6.39-7.76,1.22,3.53-3.13,6.87-5,10a38.75,38.75,0,0,1-7.76-3.65c1.62,6.15,4.31,11.2,6.39,16.88,6.08,5.63,14.47,9,22.36,12.78-.08,4.33-4.22,4.6-6.38,6.85,0,4.54,4,5.16,5.47,8.21-4.34,2.11-7.19-3.26-8.21-7.3a24.25,24.25,0,0,0-7.31.91c.8,3.46,4,4.57,5.48,7.3-4.37,2.41-6.92-4.12-8.67-7.3H204.2c-2.2-6.11-.06-15.75-12.32-13.69" fill="#6495ed" fill-rule="evenodd"/></g></g></svg>