<svg xmlns="http://www.w3.org/2000/svg" viewBox="0 0 778.34 569.65"><defs><style>.cls-1,.cls-18,.cls-19,.cls-2,.cls-3,.cls-30,.cls-31,.cls-32,.cls-7{fill:none;}.cls-1{stroke:#e2231a;}.cls-1,.cls-2,.cls-3{stroke-linecap:round;stroke-width:15px;}.cls-1,.cls-19,.cls-2,.cls-20,.cls-7{stroke-miterlimit:3.86;}.cls-2{stroke:#00833e;}.cls-3,.cls-7{stroke:#003da6;}.cls-3{stroke-linejoin:round;}.cls-4{fill:#003da6;}.cls-20,.cls-26,.cls-4,.cls-6{fill-rule:evenodd;}.cls-5{font-size:18.85px;}.cls-20,.cls-26,.cls-5,.cls-6,.cls-8{fill:#fff;}.cls-5,.cls-8{font-family:Helvetica-Bold, Helvetica;font-weight:700;}.cls-7{stroke-width:0.25px;}.cls-8{font-size:9.66px;}.cls-9{font-size:8.7px;}.cls-10,.cls-11,.cls-12,.cls-13,.cls-14,.cls-15,.cls-16,.cls-17,.cls-21,.cls-24,.cls-25,.cls-9{fill:#231f20;}.cls-10,.cls-11,.cls-12,.cls-13,.cls-14,.cls-15,.cls-16,.cls-17,.cls-9{font-family:Helvetica, Helvetica;}.cls-10{font-size:8.7px;}.cls-11{font-size:8.7px;}.cls-12{font-size:8.7px;}.cls-13{font-size:8.7px;}.cls-14{font-size:8.7px;}.cls-15{font-size:8.7px;}.cls-16{font-size:8.7px;}.cls-17{font-size:8.7px;}.cls-19,.cls-20,.cls-26{stroke:#231f20;}.cls-19,.cls-26{stroke-width:2px;}.cls-20{stroke-width:0.5px;}.cls-21{font-size:14.5px;}.cls-21,.cls-24,.cls-25,.cls-27,.cls-33,.cls-40,.cls-41,.cls-42,.cls-43{font-family:BentonSansCond-Bold, BentonSans Cond Bold;}.cls-22{letter-spacing:-0.02em;}.cls-23{letter-spacing:-0.02em;}.cls-24{font-size:17.4px;}.cls-25{font-size:14.5px;}.cls-26,.cls-30,.cls-31,.cls-32{stroke-miterlimit:10;}.cls-27,.cls-37,.cls-45,.cls-46,.cls-47,.cls-48,.cls-49,.cls-50,.cls-51,.cls-52,.cls-53{font-size:14px;}.cls-28{letter-spacing:-0.01em;}.cls-29,.cls-52{letter-spacing:0em;}.cls-30,.cls-31,.cls-32{stroke:#9b9bbc;}.cls-30,.cls-31{stroke-width:3px;}.cls-31{stroke-dasharray:5.11 5.11;}.cls-33{font-size:17px;}.cls-34{letter-spacing:-0.03em;}.cls-35{letter-spacing:-0.01em;}.cls-36{letter-spacing:-0.01em;}.cls-37,.cls-45,.cls-46,.cls-47,.cls-48,.cls-49,.cls-50,.cls-51,.cls-52,.cls-53{font-family:BentonSansCond-Regular, BentonSans Cond Regular;}.cls-38{letter-spacing:-0.01em;}.cls-39{letter-spacing:0em;}.cls-40,.cls-41,.cls-42,.cls-43,.cls-44{font-size:15px;}.cls-41{letter-spacing:-0.01em;}.cls-42{letter-spacing:-0.01em;}.cls-43{letter-spacing:-0.02em;}.cls-45{letter-spacing:-0.03em;}.cls-46{letter-spacing:-0.01em;}.cls-47{letter-spacing:-0.01em;}.cls-48{letter-spacing:-0.02em;}.cls-49{letter-spacing:0em;}.cls-50{letter-spacing:-0.02em;}.cls-51{letter-spacing:-0.02em;}.cls-53{letter-spacing:-0.03em;}</style></defs><title>map2_1</title><g id="图层_2" data-name="图层 2"><g id="图层_1-2" data-name="图层 1"><path class="cls-1" d="M283.89,336.61c-33-31.56-71.89-69.7-120.44-116.06"/><path class="cls-2" d="M79.14,409.74c-41.76,1-40.84,38.64-40.84,38.64l0,1L40,517.82C39.66,535.78,31.93,544,27,548L7.5,562.15"/><path class="cls-2" d="M79.14,409.74,190,407.06c26.84-.65,33.14-6.81,47.22-21.59l28.2-29.59L332,286"/><line class="cls-3" x1="332.01" y1="286.02" x2="285.37" y2="241.46"/><path class="cls-3" d="M693.25,7.5,445.63,268l-48.21,50.87-.19.22c-15,15.71-30,.46-30,.46l.18.14-27.8-26.36L332,286"/><path class="cls-4" d="M267.89,222.1a11,11,0,0,1,10.76-11.29l29.4-.72a11,11,0,0,1,.54,22l-29.4.72a11,11,0,0,1-11.29-10.75"/><text class="cls-5" transform="translate(280.91 228.46) rotate(-1.39)">BL</text><path class="cls-6" d="M279.66,241.64a5.44,5.44,0,1,1,5.57,5.3,5.44,5.44,0,0,1-5.57-5.3"/><circle class="cls-7" cx="285.1" cy="241.5" r="5.44" transform="translate(-5.79 7.01) rotate(-1.39)"/><text class="cls-8" transform="matrix(0.69, -0.72, 0.72, 0.69, 240.83, 386.45)">B, C, D, E</text><text class="cls-8" transform="matrix(0.69, -0.72, 0.72, 0.69, 298.53, 325.14)">C, D, E</text><text class="cls-9" transform="translate(507.78 185.79) rotate(69.35)"> </text><text class="cls-10" transform="matrix(0.33, 0.94, -0.94, 0.33, 508.61, 188.02)"> </text><text class="cls-11" transform="translate(509.37 190.22) rotate(71.73)"> </text><text class="cls-12" transform="translate(510.16 192.46) rotate(72.98)"> </text><text class="cls-11" transform="matrix(0.27, 0.96, -0.96, 0.27, 510.8, 194.7)"> </text><text class="cls-13" transform="translate(512.05 199.28) rotate(76.92)"> </text><text class="cls-14" transform="translate(512.55 201.56) rotate(78.32)"> </text><text class="cls-15" transform="matrix(0.18, 0.98, -0.98, 0.18, 513.05, 203.86)"> </text><text class="cls-16" transform="matrix(0.13, 0.99, -0.99, 0.13, 513.81, 208.49)"> </text><text class="cls-17" transform="translate(514.13 210.78) rotate(84.24)"> </text><path class="cls-6" d="M232.61,292.94a5.44,5.44,0,1,1,5.57,5.3,5.44,5.44,0,0,1-5.57-5.3"/><path class="cls-6" d="M560.18,147.34a5.36,5.36,0,1,1-7.57.18,5.36,5.36,0,0,1,7.57-.18"/><path class="cls-6" d="M682.92,19.27a5.36,5.36,0,1,1-7.57-.22,5.36,5.36,0,0,1,7.57.22"/><circle class="cls-18" cx="679.03" cy="22.95" r="5.36" transform="translate(169.62 472.52) rotate(-43.37)"/><path class="cls-6" d="M332.17,292.86a6.89,6.89,0,1,1,6.72-7.05,6.89,6.89,0,0,1-6.72,7.05"/><circle class="cls-19" cx="332.01" cy="285.98" r="6.89" transform="translate(-6.87 8.18) rotate(-1.4)"/><path class="cls-20" d="M279.21,341.42a6.7,6.7,0,1,1,9.47-.23,6.7,6.7,0,0,1-9.47.23"/><circle class="cls-19" cx="283.83" cy="336.57" r="6.7" transform="translate(-155.64 309.97) rotate(-46.39)"/><text class="cls-21" transform="translate(338.3 261.26) rotate(-1.39)"><tspan class="cls-22">Go</tspan><tspan class="cls-23" x="16.21" y="0">v</tspan><tspan class="cls-22" x="22.72" y="0">ernmen</tspan><tspan x="67.79" y="0">t</tspan></text><text class="cls-21" transform="translate(338.72 278.65) rotate(-1.39)">Center</text><text class="cls-21" transform="translate(75.11 244.37) rotate(-1.39)">Kendall/MIT</text><text class="cls-24" transform="translate(268.12 207.52) rotate(-1.39)">BOWDOIN</text><text class="cls-21" transform="translate(568.15 164.17) rotate(-1.39)">Airport</text><text class="cls-21" transform="translate(690.57 36.81) rotate(-1.39)">Su</text><text class="cls-21" transform="translate(706.8 36.41) rotate(-1.39)">ﬀolk Downs</text><text class="cls-25" transform="matrix(1, -0.02, 0.02, 1, 294.96, 353.02)">Park St</text><path class="cls-26" d="M14.08,558.72a6.7,6.7,0,1,1,9.47-.23,6.7,6.7,0,0,1-9.47.23"/><path class="cls-26" d="M165.57,231.92a6.7,6.7,0,1,1,9.47-.23,6.7,6.7,0,0,1-9.47.23"/><text class="cls-27" transform="translate(148.25 308.78) rotate(-0.41)">Charl<tspan class="cls-28" x="31.65" y="0">e</tspan><tspan class="cls-29" x="38.47" y="0">s/MGH</tspan></text><line class="cls-30" x1="238.78" y1="290.82" x2="240.47" y2="288.98"/><line class="cls-31" x1="243.93" y1="285.23" x2="276.82" y2="249.56"/><line class="cls-30" x1="278.55" y1="247.69" x2="280.24" y2="245.85"/><line class="cls-32" x1="258.11" y1="259.85" x2="258.11" y2="166.04"/><circle class="cls-32" cx="258.11" cy="269.63" r="9.78" transform="translate(-92.39 397.98) rotate(-66.36)"/><text class="cls-33" transform="translate(148.31 105.43)"><tspan class="cls-34">P</tspan><tspan class="cls-35" x="9.26" y="0">o</tspan><tspan class="cls-36" x="17.99" y="0">s</tspan><tspan x="25.74" y="0">sible </tspan><tspan class="cls-35" x="63.68" y="0">S</tspan><tspan x="73.56" y="0">olution:</tspan><tspan class="cls-37"><tspan x="0" y="20">If </tspan><tspan class="cls-38" x="10.42" y="20">w</tspan><tspan x="19.15" y="20">e </tspan><tspan class="cls-39" x="28.52" y="20">c</tspan><tspan x="34.83" y="20">an add a</tspan><tspan class="cls-40" x="81.43" y="20" xml:space="preserve"> line be</tspan><tspan class="cls-41" x="126.7" y="20">t</tspan><tspan class="cls-40" x="132.1" y="20">t</tspan><tspan class="cls-42" x="137.61" y="20">w</tspan><tspan class="cls-40" x="147.42" y="20">en </tspan><tspan class="cls-43" x="166.17" y="20">r</tspan><tspan class="cls-40" x="171.42" y="20">ed line and </tspan></tspan><tspan class="cls-44"><tspan x="0" y="40">blue line</tspan><tspan class="cls-45" x="53.76" y="40">,</tspan><tspan class="cls-37" x="56.64" y="40" xml:space="preserve"> that will </tspan><tspan class="cls-46" x="105.89" y="40">s</tspan><tspan class="cls-47" x="111.87" y="40">a</tspan><tspan class="cls-48" x="118.34" y="40">v</tspan><tspan class="cls-49" x="124.22" y="40">e mo</tspan><tspan class="cls-50" x="151.42" y="40">r</tspan><tspan class="cls-37" x="155.91" y="40" xml:space="preserve">e time on  t</tspan><tspan class="cls-51" x="217.26" y="40">r</tspan><tspan class="cls-52" x="221.83" y="40">ain</tspan><tspan class="cls-53" x="238.54" y="40">.</tspan></tspan></text></g></g></svg>