<svg xmlns="http://www.w3.org/2000/svg" xmlns:xlink="http://www.w3.org/1999/xlink" viewBox="0 0 778.34 571.71"><defs><style>.cls-1,.cls-10,.cls-21,.cls-32,.cls-33,.cls-34,.cls-4,.cls-5,.cls-6{fill:none;}.cls-2{clip-path:url(#clip-path);}.cls-3{clip-path:url(#clip-path-2);}.cls-4{stroke:#e2231a;}.cls-4,.cls-5,.cls-6{stroke-linecap:round;stroke-width:15px;}.cls-10,.cls-21,.cls-22,.cls-4,.cls-5{stroke-miterlimit:3.86;}.cls-5{stroke:#00833e;}.cls-10,.cls-6{stroke:#003da6;}.cls-6{stroke-linejoin:round;}.cls-7{fill:#003da6;}.cls-22,.cls-28,.cls-7,.cls-9{fill-rule:evenodd;}.cls-8{font-size:18.85px;}.cls-11,.cls-22,.cls-28,.cls-8,.cls-9{fill:#fff;}.cls-11,.cls-8{font-family:Helvetica-Bold, Helvetica;font-weight:700;}.cls-10{stroke-width:0.25px;}.cls-11{font-size:9.66px;}.cls-12{font-size:8.7px;}.cls-12,.cls-13,.cls-14,.cls-15,.cls-16,.cls-17,.cls-18,.cls-19,.cls-20,.cls-23,.cls-26,.cls-27{fill:#231f20;}.cls-12,.cls-13,.cls-14,.cls-15,.cls-16,.cls-17,.cls-18,.cls-19,.cls-20{font-family:Helvetica, Helvetica;}.cls-13{font-size:8.7px;}.cls-14{font-size:8.7px;}.cls-15{font-size:8.7px;}.cls-16{font-size:8.7px;}.cls-17{font-size:8.7px;}.cls-18{font-size:8.7px;}.cls-19{font-size:8.7px;}.cls-20{font-size:8.7px;}.cls-21,.cls-22,.cls-28{stroke:#231f20;}.cls-21,.cls-28{stroke-width:2px;}.cls-22{stroke-width:0.5px;}.cls-23{font-size:14.5px;}.cls-23,.cls-26,.cls-27,.cls-29,.cls-35,.cls-42,.cls-43,.cls-44,.cls-45{font-family:BentonSansCond-Bold, BentonSans Cond Bold;}.cls-24{letter-spacing:-0.02em;}.cls-25{letter-spacing:-0.02em;}.cls-26{font-size:17.4px;}.cls-27{font-size:14.5px;}.cls-28,.cls-32,.cls-33,.cls-34{stroke-miterlimit:10;}.cls-29,.cls-39,.cls-47,.cls-48,.cls-49,.cls-50,.cls-51,.cls-52,.cls-53,.cls-54,.cls-55{font-size:14px;}.cls-30{letter-spacing:-0.01em;}.cls-31,.cls-54{letter-spacing:0em;}.cls-32,.cls-33,.cls-34{stroke:#9b9bbc;}.cls-32,.cls-33{stroke-width:3px;}.cls-33{stroke-dasharray:5.11 5.11;}.cls-35{font-size:17px;}.cls-36{letter-spacing:-0.03em;}.cls-37{letter-spacing:-0.01em;}.cls-38{letter-spacing:-0.01em;}.cls-39,.cls-47,.cls-48,.cls-49,.cls-50,.cls-51,.cls-52,.cls-53,.cls-54,.cls-55{font-family:BentonSansCond-Regular, BentonSans Cond Regular;}.cls-40{letter-spacing:-0.01em;}.cls-41{letter-spacing:0em;}.cls-42,.cls-43,.cls-44,.cls-45,.cls-46{font-size:15px;}.cls-43{letter-spacing:-0.01em;}.cls-44{letter-spacing:-0.01em;}.cls-45{letter-spacing:-0.02em;}.cls-47{letter-spacing:-0.03em;}.cls-48{letter-spacing:-0.01em;}.cls-49{letter-spacing:-0.01em;}.cls-50{letter-spacing:-0.02em;}.cls-51{letter-spacing:0em;}.cls-52{letter-spacing:-0.02em;}.cls-53{letter-spacing:-0.02em;}.cls-55{letter-spacing:-0.03em;}</style><clipPath id="clip-path" transform="translate(-250.42 -287.78)"><rect class="cls-1" x="11" y="16.59" width="1374.3" height="920.53" transform="translate(-11.4 17.14) rotate(-1.39)"/></clipPath><clipPath id="clip-path-2" transform="translate(-250.42 -287.78)"><rect class="cls-1" x="11" y="16.59" width="1374.3" height="920.53" transform="translate(-11.4 17.14) rotate(-1.39)"/></clipPath></defs><title>map2_1</title><g id="图层_2" data-name="图层 2"><g id="图层_1-2" data-name="图层 1"><g class="cls-2"><g class="cls-3"><path class="cls-4" d="M534.31,624.39c-33-31.56-71.89-69.7-120.44-116.06" transform="translate(-250.42 -287.78)"/><path class="cls-5" d="M329.55,697.52c-41.76,1-40.84,38.64-40.84,38.64l0,1,1.67,68.47c-.33,18-8.05,26.19-12.94,30.18l-19.54,14.15" transform="translate(-250.42 -287.78)"/><path class="cls-5" d="M329.55,697.52l110.89-2.69c26.84-.65,33.14-6.81,47.22-21.59l28.2-29.59,66.51-69.9" transform="translate(-250.42 -287.78)"/><line class="cls-6" x1="332.01" y1="286.02" x2="285.37" y2="241.46"/><path class="cls-6" d="M943.67,295.28,696,555.75l-48.21,50.87-.19.22c-15,15.71-30,.46-30,.46l.18.14L590,581.09l-7.63-7.28" transform="translate(-250.42 -287.78)"/><path class="cls-7" d="M518.31,509.88a11,11,0,0,1,10.76-11.29l29.4-.72a11,11,0,0,1,.54,22l-29.4.72a11,11,0,0,1-11.29-10.75" transform="translate(-250.42 -287.78)"/></g><text class="cls-8" transform="translate(280.91 228.46) rotate(-1.39)">BL</text><g class="cls-3"><path class="cls-9" d="M530.08,529.42a5.44,5.44,0,1,1,5.57,5.3,5.44,5.44,0,0,1-5.57-5.3" transform="translate(-250.42 -287.78)"/><circle class="cls-10" cx="535.52" cy="529.28" r="5.44" transform="translate(-263.14 -274.59) rotate(-1.39)"/><text class="cls-11" transform="matrix(0.69, -0.72, 0.72, 0.69, 240.83, 386.45)">B, C, D, E</text><text class="cls-11" transform="matrix(0.69, -0.72, 0.72, 0.69, 298.53, 325.14)">C, D, E</text></g><text class="cls-12" transform="translate(507.78 185.79) rotate(69.35)"> </text><text class="cls-13" transform="matrix(0.33, 0.94, -0.94, 0.33, 508.61, 188.02)"> </text><text class="cls-14" transform="translate(509.37 190.22) rotate(71.73)"> </text><text class="cls-15" transform="translate(510.16 192.46) rotate(72.98)"> </text><text class="cls-14" transform="matrix(0.27, 0.96, -0.96, 0.27, 510.8, 194.7)"> </text><text class="cls-16" transform="translate(512.05 199.28) rotate(76.92)"> </text><text class="cls-17" transform="translate(512.55 201.56) rotate(78.32)"> </text><text class="cls-18" transform="matrix(0.18, 0.98, -0.98, 0.18, 513.05, 203.86)"> </text><text class="cls-19" transform="matrix(0.13, 0.99, -0.99, 0.13, 513.81, 208.49)"> </text><text class="cls-20" transform="translate(514.13 210.78) rotate(84.24)"> </text><g class="cls-3"><path class="cls-9" d="M483,580.72a5.44,5.44,0,1,1,5.57,5.3,5.44,5.44,0,0,1-5.57-5.3" transform="translate(-250.42 -287.78)"/><path class="cls-9" d="M810.6,435.13a5.36,5.36,0,1,1-7.57.18,5.36,5.36,0,0,1,7.57-.18" transform="translate(-250.42 -287.78)"/><path class="cls-9" d="M933.34,307.05a5.36,5.36,0,1,1-7.57-.22,5.36,5.36,0,0,1,7.57.22" transform="translate(-250.42 -287.78)"/><circle class="cls-1" cx="929.45" cy="310.73" r="5.36" transform="translate(-210.03 435.25) rotate(-43.37)"/><path class="cls-9" d="M582.59,580.64a6.89,6.89,0,1,1,6.72-7.05,6.89,6.89,0,0,1-6.72,7.05" transform="translate(-250.42 -287.78)"/><circle class="cls-21" cx="582.42" cy="573.76" r="6.89" transform="translate(-264.23 -273.41) rotate(-1.4)"/><path class="cls-22" d="M529.63,629.2a6.7,6.7,0,1,1,9.47-.23,6.7,6.7,0,0,1-9.47.23" transform="translate(-250.42 -287.78)"/><circle class="cls-21" cx="534.24" cy="624.35" r="6.7" transform="translate(-536.73 292.82) rotate(-46.39)"/></g><text class="cls-23" transform="translate(338.3 261.26) rotate(-1.39)"><tspan class="cls-24">Go</tspan><tspan class="cls-25" x="16.21" y="0">v</tspan><tspan class="cls-24" x="22.72" y="0">ernmen</tspan><tspan x="67.79" y="0">t</tspan></text><text class="cls-23" transform="translate(338.72 278.65) rotate(-1.39)">Center</text><text class="cls-23" transform="translate(75.11 244.37) rotate(-1.39)">Kendall/MIT</text><text class="cls-26" transform="translate(268.12 207.52) rotate(-1.39)">BOWDOIN</text><text class="cls-23" transform="translate(568.15 164.17) rotate(-1.39)">Airport</text><text class="cls-23" transform="translate(690.57 36.81) rotate(-1.39)">Su</text><text class="cls-23" transform="translate(706.8 36.41) rotate(-1.39)">ﬀolk Downs</text><text class="cls-23" transform="translate(35.78 568.66) rotate(-1.39)">Northeastern</text><text class="cls-27" transform="matrix(1, -0.02, 0.02, 1, 294.96, 353.02)">Park St</text><g class="cls-3"><path class="cls-28" d="M264.5,846.5a6.7,6.7,0,1,1,9.47-.23,6.7,6.7,0,0,1-9.47.23" transform="translate(-250.42 -287.78)"/><path class="cls-28" d="M416,519.7a6.7,6.7,0,1,1,9.47-.23,6.7,6.7,0,0,1-9.47.23" transform="translate(-250.42 -287.78)"/></g></g><text class="cls-29" transform="translate(148.25 308.78) rotate(-0.41)">Charl<tspan class="cls-30" x="31.65" y="0">e</tspan><tspan class="cls-31" x="38.47" y="0">s/MGH</tspan></text><line class="cls-32" x1="238.78" y1="290.82" x2="240.47" y2="288.98"/><line class="cls-33" x1="243.93" y1="285.23" x2="276.82" y2="249.56"/><line class="cls-32" x1="278.55" y1="247.69" x2="280.24" y2="245.85"/><line class="cls-34" x1="258.11" y1="259.85" x2="258.11" y2="166.04"/><circle class="cls-34" cx="508.53" cy="557.41" r="9.78" transform="translate(-456.43 512.01) rotate(-66.36)"/><text class="cls-35" transform="translate(148.31 105.43)"><tspan class="cls-36">P</tspan><tspan class="cls-37" x="9.26" y="0">o</tspan><tspan class="cls-38" x="17.99" y="0">s</tspan><tspan x="25.74" y="0">sible </tspan><tspan class="cls-37" x="63.68" y="0">S</tspan><tspan x="73.56" y="0">olution:</tspan><tspan class="cls-39"><tspan x="0" y="20">If </tspan><tspan class="cls-40" x="10.42" y="20">w</tspan><tspan x="19.15" y="20">e </tspan><tspan class="cls-41" x="28.52" y="20">c</tspan><tspan x="34.83" y="20">an add a</tspan><tspan class="cls-42" x="81.43" y="20" xml:space="preserve"> line be</tspan><tspan class="cls-43" x="126.7" y="20">t</tspan><tspan class="cls-42" x="132.1" y="20">t</tspan><tspan class="cls-44" x="137.61" y="20">w</tspan><tspan class="cls-42" x="147.42" y="20">en </tspan><tspan class="cls-45" x="166.17" y="20">r</tspan><tspan class="cls-42" x="171.42" y="20">ed line and </tspan></tspan><tspan class="cls-46"><tspan x="0" y="40">blue line</tspan><tspan class="cls-47" x="53.76" y="40">,</tspan><tspan class="cls-39" x="56.64" y="40" xml:space="preserve"> that will </tspan><tspan class="cls-48" x="105.89" y="40">s</tspan><tspan class="cls-49" x="111.87" y="40">a</tspan><tspan class="cls-50" x="118.34" y="40">v</tspan><tspan class="cls-51" x="124.22" y="40">e mo</tspan><tspan class="cls-52" x="151.42" y="40">r</tspan><tspan class="cls-39" x="155.91" y="40" xml:space="preserve">e time on  t</tspan><tspan class="cls-53" x="217.26" y="40">r</tspan><tspan class="cls-54" x="221.83" y="40">ain</tspan><tspan class="cls-55" x="238.54" y="40">.</tspan></tspan></text></g></g></svg>