<svg xmlns="http://www.w3.org/2000/svg" xmlns:xlink="http://www.w3.org/1999/xlink" viewBox="0 0 786.94 586.85"><defs><style>.cls-1,.cls-10,.cls-21,.cls-22,.cls-23,.cls-24,.cls-25,.cls-26,.cls-4,.cls-5,.cls-6{fill:none;}.cls-2{clip-path:url(#clip-path);}.cls-3{clip-path:url(#clip-path-2);}.cls-22,.cls-4{stroke:#e2231a;}.cls-4,.cls-5,.cls-6{stroke-linecap:round;stroke-width:32.2px;}.cls-10,.cls-21,.cls-22,.cls-23,.cls-24,.cls-25,.cls-26,.cls-4,.cls-5{stroke-miterlimit:3.86;}.cls-21,.cls-5{stroke:#00833e;}.cls-10,.cls-23,.cls-6{stroke:#003da6;}.cls-6{stroke-linejoin:round;}.cls-7{fill:#003da6;}.cls-7,.cls-9{fill-rule:evenodd;}.cls-8{font-size:18.85px;}.cls-11,.cls-8,.cls-9{fill:#fff;}.cls-11,.cls-8{font-family:Helvetica-Bold, Helvetica;font-weight:700;}.cls-10,.cls-22{stroke-width:3.2px;}.cls-11{font-size:9.66px;}.cls-12{font-size:8.7px;}.cls-12,.cls-13,.cls-14,.cls-15,.cls-16,.cls-17,.cls-18,.cls-19,.cls-20,.cls-27,.cls-30,.cls-31{fill:#231f20;}.cls-12,.cls-13,.cls-14,.cls-15,.cls-16,.cls-17,.cls-18,.cls-19,.cls-20{font-family:Helvetica, Helvetica;}.cls-13{font-size:8.7px;}.cls-14{font-size:8.7px;}.cls-15{font-size:8.7px;}.cls-16{font-size:8.7px;}.cls-17{font-size:8.7px;}.cls-18{font-size:8.7px;}.cls-19{font-size:8.7px;}.cls-20{font-size:8.7px;}.cls-21,.cls-23{stroke-width:2.4px;}.cls-24,.cls-25{stroke:#231f20;}.cls-24{stroke-width:5px;}.cls-25{stroke-width:20px;}.cls-26{stroke:#fff;stroke-width:10px;}.cls-27{font-size:14.5px;}.cls-27,.cls-30,.cls-31{font-family:BentonSansCond-Bold, BentonSans Cond Bold;}.cls-28{letter-spacing:-0.02em;}.cls-29{letter-spacing:-0.02em;}.cls-30{font-size:17.4px;}.cls-31{font-size:14.5px;}</style><clipPath id="clip-path" transform="translate(-241.82 -279.18)"><rect class="cls-1" x="11" y="16.59" width="1374.3" height="920.53" transform="translate(-11.4 17.14) rotate(-1.39)"/></clipPath><clipPath id="clip-path-2" transform="translate(-241.82 -279.18)"><rect class="cls-1" x="11" y="16.59" width="1374.3" height="920.53" transform="translate(-11.4 17.14) rotate(-1.39)"/></clipPath></defs><title>map2</title><g id="图层_2" data-name="图层 2"><g id="图层_1-2" data-name="图层 1"><g class="cls-2"><g class="cls-3"><path class="cls-4" d="M534.31,624.39c-33-31.56-71.89-69.7-120.44-116.06" transform="translate(-241.82 -279.18)"/><path class="cls-5" d="M329.55,697.52c-41.76,1-40.84,38.64-40.84,38.64l0,1,1.67,68.47c-.33,18-8.05,26.19-12.94,30.18l-19.54,14.15" transform="translate(-241.82 -279.18)"/><path class="cls-5" d="M329.55,697.52l110.89-2.69c26.84-.65,33.14-6.81,47.22-21.59l28.2-29.59,66.51-69.9" transform="translate(-241.82 -279.18)"/><line class="cls-6" x1="340.61" y1="294.62" x2="293.96" y2="250.06"/><path class="cls-6" d="M943.67,295.28,696,555.75l-48.21,50.87-.19.22c-15,15.71-30,.46-30,.46l.18.14L590,581.09l-7.63-7.28" transform="translate(-241.82 -279.18)"/><path class="cls-7" d="M518.31,509.87a11,11,0,0,1,10.76-11.29l29.4-.72a11,11,0,0,1,.54,22l-29.4.72a11,11,0,0,1-11.29-10.75" transform="translate(-241.82 -279.18)"/></g><text class="cls-8" transform="translate(289.51 237.06) rotate(-1.39)">BL</text><g class="cls-3"><path class="cls-9" d="M530.08,529.42a5.44,5.44,0,1,1,5.57,5.3,5.44,5.44,0,0,1-5.57-5.3" transform="translate(-241.82 -279.18)"/><circle class="cls-10" cx="535.52" cy="529.28" r="5.44" transform="translate(-254.54 -265.99) rotate(-1.39)"/><text class="cls-11" transform="matrix(0.69, -0.72, 0.72, 0.69, 249.43, 395.05)">B, C, D, E</text><text class="cls-11" transform="matrix(0.69, -0.72, 0.72, 0.69, 307.13, 333.74)">C, D, E</text></g><text class="cls-12" transform="translate(516.38 194.39) rotate(69.35)"> </text><text class="cls-13" transform="matrix(0.33, 0.94, -0.94, 0.33, 517.21, 196.62)"> </text><text class="cls-14" transform="translate(517.97 198.82) rotate(71.73)"> </text><text class="cls-15" transform="translate(518.75 201.06) rotate(72.98)"> </text><text class="cls-14" transform="matrix(0.27, 0.96, -0.96, 0.27, 519.4, 203.3)"> </text><text class="cls-16" transform="translate(520.64 207.88) rotate(76.92)"> </text><text class="cls-17" transform="translate(521.15 210.16) rotate(78.32)"> </text><text class="cls-18" transform="matrix(0.18, 0.98, -0.98, 0.18, 521.65, 212.46)"> </text><text class="cls-19" transform="matrix(0.13, 0.99, -0.99, 0.13, 522.41, 217.09)"> </text><text class="cls-20" transform="translate(522.73 219.39) rotate(84.24)"> </text><g class="cls-3"><path class="cls-9" d="M391.16,696.09a5.44,5.44,0,1,1,5.57,5.31,5.44,5.44,0,0,1-5.57-5.31" transform="translate(-241.82 -279.18)"/><path class="cls-9" d="M343.46,697.18a5.44,5.44,0,1,1,5.57,5.31,5.44,5.44,0,0,1-5.57-5.31" transform="translate(-241.82 -279.18)"/><path class="cls-9" d="M296.18,706.77a5.44,5.44,0,1,1,5.57,5.31,5.44,5.44,0,0,1-5.57-5.31" transform="translate(-241.82 -279.18)"/><circle class="cls-21" cx="396.6" cy="695.96" r="5.44" transform="translate(-258.64 -269.32) rotate(-1.39)"/><path class="cls-9" d="M483,580.72a5.44,5.44,0,1,1,5.57,5.3,5.44,5.44,0,0,1-5.57-5.3" transform="translate(-241.82 -279.18)"/><circle class="cls-22" cx="488.46" cy="580.59" r="5.44" transform="translate(-255.8 -267.12) rotate(-1.39)"/><path class="cls-9" d="M686.65,559.83a5.44,5.44,0,1,1,5.57,5.31,5.44,5.44,0,0,1-5.57-5.31" transform="translate(-241.82 -279.18)"/><circle class="cls-23" cx="692.09" cy="559.69" r="5.44" transform="translate(-255.23 -262.17) rotate(-1.39)"/><path class="cls-9" d="M851.05,393a5.36,5.36,0,1,1-7.57.18,5.36,5.36,0,0,1,7.57-.18" transform="translate(-241.82 -279.18)"/><circle class="cls-23" cx="847.36" cy="396.92" r="5.36" transform="translate(-266.28 457.57) rotate(-46.39)"/><path class="cls-9" d="M810.6,435.12a5.36,5.36,0,1,1-7.57.18,5.36,5.36,0,0,1,7.57-.18" transform="translate(-241.82 -279.18)"/><circle class="cls-23" cx="823.62" cy="422.03" r="5.36" transform="translate(-291.83 448.17) rotate(-46.39)"/><path class="cls-9" d="M892.11,349.93a5.36,5.36,0,1,1-7.57.18,5.36,5.36,0,0,1,7.57-.18" transform="translate(-241.82 -279.18)"/><circle class="cls-23" cx="888.41" cy="353.81" r="5.36" transform="translate(-222.34 473.9) rotate(-46.39)"/><path class="cls-9" d="M933.34,307.05a5.36,5.36,0,1,1-7.57-.22,5.36,5.36,0,0,1,7.57.22" transform="translate(-241.82 -279.18)"/><circle class="cls-23" cx="929.45" cy="310.73" r="5.36" transform="translate(-201.43 443.85) rotate(-43.37)"/><path class="cls-9" d="M284.1,770.16a5.44,5.44,0,1,1,5.57,5.31,5.44,5.44,0,0,1-5.57-5.31" transform="translate(-241.82 -279.18)"/><circle class="cls-21" cx="289.54" cy="770.03" r="5.44" transform="translate(-260.47 -271.9) rotate(-1.39)"/><path class="cls-9" d="M633,620.62a6.89,6.89,0,1,1,6.72-7.05,6.89,6.89,0,0,1-6.72,7.05" transform="translate(-241.82 -279.18)"/><circle class="cls-24" cx="632.83" cy="613.73" r="6.89" transform="translate(-256.59 -263.57) rotate(-1.4)"/><path class="cls-9" d="M582.59,580.64a6.89,6.89,0,1,1,6.72-7.05,6.89,6.89,0,0,1-6.72,7.05" transform="translate(-241.82 -279.18)"/><circle class="cls-24" cx="582.42" cy="573.76" r="6.89" transform="translate(-255.63 -264.81) rotate(-1.4)"/><path class="cls-9" d="M529.63,629.2a6.7,6.7,0,1,1,9.47-.23,6.7,6.7,0,0,1-9.47.23" transform="translate(-241.82 -279.18)"/><circle class="cls-24" cx="534.24" cy="624.35" r="6.7" transform="translate(-528.13 301.42) rotate(-46.39)"/><line class="cls-25" x1="252.35" y1="411.9" x2="220.65" y2="412.67"/><path class="cls-9" d="M498.56,691a6.69,6.69,0,1,1-6.86-6.53,6.69,6.69,0,0,1,6.86,6.53" transform="translate(-241.82 -279.18)"/><circle class="cls-24" cx="491.87" cy="691.13" r="6.69" transform="translate(-258.49 -267) rotate(-1.39)"/><path class="cls-9" d="M469.9,691.67a6.69,6.69,0,1,1-6.86-6.53,6.69,6.69,0,0,1,6.86,6.53" transform="translate(-241.82 -279.18)"/><circle class="cls-24" cx="463.2" cy="691.83" r="6.69" transform="translate(-258.52 -267.7) rotate(-1.39)"/><line class="cls-26" x1="252.35" y1="411.9" x2="220.65" y2="412.67"/></g><text class="cls-27" transform="translate(346.9 269.86) rotate(-1.39)"><tspan class="cls-28">Go</tspan><tspan class="cls-29" x="16.21" y="0">v</tspan><tspan class="cls-28" x="22.72" y="0">ernmen</tspan><tspan x="67.79" y="0">t</tspan></text><text class="cls-27" transform="translate(347.32 287.25) rotate(-1.39)">Center</text><text class="cls-27" transform="translate(83.71 252.97) rotate(-1.39)">Kendall/MIT</text><text class="cls-30" transform="translate(276.72 216.12) rotate(-1.39)">BOWDOIN</text><text class="cls-27" transform="translate(576.75 172.77) rotate(-1.39)">Airport</text><text class="cls-27" transform="translate(699.17 45.41) rotate(-1.39)">Su</text><text class="cls-27" transform="translate(715.4 45.01) rotate(-1.39)">ﬀolk Downs</text><text class="cls-27" transform="translate(44.38 577.26) rotate(-1.39)">Northeastern</text><text class="cls-31" transform="matrix(1, -0.02, 0.02, 1, 303.56, 361.61)">Park St</text><g class="cls-3"><path class="cls-9" d="M264.5,846.5a6.7,6.7,0,1,1,9.47-.23,6.7,6.7,0,0,1-9.47.23" transform="translate(-241.82 -279.18)"/><circle class="cls-24" cx="269.12" cy="841.65" r="6.7" transform="translate(-767.75 176.87) rotate(-46.39)"/><path class="cls-9" d="M416,519.7a6.7,6.7,0,1,1,9.47-.23,6.7,6.7,0,0,1-9.47.23" transform="translate(-241.82 -279.18)"/><circle class="cls-24" cx="420.6" cy="514.85" r="6.7" transform="translate(-484.1 185.15) rotate(-46.39)"/></g></g></g></g></svg>