<svg xmlns="http://www.w3.org/2000/svg" viewBox="0 0 162 163"><defs><style>.cls-1{fill:#fff;}</style></defs><title>资源 4</title><g id="图层_2" data-name="图层 2"><g id="图层_1-2" data-name="图层 1"><g id="_7MQp1i.tif" data-name="7MQp1i.tif"><path d="M0,53C1.78,52,3.41,50.88,5.13,50c.41-.21,1.21.1,1.72.38Q17.33,56,27.77,61.64a1.81,1.81,0,0,0,2.11,0Q42.09,54,54.35,46.44c.34-.21.64-.47,1.14-.84L16.12,14.72c1-.62,1.75-1.13,2.55-1.61,2.72-1.65,5.47-3.28,8.17-5A2.29,2.29,0,0,1,29.12,8q23.23,9,46.49,17.87c1.78.68,3.59,1.32,5.34,2.08a3.09,3.09,0,0,0,3.16-.25q20-12.25,40-24.4c6.68-4,13.7-4.13,20.87-1.41a8.72,8.72,0,0,1,2.22,1.32,3,3,0,0,1,1,3.89,22.86,22.86,0,0,1-3,4.65A79.24,79.24,0,0,1,127,26.54Q93.33,47.37,59.38,67.75a60.74,60.74,0,0,1-12.29,5.18c-7.86,2.59-15.83,4.83-23.76,7.22a1.55,1.55,0,0,1-1.91-.54Q11,66.7.53,53.83C.39,53.65.28,53.46,0,53Z"/><path d="M15.84,132.8c0-9.48,0-19,0-28.43,0-1.31.42-1.58,1.64-1.58q19.88,0,39.77,0c1.36,0,1.66.45,1.66,1.72q0,28.22,0,56.44c0,2,0,2-2,2-13.17,0-26.33,0-39.5,0-1.28,0-1.59-.38-1.59-1.62C15.86,151.85,15.84,142.33,15.84,132.8Zm13-12.3h0c1,0,2.1,0,3.14,0,.75,0,1.07-.22,1.06-1Q33,116.24,33,113c0-.75-.25-1.07-1-1.06-2.14,0-4.28,0-6.42,0-.85,0-1.13.37-1.12,1.15,0,1.27,0,2.55,0,3.83,0,3.62,0,3.62,3.55,3.62Zm-4.32,8.08c0,2.72,0,5.34,0,8,0,.23.62.62,1,.63,2.14,0,4.28,0,6.42,0,.74,0,1.08-.27,1.07-1,0-2.19,0-4.37,0-6.56,0-.66-.2-1-.94-1C29.67,128.6,27.26,128.59,24.52,128.59Zm25.7,4.22h0c0-1.09,0-2.18,0-3.27,0-.67-.23-1-1-1-2.23,0-4.46,0-6.68.07a1.34,1.34,0,0,0-.9,1c-.07,2.23-.06,4.46,0,6.68a1.26,1.26,0,0,0,.86.88c2.23.08,4.46,0,6.68.06.71,0,1-.3,1-1C50.21,135.08,50.22,133.94,50.22,132.81Zm0-12.29c0-2.76,0-5.34,0-7.91,0-.23-.61-.63-.94-.64-2.14-.07-4.28,0-6.41-.08-.83,0-1.14.33-1.13,1.13,0,2.18,0,4.37.06,6.55,0,.32.43.9.67.9C44.93,120.54,47.46,120.51,50.2,120.51Z"/><path d="M162,132.8c0,9.52,0,19,0,28.57,0,1.21-.27,1.64-1.58,1.63q-20-.08-39.91,0c-1.25,0-1.5-.39-1.5-1.56q.05-28.57,0-57.14c0-1.1.27-1.49,1.44-1.49q20,0,39.91,0c1.38,0,1.64.48,1.64,1.73C162,113.94,162,123.37,162,132.8Zm-8.57-16.56h0c0-1,0-2.09,0-3.14,0-.77-.23-1.19-1.08-1.19-2.14,0-4.27,0-6.41,0-.79,0-1.18.29-1.17,1.11,0,2.18,0,4.36.06,6.54a1.36,1.36,0,0,0,.94.93c2.22.08,4.45.07,6.68,0a1.36,1.36,0,0,0,.91-.95A29.37,29.37,0,0,0,153.41,116.24Zm-17.19,16.67c0-1.09,0-2.19,0-3.28,0-.74-.23-1.08-1-1.07q-3.28,0-6.56,0c-.77,0-1.06.3-1.06,1q0,3.28,0,6.56c0,.76.35,1.06,1.09,1.05,2.19,0,4.37,0,6.56-.08a1.38,1.38,0,0,0,.94-.95A28.84,28.84,0,0,0,136.21,132.91Zm0-16.63h0a32.38,32.38,0,0,0,0-3.4,1.36,1.36,0,0,0-.91-.94c-2.22-.08-4.45,0-6.68,0-.77,0-1,.39-1,1.12q0,3.2,0,6.4c0,.76.29,1.07,1,1.07q3.34,0,6.68,0c.69,0,1-.27,1-1C136.2,118.47,136.23,117.38,136.23,116.29Zm12.92,12.27v0c-1.09,0-2.19,0-3.28,0-.83,0-1.13.3-1.12,1.12,0,2.14,0,4.28,0,6.41,0,.74.26,1.09,1,1.09,2.18,0,4.37,0,6.55,0,.83,0,1.11-.37,1.09-1.17,0-2.09-.05-4.19,0-6.28,0-1-.38-1.27-1.29-1.22S150.15,128.56,149.15,128.56Z"/><path d="M68.48,140.32c0-7,0-14,0-21.05,0-1.19.41-1.47,1.5-1.47q20,0,39.91,0c1.21,0,1.65.25,1.65,1.58q-.07,20.91,0,41.83c0,1.33-.26,1.78-1.71,1.77q-20-.09-39.92,0c-1.14,0-1.48-.36-1.47-1.48,0-7.06,0-14.12,0-21.19Zm8.7-11.76v8.63c2.63,0,5.17,0,7.7,0,.27,0,.73-.65.74-1,.07-2.18,0-4.37,0-6.55,0-.75-.3-1-1.06-1C82.2,128.58,79.79,128.56,77.18,128.56Zm17.12.07c0,2.71,0,5.29,0,7.87a.94.94,0,0,0,.63.67q3.54.06,7.09,0c.25,0,.71-.4.71-.61,0-2.61,0-5.23,0-7.91Z"/><path d="M106,50.62c1.79-.91,3.44-1.76,5.1-2.58.83-.41,1,.32,1.25.82q2.07,4.15,4.12,8.31l.84,1.67,12.21-7c.44,2,.86,3.75,1.25,5.54q2,9.26,4,18.52c.1.44.15.9.27,1.34.21.75-.13,1.11-.83,1.26-1.33.28-2.67.54-4,.86-1,.24-1.37-.14-1.57-1.1-1.07-5.12-2.21-10.22-3.33-15.33-.06-.26-.14-.51-.26-.92-.55.25-1,.43-1.5.69-2.68,1.54-5.37,3.08-8,4.65-.62.37-1,.45-1.42-.29C111.49,61.63,108.8,56.22,106,50.62Z"/><path d="M103.34,79.76c-2.34.65-4.51,1.24-6.69,1.86-1.14.32-2.27.65-3.39,1a1,1,0,0,1-1.5-.66q-3.59-8.25-7.24-16.47c-.35-.79-.18-1.13.57-1.43C86.41,63.57,87.71,63,89,62.4c.83-.41,1.21-.18,1.55.62,1.53,3.55,3.17,7,4.63,10.62.53,1.29,1.18,1.43,2.38,1.05,3.08-1,6.2-1.79,9.28-2.74,1.22-.38,1.63-.09,1.87,1.21,1.28,6.84,2.68,13.65,4,20.48.37,1.85.35,1.84-1.48,2.19-1.12.21-2.23.46-3.33.72-.87.2-1.27,0-1.46-1C105.47,90.36,104.41,85.2,103.34,79.76Z"/><path d="M66.12,98.71,60.19,79c1.94-.59,3.78-1.17,5.66-1.66.19-.05.7.47.8.8,1.12,3.56,2.22,7.12,3.24,10.71.29,1,.67,1.19,1.65.8C75,88.32,78.4,87,82,85.64c.45,2.37.89,4.62,1.31,6.88.79,4.2,1.53,8.42,2.37,12.61.22,1.08,0,1.49-1.11,1.6a22.66,22.66,0,0,0-3.48.67c-1.12.29-1.66,0-1.86-1.18-.54-3.32-1.17-6.63-1.78-9.94-.1-.53-.27-1-.46-1.75Z"/><path class="cls-1" d="M28.84,120.51H28c-3.54,0-3.54,0-3.55-3.62,0-1.28,0-2.55,0-3.83,0-.78.26-1.17,1.12-1.15,2.14,0,4.28,0,6.42,0,.77,0,1,.31,1,1.06q0,3.28,0,6.56c0,.79-.31,1-1.06,1-1,0-2.09,0-3.14,0Z"/><path class="cls-1" d="M24.52,128.59c2.74,0,5.15,0,7.56,0,.74,0,.94.33.94,1,0,2.19,0,4.37,0,6.56,0,.77-.33,1-1.07,1-2.14,0-4.28.06-6.42,0-.34,0-1-.4-1-.63C24.49,133.93,24.52,131.3,24.52,128.59Z"/><path class="cls-1" d="M50.22,132.81c0,1.14,0,2.27,0,3.41,0,.68-.26,1-1,1-2.23,0-4.46,0-6.68-.06a1.26,1.26,0,0,1-.86-.88c-.08-2.23-.09-4.46,0-6.68a1.34,1.34,0,0,1,.9-1c2.23-.09,4.46,0,6.68-.07.72,0,1,.3,1,1,0,1.09,0,2.18,0,3.27Z"/><path class="cls-1" d="M50.2,120.51c-2.74,0-5.27,0-7.81,0-.24,0-.66-.58-.67-.9-.07-2.18,0-4.37-.06-6.55,0-.8.3-1.15,1.13-1.13,2.14,0,4.28,0,6.41.08.34,0,.94.41.94.64C50.23,115.18,50.2,117.76,50.2,120.51Z"/><path class="cls-1" d="M153.41,116.24a29.37,29.37,0,0,1,0,3.27,1.36,1.36,0,0,1-.91.95c-2.22.09-4.45.1-6.68,0a1.36,1.36,0,0,1-.94-.93c-.09-2.18,0-4.36-.06-6.54,0-.83.39-1.12,1.17-1.11,2.14,0,4.27,0,6.41,0,.85,0,1.1.42,1.08,1.19,0,1,0,2.09,0,3.14Z"/><path class="cls-1" d="M136.21,132.91a28.7,28.7,0,0,1,0,3.27,1.38,1.38,0,0,1-.94.95c-2.18.09-4.37.05-6.56.08-.74,0-1.09-.3-1.09-1.05q0-3.28,0-6.56c0-.75.29-1.06,1.06-1q3.28.05,6.56,0c.78,0,1,.33,1,1.07C136.19,130.73,136.21,131.82,136.21,132.91Z"/><path class="cls-1" d="M136.23,116.29c0,1.09,0,2.18,0,3.27,0,.7-.27,1-1,1q-3.34,0-6.68,0c-.75,0-1-.31-1-1.07q.05-3.2,0-6.4c0-.73.23-1.12,1-1.12,2.23,0,4.45-.05,6.68,0a1.36,1.36,0,0,1,.91.94,32.38,32.38,0,0,1,0,3.4Z"/><path class="cls-1" d="M149.15,128.56c1,0,2,0,3,0s1.32.23,1.29,1.22c-.06,2.09,0,4.19,0,6.28,0,.8-.26,1.18-1.09,1.17-2.18,0-4.37,0-6.55,0-.76,0-1-.35-1-1.09,0-2.14,0-4.28,0-6.41,0-.82.29-1.15,1.12-1.12,1.09,0,2.18,0,3.28,0Z"/><path class="cls-1" d="M77.18,128.56c2.6,0,5,0,7.42,0,.76,0,1.07.29,1.06,1,0,2.18,0,4.37,0,6.55,0,.36-.47,1-.74,1-2.53.08-5.07,0-7.7,0Z"/><path class="cls-1" d="M94.3,128.63h8.49c0,2.68,0,5.29,0,7.91,0,.22-.46.61-.71.61q-3.54.08-7.09,0a.94.94,0,0,1-.63-.67C94.29,133.91,94.3,131.33,94.3,128.63Z"/></g></g></g></svg>