<svg xmlns="http://www.w3.org/2000/svg" viewBox="0 0 277.6 145.44"><defs><style>.cls-1{fill:#c6daff;}.cls-2{opacity:0.4;}.cls-3,.cls-6{fill:#6495ed;}.cls-4{fill:#666;opacity:0.5;}.cls-4,.cls-6{isolation:isolate;}.cls-5{fill:#f90;}.cls-6{opacity:0.95;}.cls-7{fill:none;stroke:#000;stroke-miterlimit:10;}.cls-8{font-size:13.03px;font-family:BentonSansCond-Bold, BentonSans Cond Bold;}.cls-9{letter-spacing:-0.01em;}</style></defs><title>car1</title><g id="图层_2" data-name="图层 2"><g id="图层_1-2" data-name="图层 1"><path class="cls-1" d="M.12,15.45V.19c.94-.29,275-.2,276.3,0V15.35c-.33,0-.66.06-1,.06H125.48L1.6,15.45Z"/><path class="cls-1" d="M209.08,78.25H160.94c0-.37-.08-.73-.08-1.08q0-13.11.1-26.2V39.52c0-1.65.21-1.83,1.86-1.82h12.83c.61,0,1.22.06,1.9.09v3.09c0,.51-.39.73-.75,1a2.32,2.32,0,0,0-1.17,2.25,2.35,2.35,0,0,0,4.55.55,2.07,2.07,0,0,0-.95-2.69,1.4,1.4,0,0,1-.81-1.65c.07-.58,0-1.17.07-1.75s.22-.77.78-.85a4.56,4.56,0,0,1,.64,0l15.78.14a12.75,12.75,0,0,1,1.45.17v2.84a1.23,1.23,0,0,1-.73,1.08,2.2,2.2,0,0,0-.91,3l.11.18a2.35,2.35,0,0,0,3.15.83,2.32,2.32,0,0,0,.9-3.16l0,0a3.24,3.24,0,0,0-1-.92c-.31-.22-.61-.42-.62-.84v-3.1a11.82,11.82,0,0,1,1.33-.17l8.48-.06c1,0,1.18.24,1.22,1.21v.47q0,18.85,0,37.73ZM176.2,77a4,4,0,0,0,.1-.65V73.76q0-3.78-.07-7.56c0-1.18-.42-1.6-1.54-1.6H163.81c-1.08,0-1.4.31-1.41,1.36,0,3.44-.06,6.88-.08,10.32a6.17,6.17,0,0,0,.08.71Zm1.89,0h13.78c0-.45.06-.84.06-1.23V65.89c-.08-.92-.41-1.28-1.35-1.28H180.17c-1.48,0-2,.55-2,2C178.06,70,178.09,73.51,178.09,77Zm15.46.07a2.44,2.44,0,0,0,.41.08H206.4c.79,0,.9-.14.9-1V66.19c0-1-.42-1.55-1.58-1.54h-10.5c-1.37,0-1.65.29-1.65,1.7V77.06Z"/><path class="cls-1" d="M106.71,37.7h10.54a.65.65,0,0,1,.69.7V68.86c0,2.77,0,5.54-.07,8.3,0,1-.23,1.24-1.27,1.24-2.74,0-5.48-.09-8.21-.09H85.13c-4.65,0-9.29,0-13.94.06-1.48,0-1.51,0-1.5-1.49q0-9.78.07-19.56l.06-18.37c0-1.12.12-1.26,1.28-1.26h9.6a3.53,3.53,0,0,1,.46,0c.68.08.84.25.86.93s0,1.29,0,1.94a1.36,1.36,0,0,1-.76,1.35,2.16,2.16,0,0,0-1,2.88l.06.12a2.36,2.36,0,0,0,4.37-1.78,1.89,1.89,0,0,0-1-1.17,1.33,1.33,0,0,1-.8-1.58c.08-.51.07-1,.14-1.56.11-.86.24-1,1.09-1.06,1.17,0,2.34,0,3.51,0h17.06c.8,0,.88.16.88,1v1.75a1.45,1.45,0,0,1-.83,1.5,2.23,2.23,0,0,0-.87,3l.13.21a2.39,2.39,0,0,0,3.33.57h0a2.35,2.35,0,0,0,.51-3.28l-.05-.07a3,3,0,0,0-.82-.58,1.16,1.16,0,0,1-.61-1.15Zm9.37,39.45a2,2,0,0,0,.1-.4V66c0-1-.42-1.39-1.43-1.41H104c-.51,0-1,0-1.28.55a2.78,2.78,0,0,0-.23,1.07q-.11,4.93-.17,9.87c0,1,.17,1.12,1.13,1.12l11.59-.1Zm-22.14,0h5.72c1,0,1.21-.18,1.22-1.25V66.68a5.69,5.69,0,0,0-.05-.83c-.14-.91-.47-1.24-1.4-1.25h-11c-.92,0-1.28.38-1.37,1.28V76.57a.56.56,0,0,0,.52.55,5.84,5.84,0,0,0,.83,0ZM85.06,77V65.77a1.09,1.09,0,0,0-1-1.15h0a6.11,6.11,0,0,0-.74,0H72.57c-.9,0-1.13.23-1.26,1.13a5.64,5.64,0,0,0,0,.82V77Z"/><path class="cls-1" d="M252.42,80.59V38.86c0-1,.22-1.15,1.14-1.15h14.95a6.09,6.09,0,0,1,.74,0c.52.06.7.25.72.77,0,.74,0,1.48,0,2.21a1.38,1.38,0,0,1-.75,1.28,2,2,0,0,0-1.12,2.37A2.25,2.25,0,0,0,270,46.18a2.32,2.32,0,0,0,2.48-1,2.25,2.25,0,0,0-.63-3.12l-.13-.08a1.37,1.37,0,0,1-.82-1.48V38a.9.9,0,0,1,.08-.24h5.28c.21.67.32,40.22.11,42.75C275.78,80.71,254.5,80.81,252.42,80.59Z"/><path class="cls-1" d="M24,80.81H.08v-1.2l0-39.1V38.94c0-.8.25-1,1.07-1H16.86c.59,0,.77.23.8.8s0,1.41.06,2.11A1.45,1.45,0,0,1,17,42.16,2.13,2.13,0,0,0,16,45l.08.15a2.41,2.41,0,0,0,3,1.12,2.37,2.37,0,0,0,1.35-2.9,1.92,1.92,0,0,0-1.1-1.29,1.16,1.16,0,0,1-.74-1.24v-2.9H24C24.14,38.61,24.22,79.18,24,80.81Z"/><path class="cls-1" d="M276.41,28.83v6.31H251.33c-.86,0-1-.21-1-1.06V29.49c-.37,0-.69,0-1,0H232c-.86,0-1.13.34-1.11,1.23s0,1.9,0,2.85a1.66,1.66,0,0,1-.05.55c-.09.31-.22.6-.34.9h-.23a6,6,0,0,1-.26-1.09V31.12a7.69,7.69,0,0,0,0-.83.81.81,0,0,0-.75-.8h-7.38a1.67,1.67,0,0,1-.55,0,7.58,7.58,0,0,0-3,0c-1.51.06-3,0-4.52,0a22.86,22.86,0,0,0-2.47.21c-.64.09-.82.31-.84,1v4.43c-.51,0-1,0-1.41,0h-4.43a9.91,9.91,0,0,1-2.91-.38,4.08,4.08,0,0,0-1.35,0c-.55,0-1.1.18-1.64.18H159.9c-.08-1.8,0-3.53-.06-5.36-.42,0-.78,0-1.14,0H142.85a13.81,13.81,0,0,1-1.66-.24c-.09.06-.29.25-.5.4a1.12,1.12,0,0,0-.49,1.11c.1,1.11.15,2.21.19,3.32a2.2,2.2,0,0,1-.1.81c0,.11-.29.2-.44.2s-.24-.2-.26-.32a2.57,2.57,0,0,1,0-.55c0-1.11.1-2.21.1-3.32,0-.94-.38-1.31-1.31-1.44-.67-.09-1.32-.25-2-.34a1.93,1.93,0,0,0-.66.1,4.52,4.52,0,0,1-1,.28c-4.55,0-9.1,0-13.66.07h-.46c-.92,0-1,.16-1,1.1v4.39c-.29,0-.52.08-.76.08h-7.38c-1.08,0-1.29-.22-1.62-1.25-.46-1.4-1-2.77-1.49-4.16-.12-.31-.21-.63-.35-1,.46,0,.85-.07,1.24-.08,7.21-.16,14.47-.16,21.76-.16,1.56,0,3.12.2,4.68.25.58,0,1.15-.16,1.73-.19a23.8,23.8,0,0,1,2.39,0,13.12,13.12,0,0,1,1.77.34,2.85,2.85,0,0,1,1.72-.34l23.32-.06h5.06c-.19.68-.32,1.26-.52,1.82-.28.81-.64,1.59-.94,2.4s-.1,1.24.88,1.31h26.76c1.22,0,2.44-.13,3.79-.21l-1.86-5.24c.52,0,.88-.07,1.24-.08,3.26,0,6.52-.09,9.78-.09,2.67,0,5.35,0,8,.1a10.7,10.7,0,0,1,1.33.25,2.73,2.73,0,0,0,.7,0,13.42,13.42,0,0,1,1.53-.22H274A7.59,7.59,0,0,1,276.41,28.83Z"/><path class="cls-1" d="M80,28.63l-1.45,3.88c0,.14-.13.28-.17.42a.81.81,0,0,0,.7,1.14,8.22,8.22,0,0,0,1.11,0h29a1.9,1.9,0,0,1-1.55.83H68.15c0-.32-.07-.56-.07-.79V30.32c0-.75-.13-.85-.84-.92s-1.27-.16-1.9-.24a2.44,2.44,0,0,0-.54,0,26.75,26.75,0,0,1-7.89-.07,1.16,1.16,0,0,0-.37,0,29.23,29.23,0,0,1-6.34.25h-.46c-1,0-1.19.2-1.19,1.19v4.31c-.77.16-.88.1-.89-.56V30.17c0-.63-.19-.78-.84-.86h-.37q-8.25,0-16.52.08c-1.82,0-1.75-.13-1.74,1.77v2.68c0,1-.15,1.14-1.11,1.15H.13V28.63c.28,0,.55-.06.81-.06H54.48a13,13,0,0,1,1.37.15,1.71,1.71,0,0,0,.54.07c2.62-.49,5.26-.22,7.9-.33a.85.85,0,0,1,.36,0,4.09,4.09,0,0,0,2.35.11c1.53-.06,3.07-.06,4.6-.06,2.55,0,5.11.06,7.66.09A3.39,3.39,0,0,1,80,28.63Z"/><path class="cls-1" d="M224.69,50.35v7.29c0,2.43-1,3.38-3.45,3.42h-4.06a7,7,0,0,1-1-.1,2.55,2.55,0,0,1-2.33-2.35,11.47,11.47,0,0,1-.09-1.66V43.3a5.69,5.69,0,0,1,0-.83,2.71,2.71,0,0,1,2.69-2.55c1.84-.07,3.69-.08,5.53,0a2.6,2.6,0,0,1,2.63,2.56q0,.1,0,.2c.05,2.55,0,5.11,0,7.66Z"/><path class="cls-1" d="M236.32,50.41V42.58a2.64,2.64,0,0,1,2.63-2.65H239c1.84-.08,3.69-.08,5.53,0a2.61,2.61,0,0,1,2.62,2.39,10.11,10.11,0,0,1,.11,1.74v13a9.2,9.2,0,0,1-.17,1.82,2.46,2.46,0,0,1-2.12,2,6.76,6.76,0,0,1-1.19.12h-4c-2.56,0-3.51-1-3.52-3.55Z"/><path class="cls-1" d="M53.87,50.51V42.95a3.14,3.14,0,0,1,.5-1.84,2.67,2.67,0,0,1,2.28-1.18c1.78,0,3.57-.06,5.35,0a2.63,2.63,0,0,1,2.73,2.85V57.51a8.44,8.44,0,0,1,0,1,2.45,2.45,0,0,1-2.37,2.4,56,56,0,0,1-6.08,0,2.52,2.52,0,0,1-2.38-2.65V50.51Z"/><path class="cls-1" d="M133.6,50.51v8A2.62,2.62,0,0,1,131.28,61a6.78,6.78,0,0,1-1,.1h-4c-2.59,0-3.56-1-3.56-3.59V43.32a5.63,5.63,0,0,1,0-.82A2.62,2.62,0,0,1,125.33,40c1.93-.1,3.88-.09,5.81,0a2.64,2.64,0,0,1,2.38,2.43,8.69,8.69,0,0,1,0,1Z"/><path class="cls-1" d="M42.2,50.51v7a6.83,6.83,0,0,1,0,1,2.53,2.53,0,0,1-2.47,2.43c-2,.09-4,.07-6,0a2.57,2.57,0,0,1-2.4-2.43,8.46,8.46,0,0,1,0-1V42.65A2.74,2.74,0,0,1,34,39.92c1.78-.07,3.57-.07,5.35,0a2.73,2.73,0,0,1,2.8,3v7.57Z"/><path class="cls-1" d="M156.12,50.56v8a2.33,2.33,0,0,1-2.32,2.34h0q-3,.07-6,0a2.39,2.39,0,0,1-2.39-2.13,9.14,9.14,0,0,1-.09-1.38V43.49a10.27,10.27,0,0,1,.1-1.47,2,2,0,0,1,1.33-1.63,6.35,6.35,0,0,1,2.59-.53h3.6a5.69,5.69,0,0,1,.92.06,2.54,2.54,0,0,1,2.29,2.59v8Z"/><path class="cls-1" d="M229.76,79.92a4.9,4.9,0,0,0,.06-.59V78.22c0-9.84,0-19.68.06-29.52,0-3.16-.17-6.32,0-9.47a1.91,1.91,0,0,1,.38-1.5c.51.17.54.6.55,1,0,2.09.06,4.18,0,6.27a4.4,4.4,0,0,1-.25,2.35,1,1,0,0,0,.05.35c.08.77.21,1.53.22,2.29V78.9c0,.82.26,1,1.07,1.06s1.35,0,2,0h15.38c.46,0,.77.09.78.51s-.17.63-.79.64-1.35,0-2,0h-34.6a2.15,2.15,0,0,1-.81-.08.81.81,0,0,1-.4-.54c0-.13.22-.37.39-.44a1.88,1.88,0,0,1,.72-.07h16.24C229.13,80,229.42,79.93,229.76,79.92Z"/><path class="cls-1" d="M48.23,37.62a7.14,7.14,0,0,1,.27,1.16c0,2,.11,4,0,6-.06,1.08,0,2.14,0,3.21V78.62c0,1.17.28,1.37,1.37,1.37H65.46c.4,0,.8-.06,1.2-.06s.73.18.75.6-.26.7-.78.69-.92-.11-1.38-.11H29c-.73-.07-.82-.24-.59-1.13h18c.89,0,1.15-.28,1.19-1.17V48.67c0-.55.1-1.1.1-1.65s-.1-.91-.1-1.37V38.91A1.41,1.41,0,0,1,48.23,37.62Z"/><path class="cls-1" d="M158.44,80c.22.9.12,1.08-.61,1.12H121.11c-.81,0-.9-.16-.69-1.12h17.4c1.6,0,1.67-.07,1.67-1.65V39.18a3.27,3.27,0,0,1,0-.83,3.36,3.36,0,0,1,.36-.74h.22a3.76,3.76,0,0,1,.34.77,4.59,4.59,0,0,1,0,.83V78.1c0,1.88,0,1.88,1.92,1.88h15Z"/><path class="cls-1" d="M197.23,23H174c-.73-1.49-.47-1.93,1.14-1.93H196C197.51,21.06,197.72,21.39,197.23,23Z"/><path class="cls-1" d="M93.82,23.06H83c-.78,0-.86-.07-1-.76s0-1.13.9-1.21h21.85c.92,0,1.34.66,1,1.5a1.12,1.12,0,0,1-.6.48,2.19,2.19,0,0,1-.73,0H93.82Z"/><path class="cls-1" d="M59.26,23.09c-7.8-.13-15.53,0-23.25,0a4,4,0,0,1-.24-.58c-.24-1,0-1.39,1.08-1.4h10.7a4.54,4.54,0,0,1,.72.13c.15,0,.32.13.45.09,1.84-.56,3.72-.16,5.58-.25,1.29-.06,2.58,0,3.87,0s1.47.21,1.23,1.46C59.37,22.67,59.33,22.81,59.26,23.09Z"/><path class="cls-1" d="M243,23.07c-3.94,0-7.81,0-11.67,0s-7.72,0-11.58,0a3.61,3.61,0,0,1-.2-.36c-.4-1.17-.11-1.63,1.12-1.64,2,0,4-.08,6,0,.91.06,1.79,0,2.69,0,4.27-.07,8.54,0,12.81,0,.92,0,1.09.22,1,1.11A2.37,2.37,0,0,0,243,23.07Z"/><path class="cls-1" d="M127.76,23.24l.78-2.14h18.25c.6,0,1.21.17,1.82.19a9.94,9.94,0,0,0,1.54-.08c.55-.06,1.08-.16,1.68-.25v2.11H149.9a11.35,11.35,0,0,0-3.49,0,2,2,0,0,1-.55,0H131.37c-.39,0-.79-.11-1.19-.1a16.69,16.69,0,0,0-1.72.17Z"/><path class="cls-1" d="M197.55,45.57a1.65,1.65,0,0,1,.13-3.3h0a1.65,1.65,0,0,1-.13,3.3Z"/><path class="cls-1" d="M177.93,42.26a1.63,1.63,0,0,1,1.63,1.63v0a1.66,1.66,0,0,1-1.62,1.67,1.63,1.63,0,0,1-1.62-1.64v0a1.61,1.61,0,0,1,1.56-1.66Z"/><path class="cls-1" d="M107.72,43.9a1.63,1.63,0,0,1-1.57,1.69h0a1.72,1.72,0,0,1-1.69-1.7,1.67,1.67,0,0,1,1.65-1.63,1.62,1.62,0,0,1,1.62,1.62Z"/><path class="cls-1" d="M18.13,45.76A1.67,1.67,0,1,1,18,42.42h.24a1.67,1.67,0,0,1-.1,3.33Z"/><path class="cls-1" d="M84.14,43.93a1.63,1.63,0,1,1-3.26,0h0a1.62,1.62,0,0,1,1.6-1.64h0A1.66,1.66,0,0,1,84.14,43.93Z"/><path class="cls-1" d="M270.48,42.26a1.64,1.64,0,0,1,1.64,1.62,1.61,1.61,0,0,1-1.53,1.69h0a1.72,1.72,0,0,1-1.72-1.66A1.76,1.76,0,0,1,270.48,42.26Z"/><path class="cls-1" d="M176.2,77H162.36a6.17,6.17,0,0,1-.08-.71c0-3.44,0-6.88.08-10.32,0-1,.33-1.36,1.41-1.36h10.88c1.12,0,1.52.42,1.54,1.6q0,3.78.07,7.56v2.58A4,4,0,0,1,176.2,77Z"/><path class="cls-1" d="M178.09,77V66.64c0-1.48.54-2,2-2H190.5c.94,0,1.27.36,1.35,1.28v1.2q0,4.33,0,8.67a8.87,8.87,0,0,1-.06,1.23Z"/><path class="cls-1" d="M193.55,77.06V66.34c0-1.41.28-1.7,1.65-1.7h10.5c1.16,0,1.59.58,1.58,1.54v9.95c0,.89-.11,1-.9,1H193.94A2.44,2.44,0,0,1,193.55,77.06Z"/><path class="cls-1" d="M116.08,77.15h-1l-11.63.08c-1,0-1.14-.14-1.13-1.12q.06-4.93.17-9.87a2.78,2.78,0,0,1,.23-1.07c.25-.51.77-.55,1.28-.55h10.79c1,0,1.42.41,1.43,1.41v10.7A2,2,0,0,1,116.08,77.15Z"/><path class="cls-1" d="M93.94,77.16H88.41a5.84,5.84,0,0,1-.83,0,.56.56,0,0,1-.52-.55V65.92c.09-.9.45-1.27,1.37-1.28h11c.93,0,1.26.34,1.4,1.25a5.69,5.69,0,0,1,.05.83v9.22c0,1.07-.17,1.24-1.22,1.25H93.94Z"/><path class="cls-1" d="M85.06,77H71.18V66.57a5.64,5.64,0,0,1,0-.82c.13-.9.36-1.12,1.26-1.13H83.13a6.11,6.11,0,0,1,.74,0A1.09,1.09,0,0,1,85,65.71V77Z"/><rect class="cls-1" x="0.08" y="84.1" width="276.44" height="10.11"/><g class="cls-2"><path class="cls-3" d="M76.71,83.51V77.6H73.47a1.75,1.75,0,0,1-1.82-1.68q0-.08,0-.16V74.62c0-.62.12-.74.75-.76h.27V66.13a3.84,3.84,0,0,1,3.12-3.92A6.16,6.16,0,0,1,77,62.13h2.86a3.88,3.88,0,0,1,4,3.76q0,.12,0,.24v7.55c.37.18.77.25.92.48s.07.65.09,1h2c.08-.6-.3-1.57,1-1.3V66.13A3.89,3.89,0,0,1,91,62.2a4.69,4.69,0,0,1,.92-.07h3A3.88,3.88,0,0,1,99,66.27v7.51c.89.21.89.21,1,1.4h2c.09-.61-.26-1.57,1-1.3v-7.7a3.86,3.86,0,0,1,3.65-4.06h3.54a3.87,3.87,0,0,1,4,3.74q0,.13,0,.26v7.67h.39a.51.51,0,0,1,.57.53v1.59a1.72,1.72,0,0,1-1.72,1.61h-3.33v6h3.35c.53,0,.75.16.75.53s-.22.53-.75.53H73.18c-.35,0-.57-.17-.57-.53a.49.49,0,0,1,.44-.53h3.66ZM98,73.84a1.31,1.31,0,0,0,0-.22V66a2.81,2.81,0,0,0-2.79-2.83H92a2.85,2.85,0,0,0-3,3v7.61Zm-15.2,0V66a2.8,2.8,0,0,0-2.74-2.86H76.83a2.83,2.83,0,0,0-3.08,3.1v7.56Zm30.42,0V66a2.77,2.77,0,0,0-2.72-2.82h-3.35a2.84,2.84,0,0,0-3,3V73.8ZM92,77.6H88.71a1.4,1.4,0,0,1-1.41-.72c-.28-.68-.75-.69-1.31-.65a5.89,5.89,0,0,1-.84,0,.39.39,0,0,0-.44.3,1.6,1.6,0,0,1-1.53,1.06H79.8v5.84H92Zm15.17,0H104a1.72,1.72,0,0,1-1.75-1.09c0-.1-.16-.23-.25-.23H100a1.76,1.76,0,0,1-1.91,1.36H95.41c-.33,0-.42.11-.41.43V83.5h12.1Zm-34.4-2.66v.57c0,.85.17,1,1,1h9.45a.59.59,0,0,0,.62-.51,7.79,7.79,0,0,0,0-1.08Zm41.51,0H103.2v.73c0,.62.24.86.85.86h9.38a.75.75,0,0,0,.85-.75,7.79,7.79,0,0,0,0-.83ZM99,74.94H88v.5c0,.95.14,1.1,1.08,1.1h8.54C99,76.57,99.11,76.36,99,74.94ZM78.7,83.51V77.64c-.87-.13-.87-.13-.87.69v5.18Zm30.44,0V77.63h-.84v5.88Zm-15.23,0V77.64h-.84v5.81Z"/></g><g class="cls-2"><path class="cls-3" d="M168.26,83.51V77.6H165a1.76,1.76,0,0,1-1.83-1.69q0-.08,0-.15V74.62c0-.62.12-.74.74-.76h.28V66.13a3.84,3.84,0,0,1,3.12-3.92,6.31,6.31,0,0,1,1.23-.08h2.86a3.89,3.89,0,0,1,4,3.78q0,.11,0,.22v7.55c.37.18.78.25.93.48s.07.65.09,1h2c.09-.6-.29-1.57,1-1.3V66.13a3.89,3.89,0,0,1,3.13-3.93,4.59,4.59,0,0,1,.91-.07h3a3.89,3.89,0,0,1,4.13,4.14v7.51c.9.21.9.21,1,1.4h2c.09-.61-.26-1.57,1-1.3v-7.7a3.88,3.88,0,0,1,3.69-4.06h3.5a3.87,3.87,0,0,1,4,3.74q0,.13,0,.26v7.67h.39a.5.5,0,0,1,.56.53v1.59A1.72,1.72,0,0,1,205,77.52h-3.32v6H205c.52,0,.75.16.75.53s-.23.53-.75.53h-40.3a.53.53,0,1,1,0-1.06Zm21.29-9.63a1.12,1.12,0,0,0,0-.22V66a2.8,2.8,0,0,0-2.77-2.83h-3.26a2.85,2.85,0,0,0-3.06,3v7.61Zm-15.21,0V66.09a2.8,2.8,0,0,0-2.74-2.86h-3.26a2.83,2.83,0,0,0-3.08,3.1v7.56Zm30.42,0a2,2,0,0,0,0-.3V66A2.78,2.78,0,0,0,202,63.22h-3.33a2.85,2.85,0,0,0-3,3v7.61Zm-21.23,3.76h-3.26a1.41,1.41,0,0,1-1.42-.72c-.28-.68-.74-.69-1.31-.65a5.75,5.75,0,0,1-.83,0,.4.4,0,0,0-.45.3,1.58,1.58,0,0,1-1.53,1.06h-3.37v5.84h12.15Zm15.17,0h-3.21a1.74,1.74,0,0,1-1.73-1.13c0-.1-.16-.23-.24-.23h-1.91a1.77,1.77,0,0,1-1.91,1.36H187c-.34,0-.42.11-.42.43V83.5H198.7ZM164.32,75v.58c0,.85.17,1,1,1h9.45a.59.59,0,0,0,.62-.51,9.73,9.73,0,0,0,0-1.08Zm41.52,0H194.75v.73c0,.62.24.86.85.86H205a.74.74,0,0,0,.85-.75,7.78,7.78,0,0,0,0-.87Zm-15.29,0h-11v.5c0,.95.15,1.1,1.09,1.1h8.54c1.37,0,1.49-.22,1.37-1.64Zm-20.29,8.53V77.64c-.87-.13-.87-.13-.87.69v5.18Zm30.43,0V77.63h-.83v5.88Zm-15.22,0V77.64h-.84v5.81Z"/></g><g class="cls-2"><path class="cls-3" d="M276.13,84.51H263.47c-.35,0-.57-.16-.57-.52s.22-.53.57-.53H267v-6h-3.24a1.74,1.74,0,0,1-1.82-1.83V74.53c0-.62.12-.73.74-.76H263v-7.7a3.85,3.85,0,0,1,3.12-3.93,7.2,7.2,0,0,1,1.23-.08h2.86a3.89,3.89,0,0,1,4,3.78q0,.11,0,.22V73.6c.37.18.77.25.93.49s.07.64.09,1h1m-3-1.35V65.95a2.8,2.8,0,0,0-2.74-2.86h-3.26A2.84,2.84,0,0,0,264,66.21v7.57Zm3,2.4h-.68a.43.43,0,0,0-.45.3,1.6,1.6,0,0,1-1.54,1.07H270.1v5.85h6M263,74.85v.58c0,.86.17,1,1,1h9.46a.6.6,0,0,0,.62-.52,9.67,9.67,0,0,0,0-1.08Zm6,8.54V77.58c-.88-.13-.88-.13-.88.68v5.13Z"/></g><g class="cls-2"><path class="cls-3" d="M16.54,84.45H3.87a.49.49,0,0,1-.56-.53c0-.35.21-.52.56-.52H7.4V77.51H4.16a1.75,1.75,0,0,1-1.82-1.68q0-.08,0-.16V74.51c0-.62.12-.74.74-.76h.28V66.06a3.85,3.85,0,0,1,3.12-3.93A7.2,7.2,0,0,1,7.71,62h2.86a3.89,3.89,0,0,1,4,3.78q0,.11,0,.22V73.6c.37.18.78.25.93.49s.07.64.09,1h1m-3.06-1.35V66a2.81,2.81,0,0,0-2.75-2.87H7.53a2.83,2.83,0,0,0-3.08,3.09v7.56Zm3.06,2.41H15.9a.42.42,0,0,0-.45.3,1.57,1.57,0,0,1-1.53,1H10.55v5.84h6M3.46,74.86v.58c0,.85.17,1,1,1H14a.6.6,0,0,0,.62-.52,9.71,9.71,0,0,0,0-1.08ZM9.4,83.38V77.57c-.88-.13-.88-.13-.88.68v5.13Z"/></g><path class="cls-4" d="M167.79,84.91c.43.06.43.06.72-.12-.52-3.6,0-6.93-.11-10.88a9.14,9.14,0,0,1,2.29-1.17c-.42-2.2-1.13-4.2-1.56-6.4a1.53,1.53,0,0,0,.7-.94,11.73,11.73,0,0,0-3.14-9.47,2.64,2.64,0,0,0,.21-2.61c-2.26-.46-2,2-1.25,3a8.56,8.56,0,0,0-2,10.52c-.53,2.32-.9,4.51-1.32,6.73.25.27,1.27,0,1.53.25.68,2.93.4,6.58.83,9.7.15.58-.71,1.28.11,1.3.88-.47.41-1.57.44-2.25.1-2.1.24-4.41.33-6.74,0-.62-.45-2,.57-2.12.92,1.24.86,3,1,4.61"/><path class="cls-4" d="M151,84.51c.44.06.44.06.73-.11-.52-3.61,0-6.94-.11-10.89a9,9,0,0,1,2.29-1.17c-.42-2.2-1.13-4.19-1.56-6.39a1.56,1.56,0,0,0,.7-1,11.73,11.73,0,0,0-3.14-9.47,2.63,2.63,0,0,0,.21-2.6c-2.26-.46-2,2-1.25,3a8.56,8.56,0,0,0-2,10.52c-.53,2.32-.9,4.51-1.33,6.73.26.28,1.28,0,1.53.25.69,2.93.41,6.58.84,9.7.15.58-.71,1.28.11,1.3.88-.47.41-1.56.44-2.24.1-2.1.24-4.42.33-6.74,0-.62-.45-2,.57-2.13.92,1.24.86,3,1,4.61"/><path class="cls-4" d="M22.15,85.61c.46.06.46.06.76-.12-.55-3.75,0-7.21-.11-11.31A9.52,9.52,0,0,1,25.18,73c-.44-2.29-1.18-4.36-1.62-6.64a1.61,1.61,0,0,0,.72-1A12.21,12.21,0,0,0,21,55.51a2.73,2.73,0,0,0,.21-2.71c-2.35-.47-2,2-1.29,3.07A8.91,8.91,0,0,0,17.86,66.8c-.55,2.42-.94,4.7-1.38,7,.27.28,1.33,0,1.59.25.71,3,.42,6.84.87,10.08.16.61-.73,1.33.11,1.36.92-.49.43-1.63.46-2.34.1-2.18.25-4.58.35-7,0-.65-.48-2.06.59-2.21,1,1.29.89,3.16,1,4.79"/><path class="cls-4" d="M52.2,84.59a1.21,1.21,0,0,0,.68-.11c-.49-3.4,0-6.54-.1-10.26a8.77,8.77,0,0,1,2.16-1.1c-.4-2.08-1.07-4-1.47-6a1.42,1.42,0,0,0,.65-.89,11.08,11.08,0,0,0-3-8.93,2.46,2.46,0,0,0,.2-2.45c-2.13-.43-1.86,1.84-1.18,2.79a8.07,8.07,0,0,0-1.82,9.87c-.5,2.19-.85,4.25-1.25,6.35.24.25,1.2,0,1.44.23.65,2.76.38,6.2.79,9.14.14.55-.67,1.2.1,1.23.83-.44.39-1.48.42-2.12.09-2,.22-4.16.31-6.35,0-.59-.43-1.86.54-2,.86,1.18.81,2.87.89,4.35"/><path class="cls-4" d="M29.15,85.51c.41.06.41.06.68-.11-.49-3.4,0-6.54-.1-10.25A8.46,8.46,0,0,1,31.89,74c-.4-2.07-1.06-4-1.47-6a1.45,1.45,0,0,0,.65-.89,11,11,0,0,0-3-8.93,2.46,2.46,0,0,0,.19-2.45c-2.13-.44-1.85,1.84-1.17,2.78a8.06,8.06,0,0,0-1.86,9.91c-.51,2.19-.86,4.25-1.26,6.35.24.25,1.21,0,1.45.23.64,2.76.38,6.2.78,9.14.15.55-.66,1.21.11,1.23.83-.44.38-1.48.41-2.12.09-2,.23-4.16.32-6.35,0-.58-.44-1.86.53-2,.87,1.17.81,2.86.89,4.35"/><path class="cls-4" d="M35.35,84.59a1.21,1.21,0,0,0,.68-.11c-.49-3.4,0-6.54-.1-10.26a8.77,8.77,0,0,1,2.16-1.1c-.4-2.08-1.06-4-1.47-6a1.47,1.47,0,0,0,.66-.89,11.08,11.08,0,0,0-3-8.93,2.46,2.46,0,0,0,.19-2.45c-2.13-.43-1.85,1.84-1.17,2.79a8.07,8.07,0,0,0-1.82,9.87c-.51,2.19-.85,4.25-1.25,6.35.23.25,1.2,0,1.44.23.64,2.76.38,6.2.78,9.14.15.55-.66,1.2.11,1.23.83-.44.38-1.48.41-2.12.09-2,.23-4.16.32-6.35,0-.59-.43-1.86.53-2,.87,1.18.81,2.87.89,4.35"/><path class="cls-4" d="M59.81,84.59c.45.06.45.06.75-.12-.54-3.75,0-7.22-.11-11.31a9.39,9.39,0,0,1,2.38-1.23c-.44-2.28-1.17-4.36-1.62-6.64a1.61,1.61,0,0,0,.72-1,12.21,12.21,0,0,0-3.26-9.78,2.74,2.74,0,0,0,.22-2.7c-2.35-.48-2,2-1.3,3.07a8.89,8.89,0,0,0-2,10.93c-.56,2.41-.94,4.69-1.38,7,.26.28,1.32,0,1.59.25.71,3,.42,6.84.86,10.09.16.6-.73,1.33.12,1.35.92-.49.42-1.63.46-2.33.1-2.19.24-4.59.34-7,0-.64-.47-2,.59-2.21,1,1.29.9,3.16,1,4.8"/><path class="cls-4" d="M119,85.51c.46.06.46.06.76-.12-.55-3.75,0-7.21-.11-11.31A9.35,9.35,0,0,1,122,72.87c-.45-2.29-1.18-4.36-1.63-6.65a1.57,1.57,0,0,0,.73-1,12.2,12.2,0,0,0-3.26-9.84,2.73,2.73,0,0,0,.21-2.71c-2.35-.48-2,2-1.3,3.07a8.89,8.89,0,0,0-2,10.93c-.55,2.42-.94,4.69-1.38,7,.26.29,1.33,0,1.59.26.71,3,.42,6.84.87,10.08.16.61-.74,1.33.11,1.35.92-.48.43-1.62.46-2.33.1-2.18.25-4.59.35-7,0-.64-.48-2,.59-2.21.95,1.3.89,3.17,1,4.8"/><path class="cls-4" d="M213.76,51.81c-1.21,3.66.67,7.52,2.28,9.9.8.29,1.49.69,2.28,1s1.75.43,2.08,1.19c-.7.75-1.62-.45-2.48-.49a17.43,17.43,0,0,0-2.47-1c-.36-.4-.54-1-1-1.29-.19,2.44.39,5.81.69,8.42a102.25,102.25,0,0,1,4.06,12.68c.95.23,2,.33,3,.59a12.72,12.72,0,0,1-3.66,1.39c-1.28-2.67-2.19-7.26-3.57-10.6-.34-.82-.9-3-1.58-3.07-1.23-.06-1.18,3.9-1.69,4.75a48.87,48.87,0,0,0-4.45,6.94c.46.82,1.63.94,2.08,1.78a18.22,18.22,0,0,1-4.07-.2,61.3,61.3,0,0,1,5-9.21,48.54,48.54,0,0,0,1.22-14.08c-.56.66-.66,1.78-1.09,2.58v1.09c-.32.79,0,2.22-.59,2.77-.16-5.18.74-9.29,2.77-12.28-.24-1.21-.69-2.13-.19-3.37C213,50.74,213.42,51.34,213.76,51.81Z"/><path class="cls-4" d="M239,52.32c-1.22,3.67.67,7.52,2.27,9.91.81.29,1.49.69,2.28,1s1.76.43,2.08,1.19c-.69.75-1.62-.46-2.47-.5a19.72,19.72,0,0,0-2.48-1c-.36-.4-.54-1-1-1.28-.19,2.43.39,5.81.69,8.42a102.63,102.63,0,0,1,4.06,12.67c1,.24,2.05.33,3,.6a12.9,12.9,0,0,1-3.67,1.39c-1.27-2.67-2.18-7.26-3.57-10.6-.33-.82-.89-3-1.58-3.07-1.23-.06-1.18,3.9-1.68,4.75a48.82,48.82,0,0,0-4.46,6.93c.47.83,1.63,1,2.08,1.79a18.75,18.75,0,0,1-4.06-.2,60.37,60.37,0,0,1,4.95-9.21A48.52,48.52,0,0,0,236.73,61c-.57.66-.67,1.78-1.09,2.58v1.09c-.33.79,0,2.22-.6,2.77-.16-5.18.75-9.29,2.78-12.28-.24-1.22-.69-2.13-.2-3.37C238.24,51.26,238.69,51.86,239,52.32Z"/><path class="cls-4" d="M258.28,52.68c-1.21,3.67.68,7.52,2.28,9.9.81.29,1.49.69,2.28,1s1.75.42,2.08,1.18c-.69.76-1.62-.45-2.48-.49a18.71,18.71,0,0,0-2.47-1c-.36-.4-.54-1-1-1.29-.19,2.44.39,5.81.69,8.42a102.25,102.25,0,0,1,4.06,12.68c1,.24,2,.33,3,.59a12.72,12.72,0,0,1-3.72,1.4c-1.27-2.66-2.19-7.25-3.57-10.6-.33-.81-.89-3-1.58-3.07-1.23-.06-1.18,3.91-1.69,4.76a48.21,48.21,0,0,0-4.45,6.93c.46.82,1.63.94,2.08,1.78a17.53,17.53,0,0,1-4.06-.2,60.85,60.85,0,0,1,5-9.16A48.8,48.8,0,0,0,256,61.4c-.57.65-.67,1.78-1.09,2.57v1.09c-.33.8,0,2.23-.6,2.78-.16-5.19.75-9.3,2.78-12.29-.24-1.21-.7-2.12-.2-3.37C257.49,51.61,257.94,52.22,258.28,52.68Z"/><path class="cls-4" d="M232.15,52.51c-1.22,3.67.67,7.52,2.28,9.91.8.29,1.49.69,2.28,1s1.75.43,2.08,1.19c-.7.75-1.63-.46-2.48-.5a19.72,19.72,0,0,0-2.48-1c-.36-.4-.54-1-1-1.29a50.16,50.16,0,0,0,.7,8.42,102.25,102.25,0,0,1,4.07,12.67c1,.24,2.05.33,3,.6a12.6,12.6,0,0,1-3.67,1.38c-1.27-2.66-2.18-7.25-3.56-10.59-.34-.82-.9-3-1.59-3.08-1.23,0-1.18,3.91-1.68,4.76a49.72,49.72,0,0,0-4.46,6.93c.47.83,1.63.95,2.08,1.79a18.78,18.78,0,0,1-4.06-.2,61.68,61.68,0,0,1,5-9.21A48.52,48.52,0,0,0,230,61.22c-.56.66-.66,1.78-1.09,2.58v1.09c-.33.79,0,2.22-.59,2.77-.17-5.18.74-9.3,2.77-12.28-.24-1.22-.69-2.13-.2-3.37C231.35,51.44,231.81,52,232.15,52.51Z"/><path class="cls-4" d="M142.74,52.32c-1.21,3.67.67,7.52,2.28,9.91.8.29,1.49.69,2.28,1s1.75.43,2.08,1.19c-.7.75-1.62-.46-2.48-.5a20.19,20.19,0,0,0-2.47-1c-.36-.4-.55-1-1-1.28a51.41,51.41,0,0,0,.7,8.42,102.63,102.63,0,0,1,4.06,12.67c.95.24,2.05.33,3,.6a13,13,0,0,1-3.66,1.39c-1.28-2.67-2.19-7.26-3.57-10.6-.34-.82-.9-3-1.59-3.07-1.22-.06-1.17,3.9-1.68,4.75a49.72,49.72,0,0,0-4.46,6.93c.47.83,1.64,1,2.08,1.79a18.78,18.78,0,0,1-4.06-.2,61.3,61.3,0,0,1,5-9.21A48.54,48.54,0,0,0,140.53,61c-.56.66-.66,1.78-1.09,2.58v1.09c-.32.79,0,2.22-.59,2.77-.16-5.18.74-9.29,2.77-12.28-.24-1.22-.69-2.13-.2-3.37C142,51.26,142.4,51.86,142.74,52.32Z"/><path class="cls-4" d="M68.25,52.32c-1.21,3.67.68,7.52,2.28,9.91.81.29,1.49.69,2.28,1s1.75.43,2.08,1.19c-.69.75-1.62-.46-2.48-.5a20.19,20.19,0,0,0-2.47-1c-.36-.4-.54-1-1-1.28-.19,2.43.39,5.81.69,8.42A102.63,102.63,0,0,1,73.7,82.73c1,.24,2,.33,3,.6A12.72,12.72,0,0,1,73,84.72c-1.27-2.67-2.19-7.26-3.57-10.6-.34-.82-.89-3-1.58-3.07-1.23-.06-1.18,3.9-1.69,4.75a48.77,48.77,0,0,0-4.45,6.93c.46.83,1.63,1,2.08,1.79a18.71,18.71,0,0,1-4.06-.2,60.37,60.37,0,0,1,5-9.21A48.87,48.87,0,0,0,66,61c-.57.66-.67,1.78-1.09,2.58v1.09c-.33.79,0,2.22-.6,2.77-.16-5.18.74-9.29,2.78-12.28-.24-1.22-.7-2.13-.2-3.37C67.46,51.26,67.91,51.86,68.25,52.32Z"/><path class="cls-4" d="M175.17,51.7c-1.21,3.67.68,7.52,2.28,9.9.81.29,1.49.69,2.28,1s1.75.42,2.08,1.18c-.69.76-1.62-.45-2.48-.49a17.67,17.67,0,0,0-2.47-1c-.36-.4-.54-1-1-1.29-.19,2.44.39,5.81.69,8.42a102.25,102.25,0,0,1,4.06,12.68c1,.24,2,.33,3,.59a12.9,12.9,0,0,1-3.67,1.39c-1.27-2.66-2.18-7.26-3.57-10.6-.33-.82-.89-3-1.58-3.07-1.23-.06-1.18,3.91-1.69,4.76a49.08,49.08,0,0,0-4.45,6.93c.46.82,1.63.94,2.08,1.78a17.53,17.53,0,0,1-4.06-.2,60.85,60.85,0,0,1,5-9.21A48.8,48.8,0,0,0,173,60.41c-.57.65-.67,1.77-1.09,2.57v1.09c-.33.79,0,2.23-.6,2.77-.16-5.18.75-9.29,2.78-12.28-.24-1.21-.69-2.12-.2-3.37C174.38,50.63,174.83,51.23,175.17,51.7Z"/><path class="cls-4" d="M86,51.81c-1.22,3.66.67,7.52,2.27,9.9.81.29,1.49.69,2.28,1s1.76.43,2.08,1.19c-.69.75-1.62-.45-2.47-.49a17.09,17.09,0,0,0-2.48-1c-.36-.4-.54-1-1-1.29-.19,2.44.39,5.81.69,8.42a102.25,102.25,0,0,1,4,12.68c1,.23,2,.33,3,.59a12.9,12.9,0,0,1-3.67,1.39c-1.27-2.67-2.18-7.26-3.57-10.6-.33-.82-.89-3-1.58-3.07-1.23-.06-1.18,3.9-1.68,4.75a48.93,48.93,0,0,0-4.46,6.94c.47.82,1.63.94,2.08,1.78a18.13,18.13,0,0,1-4.06-.2,60.37,60.37,0,0,1,5-9.21,48.52,48.52,0,0,0,1.22-14.08c-.57.66-.67,1.78-1.09,2.58v1.09c-.33.79,0,2.22-.6,2.77-.16-5.18.75-9.29,2.78-12.28-.24-1.21-.69-2.13-.2-3.37C85.16,50.74,85.61,51.34,86,51.81Z"/><path class="cls-4" d="M270.81,57.43c.3.91-.39,2.33-.62,3.57.09.91,1,1,1.38,1.71.34,2.39.16,5.27.47,7.69-.65,1.87-1.71,3.36-2.31,5.27-1.6-.09-3.64.24-4.77-.29-1,2.21-.48,5.73-.93,8.41-1.36,0-2.27.36-3.69.28,2.08-2,2.29-5.67,2.77-9.11-.31-.57-1.23-.58-1.85-.86-.63,2.7-.13,6.43-.92,9a16.22,16.22,0,0,1-2.92-.29c2.38-2.3,1.12-8,3.58-10.3,1.18-.15,1.72.3,2.77.28,2.16-3.55,3.5-7.87,5.23-11.82.11-.72-.28-1-.46-1.43C269.14,58.79,269.47,57.11,270.81,57.43Z"/><path class="cls-4" d="M224.51,54.4c-.09.73-.17,1.48-.29,2.19,2.75,7.44,4.91,15.14,5.44,22.8-.08.5-.77.38-.95.77.23.91.67,1.61.95,2.48.57,0,1.31-.28,1.81,0-.06,1.07-1.39.9-1.9,1.52-.8-1-.86-2.71-1.63-3.72-2.12,1.25-5.57.13-8.49.19a11.36,11.36,0,0,0-1.33,2.68c.69.7,2.12.67,2.76,1.43a32.63,32.63,0,0,0-4,.09c.42-1.57,1.25-2.75,1.71-4.29-.25-1-1.12-1.43-1.43-2.39.83-1.23,1.62-2,2.77-3.43A19.61,19.61,0,0,0,222.32,69a21.58,21.58,0,0,0,.28-6c-1,1.27-.78,3.8-1.43,5.44-.62-.59-.47-1.86-.29-3.34.55-2.46,1-4.22,1.63-6.87a12.33,12.33,0,0,0,1.14-1.43,3.62,3.62,0,0,1-.57-2.86C223.64,53.41,224.14,53.95,224.51,54.4Z"/><path class="cls-4" d="M134.55,54c-.09.73-.17,1.48-.29,2.19C137,63.66,139.17,71.37,139.7,79c-.08.49-.77.37-.95.76.23.91.67,1.62.95,2.48.57,0,1.31-.27,1.81,0-.07,1.08-1.39.9-1.9,1.53-.8-1-.86-2.71-1.63-3.72-2.12,1.24-5.57.12-8.49.19a11.1,11.1,0,0,0-1.33,2.67c.69.7,2.12.67,2.76,1.43a34.75,34.75,0,0,0-4,.09c.42-1.57,1.25-2.75,1.71-4.29-.25-1-1.12-1.42-1.43-2.38.83-1.24,1.62-2,2.77-3.44a19.37,19.37,0,0,0,2.38-5.72,21.26,21.26,0,0,0,.29-6c-1,1.26-.78,3.79-1.43,5.43-.62-.58-.47-1.86-.29-3.34.55-2.46,1-4.22,1.63-6.87a12.33,12.33,0,0,0,1.14-1.43,3.62,3.62,0,0,1-.57-2.86C133.68,53,134.18,53.59,134.55,54Z"/><path class="cls-4" d="M39.82,54.38c-.09.74-.17,1.48-.29,2.2C42.28,64,44.44,71.72,45,79.38c-.08.49-.77.38-1,.76.23.91.67,1.62,1,2.48.57,0,1.32-.27,1.81,0-.06,1.08-1.39.9-1.9,1.53-.8-1-.85-2.71-1.62-3.72-2.12,1.25-5.58.13-8.5.19a11.1,11.1,0,0,0-1.33,2.67c.7.7,2.13.67,2.76,1.43a34.66,34.66,0,0,0-4,.1c.42-1.58,1.25-2.76,1.71-4.3-.25-1-1.11-1.42-1.43-2.38.83-1.24,1.62-1.95,2.77-3.44A19.55,19.55,0,0,0,37.63,69a21.62,21.62,0,0,0,.28-6c-1,1.26-.78,3.79-1.43,5.44-.62-.59-.47-1.87-.29-3.34.55-2.47,1-4.22,1.63-6.87A14.29,14.29,0,0,0,39,56.77c-.59-.76-.67-1.45-.57-2.87C39,53.4,39.45,53.94,39.82,54.38Z"/><path class="cls-4" d="M100.63,54.86c.73.64,0,1.42,0,2.27.54,4.86,1.64,10.74,0,15.3.05,3.5-.14,7.19.18,10.46,0,.84,1.1.79,1.25,1.51H99.91C99.5,77.22,99.7,69.51,96,65.16c1.7-3.26,4.4-5.88,3.76-10.3ZM98.12,66.22c.12-.92,1-2.6.18-3.33C97.69,63.73,96.13,65.78,98.12,66.22Z"/><path class="cls-4" d="M196.47,53.69H197c1.33.23.52,2.19.24,2.92,1.41,1.82,2.88,3.59,2.67,7-.31.34-1.15.15-1.46.49.3,6,2.07,10.56,3.4,15.55-.56,1.37-2.1,1.78-3.64,2.18v2.43c-.56.16-1.47.49-1.94,0,.07-.65,1-.43,1.21-1,.3-1.75-.86-2-2.43-1.94-.45.52-.16,1.78-.24,2.67a2.61,2.61,0,0,1-2.43.24c-.14-.87.72-.74,1.46-.73a2,2,0,0,1,.24-1.45c-.3-.92-1.27-1.16-2.19-1.46,1.2-5.77,3.19-10.75,2.92-18-.85,0-.8.82-1.46,1-1.29-1-2.83-1.7-3.4-3.4,1.08-.13,2.13,1.71,3.16,2.43C194.27,59.75,196.17,57.51,196.47,53.69Z"/><path class="cls-4" d="M183.47,53.31H184c1.33.23.53,2.19.24,2.91,1.42,1.83,2.89,3.59,2.67,7.05-.31.33-1.14.15-1.45.48.29,6,2.07,10.57,3.4,15.55-.57,1.38-2.1,1.79-3.65,2.19v2.43c-.55.15-1.46.48-1.94,0,.07-.66,1-.44,1.22-1,.29-1.76-.87-2-2.43-2-.46.52-.17,1.78-.25,2.67a2.61,2.61,0,0,1-2.43.25c-.14-.87.72-.74,1.46-.73a2.08,2.08,0,0,1,.24-1.46c-.29-.92-1.27-1.16-2.18-1.46,1.19-5.77,3.18-10.74,2.91-18-.85,0-.8.82-1.46,1-1.28-1-2.83-1.7-3.4-3.4,1.09-.14,2.14,1.7,3.16,2.42C181.28,59.37,183.17,57.13,183.47,53.31Z"/><path class="cls-4" d="M154.82,53.44h.48c1.34.23.53,2.19.25,2.91,1.41,1.83,2.88,3.59,2.67,7-.31.34-1.15.15-1.46.49.3,6,2.07,10.56,3.4,15.54-.56,1.38-2.1,1.79-3.64,2.19V84c-.56.15-1.47.48-2,0,.08-.66,1-.44,1.22-1,.3-1.76-.87-2-2.43-1.95-.45.53-.16,1.78-.24,2.68a2.63,2.63,0,0,1-2.43.24c-.14-.87.72-.74,1.45-.73a2.08,2.08,0,0,1,.25-1.46c-.3-.91-1.27-1.16-2.19-1.45,1.2-5.77,3.18-10.75,2.92-18-.86,0-.8.82-1.46,1-1.29-1-2.84-1.7-3.4-3.4,1.08-.13,2.13,1.7,3.16,2.43C152.62,59.51,154.51,57.27,154.82,53.44Z"/><path class="cls-4" d="M94.19,59.51c.84,1.38.77,3.14.68,5.32a68.78,68.78,0,0,0,.75,11.68,3.38,3.38,0,0,1-1.28.07,63.22,63.22,0,0,0,.45,7.5,10,10,0,0,1-2.77.3c.33-.74,1.23-.91,1.57-1.65-.19-2.15-.26-3.82-.3-5.92-.49-.59-1.08,0-1.72-.15a50,50,0,0,0-.15,7.65,6.55,6.55,0,0,1-2.55.07c.29-.51,1-.64,1.35-1-.21-2.38.16-4.51.07-6.75-.33-.18-.61-.07-1.12-.15.18-3.61,1.17-7,1.57-10.64-1.11.11-2.32.52-3.52.67-.29,0-.88.23-1-.15.1-.56.87-.51,1.27-.6a11.34,11.34,0,0,0,1.5-.37c.88-.33,1.87-.75,2.18-1.58-.13-.39-.89-.09-1.28-.07a34.29,34.29,0,0,1-3.75-.23,1.24,1.24,0,0,1,.45-.82,8.09,8.09,0,0,0,4.68-.18c1-.63,1.4-1.94,2.1-2.92a3.61,3.61,0,0,1-.08-2.7C94.92,56.11,94.87,58.74,94.19,59.51Z"/><path class="cls-4" d="M106.12,63c.19.77.94,1,1,1.94,3.13,1.32,5.76-.86,8.34-1.17,0,.31.17.41.09.78-2.62.8-5.23,2-7.76,1.65,0,.23-.17.21-.09.48,1.52,1.6,4.4.2,6.3.1-.07.3.1.35.1.58-2.25.46-4.64,1.75-6.6.39-.75,1.19-.25,3.33.1,4.56,4.36,1.3,5.91,5.41,10.09,6.88-.43,1.75-2.31,2-3.59,2.91-.09.9.47,1.15,1.07,1.36-.18.44-.94.29-1.36.49a6.23,6.23,0,0,0-.29-1.65,2.1,2.1,0,0,0-1.65.87c.07.58.93.36,1.16.78-.34.3-1.25.09-1.84.09-.19-.29-.13-.84-.49-1-1.78.64-2.83-.74-3.88-1.45.38-2.18,1.14-4,1.46-6.21a11,11,0,0,0-3.59.2,4.49,4.49,0,0,1-1.84-1.85c.15-3.35.7-6.34,1.06-9.21.5-.57.94-1.2,1.46-1.75a4,4,0,0,1,.39-3.2C107.77,58.85,107.56,62.57,106.12,63Z"/><path class="cls-4" d="M13.64,59.78c.17.5.59.77.51,1.53-.14,1-.91,1.38-1.4,2-.76,3.67-1,7.79-1.91,11.6H8.54c-.54,2.32,0,5.4,0,7.78-.89.91-1.94,2.52-3.7,1.78.35-.93,1.43-1.13,1.92-1.91-.11-2.73.2-5.24,0-7.14a13.18,13.18,0,0,0-2.94-.13c-.44,2.88,0,4.79-.25,7.27-1.13.33-2.48,1.41-3.57,1,.13-1.06,1.27-1.1,1.91-1.66.36-2.61.68-5.27.89-8,1.2.09,2.08-.13,3.19-.13,1.64-3.37,3.11-6.91,5-10.07a7.15,7.15,0,0,0,.26-2.16c.49-.54.66-1.38,1.27-1.79C13,59.56,13.22,59.77,13.64,59.78Z"/><path class="cls-4" d="M162.35,83.64c-.26,0,.09.38,0,0l1,.45a8.64,8.64,0,0,1-2.71.18c-.81-4.7-.45-9.53-1.26-14.7-.3,0-.4-.26-.81-.18-.32,4.86.55,10.6.36,15.06-1,.19-2.16-.36-2.35,0-.38-.66,1.14-.79,1.26-1.53-.74-6.24-.67-12.34-1.08-19A5.94,5.94,0,0,0,155,63c-.17-.67-.42-1.27-.54-2,.55-2.4,1.53-4.37,2.16-6.68a5.38,5.38,0,0,0,1.26-1.26c-.08-1.31-.19-1.67-.18-2.89a3.53,3.53,0,0,1,.91-.36,2.68,2.68,0,0,1,.54,3,3.75,3.75,0,0,0,1.44,1.26,31.26,31.26,0,0,0,2.71,7.43c.82.53,2.07.64,2.79,1.26,0,.32-.26.41-.27.72a19.39,19.39,0,0,1-3-1.08c-.84-.93-1.2-2.34-2.16-3.16a167.56,167.56,0,0,0,1,23.91C161.81,83.51,162.22,83.41,162.35,83.64ZM155.5,61.27c.34.44.62,1,1.17,1.17.3-1.1,0-1.81,0-3.07-.11,0-.12-.11-.27-.09A5.77,5.77,0,0,0,155.5,61.27Z"/><path class="cls-4" d="M249.87,84c-.27,0,.08.38,0,0l1,.45a8.9,8.9,0,0,1-2.71.18c-.81-4.7-.44-9.54-1.26-14.7-.3,0-.4-.27-.81-.19-.31,4.87.55,10.61.36,15.07-1,.19-2.16-.36-2.35,0-.38-.66,1.14-.8,1.27-1.53-.75-6.24-.67-12.34-1.09-19a5.67,5.67,0,0,0-1.71-.9c-.17-.67-.41-1.27-.54-2,.55-2.39,1.53-4.36,2.16-6.67a5.62,5.62,0,0,0,1.27-1.26,26.83,26.83,0,0,1-.18-2.89,3,3,0,0,1,.9-.36,2.66,2.66,0,0,1,.54,3,3.76,3.76,0,0,0,1.44,1.27A31.42,31.42,0,0,0,250.87,62c.82.53,2.07.63,2.8,1.26,0,.32-.26.4-.27.72a19.69,19.69,0,0,1-3-1.08c-.85-.93-1.21-2.34-2.17-3.16a166.26,166.26,0,0,0,1,23.91C249.32,83.84,249.74,83.79,249.87,84ZM243,61.64a3.08,3.08,0,0,0,1.17,1.18c.31-1.11-.05-1.81,0-3.07-.11,0-.12-.12-.27-.09A5.72,5.72,0,0,0,243,61.64Z"/><path class="cls-4" d="M127.09,84c-.27,0,.09.38,0,0l1,.45a8.9,8.9,0,0,1-2.71.18c-.8-4.7-.44-9.54-1.26-14.7-.3,0-.4-.27-.81-.19-.31,4.87.56,10.61.36,15.07-1,.19-2.15-.36-2.34,0-.39-.66,1.13-.8,1.26-1.53-.75-6.24-.67-12.34-1.08-19a5.85,5.85,0,0,0-1.72-.9c-.17-.67-.41-1.27-.54-2,.55-2.39,1.53-4.36,2.17-6.67a5.38,5.38,0,0,0,1.26-1.26c-.08-1.31-.19-1.67-.18-2.89a3,3,0,0,1,.9-.36,2.66,2.66,0,0,1,.54,3,3.76,3.76,0,0,0,1.44,1.27A31.86,31.86,0,0,0,128.09,62c.83.53,2.07.63,2.8,1.26,0,.32-.26.4-.27.72a20.5,20.5,0,0,1-3-1.08c-.85-.93-1.21-2.34-2.16-3.16a166.23,166.23,0,0,0,1,23.91C126.54,83.84,127,83.79,127.09,84Zm-6.86-22.38a3,3,0,0,0,1.18,1.18c.3-1.11-.06-1.81,0-3.07-.12,0-.13-.12-.28-.09A5.72,5.72,0,0,0,120.23,61.64Z"/><path class="cls-4" d="M206.91,84c-.27,0,.08.38,0,0l1,.45a9,9,0,0,1-2.71.18c-.81-4.7-.45-9.54-1.26-14.7-.3,0-.4-.27-.81-.19-.31,4.87.55,10.61.36,15.07-1,.19-2.16-.36-2.35,0-.38-.66,1.14-.8,1.26-1.53-.74-6.24-.66-12.34-1.08-19a5.8,5.8,0,0,0-1.71-.9c-.17-.67-.42-1.27-.54-2,.55-2.39,1.53-4.36,2.16-6.67a5.38,5.38,0,0,0,1.26-1.26c-.08-1.31-.19-1.67-.17-2.89a3,3,0,0,1,.9-.36,2.66,2.66,0,0,1,.54,3,3.76,3.76,0,0,0,1.44,1.27A31.42,31.42,0,0,0,207.91,62c.82.53,2.07.63,2.8,1.26,0,.32-.26.4-.28.72a20,20,0,0,1-3-1.08c-.85-.93-1.21-2.34-2.17-3.16a167.68,167.68,0,0,0,1,23.91C206.36,83.84,206.77,83.79,206.91,84Zm-6.86-22.38a3.08,3.08,0,0,0,1.17,1.18c.31-1.11-.05-1.81,0-3.07-.11,0-.12-.12-.27-.09A5.72,5.72,0,0,0,200.05,61.64Z"/><path class="cls-4" d="M197.92,46.18a43.56,43.56,0,0,1-5.44,7.66c.3,1.17.62,2.33.85,3.57-1.07,8.31,1.88,15.88.68,25.34.24.84,1.52.63,1.53,1.7a56.47,56.47,0,0,1-9,0,182,182,0,0,0,2.38-18.37,22,22,0,0,0-1.36-2.38c.57-5.3.08-10.68,2.21-14.28-.81-.51-1.14-3.18.17-3.41,1.52.31.89,2.53.51,3.58.66.8.74,2.2,1.7,2.72,2.4-1.69,3.71-4.45,5.44-6.81C197.58,45.84,198.05,45.72,197.92,46.18Zm-6.8,20.58c-.88,4.56-1.16,10.45-1.87,15.65.52.54,1.36,1.53,2,1.36C192,77.93,192.75,72.07,191.12,66.76Z"/><path class="cls-4" d="M70.72,65.64c.11-.88,1.12-.87,1.23-1.76-.38-1.15-1-2.63-.35-3.51.41-.39.79-.3,1.4.18a2.48,2.48,0,0,1,.35,3,18.51,18.51,0,0,1,5.09,3.51c1.1-.71,1.32-2.31,2.46-3,.47,1.36-1.2,2.64-1.93,3.86a15.13,15.13,0,0,1-3-1.41A69.18,69.18,0,0,0,78.45,73C80.78,75.18,84,76.51,87,77.93c0,1.66-1.62,1.76-2.45,2.63,0,1.75,1.52,2,2.1,3.16-1.65.79-2.72-1.21-3.12-2.81a9.28,9.28,0,0,0-2.81.35c.31,1.33,1.52,1.76,2.11,2.81-1.68.92-2.66-1.59-3.33-2.81H78.27c-.85-2.35,0-6.06-4.74-5.27"/><path class="cls-5" d="M224,84.08c-.41.06-.41.06-.68-.11.49-3.4,0-6.54.1-10.25a8.46,8.46,0,0,0-2.16-1.11c.4-2.07,1.07-3.95,1.47-6a1.4,1.4,0,0,1-.65-.88A11.07,11.07,0,0,1,225,56.8a2.51,2.51,0,0,1-.19-2.46c2.13-.43,1.86,1.84,1.18,2.79A8.07,8.07,0,0,1,227.88,67c.5,2.19.85,4.25,1.25,6.35-.24.25-1.2,0-1.44.23-.65,2.76-.38,6.2-.79,9.14-.14.55.67,1.21-.1,1.23-.83-.44-.39-1.48-.42-2.12-.09-2-.22-4.16-.31-6.35,0-.58.43-1.86-.54-2-.86,1.18-.81,2.87-.89,4.36"/><path class="cls-3" d="M252,85c-.41.06-.41.06-.68-.11.49-3.39,0-6.53.1-10.25a8.46,8.46,0,0,0-2.21-1.12c.4-2.07,1.07-4,1.47-6a1.45,1.45,0,0,1-.65-.89,11,11,0,0,1,3-8.94,2.49,2.49,0,0,1-.19-2.45c2.13-.44,1.85,1.84,1.17,2.78a8.06,8.06,0,0,1,1.87,9.91c.5,2.19.85,4.26,1.25,6.35-.24.26-1.2,0-1.44.23-.65,2.76-.39,6.2-.79,9.14-.15.55.66,1.21-.1,1.23-.84-.44-.39-1.47-.42-2.12-.09-2-.22-4.15-.31-6.35,0-.58.43-1.86-.54-2-.87,1.17-.81,2.87-.89,4.35"/><path class="cls-3" d="M60.37,84.59a1.21,1.21,0,0,1-.68-.11c.49-3.4,0-6.54.1-10.26a8.77,8.77,0,0,0-2.16-1.1c.4-2.08,1.07-4,1.47-6a1.42,1.42,0,0,1-.65-.89,11.1,11.1,0,0,1,3-8.93,2.49,2.49,0,0,1-.19-2.45c2.13-.43,1.85,1.84,1.18,2.79a8.07,8.07,0,0,1,1.86,9.87c.5,2.19.85,4.25,1.25,6.35-.24.25-1.2,0-1.44.23-.65,2.76-.38,6.2-.79,9.14-.14.55.67,1.2-.1,1.23-.84-.44-.39-1.48-.42-2.12-.09-2-.22-4.16-.31-6.35,0-.59.43-1.86-.54-2-.87,1.18-.81,2.87-.89,4.35"/><path class="cls-6" d="M214.51,84.29c-.41.06-.41.06-.69-.1.5-3.42,0-6.57.1-10.3a8.46,8.46,0,0,0-2.16-1.11c.4-2.08,1.07-4,1.48-6a1.4,1.4,0,0,1-.66-.89,11.07,11.07,0,0,1,3-9,2.49,2.49,0,0,1-.2-2.46c2.14-.44,1.86,1.84,1.18,2.79a8.1,8.1,0,0,1,1.87,10c.5,2.2.85,4.27,1.26,6.37-.24.26-1.21,0-1.45.23-.65,2.77-.38,6.23-.79,9.18-.15.55.67,1.21-.1,1.23-.84-.44-.39-1.48-.42-2.12-.09-2-.23-4.18-.32-6.38,0-.58.44-1.87-.54-2-.86,1.18-.81,2.88-.89,4.37"/><path class="cls-3" d="M153.29,84.67c-.46.06-.46.06-.76-.12.55-3.75,0-7.21.11-11.31A9.45,9.45,0,0,0,150.27,72c.44-2.29,1.17-4.36,1.62-6.65a1.52,1.52,0,0,1-.72-1,12.18,12.18,0,0,1,3.25-9.86,2.73,2.73,0,0,1-.21-2.71c2.35-.48,2,2,1.3,3.07a8.89,8.89,0,0,1,2.05,10.93c.55,2.42.94,4.69,1.38,7-.26.29-1.33,0-1.59.26-.71,3-.42,6.84-.87,10.08-.16.61.74,1.33-.11,1.35-.92-.48-.43-1.62-.46-2.33-.1-2.18-.25-4.59-.35-7,0-.64.48-2.05-.59-2.21-.95,1.3-.89,3.17-1,4.8"/><path class="cls-3" d="M14,51.83c1.21,3.67-.68,7.52-2.28,9.9-.81.29-1.49.69-2.28,1s-1.75.42-2.08,1.18c.64.76,1.64-.4,2.46-.49a18.71,18.71,0,0,1,2.47-1c.36-.4.54-1,1-1.29.19,2.44-.39,5.81-.69,8.42A102.25,102.25,0,0,0,8.53,82.24c-.95.24-2,.33-3,.59a12.72,12.72,0,0,0,3.66,1.39c1.27-2.66,2.19-7.25,3.57-10.6.34-.81.9-3,1.58-3.07,1.26,0,1.21,4,1.72,4.76a48.21,48.21,0,0,1,4.45,6.93c-.46.82-1.63.94-2.08,1.78a17.65,17.65,0,0,0,4.07-.2,61.79,61.79,0,0,0-5-9.21,48.47,48.47,0,0,1-1.24-14.1c.56.65.66,1.78,1.08,2.57v1.13c.33.8,0,2.23.6,2.77.16-5.18-.74-9.29-2.77-12.28.23-1.21.69-2.12.19-3.37C14.77,50.76,14.32,51.36,14,51.83Z"/><path class="cls-3" d="M133.5,51.82c1.21,3.66-.67,7.52-2.28,9.9-.8.29-1.49.69-2.28,1s-1.75.43-2.08,1.19c.7.75,1.62-.45,2.48-.49a17.43,17.43,0,0,1,2.47-1c.36-.4.55-1,1-1.29.19,2.44-.39,5.81-.69,8.42a102.25,102.25,0,0,0-4.06,12.68c-1,.23-2.05.33-3,.59a12.84,12.84,0,0,0,3.66,1.39c1.28-2.67,2.19-7.26,3.57-10.6.34-.82.9-3,1.59-3.07,1.22-.06,1.17,3.9,1.68,4.75A49.83,49.83,0,0,1,140,82.23c-.47.82-1.64.94-2.08,1.78a18.17,18.17,0,0,0,4.06-.2,61.79,61.79,0,0,0-5-9.21,48.54,48.54,0,0,1-1.2-14.09c.56.66.66,1.78,1.09,2.58v1.09c.32.79,0,2.22.59,2.77.16-5.18-.74-9.29-2.77-12.28.24-1.21.69-2.13.19-3.37C134.29,50.75,133.84,51.35,133.5,51.82Z"/><path class="cls-3" d="M204,51.51c1.21,3.67-.67,7.52-2.28,9.91-.8.29-1.49.69-2.28,1s-1.75.43-2.08,1.19c.7.75,1.62-.46,2.48-.5a20.19,20.19,0,0,1,2.47-1c.36-.4.54-1,1-1.28.19,2.43-.39,5.81-.69,8.42a102.09,102.09,0,0,0-4.06,12.67c-.95.24-2.05.33-3,.6a12.72,12.72,0,0,0,3.66,1.39c1.28-2.67,2.19-7.26,3.57-10.6.34-.82.9-3,1.58-3.07,1.23-.06,1.18,3.9,1.69,4.75a48.77,48.77,0,0,1,4.45,6.93c-.46.83-1.63.95-2.08,1.79a18.84,18.84,0,0,0,4.07-.2,61.3,61.3,0,0,0-5-9.21,48.54,48.54,0,0,1-1.28-14.07c.56.66.66,1.78,1.08,2.58V63.9c.33.79,0,2.22.6,2.77.16-5.18-.74-9.29-2.77-12.28.24-1.22.69-2.13.19-3.37C204.8,50.41,204.35,51,204,51.51Z"/><path class="cls-3" d="M105.06,51.19c1.22,3.67-.67,7.52-2.27,9.91-.81.28-1.49.69-2.28,1s-1.75.42-2.08,1.19c.69.75,1.62-.46,2.47-.5a19.72,19.72,0,0,1,2.48-1c.36-.4.54-1,1-1.29.19,2.44-.39,5.81-.69,8.42A102.25,102.25,0,0,0,99.63,81.6c-1,.24-2.05.33-3,.6a12.89,12.89,0,0,0,3.67,1.38c1.27-2.66,2.18-7.25,3.57-10.6.33-.81.89-3,1.58-3.07,1.23-.05,1.18,3.91,1.68,4.76a48.82,48.82,0,0,1,4.46,6.93c-.46.82-1.63.94-2.08,1.78a18.14,18.14,0,0,0,4.06-.19,60.48,60.48,0,0,0-5-9.22,48.45,48.45,0,0,1-1.29-14.06c.57.66.67,1.78,1.09,2.57v1.09c.33.8,0,2.23.6,2.78.16-5.19-.75-9.3-2.78-12.29.24-1.21.69-2.12.2-3.36C105.86,50.12,105.41,50.73,105.06,51.19Z"/><path class="cls-3" d="M186.3,51c1.22,3.66-.67,7.52-2.27,9.9-.81.29-1.49.69-2.28,1s-1.75.43-2.08,1.19c.69.75,1.62-.46,2.47-.49a17.09,17.09,0,0,1,2.48-1c.36-.41.54-1,1-1.29.19,2.44-.39,5.81-.69,8.42a102.25,102.25,0,0,0-4.06,12.68c-1,.23-2.05.33-3,.59a12.9,12.9,0,0,0,3.67,1.39c1.27-2.67,2.18-7.26,3.57-10.6.33-.82.89-3,1.58-3.07,1.23-.06,1.18,3.9,1.68,4.75a48.93,48.93,0,0,1,4.46,6.94c-.46.82-1.63.94-2.08,1.78a18.1,18.1,0,0,0,4.06-.2,60.37,60.37,0,0,0-4.95-9.21,48.52,48.52,0,0,1-1.29-14.07c.57.66.67,1.78,1.09,2.58v1.09c.33.79,0,2.22.6,2.77.16-5.18-.75-9.29-2.78-12.28.24-1.22.69-2.13.2-3.37C187.1,49.89,186.65,50.51,186.3,51Z"/><path class="cls-3" d="M51.73,53.89c.09.73.17,1.48.29,2.19-2.75,7.43-4.91,15.15-5.44,22.81.08.49.77.37,1,.76a21.41,21.41,0,0,1-1,2.48c-.57,0-1.32-.27-1.81,0,.06,1.08,1.39.9,1.9,1.53.8-1,.85-2.71,1.63-3.72,2.12,1.24,5.57.12,8.49.19a11.1,11.1,0,0,1,1.33,2.67c-.69.7-2.13.67-2.76,1.43a34.75,34.75,0,0,1,4,.09c-.42-1.57-1.25-2.75-1.71-4.29.25-1,1.11-1.42,1.43-2.38-.83-1.24-1.62-2-2.77-3.44a19.66,19.66,0,0,1-2.39-5.7,21.62,21.62,0,0,1-.28-6c1,1.26.78,3.79,1.43,5.43.62-.59.47-1.86.29-3.34-.55-2.46-1-4.22-1.63-6.87a12.33,12.33,0,0,1-1.14-1.43,3.62,3.62,0,0,0,.57-2.86C52.6,52.9,52.1,53.45,51.73,53.89Z"/><path class="cls-3" d="M238,58c.08.63.15,1.28.25,1.89a71.88,71.88,0,0,0-4.72,19.65c.07.42.66.32.82.66-.2.78-.58,1.39-.82,2.13-.49,0-1.13-.23-1.56,0,.06.93,1.2.78,1.64,1.32.69-.85.74-2.34,1.4-3.21,1.83,1.08,4.8.11,7.32.17a10.09,10.09,0,0,1,1.15,2.3c-.6.6-1.84.58-2.39,1.23a27.87,27.87,0,0,1,3.46.09c-.37-1.36-1.08-2.38-1.48-3.7.22-.88,1-1.23,1.23-2.06-.72-1.06-1.4-1.68-2.38-3a16.75,16.75,0,0,1-2.06-4.93,18.69,18.69,0,0,1-.25-5.18c.89,1.09.68,3.27,1.24,4.69.53-.51.4-1.61.24-2.88-.47-2.13-.89-3.64-1.39-5.92a10,10,0,0,1-1-1.24,3.12,3.12,0,0,0,.49-2.46C238.72,57.12,238.29,57.59,238,58Z"/><path class="cls-3" d="M166.53,55c-.64,4.42,2.06,7,3.76,10.3-3.73,4.37-3.53,12.06-3.94,19.24H164.2c.15-.73,1.23-.68,1.26-1.51.31-3.27.12-7,.17-10.46-1.64-4.56-.54-10.44,0-15.3,0-.85-.73-1.63,0-2.27ZM168,63c-.81.73.06,2.41.18,3.33,2-.41.43-2.46-.14-3.3Z"/><path class="cls-3" d="M272.75,53.51c.73.64,0,1.42,0,2.27.54,4.86,1.64,10.74,0,15.3,0,3.5-.14,7.19.17,10.46,0,.83,1.11.78,1.26,1.51H272c-.41-7.18-.21-14.87-3.94-19.24,1.69-3.26,4.4-5.88,3.76-10.3Zm-2.51,11.36c.12-.92,1-2.6.18-3.33-.61.8-2.17,2.85-.18,3.29Z"/><path class="cls-3" d="M10.07,54.35c.73.65,0,1.42,0,2.27.55,4.87,1.65,10.74,0,15.31,0,3.49-.14,7.18.18,10.45,0,.84,1.1.79,1.25,1.52H9.35C9,76.71,9.15,69,5.41,64.65c1.7-3.26,4.41-5.88,3.76-10.3ZM7.56,65.71c.12-.92,1-2.6.18-3.33C7.14,63.22,5.57,65.27,7.56,65.71Z"/><path class="cls-3" d="M79.77,53.18h-.49c-1.33.24-.52,2.2-.24,2.92-1.41,1.83-2.89,3.59-2.67,7,.31.33,1.15.14,1.46.48-.3,6-2.07,10.57-3.41,15.55.57,1.38,2.11,1.79,3.65,2.19v2.43c.56.15,1.47.48,1.94,0-.07-.66-1-.44-1.21-1-.3-1.75.86-2,2.43-1.94.45.52.16,1.78.24,2.67a2.64,2.64,0,0,0,2.43.25c.14-.87-.72-.74-1.46-.73a2,2,0,0,0-.24-1.46c.3-.92,1.27-1.16,2.19-1.46-1.2-5.77-3.19-10.75-2.92-18,.85,0,.8.82,1.46,1,1.29-1,2.83-1.71,3.4-3.41-1.08-.13-2.13,1.71-3.16,2.43C82,59.25,80.07,57,79.77,53.18Z"/><path class="cls-3" d="M42.76,56.33h-.44c-1.21.21-.48,2-.22,2.66-1.29,1.66-2.63,3.26-2.43,6.4.28.31,1,.14,1.32.45-.27,5.47-1.88,9.61-3.09,14.14.52,1.25,1.91,1.63,3.32,2v2.21c.5.14,1.33.44,1.76,0-.06-.6-.93-.4-1.1-.89-.27-1.59.79-1.86,2.21-1.76.41.47.15,1.62.22,2.43a2.39,2.39,0,0,0,2.21.22c.13-.79-.65-.67-1.33-.66A1.85,1.85,0,0,0,45,82.19c.27-.83,1.16-1.06,2-1.33-1.09-5.24-2.89-9.77-2.65-16.35.77,0,.73.75,1.33.88,1.17-.89,2.57-1.54,3.09-3.09-1-.12-1.94,1.55-2.87,2.21C44.76,61.85,43,59.81,42.76,56.33Z"/><path class="cls-3" d="M176.05,59c-.84,1.39-.78,3.14-.68,5.32a68.78,68.78,0,0,1-.75,11.7,3.58,3.58,0,0,0,1.28.08,63.18,63.18,0,0,1-.45,7.49,10,10,0,0,0,2.77.3c-.33-.74-1.23-.91-1.57-1.65.19-2.15.26-3.82.3-5.92.49-.59,1.08,0,1.72-.15a50,50,0,0,1,.15,7.65,6.37,6.37,0,0,0,2.55.07c-.29-.51-1-.64-1.35-1,.21-2.38-.16-4.51-.07-6.74.33-.19.61-.08,1.12-.15-.18-3.62-1.18-7-1.57-10.65,1.11.11,2.32.52,3.52.67.29,0,.88.23,1-.15-.1-.55-.87-.5-1.27-.59a13.15,13.15,0,0,1-1.5-.38c-.89-.33-1.87-.75-2.18-1.57.13-.4.89-.1,1.28-.08A36.93,36.93,0,0,0,184.1,63a1.26,1.26,0,0,0-.45-.83,8.18,8.18,0,0,1-4.73-.07c-1-.64-1.4-2-2.1-2.93a3.61,3.61,0,0,0,.08-2.7C175.32,55.6,175.37,58.23,176.05,59Z"/><path class="cls-3" d="M116.68,82.75a167.56,167.56,0,0,0,1-23.91c-1,.82-1.32,2.23-2.16,3.16a19.39,19.39,0,0,1-3,1.08c0-.31-.26-.4-.27-.72.72-.62,2-.73,2.79-1.26a31.26,31.26,0,0,0,2.71-7.49,3.68,3.68,0,0,0,1.44-1.26,2.69,2.69,0,0,1,.54-3,3.39,3.39,0,0,1,.91.36c0,1.22-.1,1.58-.18,2.89a5.38,5.38,0,0,0,1.26,1.26c.63,2.31,1.61,4.28,2.17,6.68-.13.71-.38,1.31-.55,2a5.94,5.94,0,0,0-1.71.91c-.41,6.69-.34,12.79-1.08,19,.13.74,1.64.87,1.26,1.53-.19-.36-1.32.19-2.35,0-.19-4.46.68-10.2.36-15.06-.41-.08-.51.15-.81.18-.81,5.17-.45,10-1.26,14.7a8.64,8.64,0,0,1-2.71-.18l1-.45c-.09.38.27,0,0,0C116.18,83,116.59,83,116.68,82.75ZM122,58.84c-.14,0-.15.09-.27.09,0,1.26-.3,2,0,3.07a2.93,2.93,0,0,0,1.17-1.17A5.77,5.77,0,0,0,122,58.84Z"/><path class="cls-3" d="M29,83.06a166.21,166.21,0,0,0,1-23.91c-1,.82-1.32,2.23-2.17,3.16a19.69,19.69,0,0,1-3,1.08c0-.31-.25-.4-.27-.72.73-.62,2-.73,2.8-1.26a31.26,31.26,0,0,0,2.71-7.49,3.82,3.82,0,0,0,1.44-1.26,2.68,2.68,0,0,1,.54-3A3,3,0,0,1,33,50a26.83,26.83,0,0,1-.18,2.89A5.62,5.62,0,0,0,34,54.17c.63,2.31,1.61,4.28,2.16,6.68-.13.71-.37,1.31-.54,2a5.91,5.91,0,0,0-1.71.9c-.42,6.7-.34,12.8-1.09,19,.13.74,1.65.87,1.27,1.53-.19-.36-1.33.19-2.35,0-.19-4.46.67-10.2.36-15.06-.41-.08-.51.15-.81.18-.82,5.17-.45,10-1.26,14.7a8.59,8.59,0,0,1-2.71-.18l1-.45c-.08.38.27,0,0,0C28.5,83.28,28.92,83.34,29,83.06Zm5.33-23.91c-.15,0-.16.09-.27.09,0,1.26-.31,2,0,3.07a3.13,3.13,0,0,0,1.17-1.17A5.77,5.77,0,0,0,34.33,59.15Z"/><path class="cls-3" d="M144,83.14a156.22,156.22,0,0,0,.93-22.48c-.9.77-1.24,2.1-2,3a19.26,19.26,0,0,1-2.8,1c0-.3-.25-.38-.26-.68.69-.59,1.86-.69,2.63-1.19a29.63,29.63,0,0,0,2.55-7,3.53,3.53,0,0,0,1.35-1.19,2.53,2.53,0,0,1,.51-2.8,3.08,3.08,0,0,1,.85.34c0,1.15-.09,1.48-.17,2.71A5.17,5.17,0,0,0,148.78,56c.59,2.17,1.51,4,2,6.28-.12.67-.35,1.23-.51,1.86a5.49,5.49,0,0,0-1.61.85c-.39,6.29-.32,12-1,17.89.11.7,1.54.82,1.18,1.45-.18-.34-1.24.17-2.2,0-.19-4.2.63-9.6.33-14.17-.38-.07-.48.14-.76.17-.76,4.86-.42,9.41-1.18,13.83a8.91,8.91,0,0,1-2.55-.17l.93-.43c-.08.36.26,0,0,0C143.51,83.35,143.9,83.4,144,83.14Zm5-22.48c-.14,0-.15.09-.25.09.05,1.18-.29,1.85,0,2.88a2.84,2.84,0,0,0,1.1-1.1A5.63,5.63,0,0,0,149,60.66Z"/><path class="cls-3" d="M66,82.72a167.68,167.68,0,0,0,1-23.91C66,59.63,65.68,61,64.83,62a20,20,0,0,1-3,1.08c0-.32-.26-.4-.27-.72.72-.63,2-.73,2.79-1.26a31.42,31.42,0,0,0,2.71-7.49,3.76,3.76,0,0,0,1.44-1.27,2.66,2.66,0,0,1,.54-3,3.2,3.2,0,0,1,.91.36c0,1.22-.1,1.58-.18,2.89A5.58,5.58,0,0,0,71,53.85c.63,2.31,1.61,4.28,2.16,6.67-.12.72-.37,1.32-.54,2a5.92,5.92,0,0,0-1.71.9c-.41,6.69-.34,12.8-1.08,19,.12.73,1.64.87,1.26,1.53-.19-.36-1.32.19-2.35,0-.19-4.46.68-10.2.36-15.07-.41-.08-.51.15-.81.19-.81,5.16-.45,10-1.26,14.7a9,9,0,0,1-2.71-.18c.33-.15.66-.31,1-.45-.09.37.26,0,0,0C65.49,82.94,65.9,83,66,82.72Zm5.31-23.91c-.15,0-.16.09-.27.09,0,1.26-.31,2,0,3.07a3.08,3.08,0,0,0,1.17-1.18A5.72,5.72,0,0,0,71.31,58.81Z"/><path class="cls-3" d="M88.27,45c1.73,2.35,3,5.12,5.45,6.8,1-.51,1-1.91,1.7-2.72-.39-1-1-3.27.51-3.58,1.3.23,1,2.91.17,3.41,2.13,3.61,1.63,9,2.21,14.29A18.38,18.38,0,0,0,97,65.58a182.75,182.75,0,0,0,2.38,18.37,59,59,0,0,1-9,0c0-1.08,1.3-.86,1.54-1.7-1.2-9.47,1.74-17,.68-25.35.23-1.24.55-2.4.85-3.57A43.75,43.75,0,0,1,88,45.67C87.81,45.21,88.27,45.33,88.27,45Zm6.3,38.27c.67.16,1.52-.83,2-1.36-.71-5.21-1-11.1-1.87-15.65C93.11,71.56,93.88,77.43,94.57,83.27Z"/><line class="cls-7" x1="3.04" y1="132.28" x2="84.39" y2="132.28"/><line class="cls-7" x1="185.99" y1="132.12" x2="277.6" y2="132.12"/><text class="cls-8" transform="translate(108.07 134.38)">Car <tspan class="cls-9" x="22.09" y="0">O</tspan><tspan x="30.49" y="0">ne</tspan></text></g></g></svg>