<svg xmlns="http://www.w3.org/2000/svg" viewBox="0 0 277.6 145.42"><defs><style>.cls-1{fill:#c6daff;}.cls-2{opacity:0.4;}.cls-3,.cls-6{fill:#6495ed;}.cls-4{fill:#666;opacity:0.5;}.cls-4,.cls-6{isolation:isolate;}.cls-5{fill:#f90;}.cls-6{opacity:0.95;}.cls-7{fill:none;stroke:#000;stroke-miterlimit:10;}.cls-8{font-size:13.03px;font-family:BentonSansCond-Bold, BentonSans Cond Bold;}.cls-9{letter-spacing:-0.03em;}.cls-10{letter-spacing:-0.09em;}.cls-11{letter-spacing:-0.01em;}</style></defs><title>car2</title><g id="图层_2" data-name="图层 2"><g id="图层_1-2" data-name="图层 1"><path class="cls-1" d="M.12,15.49V.19c1-.29,275-.2,276.3,0V15.35c-.33,0-.65.06-1,.06H125.5L1.6,15.49Z"/><path class="cls-1" d="M209.08,78.25H161c0-.38-.08-.73-.08-1.09,0-8.73.08-17.46.1-26.2V39.52c0-1.65.21-1.83,1.87-1.83h12.82a14.15,14.15,0,0,1,1.91.09v3.09c0,.5-.38.73-.75,1a2.31,2.31,0,0,0-1.17,2.24,2.26,2.26,0,0,0,2,2.08,2.23,2.23,0,0,0,2.54-1.52,2.08,2.08,0,0,0-1-2.7,1.42,1.42,0,0,1-.81-1.65c.08-.57,0-1.16.07-1.75s.22-.76.78-.84a4.56,4.56,0,0,1,.64,0l15.78.15a12.49,12.49,0,0,1,1.45.17v2.83a1.25,1.25,0,0,1-.73,1.09,2.2,2.2,0,0,0-.91,3l.11.18a2.37,2.37,0,0,0,3.15.83,2.34,2.34,0,0,0,.9-3.18v0a3.6,3.6,0,0,0-1-.91c-.32-.23-.62-.42-.62-.85V37.9a11.67,11.67,0,0,1,1.33-.16q4.25,0,8.49-.06c.94,0,1.17.24,1.21,1.21V78.25ZM176.2,77a4.3,4.3,0,0,0,.1-.65V73.76c0-2.52,0-5-.08-7.56,0-1.18-.41-1.6-1.53-1.61H163.78c-1.08,0-1.4.32-1.42,1.36,0,3.44-.06,6.89-.08,10.33a6.27,6.27,0,0,0,.09.71Zm1.89,0h13.78c0-.44.06-.83.06-1.23V67.09a11.74,11.74,0,0,0,0-1.19c-.07-.92-.41-1.28-1.34-1.29H180.18c-1.48,0-2,.56-2,2-.12,3.44-.09,6.88-.09,10.37Zm15.47.08a1.9,1.9,0,0,1,.4.08H206.4c.79,0,.9-.14.9-1v-10c0-1-.42-1.55-1.57-1.53H195.22c-1.37,0-1.64.29-1.64,1.69V77.06Z"/><path class="cls-1" d="M106.71,37.7h10.54a.65.65,0,0,1,.69.7V68.86c0,2.76,0,5.53-.08,8.3,0,1-.23,1.24-1.27,1.23-2.74,0-5.47-.08-8.21-.08H85.12l-13.93.06c-1.49,0-1.51,0-1.51-1.48q0-9.78.08-19.56,0-9.2,0-18.37c0-1.13.12-1.26,1.28-1.26H81.1c.69.07.85.25.87.93s0,1.29,0,1.93a1.35,1.35,0,0,1-.76,1.36,2.16,2.16,0,0,0-1,2.88l.06.12a2.37,2.37,0,0,0,4.38-1.79,1.91,1.91,0,0,0-1-1.16,1.35,1.35,0,0,1-.81-1.58c.08-.52.07-1,.14-1.56.11-.87.25-1,1.1-1.06,1.16-.06,2.33,0,3.5,0h17.06c.8,0,.88.17.89,1v1.75a1.44,1.44,0,0,1-.82,1.5,2.22,2.22,0,0,0-.74,3.25,2.38,2.38,0,0,0,3.32.58l0,0a2.34,2.34,0,0,0,.53-3.27l-.07-.09a3.22,3.22,0,0,0-.81-.58,1.15,1.15,0,0,1-.62-1.14Zm9.38,39.44a2.56,2.56,0,0,0,.09-.39V66c0-1-.42-1.38-1.42-1.4H104c-.51,0-1,0-1.28.56a2.78,2.78,0,0,0-.23,1.07q-.11,4.94-.17,9.87c0,1,.17,1.12,1.14,1.11L115,77.17Zm-22.14,0h5.71c1,0,1.21-.18,1.22-1.25V75.8q0-4.56,0-9.13a5.64,5.64,0,0,0,0-.82c-.14-.92-.47-1.25-1.4-1.25h-11c-.92,0-1.27.37-1.37,1.27v10.7a.57.57,0,0,0,.53.55,7.5,7.5,0,0,0,.82,0Zm-8.89-.19V65.75A1.1,1.1,0,0,0,84,64.61h0a6,6,0,0,0-.74,0H72.53c-.9,0-1.12.23-1.25,1.12a7.54,7.54,0,0,0-.06.83V77Z"/><path class="cls-1" d="M252.42,80.58V38.86c0-1,.22-1.15,1.15-1.16h14.94a6.06,6.06,0,0,1,.74,0c.52.06.71.25.73.77v2.21a1.36,1.36,0,0,1-.74,1.28,2,2,0,0,0-1.13,2.37,2.37,2.37,0,0,0,4.31.81,2.24,2.24,0,0,0-.61-3.11l-.15-.09a1.38,1.38,0,0,1-.7-1.45V38a1.08,1.08,0,0,1,.08-.24h5.29c.21.67.31,40.22.11,42.75C275.78,80.71,254.5,80.8,252.42,80.58Z"/><path class="cls-1" d="M24,80.81H0V38.92c0-.8.25-1,1.07-1H16.8c.59.06.77.23.79.8s0,1.41.06,2.12a1.41,1.41,0,0,1-.77,1.36,2.14,2.14,0,0,0-1,2.87l.07.13a2.4,2.4,0,0,0,3,1.11,2.35,2.35,0,0,0,1.35-2.89,1.94,1.94,0,0,0-1.1-1.3,1.15,1.15,0,0,1-.74-1.24V38H24C24.15,38.6,24.22,79.18,24,80.81Z"/><path class="cls-1" d="M276.41,28.83v6.31H251.32c-.86,0-1-.21-1-1.07V29.49c-.36,0-.69-.06-1-.06H232c-.86,0-1.13.34-1.11,1.22s0,1.91,0,2.86a2,2,0,0,1,0,.55c-.1.3-.23.6-.35.9h-.23a5.52,5.52,0,0,1-.25-1.09V31.1a7.65,7.65,0,0,0,0-.83.78.78,0,0,0-.75-.79,4.58,4.58,0,0,0-.64,0h-6.74a1.68,1.68,0,0,1-.55,0,7.77,7.77,0,0,0-3-.06c-1.5.06-3,0-4.52,0a22.46,22.46,0,0,0-2.46.21c-.64.09-.82.31-.84,1v4.43h-5.84a10.24,10.24,0,0,1-2.91-.37,4.08,4.08,0,0,0-1.35,0c-.55,0-1.09.18-1.64.18H160c-.09-1.79,0-3.53-.07-5.35-.42,0-.78,0-1.14,0l-12.11,0c-1.26,0-2.52,0-3.78,0a15.79,15.79,0,0,1-1.66-.24c-.08.07-.28.25-.5.41a1.12,1.12,0,0,0-.48,1.11c.09,1.1.14,2.21.19,3.32a2.15,2.15,0,0,1-.1.8c0,.12-.3.21-.45.2s-.23-.19-.26-.31a2.55,2.55,0,0,1,0-.55c0-1.11.1-2.22.1-3.32,0-.94-.39-1.31-1.32-1.44-.67-.09-1.32-.25-2-.34a1.71,1.71,0,0,0-.66.1,4.26,4.26,0,0,1-1,.28c-4.55,0-9.1,0-13.65.07h-.47c-.92,0-1,.15-1,1.1V35a6,6,0,0,1-.76.08h-7.39c-1.08,0-1.28-.22-1.62-1.24-.46-1.4-1-2.77-1.49-4.16-.11-.31-.21-.63-.35-1,.47,0,.85-.07,1.24-.07,7.26,0,14.52-.07,21.78-.06,1.56,0,3.13.19,4.69.25.57,0,1.14-.17,1.72-.19a19.22,19.22,0,0,1,2.4,0,14.89,14.89,0,0,1,1.76.33,2.87,2.87,0,0,1,1.73-.33l23.31-.08h5.07c-.19.67-.32,1.26-.52,1.81-.29.81-.65,1.6-1,2.41s-.09,1.24.88,1.31h26.77c1.22,0,2.43-.13,3.78-.2l-1.85-5.24c.52,0,.88-.08,1.24-.08,3.26,0,6.52-.09,9.78-.1,2.67,0,5.34,0,8,.11a12.56,12.56,0,0,1,1.34.24,2.28,2.28,0,0,0,.69,0,11.65,11.65,0,0,1,1.54-.22H274A7.56,7.56,0,0,1,276.41,28.83Z"/><path class="cls-1" d="M80,28.62c-.51,1.39-1,2.66-1.42,3.92a3.93,3.93,0,0,0-.18.43.82.82,0,0,0,.7,1.14,10.28,10.28,0,0,0,1.11,0h29a1.87,1.87,0,0,1-1.55.83H68.09c0-.33-.07-.56-.07-.8V30.36c0-.75-.12-.85-.83-.92s-1.27-.17-1.91-.24a2.44,2.44,0,0,0-.54,0,26.75,26.75,0,0,1-7.89-.08,1.11,1.11,0,0,0-.36,0,29.25,29.25,0,0,1-6.34.24h-.46c-1,0-1.19.2-1.2,1.19v4.31c-.77.16-.88.11-.89-.56V30.24c0-.64-.19-.79-.83-.86H46.4l-16.53.11c-1.83,0-1.76-.12-1.75,1.78v2.67c0,.89-.16,1.15-1.11,1.15H.13V28.63c.29,0,.55-.06.82-.06H54.48a10.65,10.65,0,0,1,1.37.16,1.69,1.69,0,0,0,.54.06c2.62-.48,5.27-.21,7.9-.32a.76.76,0,0,1,.37,0,4,4,0,0,0,2.34.1c1.53-.08,3.07-.14,4.6-.13,2.56,0,5.11,0,7.66.09A4,4,0,0,0,80,28.62Z"/><path class="cls-1" d="M224.7,50.35v7.28c0,2.43-1,3.39-3.45,3.42h-4.06a6.77,6.77,0,0,1-1-.09,2.57,2.57,0,0,1-2.34-2.36,11.33,11.33,0,0,1-.08-1.65q0-6.83,0-13.65a5.69,5.69,0,0,1,0-.83,2.7,2.7,0,0,1,2.69-2.55c1.84-.08,3.69-.08,5.53,0a2.61,2.61,0,0,1,2.63,2.58q0,.09,0,.19c0,2.55,0,5.1,0,7.66Z"/><path class="cls-1" d="M236.33,50.41v-7.1a6.11,6.11,0,0,1,0-.74,2.63,2.63,0,0,1,2.62-2.64h0c1.84-.09,3.69-.09,5.53,0a2.61,2.61,0,0,1,2.62,2.39,10.29,10.29,0,0,1,.11,1.75v13a10.21,10.21,0,0,1-.17,1.83,2.48,2.48,0,0,1-2.12,2,6,6,0,0,1-1.19.13h-4c-2.55,0-3.5-1-3.51-3.54C236.32,55.14,236.33,52.78,236.33,50.41Z"/><path class="cls-1" d="M53.87,50.49V42.94a3.13,3.13,0,0,1,.49-1.84,2.71,2.71,0,0,1,2.29-1.19c1.78,0,3.56-.06,5.34,0a2.64,2.64,0,0,1,2.73,2.86V57.53a6.77,6.77,0,0,1,0,1,2.46,2.46,0,0,1-2.37,2.4,58.52,58.52,0,0,1-6.07,0,2.52,2.52,0,0,1-2.38-2.65v0c0-1.29,0-2.59,0-3.88V50.49Z"/><path class="cls-1" d="M133.6,50.49v8A2.62,2.62,0,0,1,131.28,61a6.76,6.76,0,0,1-1,.09h-4c-2.59,0-3.56-1-3.56-3.59V43.27a5.69,5.69,0,0,1,0-.83,2.62,2.62,0,0,1,2.61-2.5c1.93-.1,3.87-.09,5.8,0a2.61,2.61,0,0,1,2.38,2.43,8.51,8.51,0,0,1,0,1C133.61,45.73,133.6,48.09,133.6,50.49Z"/><path class="cls-1" d="M42.21,50.49v7a6.77,6.77,0,0,1,0,1,2.53,2.53,0,0,1-2.47,2.43c-2,.1-4,.08-6,0a2.57,2.57,0,0,1-2.41-2.43,8.69,8.69,0,0,1,0-1V42.64A2.73,2.73,0,0,1,34,39.91c1.78-.07,3.56-.07,5.35,0a2.73,2.73,0,0,1,2.79,3v7.57Z"/><path class="cls-1" d="M156.13,50.55v8a2.35,2.35,0,0,1-2.36,2.34h-6a2.39,2.39,0,0,1-2.39-2.13,9,9,0,0,1-.09-1.37q0-7,0-13.93a10.39,10.39,0,0,1,.11-1.47,2,2,0,0,1,1.32-1.63,6.61,6.61,0,0,1,2.6-.53h3.59a4.69,4.69,0,0,1,.92.06,2.53,2.53,0,0,1,2.29,2.57c0,1.51,0,3,0,4.52v3.5Z"/><path class="cls-1" d="M229.77,79.91c0-.23,0-.41,0-.58V48.69c0-3.15-.17-6.31,0-9.47a2.09,2.09,0,0,1,.38-1.49c.51.17.55.59.55,1,0,2.09.06,4.18,0,6.27a4.34,4.34,0,0,1-.26,2.36c0,.08,0,.23,0,.35a22,22,0,0,1,.22,2.28v28.9c.06.82.26,1,1.07,1.07a19,19,0,0,0,2,0h15.39c.6,0,.76.09.78.51s-.18.63-.8.64-1.35,0-2,0H212.54a2,2,0,0,1-.81-.08.76.76,0,0,1-.39-.53c0-.14.21-.37.38-.44a1.9,1.9,0,0,1,.72-.08h16.24Z"/><path class="cls-1" d="M48.23,37.62a5.51,5.51,0,0,1,.27,1.16c0,2,.11,4,0,6-.06,1.08,0,2.14,0,3.21V78.62c0,1.17.28,1.37,1.37,1.37H65.46c.4,0,.8-.06,1.2-.06s.74.18.75.59-.25.71-.78.69-.91-.1-1.37-.1H29c-.72-.07-.82-.25-.59-1.13h18c.88,0,1.14-.27,1.18-1.16V48.67c0-.55.1-1.1.11-1.65s-.11-.91-.11-1.36V38.92A1.42,1.42,0,0,1,48.23,37.62Z"/><path class="cls-1" d="M158.45,80c.21.9.11,1.08-.61,1.11H121.11c-.81,0-.9-.16-.69-1.12h17.4c1.61,0,1.68-.07,1.68-1.65q0-19.56,0-39.12a3.81,3.81,0,0,1,0-.83,3.61,3.61,0,0,1,.36-.74h.23a4.8,4.8,0,0,1,.33.78,3.82,3.82,0,0,1,0,.83V78.07c0,1.87,0,1.87,1.91,1.87h16.1Z"/><path class="cls-1" d="M197.23,23H174c-.73-1.49-.47-1.92,1.14-1.93H196C197.51,21,197.73,21.38,197.23,23Z"/><path class="cls-1" d="M93.83,23H83c-.77,0-.86-.08-1-.76s0-1.14.9-1.22H104.7c.92,0,1.34.66,1,1.51a1.06,1.06,0,0,1-.59.48,2.27,2.27,0,0,1-.74,0H93.83Z"/><path class="cls-1" d="M59.26,23.09c-7.8-.14-15.53,0-23.25,0a5.22,5.22,0,0,1-.24-.58c-.24-1,0-1.4,1.09-1.4h10.7a4.57,4.57,0,0,1,.72.14c.15,0,.31.12.44.08,1.84-.55,3.72-.15,5.58-.24,1.29-.06,2.58,0,3.87,0s1.47.22,1.23,1.47C59.37,22.66,59.33,22.81,59.26,23.09Z"/><path class="cls-1" d="M243,23.07H219.72a2.49,2.49,0,0,1-.21-.36c-.4-1.18-.11-1.64,1.13-1.65,2,0,4-.07,6,0,.9,0,1.78,0,2.68,0,4.27-.08,8.54,0,12.82,0,.91,0,1.09.22,1,1.11C243.1,22.41,243,22.65,243,23.07Z"/><path class="cls-1" d="M127.77,23.24l.78-2.14c.14,0,.38,0,.61,0h17.63c.61,0,1.21.17,1.82.19a10.15,10.15,0,0,0,1.55-.09c.54,0,1.08-.15,1.67-.24V23h-1.92a11.66,11.66,0,0,0-3.49,0,2.53,2.53,0,0,1-.55,0h-14.5c-.39,0-.79-.12-1.18-.1a14.47,14.47,0,0,0-1.73.17A5.52,5.52,0,0,1,127.77,23.24Z"/><path class="cls-1" d="M197.55,45.57A1.74,1.74,0,0,1,196,43.9a1.76,1.76,0,0,1,1.77-1.64,1.66,1.66,0,0,1-.14,3.31Z"/><path class="cls-1" d="M178,42.26a1.63,1.63,0,0,1,1.63,1.63h0A1.68,1.68,0,0,1,178,45.58a1.64,1.64,0,0,1-1.63-1.65h0a1.6,1.6,0,0,1,1.54-1.66Z"/><path class="cls-1" d="M107.73,43.9a1.63,1.63,0,0,1-1.58,1.68h0a1.69,1.69,0,0,1-1.68-1.7h0a1.67,1.67,0,0,1,1.65-1.62,1.62,1.62,0,0,1,1.62,1.62Z"/><path class="cls-1" d="M18.13,45.75a1.67,1.67,0,1,1,.11-3.33,1.72,1.72,0,0,1,1.57,1.72A1.67,1.67,0,0,1,18.13,45.75Z"/><path class="cls-1" d="M84.14,43.93a1.65,1.65,0,0,1-1.64,1.65,1.63,1.63,0,0,1-1.61-1.65v0a1.6,1.6,0,0,1,1.56-1.64h.07A1.65,1.65,0,0,1,84.14,43.93Z"/><path class="cls-1" d="M270.49,42.25a1.65,1.65,0,0,1,1.64,1.63,1.63,1.63,0,0,1-1.57,1.69h0a1.72,1.72,0,0,1-1.72-1.67A1.77,1.77,0,0,1,270.49,42.25Z"/><path class="cls-1" d="M176.2,77H162.37a6.27,6.27,0,0,1-.09-.71c0-3.44,0-6.89.08-10.33,0-1,.34-1.35,1.42-1.36h10.88c1.12,0,1.51.43,1.53,1.61,0,2.52,0,5,.08,7.56v2.58A4.3,4.3,0,0,1,176.2,77Z"/><path class="cls-1" d="M178.09,77V66.64c0-1.48.55-2,2-2H190.5c.93,0,1.27.37,1.34,1.29a11.74,11.74,0,0,1,0,1.19v8.67a8.72,8.72,0,0,1-.06,1.23Z"/><path class="cls-1" d="M193.56,77.06V66.33c0-1.4.27-1.69,1.64-1.69h10.51c1.15,0,1.58.58,1.57,1.53v10c0,.89-.11,1-.9,1H194A2,2,0,0,0,193.56,77.06Z"/><path class="cls-1" d="M116.09,77.14h-1l-11.62.08c-1,0-1.15-.13-1.14-1.11q.06-4.94.17-9.87a2.78,2.78,0,0,1,.23-1.07c.25-.51.77-.56,1.28-.56h10.8c1,0,1.42.4,1.42,1.4V76.72A2.56,2.56,0,0,1,116.09,77.14Z"/><path class="cls-1" d="M94,77.16H88.42a7.5,7.5,0,0,1-.82,0,.57.57,0,0,1-.53-.55V65.91c.1-.9.45-1.27,1.37-1.27h11c.93,0,1.26.33,1.4,1.25a5.64,5.64,0,0,1,0,.82v9.22c0,1.07-.17,1.25-1.22,1.25H94Z"/><path class="cls-1" d="M85.06,77H71.18V66.57a7.54,7.54,0,0,1,.06-.83c.13-.89.35-1.11,1.25-1.12H83.18a6,6,0,0,1,.74,0A1.1,1.1,0,0,1,85,65.73V77Z"/><rect class="cls-1" x="0.08" y="84.09" width="276.44" height="10.11"/><g class="cls-2"><path class="cls-3" d="M76.71,83.49v-5.9H73.47a1.74,1.74,0,0,1-1.82-1.83V74.61c0-.62.12-.73.74-.76h.27v-7.7a3.85,3.85,0,0,1,3.12-3.93A7.2,7.2,0,0,1,77,62.14h2.86a3.9,3.9,0,0,1,4,3.8q0,.1,0,.2v7.54c.37.18.77.25.92.49s.07.65.1,1h2c.09-.61-.29-1.58,1-1.31V66.11A3.87,3.87,0,0,1,91,62.2a5.62,5.62,0,0,1,.92-.08h3A3.91,3.91,0,0,1,99,66.27v7.51c.9.21.9.21,1,1.4h2c.09-.6-.26-1.57,1-1.29v-7.7a3.87,3.87,0,0,1,3.66-4.07h3.53a3.89,3.89,0,0,1,4,3.78q0,.11,0,.22V73.8h.39a.5.5,0,0,1,.56.54v1.58a1.71,1.71,0,0,1-1.72,1.62h-3.32v5.95h3.35c.52,0,.74.16.74.52s-.22.53-.74.53H73.18c-.35,0-.57-.16-.57-.52s.22-.53.57-.53ZM98,73.84V66a2.79,2.79,0,0,0-2.75-2.83H92a2.84,2.84,0,0,0-3,3v7.61Zm-15.21,0V66A2.81,2.81,0,0,0,80,63.19H76.8a2.84,2.84,0,0,0-3.09,3.1v7.56Zm30.42,0V66a2.77,2.77,0,0,0-2.71-2.83h-3.3a2.84,2.84,0,0,0-3,3V73.8ZM92,77.59H88.69a1.38,1.38,0,0,1-1.41-.71c-.28-.69-.74-.69-1.31-.65a5.89,5.89,0,0,1-.84,0,.4.4,0,0,0-.44.3,1.6,1.6,0,0,1-1.53,1.06H79.78v5.9H92Zm15.16,0H104a1.72,1.72,0,0,1-1.75-1.1c0-.1-.16-.23-.25-.23H100a1.75,1.75,0,0,1-1.9,1.36H95.42c-.34,0-.42.1-.42.43v5.42h12.1ZM72.75,74.93v.56c0,.86.17,1,1,1h9.46a.6.6,0,0,0,.62-.52,9.67,9.67,0,0,0,0-1.08Zm41.52,0H103.2v.73c0,.62.24.86.85.86h9.38a.74.74,0,0,0,.85-.74,7.94,7.94,0,0,0,0-.84ZM99,74.93H88v.49c0,1,.14,1.11,1.09,1.11h8.53c1.38,0,1.54-.18,1.38-1.59ZM78.71,83.49V77.64c-.88-.13-.88-.13-.88.68v5.17Zm30.43,0V77.63h-.83v5.86ZM94,83.49V77.63h-.83v5.86Z"/></g><g class="cls-2"><path class="cls-3" d="M168.27,83.49v-5.9H165a1.74,1.74,0,0,1-1.82-1.83V74.61c0-.62.12-.73.75-.76h.27v-7.7a3.85,3.85,0,0,1,3.12-3.93,7,7,0,0,1,1.22-.08h2.86a3.89,3.89,0,0,1,4,3.78q0,.11,0,.22v7.54c.37.18.77.25.92.49s.07.65.09,1h2c.08-.61-.29-1.58,1-1.31V66.11a3.88,3.88,0,0,1,3.13-3.93,5.62,5.62,0,0,1,.92-.08h3a3.91,3.91,0,0,1,4.13,4.15v7.51c.89.21.89.21,1,1.4h2c.09-.6-.26-1.57,1-1.29v-7.7a3.87,3.87,0,0,1,3.66-4.07H202a3.88,3.88,0,0,1,4,3.76q0,.12,0,.24v7.68h.39a.51.51,0,0,1,.57.54V75.9a1.72,1.72,0,0,1-1.72,1.62h-3.33v6h3.35c.53,0,.75.16.75.52s-.22.53-.75.53H164.74c-.35,0-.57-.16-.57-.52a.49.49,0,0,1,.44-.53h3.66Zm21.28-9.63a1.51,1.51,0,0,0,0-.22V66a2.8,2.8,0,0,0-2.77-2.83h-3.27a2.84,2.84,0,0,0-3,3v7.61Zm-15.2,0V66.07a2.79,2.79,0,0,0-2.72-2.86h-3.28a2.83,2.83,0,0,0-3.08,3.1v7.56Zm30.42,0V66a2.77,2.77,0,0,0-2.69-2.85h-3.33a2.84,2.84,0,0,0-3,3V73.8Zm-21.24,3.73h-3.26a1.38,1.38,0,0,1-1.41-.71c-.28-.69-.75-.69-1.31-.65a5.89,5.89,0,0,1-.84,0,.4.4,0,0,0-.44.3,1.61,1.61,0,0,1-1.53,1.06h-3.38v5.9h12.15Zm15.17,0h-3.21a1.71,1.71,0,0,1-1.72-1.1c0-.1-.16-.23-.25-.23h-1.91a1.75,1.75,0,0,1-1.91,1.36H187c-.33,0-.41.1-.41.43v5.42h12.1Zm-34.37-2.66v.56c0,.86.17,1,1,1h9.45a.59.59,0,0,0,.62-.52,7.76,7.76,0,0,0,0-1.08Zm41.51,0H194.76v.73c0,.62.24.86.85.86H205a.75.75,0,0,0,.85-.74,8,8,0,0,0,0-.84Zm-15.28,0h-11v.49c0,1,.14,1.11,1.08,1.11h8.54c1.37,0,1.49-.18,1.38-1.59Zm-20.3,8.56V77.64c-.87-.13-.87-.13-.87.68v5.17Zm30.44,0V77.63h-.84v5.86Zm-15.23,0V77.63h-.84v5.86Z"/></g><g class="cls-2"><path class="cls-3" d="M276.14,84.49H263.48c-.35,0-.57-.17-.57-.53a.49.49,0,0,1,.44-.53H267V77.49h-3.24A1.77,1.77,0,0,1,262,75.76s0,0,0-.07V74.55c0-.62.12-.74.74-.76H263v-7.7a3.86,3.86,0,0,1,3.12-3.92,6.31,6.31,0,0,1,1.23-.08h2.86a3.89,3.89,0,0,1,4,3.78q0,.11,0,.22v7.55c.37.18.78.25.93.48s.07.65.09,1h1m-3.06-1.35V66a2.8,2.8,0,0,0-2.74-2.86h-3.26a2.83,2.83,0,0,0-3.08,3.1v7.56Zm3.06,2.4a5.3,5.3,0,0,1-.69,0,.39.39,0,0,0-.44.31,1.59,1.59,0,0,1-1.53,1h-3.38v5.84h6m-13.07-8.5v.67c0,.85.17,1,1,1h9.45a.59.59,0,0,0,.62-.51,7.78,7.78,0,0,0,0-1.08ZM269,83.39V77.58c-.87-.13-.87-.13-.87.68v5.13Z"/></g><g class="cls-2"><path class="cls-3" d="M16.54,84.49H3.88c-.35,0-.57-.17-.57-.53a.49.49,0,0,1,.44-.53H7.41V77.49H4.17a1.75,1.75,0,0,1-1.83-1.67q0-.08,0-.16V74.54c0-.62.12-.74.75-.76h.27v-7.7a3.86,3.86,0,0,1,3.12-3.92,6.31,6.31,0,0,1,1.23-.08h2.86a3.88,3.88,0,0,1,4,3.76q0,.12,0,.24v7.55c.37.18.77.25.92.48s.07.65.09,1h1m-3-1.35V66a2.8,2.8,0,0,0-2.74-2.86H7.53a2.83,2.83,0,0,0-3.08,3.1v7.56Zm3,2.4a5.3,5.3,0,0,1-.69,0,.4.4,0,0,0-.44.3,1.6,1.6,0,0,1-1.57,1H10.5v5.84h6M3.43,74.83v.66c0,.85.17,1,1,1h9.45A.59.59,0,0,0,14.5,76a7.79,7.79,0,0,0,0-1.08Zm5.93,8.52V77.56c-.87-.13-.87-.13-.87.68v5.14Z"/></g><path class="cls-4" d="M167.79,84.91c.44.06.44.06.72-.12-.52-3.61,0-6.94-.1-10.88a9.15,9.15,0,0,1,2.29-1.18c-.43-2.2-1.13-4.19-1.56-6.39a1.52,1.52,0,0,0,.69-.94,11.77,11.77,0,0,0-3.14-9.48,2.63,2.63,0,0,0,.21-2.6c-2.26-.46-2,2-1.25,3a8.57,8.57,0,0,0-2,10.52c-.54,2.33-.91,4.51-1.33,6.74.25.27,1.28,0,1.53.24.68,2.93.4,6.58.83,9.7.16.59-.7,1.28.11,1.3.89-.46.41-1.56.44-2.24.1-2.1.24-4.41.34-6.74,0-.62-.46-2,.57-2.13.92,1.25.85,3,.94,4.62"/><path class="cls-4" d="M151,84.54c.44.06.44.06.72-.12-.52-3.6,0-6.93-.1-10.88a8.91,8.91,0,0,1,2.3-1.17c-.42-2.21-1.12-4.2-1.56-6.4a1.53,1.53,0,0,0,.7-.94A11.77,11.77,0,0,0,150,55.55a2.62,2.62,0,0,0,.21-2.6c-2.26-.46-2,2-1.25,3a8.56,8.56,0,0,0-2,10.51c-.54,2.33-.91,4.52-1.33,6.74.25.27,1.27,0,1.53.24.68,2.93.4,6.58.83,9.7.16.59-.7,1.29.11,1.31.89-.47.41-1.57.44-2.25.1-2.1.24-4.41.34-6.74,0-.62-.46-2,.57-2.13.91,1.25.85,3,.94,4.62"/><path class="cls-4" d="M22.16,85.61c.45.06.45.06.75-.12-.54-3.75,0-7.21-.11-11.31A9.37,9.37,0,0,1,25.18,73c-.44-2.29-1.17-4.36-1.62-6.65a1.59,1.59,0,0,0,.72-1A12.23,12.23,0,0,0,21,55.49a2.74,2.74,0,0,0,.22-2.7c-2.35-.48-2,2-1.3,3.07a8.9,8.9,0,0,0-2.06,10.93c-.55,2.42-.93,4.69-1.37,7,.26.28,1.32,0,1.58.26.72,3,.43,6.83.87,10.08.16.61-.73,1.33.12,1.35.91-.48.42-1.62.46-2.33.09-2.18.24-4.59.34-7,0-.64-.47-2,.59-2.21,1,1.3.89,3.16,1,4.8"/><path class="cls-4" d="M52.2,84.58c.41.06.41.06.68-.1-.49-3.4,0-6.54-.1-10.26A8.46,8.46,0,0,1,55,73.11c-.4-2.07-1.07-4-1.47-6a1.45,1.45,0,0,0,.65-.89,11.06,11.06,0,0,0-3-8.93,2.49,2.49,0,0,0,.19-2.45c-2.13-.44-1.85,1.84-1.17,2.78a8.06,8.06,0,0,0-1.84,9.87c-.5,2.19-.85,4.26-1.25,6.35.24.26,1.21,0,1.44.23.65,2.76.39,6.2.79,9.14.15.55-.66,1.21.1,1.23.84-.44.39-1.47.42-2.11.09-2,.23-4.16.31-6.36,0-.58-.43-1.86.54-2,.87,1.17.81,2.87.89,4.35"/><path class="cls-4" d="M29.15,85.49a1.23,1.23,0,0,0,.69-.11c-.5-3.4,0-6.54-.1-10.26A8.88,8.88,0,0,1,31.89,74c-.4-2.08-1.06-4-1.47-6a1.43,1.43,0,0,0,.66-.89,11.08,11.08,0,0,0-3-8.93,2.46,2.46,0,0,0,.2-2.45c-2.13-.43-1.86,1.84-1.18,2.78a8.08,8.08,0,0,0-1.86,9.92c-.5,2.19-.85,4.25-1.25,6.34.24.26,1.2,0,1.44.23.65,2.77.38,6.21.78,9.15.15.55-.66,1.2.11,1.22.83-.44.39-1.47.42-2.11.09-2,.22-4.16.31-6.35,0-.59-.43-1.87.54-2,.86,1.17.8,2.87.89,4.35"/><path class="cls-4" d="M35.35,84.58c.42.06.42.06.69-.1-.5-3.4,0-6.54-.1-10.26a8.56,8.56,0,0,1,2.15-1.11c-.4-2.07-1.06-4-1.47-6a1.46,1.46,0,0,0,.66-.89,11.08,11.08,0,0,0-3-8.93,2.47,2.47,0,0,0,.2-2.45c-2.13-.44-1.86,1.84-1.18,2.78a8.07,8.07,0,0,0-1.82,9.87c-.5,2.19-.85,4.26-1.25,6.35.24.26,1.2,0,1.44.23.65,2.76.38,6.2.79,9.14.14.55-.67,1.21.1,1.23C33.39,84,33,83,33,82.33c.09-2,.22-4.16.31-6.36,0-.58-.43-1.86.54-2,.86,1.17.8,2.87.89,4.35"/><path class="cls-4" d="M59.81,84.58c.46.06.46.06.76-.12-.55-3.75,0-7.21-.11-11.31a9.45,9.45,0,0,1,2.37-1.22c-.44-2.29-1.17-4.36-1.62-6.64a1.58,1.58,0,0,0,.72-1,12.19,12.19,0,0,0-3.25-9.8,2.73,2.73,0,0,0,.21-2.71c-2.35-.48-2,2-1.3,3.07a8.89,8.89,0,0,0-2,10.93c-.55,2.42-.94,4.69-1.38,7,.26.28,1.33,0,1.59.25.71,3,.42,6.84.87,10.08.16.61-.74,1.33.11,1.35.92-.48.43-1.62.46-2.33.1-2.18.25-4.58.35-7,0-.65-.48-2.06.59-2.21,1,1.29.89,3.16,1,4.79"/><path class="cls-4" d="M119,85.49c.45.06.45.06.75-.12-.54-3.75,0-7.21-.11-11.31A8.9,8.9,0,0,1,122,72.87c-.44-2.29-1.17-4.36-1.62-6.65a1.61,1.61,0,0,0,.72-1,12.21,12.21,0,0,0-3.26-9.85,2.71,2.71,0,0,0,.21-2.7c-2.34-.48-2,2-1.29,3.07a8.9,8.9,0,0,0-2.06,10.93c-.55,2.41-.93,4.69-1.38,7,.27.28,1.33,0,1.59.25.72,3,.43,6.84.87,10.09.16.6-.73,1.33.11,1.35.92-.49.43-1.63.46-2.33.1-2.19.25-4.59.35-7,0-.64-.48-2,.59-2.21,1,1.29.89,3.16,1,4.8"/><path class="cls-4" d="M213.77,51.8c-1.22,3.67.67,7.52,2.27,9.91.81.28,1.49.69,2.28,1s1.76.42,2.08,1.19c-.69.75-1.62-.46-2.47-.5a19.72,19.72,0,0,0-2.48-1c-.36-.4-.54-1-1-1.29-.19,2.44.39,5.82.69,8.42a102.25,102.25,0,0,1,4.06,12.68c1,.24,2,.33,3,.6a12.89,12.89,0,0,1-3.67,1.38c-1.27-2.66-2.18-7.25-3.57-10.6-.33-.81-.89-3-1.58-3.07-1.23,0-1.18,3.91-1.68,4.76a48.82,48.82,0,0,0-4.46,6.93c.47.82,1.63,1,2.08,1.79a18.75,18.75,0,0,1-4.06-.2,59.9,59.9,0,0,1,5-9.21,48.52,48.52,0,0,0,1.28-14.1c-.57.66-.67,1.78-1.09,2.57v1.09c-.33.8,0,2.23-.6,2.78-.16-5.18.75-9.3,2.78-12.29-.24-1.21-.69-2.12-.2-3.36C213,50.73,213.42,51.34,213.77,51.8Z"/><path class="cls-4" d="M239,52.32c-1.22,3.67.67,7.52,2.28,9.91.8.28,1.49.69,2.28,1s1.75.42,2.08,1.18c-.7.76-1.63-.45-2.48-.49a18.31,18.31,0,0,0-2.48-1c-.36-.4-.54-1-1-1.29a50.25,50.25,0,0,0,.7,8.42,102.25,102.25,0,0,1,4.06,12.68c1,.24,2,.33,3,.59a12.9,12.9,0,0,1-3.67,1.39c-1.27-2.66-2.18-7.25-3.56-10.6-.34-.81-.9-3-1.59-3.07-1.23,0-1.18,3.91-1.68,4.76a49.14,49.14,0,0,0-4.46,6.93c.47.82,1.63.94,2.08,1.78a18.2,18.2,0,0,1-4.06-.19,62.29,62.29,0,0,1,5-9.22A48.45,48.45,0,0,0,236.83,61c-.56.65-.66,1.78-1.09,2.57V64.7c-.33.8,0,2.23-.59,2.78-.17-5.19.74-9.3,2.77-12.29-.24-1.21-.69-2.12-.2-3.37C238.24,51.25,238.7,51.86,239,52.32Z"/><path class="cls-4" d="M258.29,52.68c-1.22,3.66.67,7.52,2.28,9.9.8.29,1.49.69,2.27,1s1.76.43,2.08,1.19c-.69.75-1.62-.46-2.47-.49a17.09,17.09,0,0,0-2.48-1c-.36-.41-.54-1-1-1.29-.19,2.44.39,5.81.69,8.42a102.26,102.26,0,0,1,4.07,12.68c1,.23,2,.33,3,.59a12.9,12.9,0,0,1-3.67,1.39c-1.27-2.67-2.18-7.26-3.56-10.6-.34-.82-.9-3-1.59-3.07-1.23-.06-1.18,3.9-1.68,4.75a49.24,49.24,0,0,0-4.46,6.94c.47.82,1.63.94,2.08,1.78a18.13,18.13,0,0,1-4.06-.2,61.26,61.26,0,0,1,5-9.21,48.52,48.52,0,0,0,1.29-14.07c-.57.66-.66,1.78-1.09,2.58v1.09c-.33.79,0,2.22-.59,2.77-.17-5.18.74-9.29,2.77-12.28-.24-1.22-.69-2.13-.2-3.37C257.49,51.61,258,52.21,258.29,52.68Z"/><path class="cls-4" d="M232.15,52.49c-1.21,3.67.67,7.52,2.28,9.9.8.29,1.49.69,2.28,1s1.75.42,2.08,1.18c-.7.76-1.62-.45-2.48-.49a18.71,18.71,0,0,0-2.47-1c-.36-.4-.54-1-1-1.29-.19,2.44.39,5.81.69,8.42a102.25,102.25,0,0,1,4.06,12.68c1,.24,2,.33,3,.59A12.72,12.72,0,0,1,237,84.89c-1.28-2.66-2.19-7.25-3.57-10.6-.34-.82-.9-3-1.58-3.07-1.23-.06-1.18,3.91-1.69,4.76a48.21,48.21,0,0,0-4.45,6.93c.46.82,1.63.94,2.08,1.78a17.65,17.65,0,0,1-4.07-.2,61.79,61.79,0,0,1,5-9.21A48.47,48.47,0,0,0,230,61.22c-.56.65-.66,1.77-1.08,2.57v1.09c-.33.8,0,2.23-.6,2.77-.16-5.18.74-9.29,2.77-12.28-.24-1.21-.69-2.12-.19-3.37C231.36,51.43,231.81,52,232.15,52.49Z"/><path class="cls-4" d="M142.74,52.32c-1.21,3.67.68,7.52,2.28,9.91.81.28,1.49.69,2.28,1s1.75.42,2.08,1.18c-.69.76-1.62-.45-2.48-.49a17.67,17.67,0,0,0-2.47-1c-.36-.4-.54-1-1-1.29-.19,2.44.39,5.81.69,8.42a102.25,102.25,0,0,1,4.06,12.68c1,.24,2,.33,3,.59a12.9,12.9,0,0,1-3.67,1.39c-1.27-2.66-2.18-7.25-3.57-10.6-.33-.81-.89-3-1.58-3.07-1.23,0-1.18,3.91-1.69,4.76a49.08,49.08,0,0,0-4.45,6.93c.46.82,1.63.94,2.08,1.78a18.14,18.14,0,0,1-4.06-.19,60.48,60.48,0,0,1,5-9.22A48.8,48.8,0,0,0,140.53,61c-.57.65-.67,1.78-1.09,2.57V64.7c-.33.8,0,2.23-.6,2.78-.16-5.19.75-9.3,2.78-12.29-.24-1.21-.69-2.12-.2-3.37C142,51.25,142.4,51.86,142.74,52.32Z"/><path class="cls-4" d="M68.26,52.32c-1.22,3.67.67,7.52,2.28,9.91.8.28,1.49.69,2.27,1s1.76.42,2.08,1.18c-.69.76-1.62-.45-2.47-.49a18.31,18.31,0,0,0-2.48-1c-.36-.4-.54-1-1-1.29-.19,2.44.39,5.81.69,8.42A102.25,102.25,0,0,1,73.7,82.73c1,.24,2,.33,3,.59A12.9,12.9,0,0,1,73,84.71c-1.27-2.66-2.18-7.25-3.56-10.6-.34-.81-.9-3-1.59-3.07-1.23,0-1.18,3.91-1.68,4.76a48.26,48.26,0,0,0-4.46,6.93c.47.82,1.63.94,2.08,1.78a18.17,18.17,0,0,1-4.06-.19,61.37,61.37,0,0,1,5-9.22A48.45,48.45,0,0,0,66,61c-.57.65-.67,1.78-1.09,2.57V64.7c-.33.8,0,2.23-.59,2.78-.17-5.19.74-9.3,2.77-12.29-.24-1.21-.69-2.12-.2-3.37C67.46,51.25,68,51.86,68.26,52.32Z"/><path class="cls-4" d="M175.18,51.69c-1.22,3.67.67,7.52,2.28,9.91.8.29,1.49.69,2.28,1s1.75.43,2.08,1.19c-.7.75-1.63-.46-2.48-.5a19.72,19.72,0,0,0-2.48-1c-.36-.4-.54-1-1-1.28-.19,2.43.39,5.81.69,8.42a101,101,0,0,1,4.07,12.67c1,.24,2,.33,3,.6A12.9,12.9,0,0,1,180,84.09c-1.27-2.67-2.18-7.26-3.56-10.6-.34-.82-.9-3-1.59-3.07-1.23-.06-1.18,3.9-1.68,4.75a49.72,49.72,0,0,0-4.46,6.93c.47.83,1.63,1,2.08,1.79a18.75,18.75,0,0,1-4.06-.2,62.17,62.17,0,0,1,4.92-9.2,48.52,48.52,0,0,0,1.29-14.07c-.56.66-.66,1.78-1.09,2.58v1.09c-.33.79,0,2.22-.59,2.77-.17-5.18.74-9.29,2.77-12.28-.24-1.22-.69-2.13-.2-3.37C174.38,50.63,174.84,51.23,175.18,51.69Z"/><path class="cls-4" d="M86,51.8c-1.22,3.67.67,7.52,2.28,9.91.8.28,1.49.69,2.28,1s1.75.42,2.08,1.19c-.7.75-1.63-.46-2.48-.5a19.72,19.72,0,0,0-2.48-1c-.36-.4-.54-1-1-1.29a50.16,50.16,0,0,0,.7,8.42A102.25,102.25,0,0,1,91.4,82.21c1,.24,2,.33,3,.6a12.89,12.89,0,0,1-3.67,1.38c-1.27-2.66-2.18-7.25-3.56-10.6-.34-.81-.9-3-1.59-3.07-1.23,0-1.18,3.91-1.68,4.76a49.72,49.72,0,0,0-4.46,6.93c.47.82,1.63,1,2.08,1.79a18.78,18.78,0,0,1-4.06-.2,61.68,61.68,0,0,1,5-9.21,48.52,48.52,0,0,0,1.27-14.1c-.56.66-.66,1.78-1.09,2.57v1.09c-.33.8,0,2.23-.59,2.78-.17-5.18.74-9.3,2.77-12.29-.24-1.21-.69-2.12-.2-3.36C85.16,50.73,85.62,51.34,86,51.8Z"/><path class="cls-4" d="M270.81,57.43c.3.91-.39,2.33-.62,3.56.09.92,1,1,1.39,1.71.34,2.4.15,5.27.46,7.69-.65,1.87-1.71,3.36-2.31,5.28-1.59-.1-3.64.23-4.77-.29-1,2.2-.48,5.73-.92,8.41-1.36,0-2.28.35-3.7.28,2.08-2,2.29-5.67,2.77-9.12-.3-.57-1.23-.57-1.84-.85-.63,2.69-.14,6.43-.93,9a15.4,15.4,0,0,1-2.92-.28c2.38-2.31,1.12-8,3.54-10.26,1.18-.15,1.73.3,2.77.29C265.9,69.3,267.23,65,269,61c.11-.72-.27-1-.46-1.42C269.14,58.79,269.47,57.11,270.81,57.43Z"/><path class="cls-4" d="M224.51,54.39c-.09.74-.17,1.48-.28,2.2,2.75,7.43,4.9,15.14,5.44,22.8-.09.49-.77.38-1,.76a23.34,23.34,0,0,0,1,2.48c.57,0,1.31-.27,1.81,0-.07,1.08-1.39.9-1.91,1.53-.8-1-.85-2.71-1.62-3.72-2.12,1.25-5.58.13-8.49.19a11.51,11.51,0,0,0-1.34,2.67c.7.7,2.13.67,2.77,1.43a34.9,34.9,0,0,0-4,.1c.43-1.58,1.25-2.76,1.72-4.3-.26-1-1.12-1.42-1.43-2.38.83-1.24,1.62-2,2.76-3.43A19.72,19.72,0,0,0,222.33,69a21.6,21.6,0,0,0,.28-6c-1,1.26-.78,3.8-1.43,5.44-.62-.59-.47-1.87-.28-3.34.54-2.47,1-4.22,1.62-6.87a14.29,14.29,0,0,0,1.14-1.43c-.59-.76-.66-1.45-.57-2.87C223.65,53.41,224.14,53.95,224.51,54.39Z"/><path class="cls-4" d="M134.55,54c-.09.74-.17,1.48-.28,2.2,2.74,7.44,4.9,15.14,5.43,22.8-.08.49-.76.38-1,.77.23.91.67,1.61,1,2.48.58,0,1.32-.28,1.82,0-.07,1.07-1.39.89-1.91,1.52-.8-1-.85-2.71-1.62-3.72-2.12,1.25-5.58.13-8.49.19a11.31,11.31,0,0,0-1.34,2.67c.7.71,2.13.67,2.77,1.43a34.9,34.9,0,0,0-4,.1c.43-1.58,1.25-2.75,1.72-4.29-.26-1-1.12-1.43-1.44-2.39.84-1.23,1.63-2,2.77-3.43a19.61,19.61,0,0,0,2.39-5.73,21.58,21.58,0,0,0,.28-6c-1,1.26-.78,3.8-1.43,5.44-.62-.59-.47-1.86-.28-3.34.54-2.47,1-4.22,1.62-6.87a12.33,12.33,0,0,0,1.14-1.43c-.59-.76-.66-1.45-.57-2.86C133.69,53,134.18,53.58,134.55,54Z"/><path class="cls-4" d="M39.82,54.38c-.09.73-.17,1.48-.28,2.19C42.29,64,44.44,71.72,45,79.38c-.08.49-.77.37-1,.76a25.67,25.67,0,0,0,1,2.48c.57,0,1.31-.27,1.81,0-.07,1.08-1.39.9-1.91,1.53-.8-1-.85-2.72-1.62-3.73-2.12,1.25-5.58.13-8.49.2a11.51,11.51,0,0,0-1.34,2.67c.7.7,2.13.67,2.77,1.43a35,35,0,0,0-4,.09c.43-1.57,1.25-2.75,1.72-4.29-.26-1-1.12-1.42-1.43-2.39.83-1.23,1.62-2,2.76-3.43A19.66,19.66,0,0,0,37.64,69a21.67,21.67,0,0,0,.28-6c-1,1.27-.78,3.8-1.43,5.44-.62-.59-.47-1.86-.28-3.34.54-2.46,1-4.22,1.62-6.87A12.33,12.33,0,0,0,39,56.76c-.59-.76-.66-1.45-.57-2.86C39,53.39,39.45,53.94,39.82,54.38Z"/><path class="cls-4" d="M100.63,54.85c.73.65,0,1.42,0,2.28.55,4.86,1.64,10.74,0,15.3,0,3.49-.14,7.19.18,10.45,0,.84,1.1.79,1.25,1.52H100c-.4-7.18-.2-14.88-3.94-19.24,1.7-3.26,4.41-5.89,3.76-10.31ZM98.12,66.22c.12-.93,1-2.61.18-3.34C97.7,63.72,96.13,65.78,98.12,66.22Z"/><path class="cls-4" d="M196.47,53.69H197c1.33.23.53,2.19.24,2.91,1.42,1.83,2.89,3.59,2.67,7-.31.34-1.14.15-1.45.48.29,6,2.07,10.57,3.4,15.55-.57,1.38-2.1,1.79-3.65,2.19v2.43c-.55.15-1.46.48-1.94,0,.07-.66,1-.44,1.21-1,.3-1.76-.86-2-2.42-2-.46.53-.17,1.78-.25,2.68a2.63,2.63,0,0,1-2.43.24c-.14-.87.72-.74,1.46-.73A2.08,2.08,0,0,1,194,82c-.29-.91-1.27-1.16-2.18-1.45,1.19-5.77,3.18-10.75,2.91-18-.85,0-.8.82-1.46,1-1.28-1-2.83-1.7-3.4-3.4,1.09-.13,2.14,1.7,3.16,2.43C194.28,59.75,196.17,57.49,196.47,53.69Z"/><path class="cls-4" d="M183.48,53.3H184c1.34.23.53,2.19.25,2.92,1.41,1.82,2.88,3.59,2.67,7-.31.34-1.15.15-1.46.49.3,6,2.07,10.56,3.4,15.55-.57,1.37-2.1,1.78-3.64,2.18v2.43c-.56.16-1.47.49-2,0,.08-.65,1-.43,1.22-1,.3-1.75-.87-2-2.43-1.94-.45.52-.17,1.78-.24,2.67a2.61,2.61,0,0,1-2.43.24c-.14-.87.72-.74,1.45-.73a2.05,2.05,0,0,1,.25-1.45c-.3-.92-1.27-1.16-2.19-1.46,1.2-5.77,3.18-10.75,2.92-18-.86,0-.8.82-1.46,1-1.29-1-2.84-1.7-3.4-3.4,1.08-.13,2.13,1.71,3.16,2.43C181.28,59.36,183.17,57.13,183.48,53.3Z"/><path class="cls-4" d="M154.82,53.43h.49c1.33.24.52,2.2.24,2.92,1.41,1.83,2.89,3.59,2.67,7-.31.34-1.15.15-1.46.49.3,6,2.07,10.56,3.41,15.55-.57,1.38-2.1,1.79-3.65,2.19V84c-.55.15-1.46.48-1.94,0,.07-.66,1-.44,1.21-1,.3-1.75-.86-2-2.43-1.94-.45.52-.16,1.78-.24,2.67a2.64,2.64,0,0,1-2.43.25c-.14-.87.72-.74,1.46-.73a2.08,2.08,0,0,1,.24-1.46c-.3-.92-1.27-1.16-2.19-1.46,1.2-5.77,3.19-10.75,2.92-18-.85,0-.8.82-1.46,1-1.28-1-2.83-1.7-3.4-3.4,1.08-.13,2.14,1.71,3.16,2.43C152.62,59.49,154.52,57.26,154.82,53.43Z"/><path class="cls-4" d="M94.19,59.49c.85,1.38.78,3.14.68,5.32a69.77,69.77,0,0,0,.75,11.68,3.37,3.37,0,0,1-1.28.08,65.55,65.55,0,0,0,.45,7.5,10.37,10.37,0,0,1-2.77.3c.33-.75,1.24-.92,1.57-1.65-.19-2.16-.26-3.83-.3-5.93-.49-.58-1.07,0-1.72-.15a50,50,0,0,0-.15,7.65,6.54,6.54,0,0,1-2.55.08c.29-.51,1-.64,1.35-1.05-.2-2.39.16-4.52.08-6.75-.33-.18-.62-.07-1.13-.15.18-3.62,1.18-7,1.58-10.65-1.12.11-2.33.52-3.53.68-.29,0-.88.22-1-.15.1-.56.88-.51,1.28-.6a12.19,12.19,0,0,0,1.5-.38c.88-.33,1.86-.75,2.17-1.57-.13-.4-.88-.09-1.27-.08a36.6,36.6,0,0,1-3.75-.22,1.26,1.26,0,0,1,.45-.83,8.14,8.14,0,0,0,4.72-.07c1-.64,1.41-1.94,2.1-2.92a3.66,3.66,0,0,1-.08-2.7C95,56.11,94.87,58.74,94.19,59.49Z"/><path class="cls-4" d="M106.12,63c.19.78.94,1,1,1.94,3.14,1.32,5.76-.85,8.34-1.16,0,.31.17.41.1.77-2.62.81-5.24,2-7.76,1.65,0,.24-.18.21-.1.49,1.52,1.6,4.4.2,6.31.09-.07.3.09.36.09.59-2.25.46-4.64,1.74-6.59.38-.76,1.2-.26,3.33.09,4.56,4.36,1.3,5.91,5.41,10.09,6.89-.42,1.74-2.31,2-3.59,2.91-.08.89.48,1.14,1.07,1.36-.18.43-.94.29-1.36.48a6.3,6.3,0,0,0-.29-1.65,2.17,2.17,0,0,0-1.65.88c.08.57.94.36,1.17.77-.35.3-1.26.1-1.85.1-.19-.29-.12-.84-.48-1-1.79.64-2.84-.75-3.88-1.45.37-2.18,1.13-4,1.45-6.21a11.35,11.35,0,0,0-3.59.19,4.59,4.59,0,0,1-1.84-1.84c.15-3.35.7-6.34,1.07-9.22.49-.57.93-1.19,1.45-1.74a4,4,0,0,1,.39-3.2C107.77,58.85,107.57,62.57,106.12,63Z"/><path class="cls-4" d="M13.64,59.77c.18.51.6.77.51,1.53-.14,1-.91,1.39-1.4,2-.75,3.68-1,7.8-1.91,11.6H8.54c-.53,2.33,0,5.41,0,7.78-.89.91-1.93,2.52-3.69,1.79.34-.93,1.42-1.13,1.91-1.92-.11-2.73.2-5.23,0-7.14a13.79,13.79,0,0,0-2.93-.12c-.45,2.87,0,4.79-.26,7.26-1.13.29-2.48,1.37-3.57.9.13-1.07,1.28-1.11,1.92-1.66.36-2.61.67-5.27.89-8,1.19.09,2.07-.14,3.18-.13,1.65-3.37,3.12-6.92,5-10.07a7.57,7.57,0,0,0,.25-2.17c.49-.53.66-1.38,1.28-1.78C13,59.56,13.22,59.77,13.64,59.77Z"/><path class="cls-4" d="M162.36,83.64c-.27,0,.08.37,0,0l1,.45a8.9,8.9,0,0,1-2.71.18c-.81-4.7-.44-9.54-1.26-14.71-.3,0-.4-.26-.81-.18-.31,4.87.55,10.61.36,15.07-1,.19-2.15-.36-2.35,0-.38-.66,1.14-.8,1.27-1.53-.75-6.24-.67-12.35-1.09-19a5.67,5.67,0,0,0-1.71-.9c-.17-.67-.41-1.27-.54-2,.55-2.39,1.53-4.36,2.16-6.67A5.47,5.47,0,0,0,158,53a26.65,26.65,0,0,1-.18-2.88,3,3,0,0,1,.9-.36,2.66,2.66,0,0,1,.54,3,3.76,3.76,0,0,0,1.44,1.27,31.18,31.18,0,0,0,2.69,7.41c.83.54,2.07.64,2.8,1.27,0,.32-.26.4-.27.72a20.84,20.84,0,0,1-3-1.08c-.85-.93-1.21-2.34-2.17-3.16a166.26,166.26,0,0,0,1,23.91C161.81,83.49,162.23,83.41,162.36,83.64ZM155.5,61.26a3.08,3.08,0,0,0,1.17,1.23c.31-1.11,0-1.81,0-3.07-.11,0-.12-.12-.27-.09A5.72,5.72,0,0,0,155.5,61.26Z"/><path class="cls-4" d="M249.87,84c-.27,0,.09.38,0,0l1,.46a9.19,9.19,0,0,1-2.7.18c-.81-4.71-.45-9.54-1.27-14.71-.3,0-.4-.26-.81-.18-.31,4.86.56,10.6.36,15.07-1,.19-2.15-.36-2.34,0-.39-.67,1.13-.8,1.26-1.54-.75-6.23-.67-12.34-1.08-19a5.87,5.87,0,0,0-1.72-.91c-.17-.67-.41-1.26-.54-2,.55-2.39,1.53-4.36,2.17-6.68a5.38,5.38,0,0,0,1.26-1.26c-.08-1.31-.19-1.67-.18-2.89a3.32,3.32,0,0,1,.9-.36,2.68,2.68,0,0,1,.54,3,3.62,3.62,0,0,0,1.45,1.26,31.09,31.09,0,0,0,2.7,7.49c.83.53,2.07.64,2.8,1.26,0,.32-.26.41-.27.73a20.61,20.61,0,0,1-3-1.09c-.85-.92-1.21-2.34-2.16-3.15a166,166,0,0,0,1,23.9C249.32,83.84,249.74,83.79,249.87,84ZM243,61.64a3,3,0,0,0,1.18,1.17c.3-1.1-.06-1.8,0-3.06-.12,0-.13-.12-.27-.09A5.73,5.73,0,0,0,243,61.64Z"/><path class="cls-4" d="M127.09,84c-.27,0,.09.38,0,0l1,.46a9.28,9.28,0,0,1-2.71.18c-.81-4.71-.45-9.54-1.26-14.71-.3,0-.4-.26-.81-.18-.32,4.86.55,10.6.36,15.07-1,.19-2.16-.36-2.35,0-.38-.67,1.13-.8,1.26-1.54-.74-6.23-.67-12.34-1.08-19a5.87,5.87,0,0,0-1.72-.91c-.16-.67-.41-1.26-.54-2,.56-2.39,1.54-4.36,2.17-6.68a5.38,5.38,0,0,0,1.26-1.26c-.08-1.31-.19-1.67-.18-2.89a3.39,3.39,0,0,1,.91-.36,2.68,2.68,0,0,1,.53,3,3.62,3.62,0,0,0,1.45,1.26,31.1,31.1,0,0,0,2.71,7.49c.82.53,2.06.64,2.79,1.26,0,.32-.26.41-.27.73a20.61,20.61,0,0,1-3-1.09c-.84-.92-1.2-2.34-2.16-3.15a167.48,167.48,0,0,0,1,23.9C126.55,83.84,127,83.79,127.09,84Zm-6.85-22.37a2.87,2.87,0,0,0,1.17,1.17c.3-1.1,0-1.8,0-3.06-.12,0-.13-.12-.27-.09A5.72,5.72,0,0,0,120.24,61.64Z"/><path class="cls-4" d="M207,84c-.27,0,.09.38,0,0l1,.46a9.23,9.23,0,0,1-2.71.18c-.8-4.71-.44-9.54-1.26-14.71-.3,0-.4-.26-.81-.18-.31,4.86.55,10.6.36,15.07-1,.19-2.15-.36-2.35,0-.38-.67,1.14-.8,1.27-1.54-.75-6.23-.67-12.34-1.08-19a5.87,5.87,0,0,0-1.72-.91c-.17-.67-.41-1.26-.54-2,.55-2.39,1.53-4.36,2.17-6.68a5.58,5.58,0,0,0,1.26-1.26c-.08-1.31-.2-1.67-.18-2.89a3.32,3.32,0,0,1,.9-.36,2.68,2.68,0,0,1,.54,3,3.66,3.66,0,0,0,1.44,1.26A31.1,31.1,0,0,0,208,61.94c.83.53,2.07.64,2.8,1.26,0,.32-.26.41-.27.73a19.78,19.78,0,0,1-3-1.09c-.85-.92-1.21-2.34-2.17-3.15a166.07,166.07,0,0,0,1,23.9C206.36,83.84,206.78,83.79,207,84ZM200.1,61.64a3,3,0,0,0,1.18,1.17c.3-1.1-.06-1.8,0-3.06-.12,0-.13-.12-.28-.09a5.72,5.72,0,0,0-1,2Z"/><path class="cls-4" d="M198,46.18a43.11,43.11,0,0,1-5.44,7.65c.3,1.18.62,2.34.85,3.58-1.07,8.31,1.88,15.88.68,25.34.24.84,1.53.63,1.53,1.7a57.66,57.66,0,0,1-9,0A182,182,0,0,0,189,66.08a19.07,19.07,0,0,0-1.36-2.38c.58-5.3.08-10.68,2.21-14.29-.81-.5-1.13-3.17.17-3.4,1.53.3.89,2.53.51,3.57.66.81.74,2.21,1.7,2.72,2.4-1.68,3.72-4.45,5.44-6.8C197.59,45.84,198,45.72,198,46.18Zm-6.8,20.58c-.87,4.56-1.16,10.44-1.87,15.65.52.54,1.37,1.53,2,1.36.67-5.84,1.46-11.7-.17-17Z"/><path class="cls-4" d="M70.72,65.63c.12-.88,1.12-.87,1.23-1.75-.37-1.15-1-2.63-.35-3.51.41-.4.79-.3,1.41.18a2.51,2.51,0,0,1,.35,3,18.6,18.6,0,0,1,5.09,3.51c1.1-.71,1.31-2.31,2.45-3,.47,1.35-1.2,2.64-1.93,3.86a15.15,15.15,0,0,1-3-1.43A69.42,69.42,0,0,0,78.42,73C80.76,75.15,84,76.43,87,77.9c0,1.67-1.63,1.77-2.46,2.63,0,1.75,1.52,2,2.11,3.16-1.67.81-2.77-1.25-3.16-2.8a8.89,8.89,0,0,0-2.81.35C81,82.57,82.22,83,82.8,84c-1.68.93-2.66-1.58-3.33-2.8H78.24c-.84-2.35,0-6.06-4.74-5.27"/><path class="cls-5" d="M224,84.08a1.23,1.23,0,0,1-.69-.11c.5-3.4,0-6.54.1-10.26a8.37,8.37,0,0,0-2.15-1.1c.4-2.08,1.06-4,1.47-6a1.47,1.47,0,0,1-.66-.89,11.08,11.08,0,0,1,3-8.93,2.49,2.49,0,0,1-.2-2.45c2.13-.43,1.86,1.84,1.18,2.78A8.08,8.08,0,0,1,228,67c.5,2.19.85,4.25,1.25,6.34-.24.26-1.2,0-1.44.23-.64,2.77-.38,6.21-.78,9.15-.15.55.66,1.2-.11,1.22-.83-.44-.39-1.47-.41-2.11-.09-2-.23-4.16-.32-6.36,0-.58.43-1.86-.54-2-.86,1.17-.8,2.87-.89,4.35"/><path class="cls-3" d="M252,85c-.41.06-.41.06-.68-.11.5-3.4,0-6.54.1-10.25a8.46,8.46,0,0,0-2.17-1.14c.4-2.08,1.07-4,1.47-6a1.39,1.39,0,0,1-.65-.89,11,11,0,0,1,3-8.92,2.49,2.49,0,0,1-.2-2.46c2.13-.43,1.86,1.84,1.18,2.79a8.07,8.07,0,0,1,1.86,9.91c.5,2.19.85,4.25,1.25,6.35-.24.25-1.2,0-1.44.23-.65,2.76-.38,6.2-.79,9.14-.14.55.67,1.21-.1,1.23-.83-.44-.39-1.48-.42-2.12-.09-2-.22-4.16-.31-6.35,0-.58.43-1.86-.54-2-.86,1.18-.81,2.87-.89,4.35"/><path class="cls-3" d="M60.38,84.58c-.42.06-.42.06-.69-.1.5-3.4,0-6.54.1-10.26a8.56,8.56,0,0,0-2.15-1.11c.4-2.07,1.06-4,1.47-6a1.46,1.46,0,0,1-.66-.89,11.08,11.08,0,0,1,3-8.93,2.47,2.47,0,0,1-.2-2.45c2.13-.44,1.86,1.84,1.18,2.78a8.07,8.07,0,0,1,1.82,9.87c.5,2.19.85,4.26,1.25,6.35-.24.26-1.2,0-1.44.23-.65,2.76-.38,6.2-.78,9.14-.15.55.66,1.21-.11,1.23-.83-.44-.39-1.47-.42-2.11-.09-2-.22-4.16-.31-6.36,0-.58.43-1.86-.54-2-.86,1.17-.8,2.87-.89,4.35"/><path class="cls-6" d="M214.51,84.29c-.41.06-.41.06-.68-.11.49-3.41,0-6.56.1-10.29a8.53,8.53,0,0,0-2.17-1.11c.41-2.09,1.07-4,1.48-6.05a1.5,1.5,0,0,1-.66-.89,11.14,11.14,0,0,1,3-9,2.48,2.48,0,0,1-.2-2.46c2.14-.43,1.87,1.85,1.18,2.8a8.07,8.07,0,0,1,1.87,9.94c.51,2.2.86,4.27,1.26,6.38-.24.25-1.21,0-1.45.23-.65,2.77-.38,6.22-.79,9.17-.14.56.67,1.22-.1,1.24-.84-.44-.39-1.48-.42-2.13-.09-2-.22-4.17-.31-6.37,0-.59.43-1.87-.54-2-.87,1.18-.81,2.88-.9,4.37"/><path class="cls-3" d="M153.29,84.67c-.46.06-.46.06-.75-.12.54-3.75,0-7.22.11-11.31A9.39,9.39,0,0,0,150.27,72c.44-2.28,1.17-4.35,1.62-6.64a1.58,1.58,0,0,1-.72-1,12.21,12.21,0,0,1,3.26-9.85,2.74,2.74,0,0,1-.22-2.7c2.35-.48,2,2,1.3,3.07a8.89,8.89,0,0,1,2,10.93c.56,2.41.94,4.69,1.38,7-.26.28-1.32,0-1.59.25-.71,3.05-.42,6.84-.86,10.09-.16.6.73,1.33-.12,1.35-.92-.49-.43-1.63-.46-2.33-.1-2.19-.24-4.59-.34-7,0-.64.47-2-.6-2.21-1,1.29-.89,3.16-1,4.8"/><path class="cls-3" d="M14,51.83c1.21,3.66-.67,7.52-2.28,9.9-.8.29-1.49.69-2.28,1s-1.75.43-2.08,1.19c.7.75,1.62-.46,2.48-.5a19.72,19.72,0,0,1,2.48-1c.36-.4.54-1,1-1.28a51.41,51.41,0,0,1-.7,8.42A102.25,102.25,0,0,0,8.52,82.24c-1,.23-2,.33-3,.59a12.9,12.9,0,0,0,3.67,1.39c1.27-2.67,2.18-7.26,3.56-10.6.34-.82.9-3,1.59-3.07,1.23-.06,1.18,3.9,1.68,4.75a49.24,49.24,0,0,1,4.46,6.94c-.47.82-1.63.94-2.08,1.78a18.17,18.17,0,0,0,4.06-.2,62.17,62.17,0,0,0-5-9.21,48.52,48.52,0,0,1-1.29-14.07c.56.66.66,1.78,1.09,2.58v1.09c.33.79,0,2.22.59,2.77.17-5.18-.74-9.29-2.77-12.28.24-1.22.69-2.13.2-3.37C14.77,50.76,14.32,51.36,14,51.83Z"/><path class="cls-3" d="M133.5,51.81c1.22,3.67-.67,7.52-2.28,9.91-.8.28-1.49.69-2.28,1s-1.75.42-2.08,1.19c.7.75,1.63-.46,2.48-.5a19.72,19.72,0,0,1,2.48-1c.36-.4.54-1,1-1.29.19,2.44-.39,5.82-.69,8.42a100.6,100.6,0,0,0-4.07,12.68c-1,.24-2,.33-3,.6a12.6,12.6,0,0,0,3.67,1.38c1.27-2.66,2.18-7.25,3.56-10.59.34-.82.9-3,1.59-3.08,1.23-.05,1.18,3.91,1.68,4.76A49.72,49.72,0,0,1,140,82.22c-.47.82-1.63,1-2.08,1.79a18.75,18.75,0,0,0,4.06-.2,61.68,61.68,0,0,0-5-9.21,48.52,48.52,0,0,1-1.27-14.11c.56.66.66,1.78,1.09,2.58v1.12c.33.8,0,2.23.59,2.78.17-5.18-.74-9.3-2.77-12.29.24-1.21.69-2.12.2-3.36C134.3,50.74,133.84,51.35,133.5,51.81Z"/><path class="cls-3" d="M204,51.49c1.22,3.67-.67,7.52-2.28,9.91-.8.28-1.49.68-2.28,1s-1.75.42-2.08,1.18c.7.76,1.63-.45,2.48-.49a18.31,18.31,0,0,1,2.48-1c.36-.4.54-1,1-1.29a50.25,50.25,0,0,1-.7,8.42,102.25,102.25,0,0,0-4.06,12.68c-1,.24-2,.33-3,.59a12.9,12.9,0,0,0,3.67,1.39c1.27-2.66,2.18-7.25,3.56-10.6.34-.81.9-3,1.59-3.07,1.23,0,1.18,3.91,1.68,4.76a49.14,49.14,0,0,1,4.46,6.93c-.47.82-1.63.94-2.08,1.78a18.2,18.2,0,0,0,4.06-.19,62.29,62.29,0,0,0-5-9.22,48.45,48.45,0,0,1-1.29-14.06c.56.65.66,1.78,1.09,2.57v1.09c.33.8,0,2.23.59,2.78.17-5.19-.74-9.3-2.77-12.29.24-1.21.69-2.12.2-3.37C204.81,50.4,204.35,51,204,51.49Z"/><path class="cls-3" d="M105.07,51.19c1.21,3.66-.67,7.52-2.28,9.9-.8.29-1.49.69-2.28,1s-1.75.43-2.08,1.19c.7.75,1.62-.45,2.48-.49a18.71,18.71,0,0,1,2.47-1c.36-.4.55-1,1-1.29a51.32,51.32,0,0,1-.7,8.42A102.25,102.25,0,0,0,99.62,81.6c-1,.23-2,.33-3,.59a13,13,0,0,0,3.66,1.39c1.28-2.67,2.19-7.26,3.57-10.6.34-.82.9-3,1.59-3.07,1.22-.06,1.17,3.9,1.68,4.75a49.83,49.83,0,0,1,4.46,6.94c-.47.82-1.64.94-2.08,1.78a18.17,18.17,0,0,0,4.06-.2,61.79,61.79,0,0,0-5-9.21,48.51,48.51,0,0,1-1.28-14.07c.56.66.66,1.78,1.09,2.58v1.09c.32.79,0,2.22.59,2.77.16-5.18-.74-9.29-2.77-12.28.24-1.21.69-2.13.2-3.37C105.86,50.12,105.41,50.72,105.07,51.19Z"/><path class="cls-3" d="M186.31,50.95c1.21,3.67-.67,7.52-2.28,9.91-.8.28-1.49.69-2.28,1s-1.75.42-2.08,1.19c.7.75,1.62-.46,2.48-.5a20.19,20.19,0,0,1,2.47-1c.36-.4.55-1,1-1.29.19,2.44-.39,5.81-.69,8.42a102.25,102.25,0,0,0-4.06,12.68c-1,.24-2,.33-3,.6a12.83,12.83,0,0,0,3.66,1.38c1.28-2.66,2.19-7.25,3.57-10.6.34-.81.9-3,1.59-3.07,1.22-.05,1.17,3.91,1.68,4.76a49.72,49.72,0,0,1,4.46,6.93c-.47.82-1.64.95-2.08,1.79a18.78,18.78,0,0,0,4.06-.2,61.41,61.41,0,0,0-5-9.22,48.44,48.44,0,0,1-1.28-14.06c.56.66.66,1.78,1.09,2.57v1.09c.32.8,0,2.23.59,2.78.16-5.19-.74-9.3-2.77-12.29.24-1.21.69-2.12.2-3.36C187.1,49.88,186.65,50.49,186.31,50.95Z"/><path class="cls-3" d="M51.73,53.88c.1.74.18,1.48.29,2.2-2.75,7.44-4.9,15.14-5.44,22.8.08.49.77.38,1,.77-.24.91-.68,1.61-1,2.48-.57,0-1.31-.28-1.81,0,.07,1.07,1.39.89,1.91,1.52.8-1,.85-2.71,1.62-3.72,2.12,1.25,5.57.13,8.49.19a11.71,11.71,0,0,1,1.34,2.67c-.7.71-2.13.67-2.77,1.43a34.9,34.9,0,0,1,4,.1c-.43-1.58-1.26-2.75-1.72-4.29.26-1,1.12-1.43,1.43-2.39-.83-1.23-1.62-2-2.77-3.43A19.59,19.59,0,0,1,54,68.49a21.62,21.62,0,0,1-.29-6c1,1.26.79,3.8,1.43,5.44.62-.59.47-1.86.29-3.34-.55-2.47-1-4.22-1.62-6.87a11.42,11.42,0,0,1-1.15-1.43c.6-.76.67-1.45.58-2.86C52.6,52.9,52.11,53.49,51.73,53.88Z"/><path class="cls-3" d="M238,58c.08.63.15,1.27.25,1.89a71.88,71.88,0,0,0-4.68,19.63c.07.42.66.32.83.65-.21.79-.58,1.4-.83,2.14-.49,0-1.13-.24-1.56,0,.06.93,1.2.77,1.65,1.32.68-.85.73-2.34,1.39-3.21,1.83,1.07,4.81.11,7.32.16a9.78,9.78,0,0,1,1.15,2.31c-.6.6-1.83.57-2.38,1.23a29.91,29.91,0,0,1,3.45.08c-.37-1.36-1.08-2.37-1.48-3.7.22-.87,1-1.23,1.23-2-.71-1.07-1.39-1.69-2.38-3a17,17,0,0,1-2.06-4.94,18.64,18.64,0,0,1-.24-5.18c.88,1.09.67,3.28,1.23,4.69.53-.51.4-1.6.25-2.88-.47-2.12-.89-3.63-1.4-5.92a10.87,10.87,0,0,1-1-1.23,3.14,3.14,0,0,0,.5-2.47C238.72,57.12,238.29,57.58,238,58Z"/><path class="cls-3" d="M166.53,55c-.64,4.42,2.07,7,3.77,10.31-3.74,4.36-3.54,12.06-4,19.24H164.2c.16-.73,1.23-.68,1.26-1.52.31-3.26.13-7,.18-10.45-1.65-4.56-.55-10.44,0-15.3,0-.86-.74-1.63,0-2.28ZM168,63c-.82.73.06,2.41.18,3.34,2-.42.42-2.47-.19-3.31Z"/><path class="cls-3" d="M272.75,53.49c.73.65,0,1.42,0,2.27.54,4.87,1.64,10.75,0,15.31,0,3.49-.14,7.19.18,10.45,0,.84,1.1.79,1.25,1.52H272c-.4-7.18-.21-14.88-3.94-19.24,1.7-3.26,4.41-5.89,3.76-10.31Zm-2.51,11.37c.12-.93,1-2.61.18-3.34-.61.81-2.17,2.86-.18,3.31Z"/><path class="cls-3" d="M10.07,54.34c.74.65,0,1.43,0,2.28.55,4.86,1.65,10.74,0,15.3,0,3.5-.13,7.19.18,10.46,0,.83,1.11.78,1.26,1.51H9.36C8.95,76.71,9.15,69,5.42,64.65c1.69-3.26,4.4-5.89,3.76-10.31ZM7.57,65.71c.11-.92,1-2.6.17-3.33C7.14,63.21,5.58,65.27,7.57,65.71Z"/><path class="cls-3" d="M79.77,53.18h-.48c-1.34.23-.53,2.19-.25,2.92-1.41,1.82-2.88,3.59-2.67,7,.31.34,1.15.15,1.46.49-.3,6-2.07,10.56-3.4,15.55.57,1.37,2.1,1.78,3.64,2.18v2.47c.56.16,1.47.48,2,0-.08-.65-1-.44-1.22-1-.3-1.75.87-2,2.43-1.94.45.52.17,1.77.24,2.67a2.63,2.63,0,0,0,2.43.24c.14-.87-.72-.74-1.45-.73a2,2,0,0,0-.25-1.45c.3-.92,1.27-1.17,2.19-1.46-1.2-5.77-3.18-10.75-2.92-18,.86,0,.8.82,1.46,1,1.29-1,2.84-1.7,3.4-3.4-1.08-.13-2.13,1.71-3.16,2.43C82,59.24,80.08,57,79.77,53.18Z"/><path class="cls-3" d="M42.77,56.33h-.45c-1.21.21-.48,2-.22,2.65-1.28,1.66-2.62,3.27-2.43,6.41.29.31,1,.13,1.33.44-.27,5.48-1.88,9.61-3.1,14.15.52,1.25,1.92,1.62,3.32,2v2.21c.51.14,1.33.43,1.77,0-.07-.6-.93-.4-1.11-.89-.27-1.59.79-1.86,2.21-1.77.41.48.15,1.62.22,2.43a2.39,2.39,0,0,0,2.21.23c.13-.8-.65-.68-1.32-.67A1.88,1.88,0,0,0,45,82.19c.27-.84,1.15-1.06,2-1.33-1.09-5.25-2.9-9.78-2.66-16.35.78,0,.73.74,1.33.88,1.17-.89,2.58-1.55,3.09-3.09-1-.12-1.94,1.55-2.87,2.21C44.76,61.84,43,59.81,42.77,56.33Z"/><path class="cls-3" d="M176,59c-.84,1.38-.77,3.14-.67,5.32a69.89,69.89,0,0,1-.75,11.7,3.33,3.33,0,0,0,1.27.07,61.17,61.17,0,0,1-.45,7.5,10,10,0,0,0,2.78.3c-.33-.74-1.24-.91-1.58-1.65.2-2.15.26-3.83.3-5.92.49-.59,1.08,0,1.73-.15a51.2,51.2,0,0,1,.15,7.64,6.54,6.54,0,0,0,2.55.08c-.3-.51-1-.64-1.35-1,.2-2.38-.17-4.52-.08-6.75.33-.18.61-.07,1.13-.15-.18-3.61-1.18-7-1.58-10.64,1.12.1,2.33.51,3.52.67.3,0,.88.23,1-.15-.1-.56-.87-.51-1.27-.6a13.7,13.7,0,0,1-1.5-.37c-.88-.33-1.86-.76-2.17-1.58.12-.39.88-.09,1.27-.07a34.14,34.14,0,0,0,3.75-.23,1.24,1.24,0,0,0-.45-.82,8.14,8.14,0,0,1-4.72-.08c-1-.64-1.41-1.94-2.1-2.92a3.61,3.61,0,0,0,.07-2.7C175.32,55.6,175.38,58.23,176,59Z"/><path class="cls-3" d="M116.68,82.75a166.23,166.23,0,0,0,1-23.91c-1,.82-1.31,2.23-2.16,3.16a20.5,20.5,0,0,1-3,1.08c0-.32-.26-.4-.27-.72.73-.63,2-.73,2.8-1.27a31.61,31.61,0,0,0,2.71-7.48,3.76,3.76,0,0,0,1.44-1.27,2.66,2.66,0,0,1,.54-3,3,3,0,0,1,.9.36c0,1.22-.1,1.57-.18,2.88a5.43,5.43,0,0,0,1.26,1.27c.64,2.31,1.62,4.28,2.17,6.67-.13.72-.37,1.32-.54,2a5.85,5.85,0,0,0-1.72.9c-.41,6.69-.33,12.8-1.08,19,.13.73,1.65.87,1.26,1.53-.19-.36-1.32.19-2.34,0-.2-4.46.67-10.2.36-15.07-.41-.08-.51.15-.81.18-.82,5.17-.46,10-1.26,14.71a8.9,8.9,0,0,1-2.71-.18c.33-.15.65-.31,1-.45-.09.37.27,0,0,0C116.18,83,116.6,83,116.68,82.75ZM122,58.84c-.14,0-.15.09-.27.09.06,1.26-.3,2,0,3.07A3,3,0,0,0,123,60.82,5.73,5.73,0,0,0,122,58.84Z"/><path class="cls-3" d="M29,83.06a167.68,167.68,0,0,0,1-23.91c-1,.82-1.32,2.23-2.16,3.16a21.75,21.75,0,0,1-3,1.08c0-.32-.26-.41-.27-.72.72-.63,2-.74,2.79-1.27a31.18,31.18,0,0,0,2.71-7.48,3.69,3.69,0,0,0,1.44-1.27,2.66,2.66,0,0,1,.54-3A3.09,3.09,0,0,1,33,50c0,1.22-.1,1.57-.18,2.88a5.62,5.62,0,0,0,1.26,1.27c.63,2.31,1.61,4.28,2.17,6.67-.13.72-.38,1.31-.55,2a5.92,5.92,0,0,0-1.71.9c-.41,6.69-.34,12.8-1.08,19,.12.73,1.64.86,1.26,1.53-.19-.36-1.32.19-2.35,0-.19-4.47.68-10.2.36-15.07-.41-.08-.51.15-.81.18-.81,5.17-.45,10-1.26,14.71a9,9,0,0,1-2.71-.18c.33-.16.66-.31,1-.45-.09.37.27,0,0,0C28.51,83.28,29,83.33,29,83.06Zm5.32-23.91c-.15,0-.16.08-.27.09,0,1.26-.3,2,0,3.07a3,3,0,0,0,1.17-1.18A5.72,5.72,0,0,0,34.33,59.15Z"/><path class="cls-3" d="M144,83.14a156.28,156.28,0,0,0,1-22.48c-.89.77-1.23,2.1-2,3a18.84,18.84,0,0,1-2.8,1c0-.3-.24-.38-.26-.68.69-.59,1.86-.69,2.63-1.19a28.86,28.86,0,0,0,2.55-7,3.41,3.41,0,0,0,1.36-1.19,2.5,2.5,0,0,1,.5-2.79,2.8,2.8,0,0,1,.85.34,26.1,26.1,0,0,1-.17,2.71A5.17,5.17,0,0,0,148.81,56c.6,2.17,1.52,4,2,6.27-.12.67-.35,1.24-.51,1.87a5.36,5.36,0,0,0-1.61.85c-.39,6.29-.32,12-1,17.89.12.69,1.54.82,1.19,1.44-.18-.34-1.25.18-2.21,0-.18-4.19.63-9.59.34-14.16-.39-.08-.48.14-.76.17-.77,4.86-.43,9.4-1.19,13.82a8.24,8.24,0,0,1-2.55-.17l.94-.42c-.08.35.25,0,0,0C143.51,83.34,143.9,83.39,144,83.14Zm5-22.48c-.14,0-.15.08-.26.09,0,1.18-.29,1.84,0,2.88a2.84,2.84,0,0,0,1.1-1.1A5.34,5.34,0,0,0,149,60.66Z"/><path class="cls-3" d="M66,82.71a166,166,0,0,0,1-23.9C66,59.62,65.65,61,64.8,62a20.61,20.61,0,0,1-3,1.09c0-.32-.26-.41-.27-.73.73-.62,2-.73,2.8-1.26A31.09,31.09,0,0,0,67,53.57a3.62,3.62,0,0,0,1.45-1.26,2.68,2.68,0,0,1,.54-3,3.32,3.32,0,0,1,.9.36c0,1.22-.1,1.58-.18,2.89A5.38,5.38,0,0,0,71,53.82c.64,2.32,1.61,4.29,2.17,6.68-.13.72-.37,1.31-.54,2a5.87,5.87,0,0,0-1.72.91c-.41,6.69-.33,12.8-1.08,19,.13.74,1.65.87,1.26,1.54-.19-.36-1.32.19-2.34,0-.2-4.47.67-10.21.36-15.07-.41-.08-.51.15-.81.18-.82,5.17-.46,10-1.27,14.71a9.19,9.19,0,0,1-2.7-.18c.32-.16.65-.31,1-.46-.09.38.27,0,0,0C65.49,82.94,66,83,66,82.71Zm5.32-23.9c-.14,0-.15.08-.27.09.06,1.26-.3,2,0,3.06a2.87,2.87,0,0,0,1.17-1.17,5.72,5.72,0,0,0-.87-2Z"/><path class="cls-3" d="M88.28,45c1.72,2.36,3,5.12,5.44,6.8,1-.51,1-1.91,1.7-2.72-.38-1-1-3.26.51-3.57,1.31.23,1,2.9.17,3.4,2.13,3.61,1.64,9,2.21,14.29A20.42,20.42,0,0,0,97,65.57a182,182,0,0,0,2.38,18.37,56.47,56.47,0,0,1-9,0c0-1.07,1.29-.86,1.53-1.7-1.2-9.46,1.75-17,.68-25.34.23-1.24.55-2.4.85-3.57A43.56,43.56,0,0,1,88,45.67C87.81,45.21,88.27,45.33,88.28,45Zm6.29,38.27c.68.17,1.52-.82,2-1.36-.71-5.2-1-11.09-1.87-15.65-1.59,5.31-.82,11.17-.13,17Z"/><line class="cls-7" x1="3.05" y1="132.27" x2="84.39" y2="132.27"/><line class="cls-7" x1="185.99" y1="132.12" x2="277.6" y2="132.12"/><text class="cls-8" transform="translate(116.46 134.36)">Car<tspan class="cls-9" x="19.17" y="0"> </tspan><tspan class="cls-10" x="21.7" y="0">T</tspan><tspan class="cls-11" x="27.52" y="0">w</tspan><tspan x="36.04" y="0">o</tspan></text></g></g></svg>