<svg xmlns="http://www.w3.org/2000/svg" viewBox="0 0 697.18 399.62"><defs><style>.cls-1,.cls-15,.cls-16,.cls-22,.cls-26,.cls-27{fill:none;}.cls-1,.cls-16{stroke:#003da6;stroke-linejoin:round;}.cls-1{stroke-linecap:round;stroke-width:21px;}.cls-2{fill:#003da6;}.cls-14,.cls-2{fill-rule:evenodd;}.cls-3{font-size:26.3px;font-family:Helvetica-Bold, Helvetica;font-weight:700;}.cls-14,.cls-3{fill:#fff;}.cls-4{font-size:12.14px;}.cls-10,.cls-12,.cls-13,.cls-17,.cls-19,.cls-20,.cls-21,.cls-23,.cls-24,.cls-25,.cls-4,.cls-5,.cls-6,.cls-7,.cls-8,.cls-9{fill:#231f20;}.cls-10,.cls-12,.cls-13,.cls-4,.cls-5,.cls-6,.cls-7,.cls-8,.cls-9{font-family:Helvetica, Helvetica;}.cls-5{font-size:12.14px;}.cls-6{font-size:12.14px;}.cls-7{font-size:12.14px;}.cls-8{font-size:12.14px;}.cls-9{font-size:12.14px;}.cls-10{font-size:12.14px;}.cls-11{fill:#c6daff;}.cls-12{font-size:12.14px;}.cls-13{font-size:12.14px;}.cls-16{stroke-width:5px;}.cls-17,.cls-20,.cls-21,.cls-24{font-size:12.49px;}.cls-17,.cls-19{font-family:BentonSansCond-Regular, BentonSans Cond Regular;}.cls-18,.cls-21{letter-spacing:-0.02em;}.cls-19{font-size:12.49px;letter-spacing:-0.02em;}.cls-20,.cls-21,.cls-23,.cls-24,.cls-25{font-family:BentonSansCond-Bold, BentonSans Cond Bold;}.cls-20{letter-spacing:-0.02em;}.cls-22{stroke:#c6daff;}.cls-22,.cls-26{stroke-miterlimit:10;}.cls-23{font-size:20.82px;}.cls-25{font-size:20.23px;}.cls-26{stroke:#fff;stroke-width:6px;}.cls-27{stroke:#000;stroke-miterlimit:3.86;stroke-width:2.4px;}</style></defs><title>map1</title><g id="图层_2" data-name="图层 2"><g id="图层_1-2" data-name="图层 1"><line class="cls-1" x1="67.46" y1="298.3" x2="18.84" y2="222.55"/><path class="cls-1" d="M648.84,39.21,227.47,311.13l-82.09,53.15-.33.23c-25.46,16.39-40.79-9.22-40.79-9.22l.2.26-29-44.87L67.46,298.3"/><path class="cls-2" d="M0,197.95a15.39,15.39,0,0,1,15.44-15.34l41,.14a15.39,15.39,0,0,1-.1,30.77l-41-.14A15.39,15.39,0,0,1,0,197.95"/><text class="cls-3" transform="matrix(1, 0, 0, 1, 17.92, 207.26)">BL</text><text class="cls-4" transform="matrix(0.12, 0.99, -0.99, 0.12, 338.8, 220.07)"> </text><text class="cls-5" transform="translate(339.18 223.4) rotate(84.13)"> </text><text class="cls-6" transform="matrix(0.08, 1, -1, 0.08, 339.46, 226.69)"> </text><text class="cls-7" transform="translate(339.83 229.93) rotate(86.59)"> </text><text class="cls-6" transform="translate(339.91 233.22) rotate(87.87)"> </text><text class="cls-8" transform="translate(340.13 239.82) rotate(90.54)"> </text><text class="cls-9" transform="translate(340.05 243.04) rotate(91.93)"> </text><text class="cls-10" transform="matrix(-0.06, 1, -1, -0.06, 339.98, 246.35)"> </text><circle class="cls-11" cx="484.85" cy="145.42" r="26.16"/><text class="cls-12" transform="translate(339.48 252.79) rotate(96.32)"> </text><text class="cls-13" transform="translate(339.15 256.13) rotate(97.86)"> </text><path class="cls-14" d="M491.13,141.37a7.47,7.47,0,1,1-10.33-2.24,7.48,7.48,0,0,1,10.33,2.24"/><path class="cls-14" d="M545.58,105.84a7.47,7.47,0,1,1-10.33-2.24,7.48,7.48,0,0,1,10.33,2.24"/><path class="cls-14" d="M603.08,68.44a7.47,7.47,0,1,1-10.33-2.24,7.48,7.48,0,0,1,10.33,2.24"/><path class="cls-14" d="M654.55,35.75a7.47,7.47,0,1,1-10.33-2.24,7.48,7.48,0,0,1,10.33,2.24"/><circle class="cls-15" cx="484.85" cy="145.42" r="7.47" transform="translate(-1.52 285.68) rotate(-32.78)"/><path class="cls-14" d="M422.45,185.16a7.47,7.47,0,1,1-10.33-2.24,7.48,7.48,0,0,1,10.33,2.24"/><path class="cls-14" d="M375.47,216a7.47,7.47,0,1,1-10.33-2.24A7.48,7.48,0,0,1,375.47,216"/><path class="cls-16" d="M434.24,191.24"/><text class="cls-17" transform="translate(84.91 290.85)"><tspan class="cls-18">Government</tspan><tspan x="0" y="14.99">Center</tspan></text><text class="cls-19" transform="translate(205.37 349.06) rotate(0.12)">Aquarium</text><text class="cls-20" transform="translate(110.62 396.83) rotate(0.36)">State</text><text class="cls-21" transform="translate(271.37 308.84) rotate(0.82)">Maverick</text><circle class="cls-22" cx="484.85" cy="145.42" r="36.43"/><text class="cls-23" transform="translate(45.6 236.46) rotate(-0.17)">BOWDOIN</text><text class="cls-24" transform="matrix(1, 0.03, -0.03, 1, 323.97, 274.52)">Airport</text><text class="cls-25" transform="translate(570.75 18.64) rotate(-0.47)">WONDERLAND</text><text class="cls-17" transform="matrix(1, 0.02, -0.02, 1, 426.95, 207.93)">Orient Heights</text><text class="cls-25" transform="matrix(1, 0.02, -0.02, 1, 492.31, 174.19)">Suffolk Downs</text><text class="cls-17" transform="matrix(1, 0.02, -0.02, 1, 548.77, 131.17)">Beachmont</text><text class="cls-17" transform="matrix(1, 0.02, -0.02, 1, 611.21, 90.86)">Revere<tspan x="0" y="14.99">Beach</tspan></text><text class="cls-17" transform="matrix(1, 0.02, -0.02, 1, 376.65, 239.85)">Wood Island</text><path class="cls-26" d="M374.53,211.2"/><path class="cls-26" d="M379.06,190.33"/><path class="cls-14" d="M25.12,218.57a7.47,7.47,0,1,1-10.33-2.24,7.48,7.48,0,0,1,10.33,2.24"/><path class="cls-14" d="M73.62,294.39a7.47,7.47,0,1,1-10.33-2.24,7.48,7.48,0,0,1,10.33,2.24"/><path class="cls-14" d="M130.85,365.57a7.47,7.47,0,1,1-10.2-2.78,7.48,7.48,0,0,1,10.2,2.78"/><circle class="cls-27" cx="124.36" cy="369.28" r="7.47" transform="translate(-166.86 110.39) rotate(-29.75)"/><path class="cls-14" d="M201.34,328.19A7.47,7.47,0,1,1,191,326a7.48,7.48,0,0,1,10.33,2.24"/><path class="cls-14" d="M270.34,283.68a7.47,7.47,0,1,1-10.2-2.78,7.48,7.48,0,0,1,10.2,2.78"/><circle class="cls-27" cx="263.85" cy="287.39" r="7.47" transform="translate(-107.84 168.82) rotate(-29.75)"/><path class="cls-14" d="M318,253.28a7.47,7.47,0,1,1-10.2-2.78,7.48,7.48,0,0,1,10.2,2.78"/><circle class="cls-27" cx="311.48" cy="256.99" r="7.47" transform="translate(-86.47 188.45) rotate(-29.75)"/><line class="cls-22" x1="458.69" y1="142.13" x2="362.83" y2="142.44"/><text class="cls-25" transform="translate(176.07 126.58)">Where Amazon HQ2 <tspan x="0" y="24.27">proposed to be built</tspan></text></g></g></svg>