<?xml version="1.0" encoding="utf-8"?>
<!-- Generator: Adobe Illustrator 21.0.0, SVG Export Plug-In . SVG Version: 6.00 Build 0)  -->
<svg version="1.1" id="图层_1" xmlns="http://www.w3.org/2000/svg" xmlns:xlink="http://www.w3.org/1999/xlink" x="0px" y="0px"
	 viewBox="0 0 778.3 571.7" style="enable-background:new 0 0 778.3 571.7;" xml:space="preserve">
<style type="text/css">
	.st0{clip-path:url(#SVGID_2_);}
	.st1{clip-path:url(#SVGID_7_);}
	.st2{clip-path:url(#SVGID_8_);}
	.st3{clip-path:url(#SVGID_9_);}
	.st4{clip-path:url(#SVGID_10_);}
	.st5{fill:none;stroke:#E2231A;stroke-width:15;stroke-linecap:round;stroke-miterlimit:3.86;}
	.st6{fill:none;stroke:#00833E;stroke-width:15;stroke-linecap:round;stroke-miterlimit:3.86;}
	.st7{fill:none;stroke:#003DA6;stroke-width:15;stroke-linecap:round;stroke-linejoin:round;}
	.st8{fill:#003DA6;}
	.st9{clip-path:url(#SVGID_10_);enable-background:new    ;}
	.st10{fill:#FFFFFF;}
	.st11{font-family:'Helvetica-Bold';}
	.st12{font-size:18.85px;}
	.st13{fill:none;stroke:#003DA6;stroke-width:0.25;stroke-miterlimit:3.86;}
	.st14{font-size:9.6334px;}
	.st15{fill:none;}
	.st16{fill:none;stroke:#231F20;stroke-width:2;stroke-miterlimit:3.86;}
	.st17{fill:#FFFFFF;stroke:#231F20;stroke-width:0.5;stroke-miterlimit:3.86;}
	.st18{fill:#231F20;}
	.st19{font-family:'BentonSansCond-Bold';}
	.st20{font-size:14.5px;}
	.st21{font-size:17.4px;}
	.st22{font-size:14.5029px;}
	.st23{fill:#FFFFFF;stroke:#231F20;stroke-width:2;stroke-miterlimit:10;}
	.st24{font-size:14px;}
	.st25{fill:none;stroke:#9B9BBC;stroke-width:3;stroke-miterlimit:10;}
	.st26{fill:none;stroke:#9B9BBC;stroke-width:3;stroke-miterlimit:10;stroke-dasharray:5.11,5.11;}
	.st27{fill:none;stroke:#9B9BBC;stroke-miterlimit:10;}
	.st28{font-size:17px;}
	.st29{font-family:'BentonSansCond-Regular';}
	.st30{font-size:15px;}
</style>
<title>map2_1</title>
<g>
	<g>
		<g id="图层_2">
			<defs>
				
					<rect id="SVGID_1_" x="-239.5" y="-271.1" transform="matrix(0.9997 -2.425770e-02 2.425770e-02 0.9997 -4.4563 10.9156)" width="1374.3" height="920.5"/>
			</defs>
			<clipPath id="SVGID_2_">
				<use xlink:href="#SVGID_1_"  style="overflow:visible;"/>
			</clipPath>
			<g id="图层_1-2" class="st0">
				<g>
					<defs>
						
							<rect id="SVGID_3_" x="-239.5" y="-271.1" transform="matrix(0.9997 -2.425770e-02 2.425770e-02 0.9997 -4.4563 10.9156)" width="1374.3" height="920.5"/>
					</defs>
					<defs>
						
							<rect id="SVGID_4_" x="-239.5" y="-271.1" transform="matrix(0.9997 -2.425770e-02 2.425770e-02 0.9997 -4.4563 10.9156)" width="1374.3" height="920.5"/>
					</defs>
					<defs>
						
							<rect id="SVGID_5_" x="-239.5" y="-271.1" transform="matrix(0.9997 -2.425770e-02 2.425770e-02 0.9997 -4.4563 10.9156)" width="1374.3" height="920.5"/>
					</defs>
					<defs>
						
							<rect id="SVGID_6_" x="-239.5" y="-271.1" transform="matrix(0.9997 -2.425770e-02 2.425770e-02 0.9997 -4.4563 10.9156)" width="1374.3" height="920.5"/>
					</defs>
					<clipPath id="SVGID_7_">
						<use xlink:href="#SVGID_3_"  style="overflow:visible;"/>
					</clipPath>
					<clipPath id="SVGID_8_" class="st1">
						<use xlink:href="#SVGID_4_"  style="overflow:visible;"/>
					</clipPath>
					<clipPath id="SVGID_9_" class="st2">
						<use xlink:href="#SVGID_5_"  style="overflow:visible;"/>
					</clipPath>
					<clipPath id="SVGID_10_" class="st3">
						<use xlink:href="#SVGID_6_"  style="overflow:visible;"/>
					</clipPath>
					<g class="st4">
						<path class="st5" d="M283.9,336.6c-33-31.6-71.9-69.7-120.4-116.1"/>
						<path class="st6" d="M79.1,409.7c-41.8,1-40.8,38.6-40.8,38.6v1l1.7,68.5c-0.3,18-8,26.2-12.9,30.2L7.5,562.2"/>
						<path class="st6" d="M79.1,409.7l110.9-2.7c26.8-0.7,33.1-6.8,47.2-21.6l28.2-29.6L332,286"/>
						<line class="st7" x1="332" y1="286" x2="285.4" y2="241.5"/>
						<path class="st7" d="M693.2,7.5L445.6,268l-48.2,50.9l-0.2,0.2c-15,15.7-30,0.5-30,0.5l0.2,0.1l-27.8-26.3L332,286"/>
						<path class="st8" d="M267.9,222.1c-0.2-6.1,4.6-11.1,10.7-11.3c0,0,0,0,0.1,0l29.4-0.7c6.1-0.1,11.1,4.7,11.3,10.7
							c0.1,6.1-4.7,11.1-10.7,11.3l-29.4,0.7C273.1,233,268.1,228.2,267.9,222.1C267.9,222.1,267.9,222.1,267.9,222.1"/>
					</g>
					<g class="st9">
						<text transform="matrix(0.9997 -2.425770e-02 2.425770e-02 0.9997 280.91 228.46)" class="st10 st11 st12">BL</text>
					</g>
					<g class="st4">
						<path class="st10" d="M279.7,241.6c-0.1-3,2.3-5.5,5.3-5.6c3-0.1,5.5,2.3,5.6,5.3c0.1,3-2.3,5.5-5.3,5.6c0,0,0,0,0,0
							C282.2,247,279.7,244.6,279.7,241.6"/>
						
							<ellipse transform="matrix(0.9997 -2.425770e-02 2.425770e-02 0.9997 -5.7754 6.986)" class="st13" cx="285.1" cy="241.5" rx="5.4" ry="5.4"/>
						<text transform="matrix(0.6919 -0.722 0.722 0.6919 240.8293 386.4492)" class="st10 st11 st14">B, C, D, E</text>
						<text transform="matrix(0.6919 -0.722 0.722 0.6919 298.5295 325.1394)" class="st10 st11 st14">C, D, E</text>
					</g>
					<g class="st4">
						<path class="st10" d="M232.6,292.9c-0.1-3,2.3-5.5,5.3-5.6c3-0.1,5.5,2.3,5.6,5.3c0.1,3-2.3,5.5-5.3,5.6c0,0,0,0,0,0
							C235.1,298.3,232.7,295.9,232.6,292.9"/>
						<path class="st10" d="M560.2,147.4c2.1,2,2.2,5.4,0.2,7.6s-5.4,2.2-7.6,0.2s-2.2-5.4-0.2-7.6c0,0,0,0,0,0
							C554.7,145.4,558,145.3,560.2,147.4"/>
						<path class="st10" d="M682.9,19.3c2,2.2,1.9,5.5-0.2,7.6c-2.2,2-5.5,1.9-7.6-0.2c-2-2.2-1.9-5.5,0.2-7.6c0,0,0,0,0,0
							C677.5,17,680.9,17.1,682.9,19.3"/>
						
							<ellipse transform="matrix(0.7269 -0.6867 0.6867 0.7269 169.7061 472.5189)" class="st15" cx="679" cy="22.9" rx="5.4" ry="5.4"/>
						<path class="st10" d="M332.2,292.9c-3.8,0.1-7-2.9-7.1-6.7c-0.1-3.8,2.9-7,6.7-7.1c3.8-0.1,7,2.9,7.1,6.7c0,0,0,0,0,0
							C339,289.6,336,292.8,332.2,292.9"/>
						
							<ellipse transform="matrix(0.9997 -2.443218e-02 2.443218e-02 0.9997 -6.8872 8.1977)" class="st16" cx="332" cy="285.9" rx="6.9" ry="6.9"/>
						<path class="st17" d="M279.2,341.4c-2.7-2.6-2.8-6.8-0.2-9.5s6.8-2.8,9.5-0.2s2.8,6.8,0.2,9.5c0,0,0,0,0,0
							C286.1,343.9,281.9,344,279.2,341.4"/>
						
							<ellipse transform="matrix(0.6897 -0.7241 0.7241 0.6897 -155.692 309.947)" class="st16" cx="283.8" cy="336.6" rx="6.7" ry="6.7"/>
					</g>
					<text transform="matrix(0.9997 -2.425770e-02 2.425770e-02 0.9997 338.3 261.26)" class="st18 st19 st20">Go</text>
					<text transform="matrix(0.9997 -2.425770e-02 2.425770e-02 0.9997 354.5052 260.8668)" class="st18 st19 st20">v</text>
					<text transform="matrix(0.9997 -2.425770e-02 2.425770e-02 0.9997 361.0133 260.7089)" class="st18 st19 st20">ernmen</text>
					<text transform="matrix(0.9997 -2.425770e-02 2.425770e-02 0.9997 406.07 259.6156)" class="st18 st19 st20">t</text>
					<g class="st9">
						<text transform="matrix(0.9997 -2.425770e-02 2.425770e-02 0.9997 338.72 278.65)" class="st18 st19 st20">Center</text>
					</g>
					<g class="st9">
						<text transform="matrix(0.9997 -2.425770e-02 2.425770e-02 0.9997 75.11 244.37)" class="st18 st19 st20">Kendall/MIT</text>
					</g>
					<g class="st9">
						<text transform="matrix(0.9997 -2.425770e-02 2.425770e-02 0.9997 268.12 207.52)" class="st18 st19 st21">BOWDOIN</text>
					</g>
					<g class="st9">
						<text transform="matrix(0.9997 -2.425770e-02 2.425770e-02 0.9997 568.15 164.17)" class="st18 st19 st20">Airport</text>
					</g>
					<g class="st9">
						<text transform="matrix(0.9997 -2.425770e-02 2.425770e-02 0.9997 690.57 36.81)" class="st18 st19 st20">Su</text>
					</g>
					<g class="st9">
						<text transform="matrix(0.9997 -2.425770e-02 2.425770e-02 0.9997 706.8 36.41)" class="st18 st19 st20">ﬀolk Downs</text>
					</g>
					<g class="st9">
						<text transform="matrix(0.9997 -2.425770e-02 2.425770e-02 0.9997 35.78 568.66)" class="st18 st19 st20">Northeastern</text>
					</g>
					<g class="st9">
						<text transform="matrix(0.9998 -1.999600e-02 1.999600e-02 0.9998 294.9605 353.0202)" class="st18 st19 st22">Park St</text>
					</g>
					<g class="st4">
						<path class="st23" d="M14.1,558.7c-2.7-2.6-2.8-6.8-0.2-9.5c2.6-2.7,6.8-2.8,9.5-0.2c2.7,2.6,2.8,6.8,0.2,9.5c0,0,0,0,0,0
							C21,561.2,16.8,561.3,14.1,558.7"/>
						<path class="st23" d="M165.6,231.9c-2.7-2.6-2.8-6.8-0.2-9.5c2.6-2.7,6.8-2.8,9.5-0.2c2.7,2.6,2.8,6.8,0.2,9.5c0,0,0,0,0,0
							C172.5,234.4,168.3,234.5,165.6,231.9"/>
					</g>
				</g>
				<text transform="matrix(1 -7.155789e-03 7.155789e-03 1 148.25 308.78)" class="st19 st24">Charl</text>
				<text transform="matrix(1 -7.155789e-03 7.155789e-03 1 179.8992 308.5535)" class="st19 st24">e</text>
				<text transform="matrix(1 -7.155789e-03 7.155789e-03 1 186.719 308.5047)" class="st19 st24">s/MGH</text>
				<line class="st25" x1="238.8" y1="290.8" x2="240.5" y2="289"/>
				<line class="st26" x1="243.9" y1="285.2" x2="276.8" y2="249.6"/>
				<line class="st25" x1="278.5" y1="247.7" x2="280.2" y2="245.9"/>
				<line class="st27" x1="258.1" y1="259.9" x2="258.1" y2="154.6"/>
				
					<ellipse transform="matrix(0.401 -0.9161 0.9161 0.401 -92.4236 397.9931)" class="st27" cx="258.1" cy="269.7" rx="9.8" ry="9.8"/>
				<text transform="matrix(1 0 0 1 148.31 105.43)" class="st19 st28">P</text>
				<text transform="matrix(1 0 0 1 157.57 105.43)" class="st19 st28">o</text>
				<text transform="matrix(1 0 0 1 166.3 105.43)" class="st19 st28">s</text>
				<text transform="matrix(1 0 0 1 174.05 105.43)" class="st19 st28">sible </text>
				<text transform="matrix(1 0 0 1 211.99 105.43)" class="st19 st28">S</text>
				<text transform="matrix(1 0 0 1 221.87 105.43)" class="st19 st28">olution:</text>
			</g>
		</g>
	</g>
</g>
<rect x="148" y="117" class="st15" width="252" height="44"/>
<text transform="matrix(1 0 0 1 148 130.0498)"><tspan x="0" y="0" class="st29 st24">Adding a</tspan><tspan x="48.5" y="0" class="st19 st30"> line between the red line and </tspan><tspan x="0" y="18" class="st19 st30">blue line </tspan><tspan x="57.1" y="18" class="st29 st24">will save time on the train.</tspan></text>
</svg>
