<svg xmlns="http://www.w3.org/2000/svg" viewBox="0 0 165.43 108.18"><defs><style>.cls-1{fill:#f15e00;}</style></defs><title>gse</title><g id="图层_2" data-name="图层 2"><g id="图层_2-2" data-name="图层 2"><g id="sNUyip.tif"><path class="cls-1" d="M62.7,105.09c-.24,1.33-.31,2.55-1.9,2.33-1.36-.2-1.3-1.3-1.39-2.3-.3-3.14-1.92-4.85-5.07-5.15-1.76-.16-2.36-1-2.5-2.74-.6-7.32.43-14.24,4.44-20.58a3.8,3.8,0,0,1,3.55-2.19c5.5.07,11,0,16.49.05,3,0,5.52-4,4-6.69-.54-1-1.17-1.76-.64-3,.41-.93-.47-1.35-1-1.75C71.48,58.13,64.41,53,57,48.3c-3.2-2-7.21-.95-10.76-.37a112.57,112.57,0,0,1-11.67,1c-3.85.22-7.37-1.89-10.93-3.21-2.56-.95-5.53-1.19-7.39-3.77-.63-.87-2.05-.38-3.11-.21-1.91.31-2.83-.67-2.55-2.37C12.32,28.94,8,20.69,1.53,13.14c-.38-.44-.75-.89-1.1-1.36-.73-1-.56-1.87.69-2,1.54-.13,2.31-1.21,3.24-2.12C8.67,3.5,13.62.86,19.8,1.37c4.46.37,8.76-.75,13.12-1.27a7.22,7.22,0,0,1,5.45,1.14c.94.68,2.07,1.11,3,1.83,3.4,2.66,6.86,3.17,11.16,1.9C55.62,4,59,5.51,62.2,6.56c6.3,2.09,11.78,5.81,17.52,9,14.22,7.83,28.46,15.61,42.42,23.89a5.37,5.37,0,0,1,2.79,3c.44,1.46,1.77,1.93,2.89,2.59q17.75,10.45,35.53,20.87c2.4,1.41,2.64,2.19,1.13,4.58-2.26,3.59-4.58,7.15-7,10.63-1.06,1.52-1.06,2.66.67,3.36,2.86,1.15,3.52,3.43,3.67,6.18.25,4.57.61,9.13,1,13.69.14,1.69-.55,2.52-2.22,2.58a3.38,3.38,0,0,1-.5,0c-3.86-.44-7.61-1.11-11.62-.46s-8.14.16-12.22.13c-1.4,0-2.84.22-4.14-.58-.81-.49-1.38,0-2,.48-3.11,2.15-5.69,2.14-8.73,0-1.21-.87-2.27-2.2-3.24.39-.45,1.19-2.39.76-2.76-.71s-1.25-1.74-2.54-1.7c-1.75,0-3.5,0-5.25,0-.74,0-1.78.07-2.16-.36-1.92-2.16-4.4-1.55-6.74-1.56-7,0-14,0-21,0-1.06,0-2.08-.09-2.86,1C70.95,109.21,67.85,109.62,62.7,105.09Zm64.4-11.85a3.19,3.19,0,0,0-.5-.58L107.77,79.94c-2.55-1.72-5.14-3.4-7.67-5.16-.84-.58-1.82-1.71-.19-2.16,2.69-.74,5.52-1.3,8.18.51,8,5.42,16.12,10.65,24,16.22,4,2.84,8,4.88,13.11,4.07a16.81,16.81,0,0,1,2.75,0c3.29,0,3.43.14,3.45,3.33,0,2.3,0,4.6,0,7.07,2.38-1.44,2.38-1.44,4.14.36,1.27,1.3,3,1.13,4.46.91s.89-1.79.83-2.79c-.23-4.15-.42-8.32-.92-12.44a5.25,5.25,0,0,0-7.2-4.27,3,3,0,0,1-2.83-.39q-10.27-6.42-20.55-12.81c-6.16-3.82-12.33-7.61-18.49-11.42-.9-.56-1.62-1-2.55.14-2.48,3-2.53,3-5.79.87Q76.74,45.46,51,28.93A10.62,10.62,0,0,0,44.45,27c-1.88.1-4,.66-5.63-.5-2.91-2.11-5.88-1.15-8.89-.72a2.2,2.2,0,0,0-2.09,2.58c.06,2.58,0,5.16,0,7.75a3.42,3.42,0,0,1-1.6,2.85c-2,1.61-4.36,1.79-7.23,2.34,3,.38,5.38-.4,7.78-.51,3.7-.16,7.41-1.7,11.1-.15a7.58,7.58,0,0,0,4.61.26c2.93-.55,5.82-1,8.61,1,7.06,5,14.27,9.8,21.4,14.72Q98.09,74.3,123.66,92C124.63,92.67,125.55,93.71,127.1,93.24Zm9-41.25a.94.94,0,0,0-1.07.71,95.1,95.1,0,0,1-6.29,12.18c-.62,1.1,0,1.51.75,2q11.25,7,22.51,13.91c1.15.71,2,.56,2.71-.62a88.69,88.69,0,0,1,7.5-10.58c1-1.31.68-2-.61-2.71-8.2-4.76-16.37-9.58-24.55-14.37C136.68,52.26,136.3,52.1,136.08,52ZM121.76,92.8l-6.54-4.5Q103.4,80.14,91.59,72c-1.72-1.18-3.22-.72-3.57,1.2C87.17,78,85.18,82.39,83.85,87c-.7,2.44-.61,2.68,2,2.38a64,64,0,0,1,11-.09c5.82.33,11.14,3.55,17.12,2.8a1.41,1.41,0,0,1,.93.31C117,94,119.28,93.37,121.76,92.8ZM54.43,85.27c-.78,3.88-.56,7.53-.51,11.17,0,1.34,1,1.53,2.11,1.57s2.32-.15,3,.91c1.58,2.56,2.37,1.41,3.28-.5a6.55,6.55,0,0,1,6.2-3.92,6.35,6.35,0,0,1,6.39,3.94c.71,1.67,1.86,2.11,3.53,2.1q12-.07,24,0c1.87,0,2.94-.33,2.93-2.59s-1.12-2.38-2.83-2.37c-8.57,0-17.15,0-25.73,0-3.53,0-4.77-1.82-3.58-5.15.3-.84,1-1.81.2-2.55-1.28-1.14-1-2.54-1.05-3.92,0-1.91,0-3.83,0-5.74,0-.48,0-1.16-.56-1.24-.87-.11-.81.69-.82,1.22,0,2.08-.11,4.17,0,6.24.1,2.29-.71,3.37-3.18,3.24-3.24-.16-6.49-.06-9.74,0C56.28,87.69,54.66,87.72,54.43,85.27ZM76.2,15.74c-.81,0-1,.12-1.17,1.13-.87,5.56-3.38,10.41-6.42,15-.86,1.3-.54,2.07.73,2.8,3.17,1.83,6.34,3.66,9.42,5.65,1.73,1.12,2.64.89,3.71-.93,2.7-4.6,5.6-9.12,9.64-12.65,1.55-1.36,1.2-1.74-.23-2.53-4.74-2.61-9.44-5.27-14.17-7.89A11.8,11.8,0,0,0,76.2,15.74Zm-37,.54c0-2.08,0-4.16,0-6.24,0-2.5.4-2.76,2.56-1.71,1.56.76,3,1.76,4.57,2.55.72.37,1.61,1.43,2.37.3s-.3-1.78-1.16-2.31c-3-1.88-6.21-3.58-9.11-5.65C35.21.89,31.92,2.14,28.61,2.6c-.9.12-.77.94-.77,1.6,0,6,.05,12,0,18,0,1.77.74,2.13,2.32,1.82,2.68-.52,5.37-1.17,8.07.14,1.14.55.95-.55,1-1.12C39.23,20.77,39.2,18.52,39.21,16.28Zm65.94,17c.93,0,1.9.95,2.19,2.5a5.93,5.93,0,0,1-.71,4.33c-1.56,2.55-3.08,5.13-4.62,7.7-.43.72-1,1.41.16,2.07,2.15,1.27,4.25,2.61,6.38,3.91,1.2.73,1.89.26,2.63-.84a85.59,85.59,0,0,1,8.17-11c1.14-1.22.54-1.87-.56-2.5q-9-5.14-18-10.29c-1-.57-1.71-.62-2.05.67-1.36,5-4,9.45-6.56,13.95-.23.41-.71.9-.21,1.32s1.12.09,1.52-.36A19,19,0,0,0,94.87,43,52.56,52.56,0,0,1,101,35.09,5.6,5.6,0,0,1,105.15,33.28ZM130.24,95l-.39.5a8.43,8.43,0,0,1,2.93,6.87c0,1.23,1,1.12,1.83,1.12q6.48,0,13,0c.83,0,1.85,0,2-1a19.87,19.87,0,0,0,0-6.44c-.12-.9-1-1.05-1.75-1.05ZM96.79,30c0-1.3-.18-2.09-1-2.57s-1.62-.07-2.28.45a16.8,16.8,0,0,0-2.2,2,70.46,70.46,0,0,0-7,9.69c-1.85,3-1.82,3,1.3,4.85,1.53.89,3,1.74,4.25-.31a75,75,0,0,0,6.25-11.88A17.55,17.55,0,0,0,96.79,30Zm34,19.38c-.06-.72-.54-1-1-1.2-1.07-.63-2.18-1.21-3.25-1.85-1.24-.74-2.08-.66-2.71.85a44.76,44.76,0,0,1-5.7,9.65c-1,1.29-1.28,2.41.46,3.16,1.49.63,2.95,3.12,4.65.13a71.88,71.88,0,0,1,6.85-9.82C130.4,50,130.62,49.65,130.8,49.4ZM40.51,16.74q0,1.25,0,2.49c0,5.13,0,5.08,5.13,4.76,1.63-.1,2.17-.83,2.18-2.33a28.43,28.43,0,0,1,.42-6,2.05,2.05,0,0,0-1.15-2.48c-1.62-.85-3.19-1.77-4.77-2.69-1.17-.68-1.85-.63-1.81,1S40.52,15,40.51,16.74Zm32.81-.26c0-1.14.09-2.54-1.59-2.83s-2.63.61-2.9,2.3a11.8,11.8,0,0,1-.61,1.89,47.6,47.6,0,0,1-5.37,10.66c-.76,1.17-.61,2,.61,2.64,1,.5,2.21,1.93,3.24.37C69.74,26.94,72.6,22.23,73.33,16.48Zm29.6,57.92c.6.46,1,.78,1.38,1.05,8.19,5.53,16.41,11,24.54,16.62a7.32,7.32,0,0,0,6,1.1l-4.56-3Q119,82.57,107.72,75C106.34,74.08,104.94,73.06,102.93,74.4Zm12-16.89c.7.07,1-.43,1.37-.9A51,51,0,0,0,123,45c.33-.87.65-1.9-.25-2.51-1.15-.78-1.83.33-2.44,1a102.68,102.68,0,0,0-7.37,10A2.45,2.45,0,0,0,114.91,57.52Zm-9.15-20.38c0-.78-.06-1.54-.88-1.88a2,2,0,0,0-2.23.7,40.72,40.72,0,0,0-5.88,7.36c-.91,1.4-1.51,2.41.43,3.58,1.73,1,2.81,1.29,3.85-.8s2.34-4,3.56-6A7.76,7.76,0,0,0,105.76,37.13Zm-18.09,12a2.12,2.12,0,0,0,1.21,1.39q7.45,4.79,14.93,9.53c1,.63,2.12,1.38,3-.14s-.54-1.93-1.38-2.46c-3.71-2.38-7.51-4.62-11.19-7A8.31,8.31,0,0,0,87.68,49.18ZM60.24,20.78a40.36,40.36,0,0,1,6.34-7.18A1.69,1.69,0,0,0,66.78,11c-1.34-1.32-3-1.21-4.66-.67-1.44.48-2.76,1.23-2.73,3.1A26.16,26.16,0,0,0,60.24,20.78Zm73.06,31A.75.75,0,0,0,133,51c-.62-.41-1.13.1-1.5.51A58.37,58.37,0,0,0,124.31,62c-.73,1.26.43,1.77,1.19,2.34s1.51.25,2-.62c1.27-2.32,2.62-4.61,3.82-7A14.23,14.23,0,0,0,133.31,51.79Zm-23,51.08c3.44,0,3.44,0,3.43-3.17s0-3.18-3.47-3.17-3.49.13-3.49,3.21S106.92,102.88,110.35,102.88ZM25.13,36.21h.47V4.28h-.47Zm96.44,59.26A10.88,10.88,0,0,0,117,95.1c-.83,0-1.49.38-1.54,1.29-.06,1.4-.06,2.81,0,4.22,0,1,.77,1.17,1.55,1.25s1.58-.05,1.67-1C118.87,98.75,120,97.17,121.57,95.47ZM57.37,30.12c.84.6,1.65,1.25,2.52,1.8C65.56,35.56,71.23,39.2,77,42.74c.73.45,1.78,1.94,2.4.89s-1.08-1.56-1.94-2.08c-4.48-2.71-9-5.37-13.49-8.06C61.83,32.23,59.86,30.74,57.37,30.12ZM67,16.29c-5,3.21-7.89,9-6.26,12.56A63.06,63.06,0,0,0,67,16.29Z"/></g></g></g></svg>