<svg xmlns="http://www.w3.org/2000/svg" xmlns:xlink="http://www.w3.org/1999/xlink" viewBox="0 0 275.05 360.99"><defs><style>.cls-1{fill:none;}.cls-1,.cls-3{stroke:#fff;stroke-miterlimit:10;}.cls-2{clip-path:url(#clip-path);}.cls-3,.cls-4{fill:#fff;}.cls-4{font-size:98.62px;font-family:BentonSansCond-Bold, BentonSans Cond Bold;}.cls-5{letter-spacing:-0.01em;}</style><clipPath id="clip-path"><circle class="cls-1" cx="137.8" cy="111.75" r="111.25"/></clipPath></defs><title>icon1_1</title><g id="图层_2" data-name="图层 2"><g id="图层_1-2" data-name="图层 1"><g class="cls-2"><g id="_6Ymfdb.tif" data-name="6Ymfdb.tif"><path class="cls-3" d="M173.69,217.36c-7.63-4.67-14.9-10.12-23-13.79-8.87-4-11.65-9.67-11.06-19.26.92-14.93.24-30,.24-44.69.6-.45.9-.85,1.13-.81,6.07,1,8.17-2.24,9.14-7.72,1-5.81,3-11.45,4.62-17.57l51.12,13.69L203.48,138l7.13,1.39v57.42l-34.86,20.51Zm-21.25-79.05h46.47l1.95-8.16L157.7,118.62Z"/><path class="cls-3" d="M162.91,110.23c-7.33-1.48-11.1-4.91-10.6-10.77.61-7.22-3.42-12.26-6.58-17.79a4.48,4.48,0,0,0-3.28-1.7c-4.93-.18-9.88-.08-16.11-.08,3.51,3.59,6.26,6.44,9,9.25,3.73,3.76,7.54,7.43,11.21,11.25,5,5.21,5.28,10.55.63,17a50.88,50.88,0,0,1-4-3.7c-8.08-9.23-17.89-16.05-28.58-22C92.59,79.4,70.9,66.48,49,54c-3.12-1.78-3.88-3.3-2.58-6.8C50.53,36,54.26,24.69,58.45,12.59c1.66,1.51,3,2.65,4.24,3.88C73,26.73,83.14,37.09,93.59,47.16a11.37,11.37,0,0,0,7,2.9c13.14.28,26.3.23,39.44,0a15.94,15.94,0,0,0,7.16-2c8.81-4.86,17.46-10,26.19-15,1.43-.82,2.94-1.49,4.73-2.39,3.25,12.17-7.3,13.93-14.27,19.4h36c1,6.29-5.28,11.84-11.07,11.87l-17.42.07a8.94,8.94,0,0,0-5.23,1.21l27.52,16c-3.56,6.28-9.61,7.88-16.2,4.26s-12.92-7.37-19.92-10.79C166.58,84.32,161.38,97.41,162.91,110.23Z"/></g></g><circle class="cls-1" cx="137.8" cy="111.75" r="111.25"/><text class="cls-4" transform="translate(0 340.28)">21,5<tspan class="cls-5" x="168.84" y="0">5</tspan><tspan x="220.32" y="0">9</tspan></text></g></g></svg>