<svg xmlns="http://www.w3.org/2000/svg" xmlns:xlink="http://www.w3.org/1999/xlink" viewBox="0 0 223.5 360.75"><defs><style>.cls-1,.cls-4{fill:none;}.cls-2{clip-path:url(#clip-path);}.cls-3,.cls-6{fill:#fff;}.cls-3,.cls-4{stroke:#fff;stroke-miterlimit:10;}.cls-5,.cls-6{isolation:isolate;}.cls-6{font-size:98.62px;font-family:BentonSansCond-Bold, BentonSans Cond Bold;}</style><clipPath id="clip-path"><circle class="cls-1" cx="111.75" cy="111.75" r="111.25"/></clipPath></defs><title>icon1_1</title><g id="图层_2" data-name="图层 2"><g id="图层_1-2" data-name="图层 1"><g id="图层_2-2" data-name="图层 2"><g id="图层_1-2-2" data-name="图层 1-2"><g class="cls-2"><g id="_6Ymfdb.tif" data-name=" 6Ymfdb.tif"><path class="cls-3" d="M147.64,217.36c-7.63-4.67-14.9-10.12-23-13.79-8.87-4-11.65-9.67-11.06-19.26.92-14.93.24-30,.24-44.69.6-.45.9-.85,1.13-.81,6.07,1,8.17-2.24,9.14-7.72,1-5.81,3-11.45,4.62-17.57l51.12,13.69L177.43,138l7.13,1.39v57.42L149.7,217.32Zm-21.25-79.05h46.47l1.95-8.16-43.16-11.53Z"/><path class="cls-3" d="M136.86,110.23c-7.33-1.48-11.1-4.91-10.6-10.77.61-7.22-3.42-12.26-6.58-17.79A4.48,4.48,0,0,0,116.4,80c-4.93-.18-9.88-.08-16.11-.08,3.51,3.59,6.26,6.44,9,9.25,3.73,3.76,7.54,7.43,11.21,11.25,5,5.21,5.28,10.55.63,17a50.88,50.88,0,0,1-4-3.7c-8.08-9.23-17.89-16-28.58-22C66.54,79.4,44.85,66.48,22.95,54c-3.12-1.78-3.88-3.3-2.58-6.8,4.11-11.2,7.84-22.51,12-34.61,1.66,1.51,3,2.65,4.24,3.88,10.31,10.26,20.45,20.62,30.9,30.69a11.37,11.37,0,0,0,7,2.9c13.14.28,26.3.23,39.44,0a15.94,15.94,0,0,0,7.16-2c8.81-4.86,17.46-10,26.19-15,1.43-.82,2.94-1.49,4.73-2.39,3.25,12.17-7.3,13.93-14.27,19.4h36c1,6.29-5.28,11.84-11.07,11.87L145.3,62a8.94,8.94,0,0,0-5.23,1.21l27.52,16C164,85.5,158,87.1,151.39,83.48s-12.92-7.37-19.92-10.79C140.53,84.32,135.33,97.41,136.86,110.23Z"/></g></g><circle class="cls-4" cx="111.75" cy="111.75" r="111.25"/></g></g><g class="cls-5"><text class="cls-6" transform="translate(25.95 340.04)">534</text></g></g></g></svg>