<svg xmlns="http://www.w3.org/2000/svg" xmlns:xlink="http://www.w3.org/1999/xlink" viewBox="0 0 227 366.75"><defs><style>.cls-1,.cls-9{fill:none;}.cls-2,.cls-3{isolation:isolate;}.cls-3{font-size:98.62px;font-family:BentonSansCond-Bold, BentonSans Cond Bold;}.cls-3,.cls-7,.cls-8{fill:#fff;}.cls-4{letter-spacing:-0.02em;}.cls-5{letter-spacing:-0.01em;}.cls-6{clip-path:url(#clip-path);}.cls-8,.cls-9{stroke:#fff;stroke-miterlimit:10;}</style><clipPath id="clip-path"><circle class="cls-1" cx="113.5" cy="119.47" r="113"/></clipPath></defs><title>icon2_1</title><g id="图层_2" data-name="图层 2"><g id="图层_1-2" data-name="图层 1"><g class="cls-2"><text class="cls-3" transform="translate(38.95 346.04)"><tspan class="cls-4">5</tspan><tspan class="cls-5" x="50.89" y="0">7</tspan><tspan x="96.55" y="0">2</tspan></text></g><g class="cls-6"><g id="xIz5GI.tif"><path class="cls-7" d="M30.11,168.25l.4-.59a12.92,12.92,0,0,1,1.44-1.85c.82-.84,1.62-1.7,2.42-2.57a56.93,56.93,0,0,1,6.75-6.52c6.83-5.26,11.61-12.29,16.23-19.09,2.3-3.38,4.67-6.87,7.26-10.08l.8-1c2.69-3.24,6.38-7.67,3.52-13.67-.45-.95,1.49-4,3.4-6,15.45-15.6,31.24-31.38,46.5-46.64l15.61-15.6.75-.72c1.58-1.47,3.36-3.14,2.23-6.43-.24-.71,1.39-3.11,2.85-3.88a1.52,1.52,0,0,1,.69-.13,7.2,7.2,0,0,1,3.52,1.28,11.21,11.21,0,0,1,2.45,2.93c.49.72,1.05,1.54,1.76,2.48l.36.48.41-.45c1.54-1.71,3-3.33,4.38-4.88,2.91-3.25,5.66-6.33,8.45-9.24,2.16-2.25,4.41-4.48,6.59-6.63,2.83-2.8,5.75-5.69,8.5-8.66a7.63,7.63,0,0,0,1.46-3.44,14.27,14.27,0,0,1,.6-2c.17-.41.33-.86.5-1.31a10,10,0,0,1,1.29-2.77L182.78,4c2.09,3.74-.2,5.89-2.85,8.37l-.32.3c-1,.93-1.95,1.92-2.88,2.87-.68.7-1.36,1.4-2.06,2.08l-17,16.68-6,5.87,6.16,8.34.41-.41,8-8.06c6.71-6.71,13-13.07,19.44-19.61l.27-.28c2-2,3.8-3.89,6.5-3.89a8.67,8.67,0,0,1,3.88,1.07l1.76.89a11.93,11.93,0,0,1-3.21,1.42c-.41.14-.82.27-1.2.42a7.07,7.07,0,0,1-1.7.3,4.24,4.24,0,0,0-2.61.81c-7.57,7.36-15.18,15-23.24,23l-7.46,7.44.56.33c.63.37,1.27.7,1.89,1a10,10,0,0,1,3.3,2.21c.8,1,1.14,3.3.6,4.13-.73,1.12-2.88,2.54-3.84,2.54a.35.35,0,0,1-.15,0,4.79,4.79,0,0,0-2.19-.61c-1.59,0-2.57,1.12-3.43,2.11-.24.28-.49.56-.74.81l-2.43,2.41c-19.69,19.48-40.05,39.62-60,59.55-2,2-4.24,3.84-7.23,3.84a9.36,9.36,0,0,1-2.82-.47,5.66,5.66,0,0,0-1.71-.28c-1.86,0-3.39,1.06-5.25,2.76-3.57,3.27-7.95,5.81-12.17,8.28-1.75,1-3.55,2.07-5.28,3.16-.41.26-.84.5-1.28.74A12.89,12.89,0,0,0,53.72,146c-4.1,4-8.22,8.15-12.2,12.14l-8,8a24.84,24.84,0,0,1-2.26,1.91l-.76.6ZM141.4,42.37c-1.12,1-2.18,2-3.21,3l-8.11,8.1c-18.13,18.2-37,37-55.36,55.53-1.58,1.6-2.28,4.23-2.67,6.08a65.65,65.65,0,0,0-1,8.51l-.08,1a6.63,6.63,0,0,0,.59,3.32c.33.68,1.74.69,1.8.69h0a1.68,1.68,0,0,0,1-.25,8.7,8.7,0,0,1,5.51-1.69A31.26,31.26,0,0,1,84,127l.39.05a3.69,3.69,0,0,0,.49,0,8.22,8.22,0,0,0,5-2.24c5.78-5.44,11.42-11.14,16.7-16.51C119,95.68,131.46,83,143.77,70.43l13.64-13.92,3.86,1.84L142.79,39.51l-.77.63.69,1ZM181.25,1.22a1.85,1.85,0,0,1,.51-.42,3.42,3.42,0,0,1,1.55-.3,5.29,5.29,0,0,1,3.16.93A116.44,116.44,0,0,1,198.05,13c.88,1,1.29,3.7.69,4.56a2.65,2.65,0,0,1-.36.41Z"/><path class="cls-7" d="M183.31,1a4.84,4.84,0,0,1,2.83.81,116,116,0,0,1,11.53,11.56,4.92,4.92,0,0,1,.69,3.91l-1.1-1.07L190.95,10l-7.08-6.93-1.92-1.82h0A3,3,0,0,1,183.31,1m-2.15,1.26,1.14,2c1.81,3.23.13,5.06-2.76,7.77l-.32.3c-1,.94-2,1.92-2.89,2.88-.67.69-1.36,1.4-2.06,2.08L157.23,34l-5.68,5.55-.62.61.52.7,3.12,4.23L157,48.38l.69.94.82-.82,8-8c6.75-6.76,13.13-13.15,19.54-19.7l.27-.28c2-2,3.66-3.74,6.14-3.74a8.19,8.19,0,0,1,3.66,1l1,.48a18.41,18.41,0,0,1-2.34.9l-1.21.42a6.74,6.74,0,0,1-1.57.27,4.59,4.59,0,0,0-2.91,1c-7.56,7.35-15.17,14.94-23.22,23l-7,7-.92.91,1.11.66c.65.38,1.29.71,1.92,1a9.51,9.51,0,0,1,3.14,2.08,4.29,4.29,0,0,1,.56,3.55,6.62,6.62,0,0,1-3.41,2.32,5.21,5.21,0,0,0-2.36-.64c-1.82,0-2.92,1.27-3.81,2.28-.25.28-.48.55-.72.79l-2.68,2.65C132,85.84,111.75,105.9,91.95,125.75c-2.21,2.21-4.23,3.69-6.88,3.69A8.87,8.87,0,0,1,82.4,129a6.16,6.16,0,0,0-1.86-.3c-2,0-3.64,1.1-5.59,2.89-3.53,3.23-7.88,5.76-12.09,8.22-1.75,1-3.56,2.07-5.29,3.17-.4.25-.81.48-1.25.73a13.3,13.3,0,0,0-2.92,2c-2.13,2.09-4.27,4.21-6.39,6.32a110.69,110.69,0,0,0,10.74-14.1c2.29-3.37,4.66-6.85,7.23-10.05l.8-1c2.78-3.34,6.58-7.92,3.59-14.2-.21-.58,1.21-3.3,3.31-5.41,15.45-15.61,31.27-31.44,46.59-46.74L134.75,45l.74-.71c1.6-1.5,3.6-3.36,2.37-6.93-.06-.59,1.37-2.66,2.6-3.31a1,1,0,0,1,.49,0,6.75,6.75,0,0,1,3.24,1.19,10.93,10.93,0,0,1,2.32,2.8c.5.73,1.06,1.56,1.78,2.5l.73,1,.81-.9c1.55-1.71,3-3.33,4.39-4.89,2.9-3.25,5.65-6.32,8.44-9.22,2.15-2.24,4.4-4.47,6.58-6.63,2.83-2.8,5.76-5.7,8.51-8.67a8,8,0,0,0,1.58-3.66,13.6,13.6,0,0,1,.58-1.93c.18-.43.34-.89.5-1.34a16.94,16.94,0,0,1,.79-2M141.66,40.5l.4.57-1,.91c-1.13,1-2.19,2-3.24,3.07l-8.29,8.29c-18.12,18.1-36.85,36.81-55.17,55.32-1.68,1.69-2.4,4.42-2.81,6.32a66.2,66.2,0,0,0-1,8.59l-.08,1a7.15,7.15,0,0,0,.64,3.58c.45.93,2,1,2.25,1a2.15,2.15,0,0,0,1.3-.35,8.23,8.23,0,0,1,5.21-1.59,30.93,30.93,0,0,1,4.08.38l.39.05a4.18,4.18,0,0,0,.55,0,8.76,8.76,0,0,0,5.34-2.37c5.79-5.45,11.43-11.15,16.71-16.52,12.38-12.6,24.88-25.36,37-37.71l13.58-13.86.85.41.86.88,1,1,.59.6.69-.48.93-.64,1.43-1-1.57-.75-1.42-.68L159.52,56,143.21,39.23l-1.37-2-.72-1-.85.94-.28.31-.63.7.66.67.85.88.79.81M44.74,154.25l-3.61,3.61q-4,4-8,7.94a21.19,21.19,0,0,1-1.92,1.64,9.61,9.61,0,0,1,1-1.27c.82-.85,1.64-1.73,2.43-2.58a56.45,56.45,0,0,1,6.68-6.46q1.77-1.37,3.37-2.87M183.31,0a3.89,3.89,0,0,0-1.79.36c-1.34.72-1.86,3.1-2.58,4.82s-.78,4-2,5.3c-4.86,5.25-10.13,10.12-15.09,15.29-4.11,4.29-8,8.79-12.84,14.13-2-2.71-2.9-4.51-4.32-5.51A7.64,7.64,0,0,0,140.95,33a2,2,0,0,0-.92.19c-1.49.79-3.47,3.39-3.09,4.48,1.19,3.47-1.07,4.84-2.86,6.64q-31.13,31.12-62.13,62.27c-1.73,1.75-4.14,5.19-3.5,6.54,3,6.3-1.55,10.74-4.26,14.11-7.81,9.68-13.24,21.27-23.42,29.09-3.4,2.62-6.2,6-9.22,9.14a24.9,24.9,0,0,0-2.09,2.85l1,1c1.14-.94,2.37-1.79,3.41-2.82C40.61,159.8,47.27,153,54,146.39a23,23,0,0,1,4-2.59c5.9-3.73,12.46-6.8,17.55-11.48,1.81-1.65,3.23-2.63,4.91-2.63a5.2,5.2,0,0,1,1.56.26,9.9,9.9,0,0,0,3,.49c3,0,5.22-1.62,7.58-4q31.06-31.11,62.39-62c1.15-1.13,2.05-2.78,3.82-2.78a4.31,4.31,0,0,1,2,.56.82.82,0,0,0,.38.08c1.15,0,3.45-1.53,4.26-2.77.69-1.06.27-3.62-.63-4.72-1.19-1.46-3.33-2.15-5.32-3.33,11.08-11,20.58-20.58,30.25-30,.87-.85,2.8-.5,4.13-1,1.88-.7,4.29-1.24,5.29-2.67.76-1.09.28-4-.73-5.17A116.88,116.88,0,0,0,186.8,1.05,5.77,5.77,0,0,0,183.31,0Zm-25.5,47.81-5.56-7.52c7.14-7,14.94-14.61,22.73-22.25,1.66-1.63,3.24-3.35,4.93-4.95,2.73-2.57,5.64-5,3.26-9.28l13.38,13.1a9.15,9.15,0,0,0-4.11-1.12c-3,0-5,2.18-7.13,4.32-8.93,9.12-18,18.13-27.51,27.69Zm-15.37-7.94-1.71-1.75.28-.31,1.42,2.06,16.52,16.92,2.9,1.38-.93.64-2-2L157.27,56c-16.81,17.16-33.91,34.64-51.05,52.08-5.48,5.58-11,11.14-16.68,16.5a7.75,7.75,0,0,1-4.66,2.1h-.42a35.19,35.19,0,0,0-4.61-.44A9.28,9.28,0,0,0,74,128a1.27,1.27,0,0,1-.71.15c-.57,0-1.24-.17-1.35-.41a6.18,6.18,0,0,1-.54-3.06,74.23,74.23,0,0,1,1.1-9.49c.43-2,1.14-4.41,2.54-5.83q31.61-31.92,63.46-63.6c1.52-1.52,3.13-3,4.83-4.55l-.93-1.35Z"/><path class="cls-7" d="M175.31,212.77a107.68,107.68,0,0,1-23.48-2.67c-4.54-1-6.73-4.12-6.69-9.48.11-16.83.08-33.95.05-50.5v-8.46c0-13.29,1.36-15.38,13.42-20.33l1.17-.48-1.19-.45c-5.88-2.23-6.48-2.77-5.62-13.31h43.61c.1.88.2,1.7.3,2.45.79,6.15,1,8-5.5,11.2l-1.13.55,1.21.37c10.48,3.23,13.19,6.92,13.2,17.92v61c0,6.11-1.65,8.36-7,9.64A96.9,96.9,0,0,1,175.31,212.77Zm-14.13-87.59c-9.49,0-13.55,4-13.57,13.38v20.72c0,13.2,0,26.85-.1,40.27,0,5,2,7.59,6.73,8.46a113.3,113.3,0,0,0,20.71,1.92,114.76,114.76,0,0,0,20.23-1.82c4.9-.88,7-3.61,6.89-8.86-.18-7.2-.14-14.54-.11-21.63V159.29c0-7.38.05-15-.07-22.52-.11-6.49-5.17-12.19-10.83-12.19h-.28l-4.75.17c-6.29.23-12.79.48-19.17.48q-2.46,0-4.91-.05Z"/><path class="cls-7" d="M196.12,107.58c.08.72.17,1.39.25,2,.77,6,1,7.65-5.23,10.69l-2.26,1.11,2.41.74c10.32,3.18,12.84,6.61,12.85,17.44v61c0,5.88-1.5,7.93-6.66,9.15a96.38,96.38,0,0,1-22.17,2.58,107.16,107.16,0,0,1-23.36-2.65c-4.33-1-6.34-3.83-6.3-9,.11-16.81.08-33.91.05-50.44v-8.53c0-13,1.33-15,13.11-19.86l2.34-1-2.37-.9c-5.54-2.1-6.14-2.33-5.34-12.34h42.7m-29.25,17.16c-1.69,0-3.34,0-4.9-.05h-.8c-9.71,0-14,4.28-14.07,13.88v20.77c0,13.18,0,26.81-.1,40.22-.05,5.2,2.22,8,7.14,9a113.78,113.78,0,0,0,20.79,1.92,115.26,115.26,0,0,0,20.32-1.83c5.12-.92,7.44-3.89,7.3-9.36-.18-7.19-.14-14.51-.11-21.59V159.28c0-7.38.05-15-.07-22.52-.11-6.76-5.4-12.68-11.33-12.68h-.3l-4.77.17c-6.28.23-12.77.48-19.15.48M197,106.57H152.5c-.91,10.93-.52,11.84,5.91,14.28-12.23,5-13.75,7.36-13.73,20.79,0,19.65.09,39.31,0,59,0,5.25,2,8.83,7.08,10a107.7,107.7,0,0,0,23.59,2.69,97,97,0,0,0,22.4-2.6c5.81-1.37,7.42-4.06,7.43-10.12v-61c0-11.26-2.88-15.1-13.56-18.4,7.83-3.84,6.34-6.16,5.43-14.61Zm-30.14,19.16c8,0,16-.37,23.95-.65h.27c5.18,0,10.22,5.26,10.33,11.7.18,10.66,0,21.33,0,32,0,10.17-.18,20.33.08,30.49.12,4.87-1.73,7.5-6.48,8.35a113.71,113.71,0,0,1-20,1.81,112.26,112.26,0,0,1-20.58-1.91c-4.43-.82-6.36-3.2-6.32-8,.2-20.33.06-40.66.09-61,0-9.28,4-12.88,13.07-12.88h.74q2.46.05,4.92.05Z"/><path class="cls-7" d="M153.34,101.9c-3.7,0-5-1.52-5.07-5.81,0-2,.37-3.38,1.2-4.21s2.08-1.2,4-1.2h.26c2.52,0,5.24.06,8.55.06h34.06c3.78,0,5.33,1.6,5.33,5.53,0,2.15-.41,3.57-1.3,4.46a5.41,5.41,0,0,1-4,1.23h-43Z"/><path class="cls-7" d="M196.34,91.17c3.52,0,4.83,1.36,4.83,5,0,2-.37,3.33-1.15,4.11a5,5,0,0,1-3.66,1.08h-43c-3.42,0-4.53-1.29-4.57-5.32,0-1.86.33-3.12,1.05-3.85s1.89-1.05,3.65-1.05h.25c2.53,0,5.25.06,8.57.06h34.07m0-1h-34c-2.85,0-5.7,0-8.55-.06h-.27c-4,0-5.74,1.63-5.7,5.91,0,4.05,1.2,6.31,5.57,6.31h43c4.22,0,5.79-2,5.78-6.19s-1.77-6-5.83-6Z"/><path class="cls-7" d="M30.72,206.65a11.25,11.25,0,0,1-4.49-.85c-3.19-1.43-4.61-5-3.54-8.79a53.58,53.58,0,0,1,2.89-7.38c.47-1,.94-2.08,1.38-3.13,1-2.28,1.91-4.55,2.88-6.85l.74-1.76,1.61,3.47c1.76,3.79,3.43,7.36,5,11A20.92,20.92,0,0,1,38.7,198c.51,4-1,7.05-4.07,8.06A12.64,12.64,0,0,1,30.72,206.65Z"/><path class="cls-7" d="M30.6,179.13l1.13,2.43c1.77,3.79,3.43,7.37,5,11.05a20.42,20.42,0,0,1,1.46,5.46c.48,3.78-.91,6.59-3.73,7.52a12.14,12.14,0,0,1-3.76.56,10.74,10.74,0,0,1-4.29-.81c-3-1.35-4.28-4.57-3.26-8.2A53,53,0,0,1,26,189.83c.46-1,.94-2.09,1.38-3.14.93-2.22,1.86-4.44,2.81-6.68l.37-.89m0-2.47c-1.37,3.26-2.73,6.45-4.06,9.65-1.47,3.51-3.27,6.93-4.28,10.57-1.08,3.85.19,7.75,3.82,9.38a11.71,11.71,0,0,0,4.7.9,13.22,13.22,0,0,0,4.07-.61c3.66-1.21,4.89-4.79,4.41-8.6a21.37,21.37,0,0,0-1.53-5.73C35.44,187,33,182,30.55,176.66Z"/><path class="cls-7" d="M73.33,127.66a2,2,0,0,1-1-.2,5.83,5.83,0,0,1-.44-2.74l.08-1a64.86,64.86,0,0,1,1-8.38c.57-2.69,1.35-4.52,2.4-5.58,18.38-18.56,37.17-37.34,55.34-55.49l8.12-8.11c1-1,2.07-2,3.18-3l1.48-1.38L156.95,55.6l-14,14.28c-12.31,12.56-24.72,25.24-37.17,37.9-5.27,5.36-10.9,11.05-16.67,16.48a7.24,7.24,0,0,1-4.31,2h-.35l-.39-.05a32,32,0,0,0-4.28-.39,9.77,9.77,0,0,0-6.11,1.89A1,1,0,0,1,73.33,127.66ZM112.05,75C100.56,86.83,89.7,98,78.56,109.37a6,6,0,0,0-2.09,4.27c0,1.56.89,3.07,2.81,4.89l.88.86c1.57,1.56,3.19,3.18,5.21,3.18h0a5.32,5.32,0,0,0,3.72-1.88c11.32-11.35,22.75-23,33.82-34.22l12.51-12.71.34-.35L124.64,62Z"/><path class="cls-7" d="M143.54,42.43,147,46l9.3,9.55L142.48,69.66c-12.1,12.35-24.6,25.12-37,37.72-5.27,5.36-10.89,11-16.65,16.47a6.74,6.74,0,0,1-4,1.83h-.29l-.39-.05a32.89,32.89,0,0,0-4.35-.39,10.25,10.25,0,0,0-6.33,1.93h-.18a2.24,2.24,0,0,1-.55-.07,5.29,5.29,0,0,1-.34-2.32l.08-1a64.68,64.68,0,0,1,1-8.33c.55-2.6,1.29-4.34,2.27-5.33,18.32-18.5,37-37.22,55.17-55.31l8.29-8.28c1-1,2.07-2,3.18-3l1.11-1M85.36,123a5.79,5.79,0,0,0,4.08-2c11.32-11.36,22.76-23,33.83-34.23l12.51-12.7.69-.7-.69-.7-4.27-4.37L125.35,62l-.72-.73-.68.73L111.73,74.57C100.22,86.42,89.35,97.6,78.2,109a6.51,6.51,0,0,0-2.25,4.62c0,1.71.94,3.33,3,5.25l.87.85c1.64,1.63,3.34,3.33,5.56,3.33M141,37.8l-.28.31,1.71,1.75L141,37.8Zm1.42,2.06.93,1.35c-1.7,1.6-3.31,3-4.83,4.55q-31.78,31.75-63.46,63.6c-1.4,1.41-2.11,3.78-2.54,5.83a74.23,74.23,0,0,0-1.1,9.49,6.18,6.18,0,0,0,.54,3.06c.11.24.79.41,1.35.41A1.27,1.27,0,0,0,74,128a9.28,9.28,0,0,1,5.81-1.79,35.2,35.2,0,0,1,4.61.44h.42a7.75,7.75,0,0,0,4.66-2.1c5.69-5.36,11.2-10.92,16.68-16.5,17.14-17.41,34.23-34.89,51.05-52l1.66.79ZM85.36,122c-2.16,0-3.93-2.18-5.74-3.9-2.81-2.67-3.9-5.19-.7-8.45,15.15-15.46,30.21-31,45.72-47L135.06,73.3C119.6,89,104.24,104.67,88.73,120.23A4.84,4.84,0,0,1,85.36,122Zm73.59-65.21,2,2,.93-.64Z"/><path class="cls-7" d="M152.95,40.34l5.38-5.26,17-16.68c.7-.69,1.39-1.4,2.08-2.1.92-.95,1.87-1.92,2.85-2.84l.32-.3c2.13-2,4.49-4.21,3.88-7.4l10,9.81a7.86,7.86,0,0,0-2-.27c-3.12,0-5.2,2.13-7.22,4.19l-.27.28c-6.39,6.52-12.74,12.89-19.47,19.64L157.87,47Z"/><path class="cls-7" d="M185,7l5.1,5,2.81,2.81h-.53c-3.33,0-5.49,2.21-7.57,4.35l-.27.28C178.18,26,171.8,32.36,165,39.12l-7.1,7.15L156.24,44l-2.67-3.61,5.06-5,17.05-16.69c.71-.7,1.41-1.42,2.09-2.11.92-.94,1.86-1.91,2.83-2.82l.32-.3c1.84-1.72,4-3.75,4.13-6.49M183.18,3.8c2.38,4.24-.53,6.71-3.26,9.28-1.69,1.6-3.27,3.32-4.93,5L152.26,40.28l5.56,7.52c9.53-9.57,18.58-18.57,27.51-27.69,2.1-2.14,4.09-4.32,7.13-4.32a9.16,9.16,0,0,1,4.11,1.12L183.18,3.81Z"/><path class="cls-7" d="M174.95,208.93a112.25,112.25,0,0,1-20.48-1.9c-4.24-.79-6-3-5.91-7.47.13-13.43.11-27.08.1-40.28V138.56c0-8.8,3.66-12.38,12.57-12.38h.72q2.47.05,4.94.05c6.4,0,12.91-.24,19.21-.48l4.75-.17h.25c5.14,0,9.73,5.24,9.83,11.21.12,7.5.1,15.12.07,22.5v18.32c0,7.1-.07,14.44.11,21.66.12,4.72-1.7,7.06-6.07,7.85A113.76,113.76,0,0,1,174.95,208.93ZM152.27,148c-.07.24-.15.45-.22.63a3.25,3.25,0,0,0-.29,1.15v18.31q0,14.79-.06,29.59c0,4.6,3.29,6,5.77,6.58a72,72,0,0,0,17.4,2.18h0a70.65,70.65,0,0,0,17.35-2.19c3.79-1,5.52-3.28,5.46-7.3-.13-8.61-.11-17.36-.08-25.83V147.65H152.38ZM159,134.23c2.46,2.83,9.78,3.83,15.82,3.83h0c6.78,0,14.07-1.23,15.07-4l.24-.67H158.32Zm-.51-4.77.44.31a11.53,11.53,0,0,1,1,.81,4.47,4.47,0,0,0,2.56,1.45c4.13.09,8.25.14,12.23.14,4.3,0,8.58-.05,12.72-.16.9,0,1.63-.93,2.33-1.8a11.39,11.39,0,0,1,.86-1l.37-.36-1.56-1.47H160.21Z"/><path class="cls-7" d="M191.09,126.08c4.79,0,9.23,5.11,9.33,10.71.12,7.49.1,15.11.07,22.48q0,4.75,0,9.49v8.87c0,7.09-.07,14.43.11,21.65.11,4.47-1.53,6.6-5.66,7.34a113.26,113.26,0,0,1-20,1.8,111.78,111.78,0,0,1-20.39-1.89c-4-.74-5.54-2.7-5.5-7,.13-13.41.11-27,.1-40.24V138.52c0-8.55,3.4-11.89,12.07-11.89h.73c1.58,0,3.24.05,4.94.05,6.41,0,12.92-.24,19.22-.48l4.76-.17h.23m-16.33,6.59c4.3,0,8.59-.05,12.74-.16,1.13,0,1.93-1,2.71-2a11.14,11.14,0,0,1,.82-.95l.75-.73-.76-.72-.55-.52-.48-.46-.29-.27H159.95l-.3.37-.12.14-1.08,1.34-.67.84.88.61a11.13,11.13,0,0,1,.94.77,4.81,4.81,0,0,0,2.88,1.58c4.14.09,8.26.14,12.25.14m.1,5.9a45.25,45.25,0,0,0,9.82-1c3.26-.76,5.19-1.88,5.72-3.35l.49-1.34H157.22l1.44,1.66c3.24,3.72,13.21,4,16.19,4m0,68.36a71.17,71.17,0,0,0,17.47-2.21c4-1,5.9-3.56,5.84-7.8-.13-8.61-.11-17.38-.09-25.86V147.15H152l-.22.7c-.07.23-.15.43-.22.61a3.66,3.66,0,0,0-.32,1.32V168c0,9.72,0,19.78-.06,29.67,0,4.95,3.5,6.4,6.15,7.06a72.47,72.47,0,0,0,17.52,2.19m16.24-81.85h-.27c-8,.28-16,.65-23.95.65q-2.46,0-4.92-.05h-.78c-9,0-13,3.6-13.07,12.88,0,20.33.11,40.67-.09,61,0,4.77,1.89,7.14,6.32,8a112.24,112.24,0,0,0,20.61,1.87,113.72,113.72,0,0,0,20.14-1.81c4.75-.85,6.6-3.48,6.48-8.35-.25-10.16-.08-20.33-.08-30.49,0-10.67.13-21.33,0-32-.11-6.43-5.14-11.7-10.33-11.7Zm-16.33,6.59q-6.11,0-12.22-.14c-1.11,0-2.18-1.41-3.27-2.17l1.19-1.48h28.84l1,1c-1,.93-1.89,2.63-2.86,2.66q-6.35.16-12.71.16Zm14.7,2.24c-.86,2.35-7.63,3.66-14.6,3.66-6.54,0-13.25-1.15-15.44-3.66Zm-14.61,72a71.15,71.15,0,0,1-17.28-2.16c-3.13-.78-5.41-2.32-5.4-6.09.07-16,0-31.93.08-47.9a6.9,6.9,0,0,1,.49-1.63h44.34V161c0,12-.12,24,.07,35.92.06,3.87-1.58,5.92-5.08,6.81a69.84,69.84,0,0,1-17.23,2.18Z"/><path class="cls-8" d="M159.42,133.9h30"/></g></g><circle class="cls-9" cx="113.5" cy="119.47" r="113"/></g></g></svg>