<svg xmlns="http://www.w3.org/2000/svg" xmlns:xlink="http://www.w3.org/1999/xlink" viewBox="0 0 287.16 375.75"><defs><style>.cls-1,.cls-8{fill:none;}.cls-2,.cls-3{isolation:isolate;}.cls-3{font-size:98.62px;font-family:BentonSansCond-Bold, BentonSans Cond Bold;letter-spacing:-0.01em;}.cls-3,.cls-7{fill:#fff;}.cls-4{letter-spacing:-0.03em;}.cls-5{letter-spacing:-0.01em;}.cls-6{clip-path:url(#clip-path);}.cls-8{stroke:#fff;stroke-miterlimit:10;}</style><clipPath id="clip-path"><circle class="cls-1" cx="138.92" cy="126.51" r="111.25"/></clipPath></defs><title>icon3_1</title><g id="图层_2" data-name="图层 2"><g id="图层_1-2" data-name="图层 1"><g id="图层_2-2" data-name="图层 2"><g id="图层_1-2-2" data-name="图层 1-2"><g class="cls-2"><text class="cls-3" transform="translate(59.54 355.04)">6<tspan class="cls-4" x="53.75" y="0">0</tspan><tspan class="cls-5" x="109.37" y="0">3</tspan></text><text class="cls-2"></text></g><g class="cls-6"><g id="ndIohP.tif"><path class="cls-7" d="M152.48,5.4c-.08-1.82,1.18-3.21,4.22-4.9h3.21l-.07.41h-.95C155.87.86,153.72,2.39,152.48,5.4Z"/><path class="cls-7" d="M160.5,0h-3.94c-4.06,2.25-5.34,4.17-4.17,7.25,1-3.91,3.13-5.89,6.5-5.89a10,10,0,0,1,1.34.1h0S160.41.46,160.5,0Z"/><path class="cls-7" d="M260.47,225.76a1.86,1.86,0,0,1,.59-.69c3.26-1.64,4.5-4.2,3.68-7.6a4.08,4.08,0,0,1,.62,2.25,5.87,5.87,0,0,1-1.86,4.14,17.59,17.59,0,0,1-1.71,1.37l-.71.52Z"/><path class="cls-7" d="M264.6,216.53c-.07.06-.18.11-.21.18a1.65,1.65,0,0,0-.17.77c.85,3.33-.36,5.62-3.39,7.15-.56.28-.85,1.08-1.27,1.63h1.69c.87-.67,1.8-1.28,2.59-2,2.37-2.24,2.69-5.85.75-7.71Z"/><path class="cls-7" d="M239.18,221.93v-4.7l-83.82-9.54-.71,4.59-10.81-1.22.32-4.55-5.16-.74.39-3.72c.31-3,.62-6,1-8.92q1.11-9.8,2.23-19.59,2.49-21.91,5-43.83a4,4,0,0,1,2.29-3.57c2.11-1.17,4.15-2.46,6.3-3.83l2-1.25L155,148.46l70.17,8L239.91,26.74l-70.18-8L163.64,72l-.38-.38A11.67,11.67,0,0,0,161.34,70a20.52,20.52,0,0,0-4.51-2.25c-.26-.09-.53-.15-.78-.21-1-.22-1.37-.31-1.29-1.53.09-1.46.6-1.93,2.09-1.93h0a3.4,3.4,0,0,0,1-.15l.43-.1.44-.09V62.3c0-1.62-.1-3.63-2.89-3.82l5.7-50.19L278.25,21.57,255.79,219l-5.28-.35-.66,4.4Zm-81.41-36,56.29,6.37L216,175l-56.28-6.39Zm77.14-45.72,23.16,2.64,2.34-20.74-23.12-2.6Zm20.76-34.52,6.5.82.75-6.56-6.43-.61Zm-8.25-.85,6.42.61.81-6.53-6.56-.44Zm-8.2-1,6.37.69.65-6.51-6.55-.63Zm17.38-6.36,6.61.49.61-6.38-6.4-.55Zm-8.32-1,6.49.56.81-6.33-6.46-.79ZM240,95.4l6.46.87.64-6.55L240.74,89Zm17.59-6.31,6.47.62.63-6.44-6.44-.65Zm-8.18-1,6.37.7.6-6.4-6.53-.87Zm-8.51-1,6.45.79.82-6.52-6.48-.66Zm17.61-6.39,6.43.69L265.8,75l-6.49-.74Zm-8.31-1,6.52.77.58-6.56-6.4-.57Zm-8.18-.7,6.38.38L249,73l-6.52-.43Zm2-18.5,23.17,2.61.47-5.82-23-2.62Z"/><path class="cls-7" d="M161.82,8.84l22.57,2.57L277.69,22,255.35,218.49l-1-.07-3.3-.22-.92-.06-.14.91-.52,3.48-8.06-.86-1.69-.18V216.8l-.89-.1-82.9-9.44-1-.11-.15.95-.2,1.3-.36,2.34-5-.56-4.87-.55.11-1.55.14-2.06.06-.93-.92-.13-2.52-.36-1.71-.24.34-3.26c.32-3.06.61-5.95.95-8.9L143,173.47c1.63-14.32,3.32-29.13,4.94-43.69a3.57,3.57,0,0,1,2-3.19c2.13-1.18,4.17-2.47,6.33-3.85l1.09-.69-1.29,11.48-1.62,14.39-.11,1,1,.11,38.17,4.35,31,3.53,1,.11.11-1L237.1,55.89l3.25-28.59.11-1-1-.11-39.24-4.46-29.94-3.4-1-.11-.11,1L163.27,71a10,10,0,0,0-1.66-1.39A21,21,0,0,0,157,67.29c-.29-.1-.58-.16-.83-.22-.94-.21-1-.22-.9-1,.08-1.27.43-1.46,1.59-1.46h.1a3.77,3.77,0,0,0,1-.16l.41-.1.87-.18-.08-.89v-1c0-1.55-.11-3.81-2.84-4.25L157,52.1,161.9,8.83M267.66,63.67l.08-1,.18-2.24.21-2.59.08-1-1-.11-22-2.5-1-.11-.11,1-.33,3L243.58,60l-.11,1,1,.11L261.37,63l5.26.59,1,.12M248.9,79.92l.09-1v-.43l.46-5,.09-1-1-.07L243,72.06,242,72l0,1-.16,2.34-.22,3.12-.07,1,1,.06h.38l5,.3,1,.06M257.25,81l.09-1,.12-1.38.37-4.17.09-1-1-.09-3.32-.3L251.48,73l-1-.09-.11,1-.59,5.38-.11,1,1,.12,1.06.12,4.46.53,1,.12m8.19.91.12-1,.69-5.44.13-1-1-.11-3.2-.36-2.29-.26-1-.11-.11,1-.64,5.48-.12,1,1,.11,3,.32,2.46.27,1,.11m-17.59,6.48.12-1,.34-2.7.36-2.82.13-1-1-.1L245,80.58l-2.74-.28-1-.1-.12,1-.66,5.41-.12,1,1,.12,1.71.21,3.75.46,1,.12m8.45.9.09-1,.21-2.28.29-3.14.09-1-1-.13-5.53-.74-1-.13-.07,1.07-.14,2.12L249,87.63l-.06,1,1,.1,5.39.59,1,.11m8.28.89.1-1,.53-5.45.1-1-1-.1-4.17-.42-1.28-.13-1-.1-.1,1-.22,2.13-.34,3.35-.1,1,1,.1,1.79.17,3.68.35,1,.09M247,96.87l.1-1,.12-1.21.42-4.33.1-1-1-.11-4.94-.56-.49-.06-1-.11-.11,1-.58,5.42-.1,1,1,.13,2.05.28,3.42.46,1,.14m8.24.75.12-1L256,91.3l.13-1-1-.12-3.83-.47-1.63-.2-1-.12-.13,1-.71,5.55-.13,1,1,.09,4.64.4.85.07,1,.08m8.46.9.09-1,.51-5.39.1-1-1-.09-2.62-.22-2.8-.24-1-.08-.12,1-.08.66-.61,4.78-.13,1,1,.08,2.69.2,2.9.22,1,.07M246,105.08l.1-1,.22-2.18.33-3.33.1-1-1-.1-5.54-.54-1-.1-.07,1L239,99.52l-.27,3.81-.07,1,1,.1L245,105l1,.11m8.24.88.12-1,.27-2.19.42-3.34.13-1.05-1.06-.07L248.61,98l-1-.06-.1,1-.19,1.78-.38,3.6-.11,1,1,.1,3.47.33,2,.19,1,.09m8.33,1.07.11-1,.29-2.53.34-3,.12-1-1-.1-2.23-.21L257,99l-1-.09-.12,1-.49,3.82-.2,1.55-.13,1,1,.13,2.65.33,2.85.36,1,.13m-4.09,36.33.11-1,.79-7,1.44-12.78.11-1-1-.11-11.23-1.26L237.84,119l-1-.11-.11,1-1.45,12.64-.81,7.07-.11,1,1,.11,12.45,1.42,9.71,1.11,1,.11m-44,49.45.11-1,1-9,.81-7.23.11-1-1-.11-45.92-5.22-9.37-1.06-1-.11-.11,1-1,8.91-.83,7.38-.11,1,1,.11,30,3.4,25.29,2.86,1,.11M160.94,7.73,155.12,59h.09c3.32,0,2.72,2.34,2.91,4.4a6.57,6.57,0,0,1-1.18.24h-.1c-1.59,0-2.47.52-2.59,2.4s1.18,1.83,2.42,2.24a20.5,20.5,0,0,1,4.4,2.2,24.79,24.79,0,0,1,3,2.68l6.14-53.8,69.18,7.86L224.72,155.9,155.55,148l3.14-27.93c-3.26,2-6.12,4-9.13,5.62a4.55,4.55,0,0,0-2.54,4q-3.53,31.72-7.18,63.42c-.49,4.33-.92,8.67-1.39,13.12l5.18.74-.32,4.56,11.76,1.33.71-4.59,82.9,9.44v4.7l11.6,1.24.66-4.42,5.3.35L278.8,21.13Zm105.8,54.83-22.17-2.49.53-4.83,22,2.5-.39,4.82ZM248,78.87l-5.39-.32.38-5.47,5.51.36-.5,5.42ZM256.32,80l-5.52-.65.6-5.35,5.41.48Zm8.23.92-5.44-.59.64-5.48,5.49.63ZM247,87.37l-5.46-.66.66-5.41,5.49.56-.7,5.51Zm8.42.91L250,87.7l.37-5.57,5.53.74-.51,5.42Zm8.28.91-5.47-.52.56-5.48,5.44.55Zm-17.59,6.54-5.5-.73.58-5.42,5.43.61-.54,5.54Zm8.26.8-5.49-.48.71-5.55,5.46.67-.68,5.36Zm8.42.91-5.6-.42.69-5.44,5.42.46-.51,5.39ZM245.14,104l-5.39-.59.39-5.45,5.54.54-.55,5.5Zm8.27.89-5.43-.52.57-5.38,5.55.37-.69,5.52Zm8.33,1-5.5-.69.69-5.37,5.44.51Zm-4.09,36.34-22.17-2.53,2.25-19.7,22.13,2.49-2.23,19.74Zm-44,49.45-55.3-6.26,1.84-16.29,55.28,6.28-1.82,16.27Z"/><path class="cls-7" d="M103.13,217.77a8.73,8.73,0,0,1-3-.55c-2.45-.88-4.08-2.7-5.12-5.73q-2.18-6.35-4.39-12.69c-2.06-5.93-4.19-12.05-6.23-18.1a5.56,5.56,0,0,0-3.8-3.84c-6.19-2.18-12.45-4.47-18.51-6.69L54.2,167.3c-.46-.17-.93-.3-1.52-.47l-1-.3-.76-.23,2.94,18.2a7.59,7.59,0,0,1-3.32,8.09C37.27,201.61,26.29,209,16,215.76a8.18,8.18,0,0,1-4.5,1.39,8,8,0,0,1-6.65-3.69C2.36,209.69,3.4,205,7.32,202.33c9.77-6.68,19.4-13.08,27.54-18.47a3.67,3.67,0,0,0,1.94-4.34c-1.07-5.59-2-11.32-2.86-16.86l-.62-3.91c-.3-1.85-.44-2.84-.13-3.26s1.36-.59,3.09-.88h.12q11.71-1.91,23.41-3.87l12.06-2a10.75,10.75,0,0,1,1.1-.11h0l-1.93,7.68.42.15c1.87.68,3.72,1.38,5.56,2.07,4.17,1.57,8.47,3.19,12.76,4.55s7.06,4.11,8.59,8.81c2.75,8.45,5.75,17,8.64,25.22l3.26,9.3c1.26,3.62.64,6.66-1.85,9.05A7.61,7.61,0,0,1,103.13,217.77Z"/><path class="cls-7" d="M72.38,149.17l-1,3.88-.67,2.69-.22.87.85.31c1.87.68,3.72,1.38,5.56,2.08,4.17,1.57,8.48,3.2,12.78,4.55s6.77,3.9,8.27,8.49c2.75,8.46,5.75,17,8.65,25.23l3.26,9.29c1.21,3.47.64,6.26-1.72,8.53a7.13,7.13,0,0,1-5,2.18,8.23,8.23,0,0,1-2.78-.52c-2.3-.83-3.83-2.55-4.81-5.42q-2.17-6.34-4.38-12.66c-2.06-5.93-4.2-12.07-6.24-18.12a6.08,6.08,0,0,0-4.11-4.15c-6.19-2.18-12.46-4.47-18.52-6.69l-7.87-2.87c-.48-.17-1-.31-1.55-.48l-1-.3-1.52-.45.25,1.57.86,5.35,2,12.07a7.12,7.12,0,0,1-3.11,7.6c-13.31,9-24.31,16.34-34.6,23.15a7.68,7.68,0,0,1-4.23,1.31,7.5,7.5,0,0,1-6.23-3.46c-2.33-3.54-1.35-7.93,2.34-10.44,9.76-6.67,19.4-13.08,27.53-18.47,1.69-1.12,2.63-2.32,2.15-4.85-1.07-5.6-2-11.34-2.86-16.89l-.61-3.86a8.26,8.26,0,0,1-.22-2.89,8.05,8.05,0,0,1,2.77-.68h.12c7.8-1.27,15.73-2.59,23.4-3.87l12.08-2,.44-.06m1.31-1.11c-.84.08-1.38.09-1.91.18q-17.73,3-35.47,5.87c-4.09.67-4.15.63-3.5,4.73,1.11,6.94,2.16,13.88,3.48,20.78.38,2-.23,2.84-1.72,3.82Q20.74,192.6,7,201.92c-4.23,2.89-5.21,7.86-2.61,11.82a8.45,8.45,0,0,0,7.07,3.91,8.65,8.65,0,0,0,4.78-1.48Q33.63,204.73,50.82,193a8.13,8.13,0,0,0,3.53-8.58c-.91-5.63-1.82-11.26-2.81-17.42,1.13.34,1.85.51,2.53.76,8.8,3.19,17.57,6.45,26.4,9.56A5.08,5.08,0,0,1,84,180.87c3.47,10.28,7.1,20.52,10.62,30.79,1,2.82,2.56,5,5.42,6a9.19,9.19,0,0,0,3.12.58,8.11,8.11,0,0,0,5.72-2.46c2.8-2.69,3.23-6,2-9.58-4-11.49-8.14-22.93-11.9-34.5-1.53-4.71-4.16-7.63-8.92-9.14-6.13-1.94-12.11-4.35-18.3-6.62l2-7.92Z"/><path class="cls-7" d="M22.24,153.84c3.25-.44,6.62-.89,9.91-1.46a3.53,3.53,0,0,0,2.4-2.11c1.45-4.9,2.65-9.43,3.68-13.87a4,4,0,0,0-1.14-3.2,29,29,0,0,0-2.8-2.38c-.66-.51-1.34-1-2-1.6a4.66,4.66,0,0,1-1.36-6l.92-1.67a125.93,125.93,0,0,1,7.66-12.71c2.62-3.65,5.94-5.5,9.89-5.5a15.66,15.66,0,0,1,4.67.77c2.56.8,5.2,1.47,7.76,2.12,2.8.71,5.7,1.44,8.47,2.35a20.92,20.92,0,0,0,6.61,1.06,26.32,26.32,0,0,0,6-.74c2.5-.58,5.08-1.05,7.58-1.51l3.37-.62.4-.08V104.8l-3.46-.21,1.5-6.07,3.86,1.9c3.63,1.78,7,3.46,10.51,5.25a4.58,4.58,0,0,1,2.51,5.14,4.7,4.7,0,0,1-4,4.15l-1.56.3c-6.27,1.21-12.75,2.46-19.14,3.55-2.4.41-4.14,1.31-4.83,4.34-1.07,4.7-2.35,9.45-3.6,14-.55,2-1.09,4-1.62,6.06a1.16,1.16,0,0,0,.07.66,3.15,3.15,0,0,0,.13.46l.11.48.48-.1L78.8,144c2.51-.53,5.1-1.09,7.64-1.69,17.43-4.14,36-9.14,53.34-17.56,6.73-3.26,15.29-8,21.81-15.44,7.77-8.92,8.37-19.1,1.68-28.67a63.49,63.49,0,0,0-5.52-6.54l-1.81-2a4.26,4.26,0,0,1,1.76.69c6.18,5.28,9.88,10.93,11.3,17.3,1.79,8-.74,15.09-8,22.26-7.56,7.51-16.73,12-24.69,15.5-21.4,9.27-43.7,14.25-62.68,17.91-10.2,2-23.63,4.47-37.07,6.44-7,1-14.2,1.79-21.19,2.52Z"/><path class="cls-7" d="M158.49,74.21c5.43,4.92,8.72,10.18,10,16,1.75,7.83-.73,14.76-7.82,21.8-7.5,7.45-16.61,12-24.54,15.39a248.34,248.34,0,0,1-40.32,13.11c14.66-3.74,29.8-8.36,44.16-15.32,6.77-3.28,15.39-8,22-15.56,7.94-9.11,8.54-19.51,1.71-29.28a60,60,0,0,0-5.19-6.19M92.72,99.28,96,100.9c3.63,1.78,7,3.46,10.51,5.25a4.11,4.11,0,0,1,2.25,4.62,4.23,4.23,0,0,1-3.57,3.74l-1.62.31c-6.24,1.21-12.7,2.45-19.07,3.54-2.25.38-4.44,1.22-5.24,4.73-1.07,4.69-2.35,9.43-3.59,14-.55,2-1.1,4-1.63,6.07a1.62,1.62,0,0,0,.07.93,2.23,2.23,0,0,0,.12.43l.15.63-.82.16c-10.19,2-23.61,4.46-37,6.43l-2.8.4A3.71,3.71,0,0,0,35,150.42c1.45-4.91,2.66-9.45,3.69-13.9a4.46,4.46,0,0,0-1.27-3.66,29.45,29.45,0,0,0-2.85-2.42c-.65-.51-1.33-1-2-1.58-1.29-1.14-2.55-3-1.25-5.35l.92-1.67a125.48,125.48,0,0,1,7.62-12.66c2.52-3.51,5.71-5.29,9.49-5.29a15.16,15.16,0,0,1,4.52.75c2.57.81,5.23,1.48,7.79,2.13,2.79.7,5.68,1.43,8.44,2.34a21.41,21.41,0,0,0,6.77,1.08,26.84,26.84,0,0,0,6.14-.76c2.49-.58,5.06-1,7.55-1.5L94,107.3l.81-.15v-2.77l-.95-.06-1.52-.09-.87-.05.14-.56,1.07-4.32m61.76-28c3,3.48,6,6.35,8.38,9.7,6.64,9.51,6,19.32-1.65,28-6,6.85-13.6,11.42-21.65,15.32-17,8.22-35,13.19-53.24,17.52-3.69.88-7.41,1.63-11.11,2.43-.13-.54-.24-.73-.2-.88,1.76-6.7,3.69-13.36,5.23-20.1.61-2.67,2-3.54,4.43-4,6.92-1.18,13.82-2.53,20.71-3.86a5.2,5.2,0,0,0,4.37-4.56,5.08,5.08,0,0,0-2.77-5.67c-4.9-2.53-9.87-4.92-14.94-7.43l-1.8,7.25,3.58.22v1c-3.66.7-7.34,1.29-11,2.14a26,26,0,0,1-5.91.73,20.51,20.51,0,0,1-6.46-1c-5.33-1.75-10.89-2.79-16.24-4.47a16.09,16.09,0,0,0-4.82-.79c-4.15,0-7.61,2-10.3,5.71A144.1,144.1,0,0,0,30.52,123c-1.34,2.42-.59,4.77,1.46,6.58,1.54,1.37,3.3,2.5,4.75,4a3.55,3.55,0,0,1,1,2.73c-1.07,4.65-2.31,9.26-3.67,13.84a3,3,0,0,1-2,1.76c-4.15.72-8.34,1.24-12.51,1.81L3.74,155.84l.06.66c11-1.22,22-2.15,32.88-3.75,12.41-1.82,24.77-4.07,37.09-6.44,21.45-4.13,42.65-9.22,62.79-17.94,9.07-3.93,17.75-8.55,24.85-15.6,6.3-6.25,10.15-13.5,8.09-22.72C167.88,82.8,163.56,77.2,158,72.48c-.81-.69-2.16-.75-3.55-1.2Z"/><path class="cls-7" d="M78,106.89a17.6,17.6,0,0,1-5.74-.94A92.53,92.53,0,0,0,62,103.17c-1.44-.31-2-1-2.35-2.6-1.13-6.19.7-11.24,5.45-15a14.58,14.58,0,0,1,9.16-3.42,16.27,16.27,0,0,1,6.92,1.67c5.21,2.45,8.54,8.09,8.48,14.37v.27a15,15,0,0,1-.2,1.6c-.92,4.63-1.37,5.09-6.08,6.18A23.35,23.35,0,0,1,78,106.89Z"/><path class="cls-7" d="M74.23,82.66h0a15.78,15.78,0,0,1,6.71,1.62,15,15,0,0,1,8.19,13.86v.28a14.25,14.25,0,0,1-.2,1.55c-.9,4.56-1.33,4.78-5.71,5.79a22.87,22.87,0,0,1-5.17.64,17.1,17.1,0,0,1-5.58-.91,92.92,92.92,0,0,0-10.4-2.79c-1.24-.27-1.7-.78-2-2.2C59,94.5,60.75,89.62,65.34,86a14.09,14.09,0,0,1,8.85-3.31m0-1a15,15,0,0,0-9.47,3.53c-5,3.94-6.78,9.2-5.63,15.48a3.19,3.19,0,0,0,2.73,3,93.13,93.13,0,0,1,10.29,2.76,18.17,18.17,0,0,0,5.9,1,24,24,0,0,0,5.39-.66c4.82-1.11,5.49-1.65,6.46-6.57a19.69,19.69,0,0,0,.24-2c.06-6.57-3.38-12.29-8.77-14.82a16.72,16.72,0,0,0-7.13-1.71Z"/><path class="cls-7" d="M.63,100.86,5.26,99.5,16.6,96.16,41.41,89l10.35-3,.09-.09c2.51-2.43,5.61-2.78,8.89-3.14a27.94,27.94,0,0,0,5.08-.88L66,81.8a18.85,18.85,0,0,0-8.74,11,5.83,5.83,0,0,0-4.37-2,12.88,12.88,0,0,0-4,.87q-.66.23-1.32.42L16,101.26,3.12,105,2,105.27Z"/><path class="cls-7" d="M63.45,82.89a19.25,19.25,0,0,0-6.41,9,6.09,6.09,0,0,0-4.15-1.63,13.26,13.26,0,0,0-4.14.9c-.43.14-.87.29-1.3.41L16,100.69,3,104.48l-.65.18-1.07-3.47,4.25-1.25,11.23-3.3L41.6,89.43l10.2-3,.2,0,.18-.17c2.39-2.31,5.41-2.65,8.6-3,.88-.1,1.77-.2,2.66-.34M67.38,81H67.3a16.32,16.32,0,0,0-1.63.39c-4.71,1.44-10.18.27-14.17,4.14L16.5,95.7C11,97.27,5.59,98.88,0,100.52l1.66,5.36,1.6-.44L47.72,92.51c1.71-.5,3.44-1.27,5.17-1.27a5.62,5.62,0,0,1,4.58,2.54,18.62,18.62,0,0,1,10.9-12.62c-.6-.1-.82-.18-1-.18Z"/><path class="cls-7" d="M153.63,76.54c3.18,2.61,6.44,5.84,7.75,10.06.58,1.87.27,4.11,0,6.29-.13,1-.27,2-.34,2.94a6.54,6.54,0,0,1-.14.89,5.39,5.39,0,0,0-.17,1.39c.37,7.24-4.19,10.66-9.46,14.61l-1.88,1.43Z"/><path class="cls-7" d="M154,77.52c2.88,2.46,5.7,5.44,6.88,9.23.55,1.76.25,3.85-.05,6.07-.14,1-.28,2-.34,3a6.16,6.16,0,0,1-.13.82,5.92,5.92,0,0,0-.17,1.52c.35,7-4.1,10.32-9.26,14.19l-1,.72,4-35.51m-.79-1.94-4.52,39.69c6.1-4.88,12.92-8.34,12.48-17.19a20.29,20.29,0,0,1,.31-2.22c.2-3.15,1.23-6.58.35-9.4-1.34-4.34-4.67-7.71-8.62-10.87Z"/><path class="cls-7" d="M137.8,89a1.83,1.83,0,0,1-.31-1.15c.34-1.84.76-3.71,1.2-5.68l.7-3.13-.78.2-1.79.46c-1.34.35-2.5.66-3.68.88h-.23a4.37,4.37,0,0,1-.93-.15h-.17v-.12a2.85,2.85,0,0,1,.26-1c.79-1.3,1.62-2.55,2.57-4l1.59-2.42-.75-.13L133,72.35c-1.88-.31-3.65-.6-5.4-1a10.2,10.2,0,0,1-2.09-.8l-.29-.13.23-.22a9.16,9.16,0,0,1,1.71-1.4c1.51-.86,3.08-1.64,4.74-2.46l2.22-1.11.63-.32-7.51-7.17v-.12h11.21l-.25-.68-.83-2.2c-.67-1.76-1.3-3.43-1.86-5.08a3.16,3.16,0,0,1,0-1.17v-.13h.15a2.92,2.92,0,0,1,1.15.23C139,49.74,141,51,143.2,52.27L146.14,54l2.59-7.42.35-.08.63,1.21c1.11,2.12,2.26,4.31,3.34,6.49a2,2,0,0,1-.26.36,1.5,1.5,0,0,1-.81-.47,27.82,27.82,0,0,1-1.5-2.65l-.73-1.37-.51-1-.39,1-.42,1c-.25.61-.44,1.09-.6,1.6-.51,1.62-.81,2.58-1.19,2.58a8.4,8.4,0,0,1-2.52-1.26l-7.05-4.2,3,8.54H130L136.84,65l-9.4,5,10.5,2-4.25,7,1.14-.25,1.44-.29a17.79,17.79,0,0,0,2.48-.6,4.21,4.21,0,0,1,1.28-.28c.34,0,.43.11.45.15a2.93,2.93,0,0,1-.09,1.82c-.33,1.26-.52,2.34-.78,3.69-.12.65-.25,1.34-.41,2.09l-.29,1.45,1.11-1,1.37-1.22c1.05-.94,2-1.75,2.92-2.48a1.83,1.83,0,0,1,.83-.13h0a2.1,2.1,0,0,1-.1.76c-1.86,1.8-3.91,3.65-6.44,5.83A1.86,1.86,0,0,1,137.8,89Z"/><path class="cls-7" d="M149,47.42l.3.58c.82,1.57,1.67,3.17,2.48,4.78-.27-.48-.54-1-.83-1.54l-.73-1.38-1-1.89-.78,2c-.15.39-.29.73-.41,1-.24.6-.45,1.11-.63,1.67a13.75,13.75,0,0,1-.8,2.19,14.54,14.54,0,0,1-2.18-1.18l-3.73-2.22L138.5,50.2l-2.18-1.3a1,1,0,0,1,.31.1c2.08,1.17,4.14,2.4,6.32,3.71l2.41,1.44,1.05.63.4-1.16,2.16-6.2m-13,1.44h.14l.87,2.51L139.33,58h-.1l-.46-1.24-.83-2.19c-.67-1.76-1.3-3.43-1.86-5.08a1.82,1.82,0,0,1,0-.61m-7.13,9.22,1.69,1.61L136,64.85l-7.57,4.08-2,1.1a6.24,6.24,0,0,1,1.08-.83c1.5-.85,3.07-1.63,4.73-2.46l2.21-1.11,1.26-.64-1-1L131,60.59l-2.62-2.5h.48m-2.53,12.25,2.34.46,5.51,1.07,2.91.57-1.79,3-1.49,2.46-1.21,2,2.28-.5,1.43-.29a18.18,18.18,0,0,0,2.55-.62,3.63,3.63,0,0,1,1.12-.25H140a3.61,3.61,0,0,1-.18,1.34c-.31,1.18-.53,2.36-.79,3.73-.12.65-.25,1.34-.41,2.08l-.59,2.9,2.23-1.95,1.39-1.23c1-.93,1.94-1.73,2.84-2.43h0c-1.82,1.76-3.84,3.58-6.31,5.71a1,1,0,0,1-.24.1,1.08,1.08,0,0,1-.09-.49c.34-1.84.76-3.71,1.2-5.68l.52-2.32.35-1.58-1.57.39-1.8.47c-1.33.35-2.48.65-3.64.87h-.14a2.74,2.74,0,0,1-.54-.07,1.55,1.55,0,0,1,.15-.49c.78-1.3,1.61-2.54,2.56-4l1.17-1.78.83-1.27-1.5-.26L133,71.87c-1.87-.31-3.64-.6-5.37-1a7.28,7.28,0,0,1-1.4-.5m23-24.37-1,.22-2.48,7.1c-3.11-1.85-5.9-3.55-8.75-5.16a6.29,6.29,0,0,0-2-.36,6.68,6.68,0,0,0,0,2c.78,2.32,1.69,4.6,2.7,7.29H127l-.3.75,7.3,6.91c-2.55,1.29-4.81,2.35-7,3.59a17.76,17.76,0,0,0-2.59,2.19,19.62,19.62,0,0,0,3.18,1.28c2.5.54,5,.91,7.85,1.4-1.43,2.19-2.65,4-3.76,5.8a6.07,6.07,0,0,0-.43,1.79,12.26,12.26,0,0,0,1.68.29h.32c1.7-.32,3.37-.81,5.5-1.35-.65,3-1.26,5.49-1.73,8a2.32,2.32,0,0,0,.51,1.68.32.32,0,0,0,.24.06,2.3,2.3,0,0,0,1.21-.41c2.2-1.89,4.37-3.83,6.46-5.85.33-.32.2-1.12.28-1.7a4.58,4.58,0,0,0-1.69.27c-1.37,1-2.62,2.24-4.32,3.72.47-2.3.74-4.05,1.18-5.76s.29-2.59-.85-2.59a4.62,4.62,0,0,0-1.45.31,37.3,37.3,0,0,1-3.86.88l4-6.65-9.82-1.91,8.78-4.73-6.4-6.1h9.46L138,51.06l5.87,3.49c1.42.85,2.23,1.34,2.79,1.34.74,0,1-.88,1.66-2.93.24-.75.57-1.47,1-2.62.89,1.64,1.5,2.89,2.25,4.06a2,2,0,0,0,1.33.71h0c.2,0,.76-.78.67-1-1.36-2.75-2.81-5.47-4.23-8.19Z"/><path class="cls-7" d="M196.55,111.37h-.87c-2.14-.15-3.34-.35-3.2-2.66.09-1.51.08-3,.07-4.52a46.68,46.68,0,0,1,.21-6.07,20.66,20.66,0,0,1,1.48-4.89l.78-2h2c2.89,4,2.67,8.21,2.43,12.67-.08,1.59-.17,3.23-.1,4.83a2.73,2.73,0,0,1-.53,2.07A3,3,0,0,1,196.55,111.37Z"/><path class="cls-7" d="M196.72,91.64c2.63,3.79,2.42,7.85,2.19,12.15-.08,1.6-.17,3.25-.1,4.88a2.32,2.32,0,0,1-.39,1.7,2.63,2.63,0,0,1-1.88.5h-.83c-2.12-.15-2.85-.29-2.74-2.13.09-1.52.08-3.06.07-4.56a46.31,46.31,0,0,1,.21-6,20.28,20.28,0,0,1,1.45-4.76c.22-.56.45-1.14.66-1.73h1.35m.51-1h-2.56c-.87,2.58-2.1,4.92-2.4,7.37-.43,3.5-.07,7.09-.28,10.63-.18,3,1.89,3.06,3.82,3.2h.74c2.37,0,3.37-1,3.27-3.25-.27-6,1.69-12.29-2.58-18Z"/><path class="cls-7" d="M207.82,112.67c-1.52,0-2.35-.35-2.38-2.17,0-1-.1-2.09-.18-3.11a33.18,33.18,0,0,1-.16-4.43c.14-2.49.45-4.94.78-7.53.12-1,.25-2,.37-3l2.44-.15c3.23,3.85,3.28,8.21,3.32,12.82a49,49,0,0,0,.24,5.23,2,2,0,0,1-.3,1.57c-.53.62-1.72.66-2.77.7h-.46Z"/><path class="cls-7" d="M208.46,92.83c3,3.67,3,7.87,3,12.31a49.51,49.51,0,0,0,.24,5.28,1.56,1.56,0,0,1-.19,1.18c-.39.45-1.51.49-2.41.53h-1.33c-1.37,0-1.86-.25-1.88-1.68,0-1.06-.1-2.12-.19-3.14a32.25,32.25,0,0,1-.16-4.36c.14-2.47.45-4.91.78-7.5.11-.84.22-1.69.32-2.55l1.77-.11m.44-1-3.11.19c-.43,3.77-1,7.34-1.2,10.94-.14,2.51.3,5,.34,7.58,0,2.33,1.39,2.66,2.88,2.66h1.09c1.82-.08,4.16,0,3.83-2.83-.73-6.23,1-13-3.84-18.5Z"/><path class="cls-7" d="M186.14,79a6.89,6.89,0,0,1-2-.44l-.25-.08c-1-.33-2.1-.68-2.47-1.43a2.4,2.4,0,0,1,.07-1.86c.47-1.34.89-2.71,1.3-4a66.57,66.57,0,0,1,2.48-7,14.46,14.46,0,0,1,2.67-3.62c.46-.51.93-1,1.39-1.59l1.81.61c.05.34.11.67.17,1,.15.88.29,1.71.35,2.52v.23a8.27,8.27,0,0,1-.1,2.85c-.57,1.91-1.21,3.83-1.83,5.7s-1.21,3.64-1.77,5.49C187.52,78.81,186.75,79,186.14,79Z"/><path class="cls-7" d="M189.49,59.49l.79.27.41.14.12.71a24.81,24.81,0,0,1,.35,2.47v.23a7.9,7.9,0,0,1-.08,2.67c-.57,1.9-1.21,3.83-1.82,5.69s-1.21,3.65-1.77,5.5c-.4,1.35-1,1.35-1.36,1.35a6.52,6.52,0,0,1-1.85-.42L184,78c-.93-.3-1.9-.62-2.18-1.17a2,2,0,0,1,.1-1.47c.47-1.35.9-2.73,1.31-4.06a66.12,66.12,0,0,1,2.45-7,14.13,14.13,0,0,1,2.59-3.48c.39-.43.79-.87,1.19-1.34m-.33-1.17c-1.63,2-3.48,3.6-4.36,5.59-1.57,3.57-2.5,7.41-3.79,11.11-1,2.87,1.15,3.41,3,4a7.31,7.31,0,0,0,2.17.47c1,0,1.84-.47,2.32-2.06,1.13-3.75,2.48-7.43,3.59-11.18a9.35,9.35,0,0,0,.11-3.26c-.09-1.22-.35-2.42-.57-3.86l-2.42-.82Z"/><path class="cls-7" d="M168.22,139.45h-.6c-1.1-.06-2.35-.13-2.92-.8a2.42,2.42,0,0,1-.36-1.88,18.61,18.61,0,0,0,0-2.62v-3.77c-.1-4-.2-7.72,2.94-11.2h1.19c3,4,2.88,8.4,2.72,13,0,1.49-.1,3,0,4.54a2.65,2.65,0,0,1-.52,2A3.29,3.29,0,0,1,168.22,139.45Z"/><path class="cls-7" d="M168.22,119.68c2.77,3.83,2.62,8.06,2.47,12.52-.05,1.5-.1,3.05,0,4.58a2.21,2.21,0,0,1-.38,1.64,2.91,2.91,0,0,1-2.06.53h-.57c-1-.05-2.13-.12-2.56-.62a2,2,0,0,1-.24-1.5,18.79,18.79,0,0,0,0-2.68v-3.77c-.1-3.8-.19-7.39,2.67-10.69h.71m.5-1H167.1c-4.12,4.41-3.14,9.35-3.19,14.1,0,1.31.13,2.63,0,3.92-.33,3,1.76,3.12,3.74,3.23h.62c2.51,0,3.54-.95,3.44-3.22-.27-6.08,1.42-12.47-2.94-18.06Z"/><path class="cls-7" d="M193,142.33a11,11,0,0,1-1.47-.14l-.4-.05c-1-.13-2.09-.27-2.58-.92a2.42,2.42,0,0,1-.26-1.85c.19-1.24.3-2.52.41-3.75a37.37,37.37,0,0,1,.68-5.14,50.33,50.33,0,0,1,2-6.2c.3-.8.59-1.61.88-2.42l2.21.23c2.51,4.38,1.85,8.69,1.16,13.24-.24,1.61-.5,3.28-.59,4.92S194.11,142.33,193,142.33Z"/><path class="cls-7" d="M192.56,122.4l1.55.16c2.27,4.15,1.64,8.31,1,12.7a50.24,50.24,0,0,0-.59,5c-.08,1.36-.56,1.6-1.54,1.6a10.6,10.6,0,0,1-1.4-.13l-.4-.05c-.93-.12-1.89-.24-2.24-.72a2,2,0,0,1-.16-1.48c.2-1.26.31-2.54.41-3.78a36.5,36.5,0,0,1,.67-5.07,49.84,49.84,0,0,1,2-6.13c.25-.67.51-1.37.75-2.07m-.68-1.08a92.11,92.11,0,0,0-3,9c-.67,2.9-.63,6-1.09,8.92s1.81,3.14,3.66,3.4a11.42,11.42,0,0,0,1.54.14c1.3,0,2.42-.46,2.54-2.54.35-6.19,2.95-12.42-.77-18.66l-2.85-.3Z"/><path class="cls-7" d="M211.71,79.65a7.18,7.18,0,0,1-2.14-.52l-.44-.15c-1-.33-2-.67-2.31-1.38a2.33,2.33,0,0,1,.11-1.79c.53-1.45,1-2.95,1.47-4.39a63.58,63.58,0,0,1,2.4-6.7,14.4,14.4,0,0,1,2.7-3.6c.46-.5.93-1,1.38-1.55l1.66.54c1.63,4.8.07,8.9-1.58,13.24a50.9,50.9,0,0,0-1.65,4.82C213,79.47,212.3,79.65,211.71,79.65Z"/><path class="cls-7" d="M215,60.13l.64.21.46.15C217.54,65,216,69,214.45,73.15q-.93,2.38-1.62,4.85c-.3,1.13-.79,1.13-1.12,1.13a6.87,6.87,0,0,1-2-.49l-.23-.08-.22-.07c-.87-.3-1.77-.6-2-1.12A1.91,1.91,0,0,1,207.4,76c.54-1.46,1-3,1.47-4.42a63.2,63.2,0,0,1,2.38-6.65,14,14,0,0,1,2.61-3.47c.39-.42.79-.86,1.18-1.31M214.71,59c-1.62,2-3.48,3.54-4.37,5.53-1.59,3.57-2.52,7.44-3.88,11.13-1,2.75,1,3.31,2.72,3.9a8.38,8.38,0,0,0,2.53.62c.91,0,1.7-.43,2.08-1.87,1.62-6,5.62-11.68,3.13-18.59Z"/><path class="cls-7" d="M177.79,46.66c-1.4,0-2.28-.36-2.38-2.18-.08-1.44-.2-2.89-.33-4.3a67.17,67.17,0,0,1-.38-7.69,13.06,13.06,0,0,1,1.19-4.28c.23-.58.47-1.18.68-1.79h1.84c3.17,3.76,3.29,8,3.43,12.59a39,39,0,0,0,.29,4.82,2.47,2.47,0,0,1-.34,1.9c-.54.67-1.7.77-2.83.86A10,10,0,0,1,177.79,46.66Z"/><path class="cls-7" d="M178.18,26.93c2.91,3.59,3,7.73,3.16,12.11a40,40,0,0,0,.29,4.87,2.06,2.06,0,0,1-.23,1.52c-.41.5-1.46.59-2.48.68h-.07c-.35,0-.72.06-1.06.06-1.21,0-1.8-.26-1.88-1.7s-.2-2.91-.33-4.32a66.8,66.8,0,0,1-.38-7.63,12.73,12.73,0,0,1,1.15-4.11c.19-.48.39-1,.57-1.47h1.25m.47-1h-2.43c-.73,2.27-1.94,4.39-2,6.55-.11,4,.5,8,.71,12,.12,2.23,1.42,2.65,2.87,2.65a7.26,7.26,0,0,0,1.14-.06c1.92-.16,4.06-.3,3.69-3.32-.73-6.06.66-12.54-4-17.86Z"/><path class="cls-7" d="M204.7,143.74a8.69,8.69,0,0,1-1.75-.26l-.33-.07c-1-.21-2.12-.44-2.58-1.14a2.13,2.13,0,0,1-.16-1.64c.2-.94.39-1.89.58-2.83a87,87,0,0,1,2.26-9.38,11.68,11.68,0,0,1,2.3-3.57c.39-.47.78-1,1.15-1.45l1.75.41.27,1a25.28,25.28,0,0,1,.63,2.45,8,8,0,0,1,.22,2.83c-.58,3.07-1.25,6.17-1.9,9.18l-.62,2.87C206.24,143.54,205.44,143.74,204.7,143.74Z"/><path class="cls-7" d="M206.4,124l.4.09.74.17.19.67c.24.84.47,1.63.62,2.4v.09a7.38,7.38,0,0,1,.2,2.55c-.58,3.07-1.25,6.18-1.9,9.18L206,142c-.23,1.06-.65,1.27-1.36,1.27A8.36,8.36,0,0,1,203,143h0l-.28-.06c-.9-.19-1.92-.4-2.26-.93a1.71,1.71,0,0,1-.09-1.27c.2-.94.39-1.89.58-2.83a86.52,86.52,0,0,1,2.25-9.33,11.35,11.35,0,0,1,2.21-3.4l1-1.21m-.41-1.12c-1.32,1.86-3.09,3.46-3.72,5.43a123.43,123.43,0,0,0-2.86,12.26c-.59,2.76,1.67,3.07,3.4,3.44a9.39,9.39,0,0,0,1.9.28,2.2,2.2,0,0,0,2.34-2.05h0c.86-4,1.76-8,2.52-12.06a8.38,8.38,0,0,0-.22-3c-.23-1.19-.62-2.35-1-3.73l-2.36-.55Z"/><path class="cls-7" d="M217.88,145.17a10.63,10.63,0,0,1-1.48-.15l-.71-.1c-1.77-.22-2.84-.45-2.62-2.34q.18-1.57.35-3.13c.33-3,.67-6.09,1.11-9.12a6.7,6.7,0,0,1,1-2.28l.31-.52c.34-.6.76-1.18,1.24-1.86l.61-.87,1.61.11c2.49,4.54,1.78,9.06,1,13.84-.24,1.54-.5,3.14-.62,4.71C219.59,144.88,218.89,145.17,217.88,145.17Z"/><path class="cls-7" d="M217.94,125.32l1.06.07c2.25,4.31,1.56,8.67.83,13.28-.25,1.55-.5,3.16-.63,4.75-.09,1.06-.48,1.24-1.32,1.24a10.27,10.27,0,0,1-1.41-.14h-.25l-.47-.06c-1.88-.23-2.34-.44-2.19-1.79q.18-1.55.35-3.11c.33-3,.67-6.11,1.11-9.13a6.38,6.38,0,0,1,.95-2.09l.31-.53c.33-.58.72-1.12,1.21-1.81l.45-.64m-.5-1a35.2,35.2,0,0,0-2,3,9.17,9.17,0,0,0-1.39,3c-.59,4.08-1,8.18-1.46,12.27-.31,2.72,1.87,2.72,3.52,3a13.21,13.21,0,0,0,1.8.19,2,2,0,0,0,2.32-2.15c.52-6.34,3-12.76-.59-19.07l-2.17-.15Z"/><path class="cls-7" d="M199.9,80.48a7.78,7.78,0,0,1-1.18-.1l-.69-.09c-1.8-.21-2.89-.44-2.7-2.35.09-.85.17-1.71.24-2.57a95.18,95.18,0,0,1,1.27-9.9,11.29,11.29,0,0,1,1.83-3.65c.36-.54.72-1.11,1.07-1.7l1.68.11c2.56,4.28,1.92,8.57,1.25,13.1a49,49,0,0,0-.59,5.18C202,79.89,201.36,80.48,199.9,80.48Z"/><path class="cls-7" d="M200,60.63h.31l.79,0c2.32,4.06,1.7,8.19,1,12.55a49.3,49.3,0,0,0-.59,5.23c0,1.11-.48,1.5-1.67,1.5a7.29,7.29,0,0,1-1.1-.1l-.71-.09c-1.93-.23-2.4-.43-2.26-1.81.09-.86.17-1.72.25-2.58a94.56,94.56,0,0,1,1.26-9.84A10.78,10.78,0,0,1,199,62.06c.31-.47.62-1,.92-1.46m-.55-1c-1.19,2.13-2.72,3.83-3.11,5.77-.83,4.11-1.1,8.33-1.52,12.52-.29,2.87,2.12,2.73,3.82,3a8.33,8.33,0,0,0,1.26.11c1.36,0,2.59-.49,2.67-2.46.26-6.24,3-12.58-.87-18.79Z"/><path class="cls-7" d="M224,83.28a7.14,7.14,0,0,1-1.33-.15c-3.12-.6-3.47-1.34-3.06-3.58.15-.81.29-1.62.42-2.44a50.56,50.56,0,0,1,1.48-6.85,33.08,33.08,0,0,1,2.4-5.26c.37-.71.75-1.44,1.12-2.18l2,.39c2.19,4.41,1.26,8.47.28,12.77a45.75,45.75,0,0,0-.94,4.95C226.09,83,225,83.28,224,83.28Z"/><path class="cls-7" d="M225.3,63.42l.67.13.67.13c2,4.17,1.08,8.08.13,12.21a46,46,0,0,0-.95,5c-.18,1.57-.8,1.88-1.82,1.88a6.66,6.66,0,0,1-1.24-.14c-3-.57-3-1.13-2.66-3,.15-.81.29-1.63.43-2.45A49.91,49.91,0,0,1,222,70.42a32.82,32.82,0,0,1,2.34-5.16c.31-.6.64-1.21,1-1.85m-.56-1.13c-1.34,2.77-2.85,5.19-3.69,7.83a77.51,77.51,0,0,0-1.92,9.35c-.5,2.68.26,3.55,3.46,4.16a7.69,7.69,0,0,0,1.42.15c1.5,0,2.57-.67,2.81-2.76.68-6,3.82-11.79.5-18.21l-2.57-.52Z"/><path class="cls-7" d="M174.08,77.68a7.25,7.25,0,0,1-2.05-.46l-.67-.21c-.9-.27-1.83-.55-2.17-1.2a2.12,2.12,0,0,1,0-1.62c.52-1.65,1-3.32,1.5-5,.64-2.16,1.3-4.39,2-6.56a5.73,5.73,0,0,1,1.66-2.5,8.18,8.18,0,0,1,2.1-1.11c.36-.15.71-.3,1.05-.46l.49-.24-.37-.62.6.19c1.87,4.78.43,9-1.1,13.39-.54,1.58-1.11,3.21-1.5,4.85C175.35,77.5,174.68,77.68,174.08,77.68Z"/><path class="cls-7" d="M178.07,58.88c1.36,4.3,0,8.17-1.38,12.26a51.19,51.19,0,0,0-1.51,4.9c-.27,1.15-.75,1.15-1.1,1.15a6.93,6.93,0,0,1-1.9-.43l-.32-.1-.36-.11c-.76-.23-1.63-.49-1.87-1a1.81,1.81,0,0,1,.05-1.24c.52-1.66,1-3.36,1.51-5,.64-2.15,1.29-4.38,2-6.53a5.2,5.2,0,0,1,1.51-2.27,7.85,7.85,0,0,1,2-1c.36-.15.73-.3,1.08-.47l.32-.15m-1.52-2,.76,1.27a15.48,15.48,0,0,0-3.26,1.64,6.21,6.21,0,0,0-1.82,2.72c-1.26,3.8-2.33,7.68-3.54,11.48-.83,2.65,1.23,3.05,2.83,3.56a9,9,0,0,0,2.52.58c.93,0,1.73-.43,2.08-1.92,1.44-6.12,5.3-11.9,2.48-18.76l-2.08-.64Z"/><path class="cls-7" d="M183.41,110a9.28,9.28,0,0,1-1.8-.26h-.13c-1.12-.23-2.26-.47-2.72-1.21a2.5,2.5,0,0,1-.07-2c.39-1.46.67-3,.94-4.42A42.65,42.65,0,0,1,181,96.44a25.23,25.23,0,0,1,2.49-4.9c.39-.64.77-1.29,1.14-2l2,.45c2,4.48.93,8.66-.16,13.08a41.44,41.44,0,0,0-1,4.86C185.27,109.57,184.27,110,183.41,110Z"/><path class="cls-7" d="M184.85,90.15l1.06.24.31.07c1.76,4.24.77,8.27-.29,12.52-.4,1.6-.8,3.25-1.05,4.91-.22,1.47-.82,1.59-1.47,1.59a8.93,8.93,0,0,1-1.7-.25h-.14c-1-.2-2-.42-2.38-1a2.09,2.09,0,0,1,0-1.58c.4-1.48.68-3,1-4.46a41.67,41.67,0,0,1,1.3-5.59,24.94,24.94,0,0,1,2.45-4.81c.32-.53.65-1.08,1-1.64m-.6-1.15c-1.35,2.48-3,4.74-3.86,7.27-1.09,3.26-1.37,6.77-2.27,10.11-.8,3,1.33,3.42,3.17,3.8a10.39,10.39,0,0,0,2,.29c1.16,0,2.16-.49,2.45-2.44.92-6.09,4-12,1.06-18.44Z"/><path class="cls-7" d="M228,52.35h-1c-1.54-.11-2.48-.42-2.95-1a2.62,2.62,0,0,1-.39-2c.1-1,.19-1.9.27-2.86a50.18,50.18,0,0,1,.91-6.83,31.69,31.69,0,0,1,2-5.41c.32-.73.64-1.48.95-2.25l2,.21c2.45,4.36,1.84,8.61,1.19,13.11-.23,1.6-.47,3.25-.54,4.89C230.31,52,229.46,52.35,228,52.35Z"/><path class="cls-7" d="M228.05,32.47l.51,0,.89.09c2.22,4.14,1.63,8.24,1,12.57-.23,1.61-.47,3.28-.55,4.93-.07,1.49-.62,1.73-1.89,1.73h-1a3.89,3.89,0,0,1-2.6-.81,2.22,2.22,0,0,1-.27-1.66c.1-1,.19-1.91.27-2.87a49.81,49.81,0,0,1,.9-6.76,31.31,31.31,0,0,1,1.94-5.32c.27-.62.54-1.26.81-1.91m-.65-1.07c-1.12,2.84-2.46,5.38-3.08,8.08a85.33,85.33,0,0,0-1.19,9.74c-.26,2.34.75,3.36,3.79,3.58H228c1.5,0,2.78-.41,2.89-2.68.29-6.11,2.8-12.25-.84-18.49l-2.66-.28Z"/><path class="cls-7" d="M180.6,140.88a11.94,11.94,0,0,1-1.32-.1l-.62-.07a3.66,3.66,0,0,1-2.54-.91,2.41,2.41,0,0,1-.26-1.92c.29-1.61.45-3.27.6-4.86.1-1.07.21-2.15.35-3.21.06-.47.11-.94.15-1.42.21-2.24.41-4.36,2.45-5.83a2.56,2.56,0,0,0,.75-1.64,2.37,2.37,0,0,1,.11-.5l1.69.28c2.55,4.39,1.9,8.64,1.22,13.13-.24,1.59-.49,3.24-.58,4.87C182.51,140.51,181.77,140.88,180.6,140.88Z"/><path class="cls-7" d="M180.65,121l.69.11.3.05c2.32,4.17,1.7,8.27,1,12.6-.24,1.61-.49,3.27-.58,4.92s-.65,1.72-1.51,1.72a11.57,11.57,0,0,1-1.27-.1l-.63-.07a3.39,3.39,0,0,1-2.19-.72,2,2,0,0,1-.16-1.53c.29-1.63.45-3.29.61-4.9.1-1.05.21-2.14.35-3.2.06-.48.11-1,.15-1.44.21-2.22.39-4.13,2.24-5.47a3,3,0,0,0,.94-1.94h0m-.75-1.14c-.31,1-.31,2-.79,2.31-2.67,1.94-2.44,4.87-2.8,7.59s-.48,5.4-.95,8.06,1.36,3.25,3.25,3.42c.64.06,1.34.17,2,.17,1.29,0,2.39-.45,2.5-2.67.32-6.09,2.93-12.21-.83-18.49l-2.37-.39Z"/><path class="cls-7" d="M203.42,49.54a10.09,10.09,0,0,1-1.31-.11h-.38c-1-.13-2.13-.27-2.64-.93a2.38,2.38,0,0,1-.3-1.81c.17-1.3.3-2.64.42-3.92a54.68,54.68,0,0,1,.93-6.89,20.32,20.32,0,0,1,2-4.72c.33-.65.67-1.3,1-2l1.93.16c2.41,4.33,1.79,8.62,1.13,13.16-.23,1.62-.48,3.29-.56,4.94C205.5,49.28,204.49,49.54,203.42,49.54Z"/><path class="cls-7" d="M203.4,29.67l1.31.11c2.18,4.11,1.58,8.25.95,12.62-.24,1.63-.48,3.31-.57,5-.07,1.4-.62,1.66-1.68,1.66a9.63,9.63,0,0,1-1.24-.1h-.38c-.95-.12-1.93-.24-2.31-.74a2,2,0,0,1-.2-1.44c.18-1.32.3-2.65.42-4a54.43,54.43,0,0,1,.92-6.82,20,20,0,0,1,1.93-4.61c.28-.54.57-1.1.84-1.67m-.61-1c-1.13,2.48-2.6,4.69-3.14,7.11-.79,3.54-.88,7.24-1.36,10.86-.4,3,1.9,3.1,3.75,3.35a10.48,10.48,0,0,0,1.38.11c1.37,0,2.57-.48,2.68-2.61.32-6.18,2.82-12.42-.77-18.61Z"/><path class="cls-7" d="M215.15,51a7.66,7.66,0,0,1-1.76-.3l-.71-.17c-.92-.21-2-.45-2.37-1.13a2.29,2.29,0,0,1,0-1.77c.47-1.67.88-3.38,1.27-5,.48-2,1-4.07,1.57-6.06A8.63,8.63,0,0,1,214.59,34l.74-1c.37-.55.76-1.07,1.19-1.64l.45-.6,1.7.35c1.85,4.7.65,8.94-.62,13.43-.44,1.56-.9,3.18-1.21,4.8S215.83,51,215.15,51Z"/><path class="cls-7" d="M217.18,31.26l1.12.23c1.65,4.45.49,8.54-.73,12.86-.45,1.57-.91,3.2-1.22,4.84-.24,1.28-.8,1.28-1.2,1.28a7.29,7.29,0,0,1-1.64-.29l-.41-.1-.31-.07c-.82-.19-1.76-.4-2-.89a2,2,0,0,1,0-1.38c.47-1.68.88-3.39,1.27-5,.48-2,1-4.06,1.57-6A8.3,8.3,0,0,1,215,34.28l.75-1c.36-.53.75-1.06,1.17-1.63l.26-.35m-.42-1.11c-.68.93-1.29,1.71-1.84,2.53a15.16,15.16,0,0,0-2.28,3.67c-1.1,3.66-1.82,7.43-2.85,11.11-.8,2.88,1.43,3.2,3.09,3.59a10.34,10.34,0,0,0,2.28.42c1,0,1.87-.44,2.19-2.09,1.16-6.14,4.48-12.06,1.7-18.75l-2.28-.47Z"/><path class="cls-7" d="M190.55,48.1a9.82,9.82,0,0,1-1.62-.19l-.48-.08A3.49,3.49,0,0,1,186,46.71a2.43,2.43,0,0,1-.19-1.94c.38-1.71.72-3.43,1.07-5.14.42-2.1.85-4.27,1.35-6.38a7.59,7.59,0,0,1,1.32-2.42l.21-.3a22.73,22.73,0,0,1,1.51-1.86l.73-.84,1.47.29c2.1,4.5,1.09,8.72,0,13.19-.38,1.6-.78,3.26-1,4.91S191.4,48.1,190.55,48.1Z"/><path class="cls-7" d="M192.15,28.37h.11l.81.16c1.89,4.26.92,8.33-.11,12.63a48.59,48.59,0,0,0-1,5c-.19,1.35-.72,1.46-1.41,1.46a9.52,9.52,0,0,1-1.53-.19l-.49-.08a3.19,3.19,0,0,1-2.15-.91,2,2,0,0,1-.11-1.55c.38-1.72.73-3.47,1.07-5.16.42-2.09.85-4.25,1.35-6.36a7.25,7.25,0,0,1,1.23-2.24l.21-.3A22.29,22.29,0,0,1,191.62,29l.54-.62m-.38-1.1a36.7,36.7,0,0,0-2.46,3,9.12,9.12,0,0,0-1.6,2.88c-.9,3.82-1.57,7.7-2.42,11.53-.59,2.66,1.16,3.36,3.08,3.67a14.38,14.38,0,0,0,2.18.28c1.15,0,2.14-.45,2.4-2.32.85-6.14,4-12.15.83-18.6l-2-.4Z"/><path class="cls-7" d="M222.09,113.48a8.44,8.44,0,0,1-1.95-.3c-1.4-.34-2.13-.71-2.45-1.25s-.31-1.32,0-2.66c.24-1,.46-2,.68-3a48.78,48.78,0,0,1,1.83-6.72A23.05,23.05,0,0,1,222.84,95c.4-.59.8-1.19,1.18-1.8l1.91.43c1.86,4.67.65,8.85-.63,13.27-.39,1.35-.8,2.75-1.1,4.14C223.78,113.1,223.15,113.48,222.09,113.48Z"/><path class="cls-7" d="M224.26,93.79l1.19.27h.12c1.66,4.41.49,8.44-.74,12.7-.39,1.36-.8,2.77-1.1,4.18-.43,2-1,2-1.64,2a8.11,8.11,0,0,1-1.83-.28c-1.22-.3-1.9-.62-2.14-1a3.36,3.36,0,0,1,.08-2.28c.25-1,.47-2,.68-3a48.58,48.58,0,0,1,1.81-6.65,22.69,22.69,0,0,1,2.56-4.48c.33-.49.67-1,1-1.51m-.47-1.13c-1.4,2.29-3.12,4.37-4,6.77a85.81,85.81,0,0,0-2.53,9.73c-.71,2.84-.11,3.8,2.79,4.51a9,9,0,0,0,2.06.31c1.51,0,2.19-.8,2.62-2.8,1.26-5.84,4.3-11.5,1.6-18l-2.52-.57Z"/><path class="cls-7" d="M220.34,149.67l-7.81-.87q-8.61-1-17.23-1.93c-9.92-1.13-21.45-2.46-32.93-3.86a2.48,2.48,0,0,1-1-.64,3.11,3.11,0,0,1,1.14-.36c18.58,2.07,37.74,4.26,57,6.52a2.49,2.49,0,0,1,1.65.93,2,2,0,0,1-.16.9Z"/><path class="cls-7" d="M162.48,141.52v1c18.53,2.07,37.69,4.26,56.95,6.52l.29.06-7.2-.8q-8.6-1-17.2-1.93c-12.27-1.4-22.56-2.59-32.92-3.86h0v-1m0,0a7.75,7.75,0,0,0-2.11.73c.65.44,1.26,1.18,1.95,1.27q16.46,2,32.93,3.86c8.28.95,16.57,1.85,24.85,2.78l1.15,1.21c.15-.73.64-1.65.36-2.13a3,3,0,0,0-2-1.18q-28.47-3.33-57-6.52Z"/><path class="cls-7" d="M171.33,50.13l-.13-.37.28-.14a2.91,2.91,0,0,1,1.09-.4c9.28,1,18.64,2,27.69,3.07l3.4.39c8.59,1,17.47,2,26.19,3a4.1,4.1,0,0,1,1.47.65l.4.23-.14.37Z"/><path class="cls-7" d="M172.57,48.72v1c9.23,1,18.6,2,27.67,3.07l1.36.15,2,.23c8.58,1,17.46,2,26.18,3a1.45,1.45,0,0,1,.35.09l-41-4.66-16.7-1.9h.15v-1m0,0a6.78,6.78,0,0,0-2,.76l.39,1.11,61,6.92.42-1.15A8.59,8.59,0,0,0,230,55.19c-9.39-1.14-18.79-2.2-28.19-3.26-9.68-1.1-19.36-2.2-29-3.22Z"/><path class="cls-7" d="M226.37,87.72c-2.55-.21-5.13-.52-7.63-.82L216,86.59l-8.72-1c-11.33-1.29-23-2.63-34.56-4a7.62,7.62,0,0,1-2.17-.75l-.63-.28.12-.31,5.57.6q6.5.71,13,1.43l25.42,2.93,11.71,1.35h.41l1.33.83a3,3,0,0,1-1.08.31Z"/><path class="cls-7" d="M172.32,81l3.24.35c4.28.46,8.7.94,13,1.43l25.52,2.94,11.61,1.34H226l.21.13c-2.49-.21-5-.51-7.47-.8l-2.7-.32-8.77-1c-11.31-1.29-23-2.62-34.51-4a3.42,3.42,0,0,1-.51-.1m-2.55-1.28-.44,1.13a15.28,15.28,0,0,0,3.39,1.25c14.42,1.71,28.85,3.34,43.28,5,3.44.39,6.88.84,10.34,1.13h.13a8,8,0,0,0,2.17-.71c-.74-.47-1.47-.94-2.22-1.39a.49.49,0,0,0-.25,0h-.31l-37.14-4.28c-6.32-.72-12.64-1.38-19-2.07Z"/><path class="cls-7" d="M223.19,118.68c-8.07-.88-16.26-1.82-24.19-2.73l-29.12-3.33c-.67-.08-1.34-.18-2-.28l-.57-.08v-.1l.57-.22a4.77,4.77,0,0,1,1.61-.45h.16c12.24,1.35,24.68,2.78,36.71,4.16l9.34,1.07L218,117c1.73.18,3.51.36,5.24.65a2.68,2.68,0,0,1,1.06.7,2.65,2.65,0,0,1-1,.35Z"/><path class="cls-7" d="M169.46,112h.1c12.22,1.35,24.64,2.78,36.66,4.16l9.4,1.08,2.28.24c1.72.18,3.49.36,5.2.65l.15.06h0c-8-.87-16.18-1.81-24.07-2.72l-6.63-.76-9.14-1-13.47-1.54-.79-.1a1.61,1.61,0,0,1,.32,0m0-1a11.13,11.13,0,0,0-2.74.82l.14.89c1,.14,2,.31,3,.42l22.61,2.58c10.23,1.17,20.47,2.36,30.71,3.48h.12a6.61,6.61,0,0,0,1.92-.73c-.63-.46-1.22-1.21-1.91-1.32-2.49-.41-5-.61-7.53-.9-15.35-1.76-30.7-3.55-46.06-5.24Z"/><path class="cls-7" d="M175.87,90.32a2.46,2.46,0,0,1-2.26-1.17,2.21,2.21,0,0,1,0-1.34,2.89,2.89,0,0,1,.79-1.58,4.1,4.1,0,0,1,1.94-.43,3.2,3.2,0,0,1,1.76.42,4.84,4.84,0,0,1,1.17,2.48c.11.37.22.74.34,1.12-.6.06-1.17.16-1.73.25A12.64,12.64,0,0,1,175.87,90.32Z"/><path class="cls-7" d="M176.35,86.3h0a2.7,2.7,0,0,1,1.47.33,4.83,4.83,0,0,1,1,2.22l.16.56-1.16.18a12.35,12.35,0,0,1-1.93.23A2,2,0,0,1,174,88.9a3.59,3.59,0,0,1,.62-2.24,3.65,3.65,0,0,1,1.69-.36m0-1a4.61,4.61,0,0,0-2.19.49c-.81.47-1.47,2.9-1,3.64a3,3,0,0,0,2.68,1.39c1.29,0,2.8-.47,4.44-.54-.7-1.79-.88-3.72-1.91-4.47a3.66,3.66,0,0,0-2.05-.52Z"/><path class="cls-7" d="M286.62,20.52A8.13,8.13,0,0,0,283,14.68a5.09,5.09,0,0,1,2.85,2.52A5.29,5.29,0,0,1,286.62,20.52Z"/><path class="cls-7" d="M281.26,13.91h-.46c3.85,1.92,5.93,4.77,5.25,9.31a5.55,5.55,0,0,0,.27-6.28,5.46,5.46,0,0,0-5.06-3Z"/><path class="cls-7" d="M134.83,99.31a12.45,12.45,0,0,1-1.77-1.8c.17-.23.54-.62.83-.93l.58-.63,1.78,1.86-1,1.87Z"/><path class="cls-7" d="M134.47,96.68l1.1,1.15.06.06-.53,1a14.91,14.91,0,0,1-1.4-1.37l.55-.6.22-.24m0-1.47c-.85,1-2.1,2.15-2,2.37a19.08,19.08,0,0,0,2.89,2.91l1.47-2.76-2.4-2.52Z"/><path class="cls-7" d="M283.07,20.32a5.38,5.38,0,0,0-2-2.7,2.51,2.51,0,0,1,1.49,1A3,3,0,0,1,283.07,20.32Z"/><path class="cls-7" d="M280,17a6.7,6.7,0,0,0-1.1.1c2.94,1,4,3.06,4,5.89,1.47-3.47.16-6-2.94-6Z"/><path class="cls-7" d="M155,7.68c.11-.26.22-.53.32-.79a4.46,4.46,0,0,1,1.16-2,3.7,3.7,0,0,1,1.28-.56A5.78,5.78,0,0,0,155,7.74Z"/><path class="cls-7" d="M159.41,3.64a5.59,5.59,0,0,0-3.26.83c-.93.66-1.24,2.21-1.82,3.36l1,.75c.62-3.07,2.71-4.21,5.36-4.87-.44,0-.88-.07-1.31-.07Z"/><path class="cls-7" d="M259.81,222.35a5.34,5.34,0,0,0,1.83-4.31,4.58,4.58,0,0,1,.21,1.61A3,3,0,0,1,259.81,222.35Z"/><path class="cls-7" d="M261.83,216.7h-1.07c1.28,3-.66,4.64-2.45,6.45,2.36-.19,3.79-1.29,4-3.46a10.77,10.77,0,0,0-.52-3Z"/><path class="cls-7" d="M236,139.29l2.15-18.72L259.31,123l-2.11,18.75Zm2.46-2.25,5.47.32,1.52-13.26-5.47-.83Z"/><path class="cls-7" d="M238.61,121.13l10.47,1.18,9.67,1.09-1.27,11.26-.73,6.49-12.35-1.41-7.82-.89.73-6.33,1.31-11.4m5.78,16.77.11-.94.51-4.46.9-7.86.11-1-1-.14-.79-.12-3.68-.56-1-.16-.11,1L238,136.47l-.12,1,1.05.06,4.47.26.94.06M237.73,120l-2.26,19.71,22.17,2.53,2.23-19.74Zm5.77,16.82-4.47-.26,1.4-12.73,4.48.68-1.41,12.31Z"/><path class="cls-7" d="M158.88,185l1.73-15.29,54.29,6.17-1.71,15.27Zm1.18-1,52.15,6,1.44-13.12L161.58,171Z"/><path class="cls-7" d="M161,170.27l16,1.82,37.25,4.23-.66,5.88-.94,8.39-12.43-1.41-40.88-4.63.76-6.74.85-7.56m51.61,20.24.11-1L214,177.36l.11-1-1-.11L162,170.44l-1-.11-.12,1-.7,6-.71,6.11-.12,1,1,.11L181.81,187l29.84,3.39,1,.11m-52.49-21.35-1.84,16.29,55.3,6.26,1.82-16.27-55.28-6.28Zm51.61,20.24-51.16-5.81L162,171.47l51.08,5.81-1.33,12.13Z"/><polygon class="cls-7" points="245.13 59.63 245.55 55.79 266.6 58.18 266.28 62.01 245.13 59.63"/><path class="cls-7" d="M246,56.34l2.47.28,17.59,2-.14,1.76-.09,1.07-8.62-1-11.53-1.3.11-1,.21-1.88m-.88-1.11L244.59,60l22.17,2.49.39-4.82-22-2.5Z"/><polygon class="cls-7" points="249.41 95.6 249.98 91.06 254.46 91.61 253.9 95.99 249.41 95.6"/><path class="cls-7" d="M250.42,91.62l3.48.43-.15,1.17-.28,2.24h-.36L250,95.15l.45-3.53m-.87-1.11-.71,5.55,5.49.48.68-5.36-5.46-.67Z"/><polygon class="cls-7" points="241.15 94.57 241.63 90.13 246.07 90.63 245.63 95.17 241.15 94.57"/><path class="cls-7" d="M242.07,90.69l1.32.15,2.13.24-.19,2-.15,1.56-1.53-.21-1.95-.26.37-3.45m-.89-1.11L240.61,95l5.47.74.54-5.54-5.43-.61Z"/><polygon class="cls-7" points="242.07 86.27 242.61 81.84 247.1 82.3 246.53 86.82 242.07 86.27"/><path class="cls-7" d="M243,82.39h.27l3.22.33-.21,1.65-.23,1.86-3-.37-.45-.05.42-3.44m-.87-1.09-.66,5.41,5.46.66.7-5.51-5.49-.56Z"/><polygon class="cls-7" points="256.79 104.79 257.36 100.4 261.81 100.82 261.29 105.36 256.79 104.79"/><path class="cls-7" d="M257.79,100.94l3.46.33-.26,2.26-.15,1.27-2.69-.34-.81-.1.1-.74.34-2.67m-.87-1.09-.69,5.37,5.5.69.63-5.55Z"/><polygon class="cls-7" points="258.74 88.22 259.2 83.74 263.65 84.19 263.21 88.65 258.74 88.22"/><path class="cls-7" d="M259.65,84.29l3.46.35-.34,3.46-2.43-.23-1-.1.24-2.3.12-1.18m-.89-1.1-.56,5.48,5.47.52.53-5.45Z"/><polygon class="cls-7" points="250.52 87.25 250.83 82.7 255.35 83.3 254.93 87.73 250.52 87.25"/><path class="cls-7" d="M251.29,83.26l.85.11,2.66.36-.2,2.16-.12,1.29-3.43-.37.16-2.46.07-1.08m-.93-1.13L250,87.7l5.39.59.51-5.42-5.53-.74Z"/><polygon class="cls-7" points="259.67 79.87 260.19 75.39 264.68 75.9 264.12 80.35 259.67 79.87"/><path class="cls-7" d="M260.63,75.94l.66.08,2.83.32-.44,3.46-3.46-.37.4-3.49m-.88-1.11-.64,5.48,5.44.59.69-5.44Z"/><polygon class="cls-7" points="248.52 103.91 248.99 99.51 253.53 99.81 252.97 104.33 248.52 103.91"/><path class="cls-7" d="M249.43,100l1.71.12,1.82.12-.23,1.87-.2,1.63-1.92-.18-1.53-.15.27-2.58.09-.84m-.9-1-.57,5.38,5.43.52.69-5.52Z"/><polygon class="cls-7" points="240.28 102.95 240.6 98.49 245.14 98.93 244.69 103.43 240.28 102.95"/><path class="cls-7" d="M241.07,99l1.51.15,2,.19-.23,2.29-.12,1.21-3.42-.37L241,100l.07-1M240.13,98l-.39,5.45,5.39.59.55-5.5-5.54-.54Z"/><polygon class="cls-7" points="257.73 96.56 258.29 92.12 262.72 92.5 262.31 96.91 257.73 96.56"/><path class="cls-7" d="M258.72,92.66H259l3.21.28-.32,3.41h-.61l-3-.22.43-3.42h0m-.87-1.08L257.16,97l5.6.42.51-5.39-5.42-.46Z"/><polygon class="cls-7" points="251.35 78.89 251.84 74.49 256.27 74.89 255.87 79.42 251.35 78.89"/><path class="cls-7" d="M252.28,75l3.44.31-.31,3.52-3.51-.41.38-3.42m-.88-1-.59,5.38,5.52.65.49-5.55Z"/><polygon class="cls-7" points="243.14 78.08 243.45 73.61 247.95 73.91 247.54 78.34 243.14 78.08"/><path class="cls-7" d="M243.91,74.14l1,.06,2.53.17-.32,3.44-2.24-.13-1.18-.07.14-2,.1-1.49m-.94-1-.38,5.47,5.39.32.5-5.42Z"/><polygon class="cls-7" points="239.59 136.11 240.88 124.42 244.36 124.95 243.06 136.32 239.59 136.11"/><path class="cls-7" d="M241.32,125l2.49.38-.87,7.57-.33,2.84-1.33-.08-1.15-.07L241.32,125m-.88-1.15L239,136.58l4.47.26,1.41-12.31-4.48-.68Z"/><polygon class="cls-7" points="161.16 183.16 162.46 172.03 212.55 177.72 211.32 188.86 161.16 183.16"/><path class="cls-7" d="M162.9,172.58l49.1,5.58-1.11,10.14-39.1-4.44-10.07-1.14.58-5,.6-5.16m-.88-1.11-1.42,12.13,51.16,5.81,1.33-12.13L162,171.47Z"/></g></g><circle class="cls-8" cx="138.92" cy="126.51" r="111.25"/></g></g></g></g></svg>